<svg width="82" height="82" viewBox="0 0 82 82" fill="none" xmlns="http://www.w3.org/2000/svg">
<path d="M76.875 37.5833H75.1667V5.125C75.1667 3.76577 74.6267 2.4622 73.6656 1.50108C72.7045 0.539954 71.4009 0 70.0417 0L5.125 0C3.76577 0 2.4622 0.539954 1.50108 1.50108C0.539954 2.4622 0 3.76577 0 5.125L0 49.5417C0 50.9009 0.539954 52.2045 1.50108 53.1656C2.4622 54.1267 3.76577 54.6667 5.125 54.6667H22.2083V68.3333H20.5C20.0469 68.3333 19.6124 68.5133 19.292 68.8337C18.9717 69.1541 18.7917 69.5886 18.7917 70.0417C18.7917 70.4947 18.9717 70.9293 19.292 71.2496C19.6124 71.57 20.0469 71.75 20.5 71.75H44.4167V76.875C44.4167 78.2342 44.9566 79.5378 45.9177 80.4989C46.8789 81.46 48.1824 82 49.5417 82H76.875C78.2342 82 79.5378 81.46 80.4989 80.4989C81.46 79.5378 82 78.2342 82 76.875V42.7083C82 41.3491 81.46 40.0455 80.4989 39.0844C79.5378 38.1233 78.2342 37.5833 76.875 37.5833ZM3.41667 5.125C3.41667 4.67192 3.59665 4.2374 3.91703 3.91703C4.2374 3.59665 4.67192 3.41667 5.125 3.41667H70.0417C70.4947 3.41667 70.9293 3.59665 71.2496 3.91703C71.57 4.2374 71.75 4.67192 71.75 5.125V37.5833H49.5417C48.4843 37.5863 47.4537 37.9163 46.5913 38.5279C45.7288 39.1396 45.0766 40.0031 44.7242 41H3.41667V5.125ZM3.41667 49.5417V44.4167H44.4167V51.25H5.125C4.67192 51.25 4.2374 51.07 3.91703 50.7496C3.59665 50.4293 3.41667 49.9947 3.41667 49.5417ZM25.625 68.3333V54.6667H44.4167V68.3333H25.625ZM78.5833 76.875C78.5833 77.3281 78.4034 77.7626 78.083 78.083C77.7626 78.4034 77.3281 78.5833 76.875 78.5833H49.5417C49.0886 78.5833 48.6541 78.4034 48.3337 78.083C48.0133 77.7626 47.8333 77.3281 47.8333 76.875V42.7083C47.8333 42.2553 48.0133 41.8207 48.3337 41.5004C48.6541 41.18 49.0886 41 49.5417 41H76.875C77.3281 41 77.7626 41.18 78.083 41.5004C78.4034 41.8207 78.5833 42.2553 78.5833 42.7083V76.875Z" fill="black"/>
<path d="M73.4583 44.4165H52.9583C52.5053 44.4165 52.0707 44.5965 51.7504 44.9169C51.43 45.2372 51.25 45.6718 51.25 46.1248V52.9582C51.25 53.4112 51.43 53.8458 51.7504 54.1661C52.0707 54.4865 52.5053 54.6665 52.9583 54.6665H73.4583C73.9114 54.6665 74.3459 54.4865 74.6663 54.1661C74.9867 53.8458 75.1667 53.4112 75.1667 52.9582V46.1248C75.1667 45.6718 74.9867 45.2372 74.6663 44.9169C74.3459 44.5965 73.9114 44.4165 73.4583 44.4165ZM71.75 51.2498H54.6667V47.8332H71.75V51.2498Z" fill="black"/>
<path d="M56.375 58.0835H52.9583C52.5053 58.0835 52.0707 58.2635 51.7504 58.5839C51.43 58.9042 51.25 59.3388 51.25 59.7918C51.25 60.2449 51.43 60.6794 51.7504 60.9998C52.0707 61.3202 52.5053 61.5002 52.9583 61.5002H56.375C56.8281 61.5002 57.2626 61.3202 57.583 60.9998C57.9034 60.6794 58.0833 60.2449 58.0833 59.7918C58.0833 59.3388 57.9034 58.9042 57.583 58.5839C57.2626 58.2635 56.8281 58.0835 56.375 58.0835Z" fill="black"/>
<path d="M64.918 58.0835H61.5013C61.0482 58.0835 60.6137 58.2635 60.2933 58.5839C59.973 58.9042 59.793 59.3388 59.793 59.7918C59.793 60.2449 59.973 60.6794 60.2933 60.9998C60.6137 61.3202 61.0482 61.5002 61.5013 61.5002H64.918C65.371 61.5002 65.8056 61.3202 66.1259 60.9998C66.4463 60.6794 66.6263 60.2449 66.6263 59.7918C66.6263 59.3388 66.4463 58.9042 66.1259 58.5839C65.8056 58.2635 65.371 58.0835 64.918 58.0835Z" fill="black"/>
<path d="M73.457 58.0835H70.0404C69.5873 58.0835 69.1528 58.2635 68.8324 58.5839C68.512 58.9042 68.332 59.3388 68.332 59.7918C68.332 60.2449 68.512 60.6794 68.8324 60.9998C69.1528 61.3202 69.5873 61.5002 70.0404 61.5002H73.457C73.9101 61.5002 74.3446 61.3202 74.665 60.9998C74.9854 60.6794 75.1654 60.2449 75.1654 59.7918C75.1654 59.3388 74.9854 58.9042 74.665 58.5839C74.3446 58.2635 73.9101 58.0835 73.457 58.0835Z" fill="black"/>
<path d="M56.375 64.9165H52.9583C52.5053 64.9165 52.0707 65.0965 51.7504 65.4169C51.43 65.7372 51.25 66.1718 51.25 66.6248C51.25 67.0779 51.43 67.5124 51.7504 67.8328C52.0707 68.1532 52.5053 68.3332 52.9583 68.3332H56.375C56.8281 68.3332 57.2626 68.1532 57.583 67.8328C57.9034 67.5124 58.0833 67.0779 58.0833 66.6248C58.0833 66.1718 57.9034 65.7372 57.583 65.4169C57.2626 65.0965 56.8281 64.9165 56.375 64.9165Z" fill="black"/>
<path d="M64.918 64.9165H61.5013C61.0482 64.9165 60.6137 65.0965 60.2933 65.4169C59.973 65.7372 59.793 66.1718 59.793 66.6248C59.793 67.0779 59.973 67.5124 60.2933 67.8328C60.6137 68.1532 61.0482 68.3332 61.5013 68.3332H64.918C65.371 68.3332 65.8056 68.1532 66.1259 67.8328C66.4463 67.5124 66.6263 67.0779 66.6263 66.6248C66.6263 66.1718 66.4463 65.7372 66.1259 65.4169C65.8056 65.0965 65.371 64.9165 64.918 64.9165Z" fill="black"/>
<path d="M56.375 71.75H52.9583C52.5053 71.75 52.0707 71.93 51.7504 72.2504C51.43 72.5707 51.25 73.0053 51.25 73.4583C51.25 73.9114 51.43 74.3459 51.7504 74.6663C52.0707 74.9867 52.5053 75.1667 52.9583 75.1667H56.375C56.8281 75.1667 57.2626 74.9867 57.583 74.6663C57.9034 74.3459 58.0833 73.9114 58.0833 73.4583C58.0833 73.0053 57.9034 72.5707 57.583 72.2504C57.2626 71.93 56.8281 71.75 56.375 71.75Z" fill="black"/>
<path d="M64.918 71.75H61.5013C61.0482 71.75 60.6137 71.93 60.2933 72.2504C59.973 72.5707 59.793 73.0053 59.793 73.4583C59.793 73.9114 59.973 74.3459 60.2933 74.6663C60.6137 74.9867 61.0482 75.1667 61.5013 75.1667H64.918C65.371 75.1667 65.8056 74.9867 66.1259 74.6663C66.4463 74.3459 66.6263 73.9114 66.6263 73.4583C66.6263 73.0053 66.4463 72.5707 66.1259 72.2504C65.8056 71.93 65.371 71.75 64.918 71.75Z" fill="black"/>
<path d="M73.457 64.9165H70.0404C69.0969 64.9165 68.332 65.6814 68.332 66.6248V73.4582C68.332 74.4017 69.0969 75.1665 70.0404 75.1665H73.457C74.4005 75.1665 75.1654 74.4017 75.1654 73.4582V66.6248C75.1654 65.6814 74.4005 64.9165 73.457 64.9165Z" fill="black"/>
<path d="M39.2904 30.7502V30.4427C40.4202 30.0327 41.37 29.2387 41.9738 28.1994C42.5775 27.1601 42.7968 25.9417 42.5933 24.7571C42.3897 23.5726 41.7763 22.4972 40.8603 21.7191C39.9443 20.9409 38.7839 20.5095 37.582 20.5002C37.2442 20.5002 36.9139 20.4 36.6329 20.2123C36.352 20.0245 36.133 19.7577 36.0037 19.4456C35.8744 19.1334 35.8406 18.7899 35.9065 18.4586C35.9724 18.1272 36.1351 17.8228 36.3741 17.5839C36.613 17.3449 36.9174 17.1822 37.2488 17.1163C37.5801 17.0504 37.9236 17.0842 38.2358 17.2135C38.5479 17.3428 38.8147 17.5618 39.0025 17.8427C39.1902 18.1237 39.2904 18.454 39.2904 18.7918C39.2904 19.2449 39.4703 19.6794 39.7907 19.9998C40.1111 20.3202 40.5456 20.5002 40.9987 20.5002C41.4518 20.5002 41.8863 20.3202 42.2067 19.9998C42.527 19.6794 42.707 19.2449 42.707 18.7918C42.7041 17.7345 42.3741 16.7039 41.7624 15.8414C41.1507 14.9789 40.2873 14.3268 39.2904 13.9743V13.6668C39.2904 13.2138 39.1104 12.7792 38.79 12.4589C38.4696 12.1385 38.0351 11.9585 37.582 11.9585C37.129 11.9585 36.6944 12.1385 36.3741 12.4589C36.0537 12.7792 35.8737 13.2138 35.8737 13.6668V13.9743C34.7439 14.3843 33.794 15.1783 33.1903 16.2176C32.5865 17.2569 32.3673 18.4753 32.5708 19.6599C32.7743 20.8444 33.3877 21.9198 34.3038 22.6979C35.2198 23.4761 36.3801 23.9075 37.582 23.9168C37.9199 23.9168 38.2502 24.017 38.5311 24.2047C38.8121 24.3925 39.031 24.6593 39.1603 24.9714C39.2896 25.2836 39.3235 25.6271 39.2575 25.9584C39.1916 26.2898 39.0289 26.5942 38.79 26.8331C38.5511 27.0721 38.2467 27.2348 37.9153 27.3007C37.5839 27.3666 37.2404 27.3328 36.9283 27.2035C36.6161 27.0742 36.3493 26.8552 36.1616 26.5743C35.9739 26.2933 35.8737 25.963 35.8737 25.6252C35.8737 25.1721 35.6937 24.7376 35.3733 24.4172C35.053 24.0968 34.6184 23.9168 34.1654 23.9168C33.7123 23.9168 33.2778 24.0968 32.9574 24.4172C32.637 24.7376 32.457 25.1721 32.457 25.6252C32.46 26.6825 32.7899 27.7131 33.4016 28.5756C34.0133 29.438 34.8768 30.0902 35.8737 30.4427V30.7502C35.8737 31.2032 36.0537 31.6378 36.3741 31.9581C36.6944 32.2785 37.129 32.4585 37.582 32.4585C38.0351 32.4585 38.4696 32.2785 38.79 31.9581C39.1104 31.6378 39.2904 31.2032 39.2904 30.7502Z" fill="black"/>
<path d="M52.957 22.2085C52.957 19.1676 52.0553 16.195 50.3659 13.6666C48.6765 11.1382 46.2752 9.16755 43.4658 8.00386C40.6564 6.84016 37.565 6.53568 34.5825 7.12893C31.6001 7.72218 28.8605 9.1865 26.7103 11.3367C24.56 13.487 23.0957 16.2265 22.5025 19.209C21.9092 22.1914 22.2137 25.2828 23.3774 28.0923C24.5411 30.9017 26.5117 33.3029 29.0401 34.9923C31.5686 36.6818 34.5412 37.5835 37.582 37.5835C41.6597 37.5835 45.5704 35.9636 48.4538 33.0803C51.3372 30.1969 52.957 26.2862 52.957 22.2085ZM25.6237 22.2085C25.6237 19.8434 26.325 17.5313 27.639 15.5648C28.953 13.5983 30.8207 12.0655 33.0058 11.1604C35.1909 10.2553 37.5953 10.0185 39.915 10.4799C42.2347 10.9414 44.3655 12.0803 46.0379 13.7527C47.7103 15.4251 48.8492 17.5559 49.3106 19.8755C49.772 22.1952 49.5352 24.5997 48.6301 26.7848C47.725 28.9699 46.1923 30.8375 44.2257 32.1515C42.2592 33.4655 39.9472 34.1668 37.582 34.1668C34.4105 34.1668 31.3688 32.9069 29.1262 30.6643C26.8836 28.4217 25.6237 25.3801 25.6237 22.2085Z" fill="black"/>
<path d="M37.5833 49.5417C38.5268 49.5417 39.2917 48.7768 39.2917 47.8333C39.2917 46.8898 38.5268 46.125 37.5833 46.125C36.6398 46.125 35.875 46.8898 35.875 47.8333C35.875 48.7768 36.6398 49.5417 37.5833 49.5417Z" fill="black"/>
</svg>
