<svg width="159" height="160" viewBox="0 0 159 160" fill="none" xmlns="http://www.w3.org/2000/svg">
<path d="M116.133 83.5121V72.6487C116.133 55.3678 104.321 40.8654 88.3794 36.8652V25.8245C88.3794 20.8808 84.3967 16.873 79.4839 16.873C74.5711 16.873 70.5884 20.8808 70.5884 25.8245V36.8648C54.6466 40.865 42.8345 55.3678 42.8345 72.6483V83.5118C42.8345 95.1261 38.2494 106.265 30.0883 114.478C26.501 118.088 25.4278 123.516 27.3692 128.233C29.3105 132.95 33.8842 136.025 38.9575 136.025H61.0709C61.0709 146.258 69.3146 154.553 79.4835 154.553C89.6525 154.553 97.8961 146.258 97.8961 136.025H120.01C125.083 136.025 129.657 132.949 131.598 128.233C133.539 123.516 132.466 118.088 128.879 114.478C120.718 106.265 116.133 95.1265 116.133 83.5121ZM79.4839 143.811C75.2169 143.811 71.7459 140.318 71.7459 136.025H87.2222C87.2219 140.319 83.7505 143.811 79.4839 143.811ZM121.736 124.122C121.446 124.827 120.769 125.283 120.01 125.283H38.9575C38.1989 125.283 37.5214 124.828 37.231 124.123C36.9407 123.418 37.0997 122.613 37.636 122.073C47.8718 111.774 53.5087 98.079 53.5087 83.5121V72.6487C53.5087 58.2362 65.1611 46.5105 79.4835 46.5105C93.806 46.5105 105.458 58.2362 105.458 72.6487V83.5121C105.458 98.0786 111.095 111.773 121.331 122.073C121.868 122.613 122.027 123.417 121.736 124.122Z" fill="black"/>
<path d="M30.6518 83.4505C33.4422 82.4942 34.9338 79.4428 33.983 76.6349C28.091 59.2276 37.3708 40.2424 54.6693 34.3129C57.4596 33.3566 58.9512 30.3052 58.0005 27.4973C57.0501 24.6894 54.0178 23.1877 51.2274 24.1452C28.3575 31.9838 16.0888 57.0846 23.8784 80.0984C24.6346 82.3323 26.7086 83.7388 28.93 83.7388C29.5011 83.7388 30.0818 83.646 30.6518 83.4505Z" fill="black"/>
<path d="M46.2842 15.9028C49.0746 14.9464 50.5662 11.895 49.6158 9.08715C48.665 6.27926 45.6327 4.77757 42.8424 5.73502C9.84371 17.045 -7.85866 53.2621 3.38132 86.4687C4.13744 88.7026 6.21151 90.109 8.43289 90.109C9.00362 90.109 9.58396 90.0163 10.1543 89.8208C12.9447 88.8644 14.4363 85.8131 13.4855 83.0052C4.14384 55.4058 18.857 25.3036 46.2842 15.9028Z" fill="black"/>
<path d="M107.747 24.145C104.956 23.1879 101.924 24.6896 100.974 27.4971C100.024 30.305 101.515 33.3564 104.305 34.3127C121.604 40.2422 130.883 59.2274 124.992 76.6348C124.041 79.4426 125.533 82.494 128.323 83.4504C128.893 83.6459 129.474 83.7386 130.044 83.7386C132.266 83.7386 134.34 82.3318 135.096 80.0982C142.886 57.0845 130.617 31.9836 107.747 24.145Z" fill="black"/>
<path d="M152.476 37.8778C145.023 22.6292 132.115 11.214 116.13 5.73502C113.339 4.77757 110.307 6.27926 109.357 9.08715C108.406 11.895 109.898 14.9464 112.688 15.9028C125.974 20.4569 136.703 29.9443 142.898 42.6185C149.093 55.2926 150.012 69.6357 145.486 83.0052C144.536 85.8131 146.028 88.8644 148.818 89.8208C149.388 90.0163 149.968 90.109 150.539 90.109C152.76 90.109 154.834 88.7022 155.591 86.4687C161.036 70.3833 159.93 53.1264 152.476 37.8778Z" fill="black"/>
</svg>
