<svg width="169" height="168" viewBox="0 0 169 168" fill="none" xmlns="http://www.w3.org/2000/svg">
<path d="M84.5445 95.9585H116.754C121.202 95.9585 124.807 92.3748 124.807 87.9538C124.807 83.5328 121.202 79.9491 116.754 79.9491H92.5969V49.5311C92.5969 45.1101 88.9919 41.5264 84.5445 41.5264C80.0972 41.5264 76.4922 45.1101 76.4922 49.5311V87.9538C76.4922 92.3748 80.0976 95.9585 84.5445 95.9585V95.9585Z" fill="black"/>
<path d="M6.38117 165.656C9.52579 168.781 14.6229 168.781 17.7672 165.656L39.3638 144.187C65.7534 165.266 103.339 165.266 129.728 144.187L151.325 165.656C154.524 168.727 159.621 168.639 162.711 165.459C165.724 162.357 165.724 157.439 162.711 154.337L141.114 132.869C166.133 101.812 161.089 56.4732 129.847 31.602C98.605 6.73078 52.9967 11.7454 27.9775 42.8024C6.77285 69.1243 6.77285 106.546 27.9775 132.869L6.38082 154.337C3.23759 157.463 3.23759 162.53 6.38117 165.656V165.656ZM84.5459 31.9206C115.676 31.9206 140.913 57.0075 140.913 87.9539C140.913 118.9 115.676 143.987 84.5459 143.987C53.4152 143.987 28.1791 118.9 28.1791 87.9539C28.2146 57.022 53.4302 31.956 84.5459 31.9206V31.9206Z" fill="black"/>
<path d="M6.38112 37.5801C9.52575 40.7051 14.6229 40.7051 17.7671 37.5801L41.9245 13.5657C45.0141 10.3856 44.9255 5.31825 41.7264 2.24702C38.6059 -0.748985 33.6587 -0.748985 30.5385 2.24702L6.38112 26.2611C3.23754 29.3871 3.23754 34.4541 6.38112 37.5801V37.5801Z" fill="black"/>
<path d="M162.71 26.2611L138.553 2.247C135.354 -0.824234 130.256 -0.736167 127.167 2.44394C124.153 5.54604 124.153 10.4639 127.167 13.566L151.324 37.5805C154.523 40.6517 159.621 40.5636 162.71 37.3835C165.724 34.2811 165.724 29.3632 162.71 26.2611V26.2611Z" fill="black"/>
</svg>
