<svg width="200" height="196" viewBox="0 0 200 196" fill="none" xmlns="http://www.w3.org/2000/svg">
<path d="M127.588 49.977C132.973 49.977 137.354 45.5961 137.354 40.2113C137.354 34.8266 132.973 30.4453 127.588 30.4453C122.203 30.4453 117.822 34.8266 117.822 40.2113C117.822 42.4105 118.554 44.4418 119.785 46.0762L103.74 68.4984C102.782 68.184 101.761 68.0113 100.699 68.0113C98.1332 68.0113 95.7965 69.0078 94.052 70.632L83.357 64.5633C83.4996 63.9008 83.5762 63.2141 83.5762 62.5098C83.5762 57.125 79.1953 52.7441 73.8105 52.7441C68.4258 52.7441 64.0449 57.125 64.0449 62.5098C64.0449 63.2141 64.1215 63.9008 64.2641 64.5633L53.5691 70.632C51.8246 69.0078 49.4879 68.0117 46.9219 68.0117C41.5371 68.0117 37.1562 72.393 37.1562 77.7777C37.1562 83.1625 41.5371 87.5437 46.9219 87.5437C52.3066 87.5437 56.6875 83.1625 56.6875 77.7777C56.6875 77.0734 56.6109 76.3867 56.4684 75.7242L67.1633 69.6555C68.9078 71.2797 71.2445 72.2762 73.8105 72.2762C76.3766 72.2762 78.7129 71.2797 80.4578 69.6559L91.1527 75.7246C91.0102 76.3871 90.9336 77.0738 90.9336 77.7781C90.9336 83.1629 95.3145 87.5441 100.699 87.5441C106.084 87.5441 110.465 83.1629 110.465 77.7781C110.465 75.5785 109.734 73.5469 108.502 71.9125L124.547 49.4902C125.504 49.8043 126.526 49.977 127.588 49.977ZM127.588 36.3047C129.742 36.3047 131.494 38.057 131.494 40.2113C131.494 42.3652 129.742 44.1176 127.588 44.1176C125.434 44.1176 123.682 42.3652 123.682 40.2113C123.681 38.057 125.434 36.3047 127.588 36.3047ZM46.9207 81.6836C44.7668 81.6836 43.0145 79.9312 43.0145 77.777C43.0145 75.6227 44.7668 73.8703 46.9207 73.8703C49.0746 73.8703 50.827 75.6227 50.827 77.777C50.827 79.9312 49.0746 81.6836 46.9207 81.6836ZM73.8098 66.416C71.6559 66.416 69.9035 64.6637 69.9035 62.5094C69.9035 60.3555 71.6559 58.6031 73.8098 58.6031C75.9637 58.6031 77.716 60.3555 77.716 62.5094C77.7164 64.6637 75.9637 66.416 73.8098 66.416ZM100.699 81.6836C98.5449 81.6836 96.7926 79.9312 96.7926 77.777C96.7926 75.6227 98.5449 73.8703 100.699 73.8703C102.853 73.8703 104.605 75.6227 104.605 77.777C104.605 79.9312 102.853 81.6836 100.699 81.6836Z" fill="black"/>
<path d="M163.592 145.252H143.09H31.4172H8.28711C6.94844 145.252 5.85938 144.163 5.85938 142.824V21.9572C5.85938 20.6185 6.94844 19.5295 8.28711 19.5295H22.098C23.716 19.5295 25.0277 18.2182 25.0277 16.5998C25.0277 14.9814 23.716 13.6701 22.098 13.6701H8.28711C3.71758 13.6701 0 17.3877 0 21.9572V142.824C0 147.394 3.71758 151.111 8.28711 151.111H28.4875V157.559C28.4875 161.232 31.4758 164.22 35.1488 164.22H64.4746L50.6699 191.172C49.9324 192.613 50.5016 194.378 51.9418 195.116C52.3691 195.335 52.8254 195.438 53.275 195.438C54.3395 195.438 55.3664 194.856 55.8848 193.844L71.0578 164.22H103.449L118.622 193.844C119.141 194.856 120.168 195.438 121.232 195.438C121.682 195.438 122.138 195.334 122.565 195.116C124.005 194.378 124.575 192.613 123.837 191.172L110.032 164.22H139.358C143.031 164.22 146.02 161.232 146.02 157.559V151.111H163.592C165.21 151.111 166.522 149.8 166.522 148.181C166.522 146.563 165.21 145.252 163.592 145.252ZM140.16 157.559C140.16 158.001 139.8 158.361 139.358 158.361H35.1488C34.7066 158.361 34.3469 158.001 34.3469 157.559V151.111H140.16V157.559Z" fill="black"/>
<path d="M33.8164 19.5295H73.9227H100.583H166.219C167.558 19.5295 168.647 20.6186 168.647 21.9572V49.8131C168.647 51.4314 169.959 52.7428 171.577 52.7428C173.195 52.7428 174.506 51.4314 174.506 49.8131V21.9572C174.506 17.3877 170.789 13.6701 166.219 13.6701H103.513V7.91152C103.513 3.85879 100.216 0.561523 96.1629 0.561523H78.3434C74.2906 0.561523 70.993 3.85879 70.993 7.91152V13.6701H33.8164C32.1984 13.6701 30.8867 14.9814 30.8867 16.5998C30.8867 18.2182 32.1984 19.5295 33.8164 19.5295ZM76.8523 7.91152C76.8523 7.08965 77.5211 6.4209 78.3434 6.4209H96.1629C96.9848 6.4209 97.6539 7.08965 97.6539 7.91152V13.6701H76.8527V7.91152H76.8523Z" fill="black"/>
<path d="M40.9766 102.521C39.3586 102.521 38.0469 103.833 38.0469 105.451V131.339C38.0469 132.957 39.3586 134.268 40.9766 134.268H52.8621C54.4801 134.268 55.7918 132.957 55.7918 131.339V105.451C55.7918 103.833 54.4801 102.521 52.8621 102.521H40.9766ZM49.9324 128.409H43.9062V108.381H49.9324V128.409V128.409Z" fill="black"/>
<path d="M67.8672 87.5498C66.2492 87.5498 64.9375 88.8611 64.9375 90.4795V131.339C64.9375 132.958 66.2492 134.269 67.8672 134.269H79.7527C81.3707 134.269 82.6824 132.958 82.6824 131.339V90.4795C82.6824 88.8611 81.3707 87.5498 79.7527 87.5498H67.8672ZM76.8234 128.41H70.7973V93.4092H76.8234V128.41Z" fill="black"/>
<path d="M94.7578 102.521C93.1398 102.521 91.8281 103.833 91.8281 105.451V131.339C91.8281 132.957 93.1398 134.268 94.7578 134.268H106.643C108.261 134.268 109.573 132.957 109.573 131.339V105.451C109.573 103.833 108.261 102.521 106.643 102.521H94.7578ZM103.714 128.409H97.6875V108.381H103.714V128.409Z" fill="black"/>
<path d="M121.645 119.81C120.027 119.81 118.715 121.121 118.715 122.739V131.34C118.715 132.958 120.027 134.269 121.645 134.269H133.53C135.148 134.269 136.46 132.958 136.46 131.34C136.46 129.721 135.148 128.41 133.53 128.41H124.574V122.739C124.574 121.121 123.263 119.81 121.645 119.81Z" fill="black"/>
<path d="M198.505 148.007L181.697 118.895C185.955 114.356 189.056 108.811 190.713 102.629C193.36 92.7501 192.001 82.431 186.887 73.5732C176.33 55.2868 152.865 49.0005 134.58 59.5571C116.294 70.1138 110.007 93.579 120.564 111.865C125.678 120.722 133.936 127.058 143.815 129.706C147.114 130.59 150.461 131.027 153.788 131.027C156.695 131.027 159.585 130.693 162.411 130.031L179.215 159.143C181.275 162.713 185.026 164.71 188.878 164.709C190.766 164.709 192.679 164.229 194.428 163.22C197.864 161.237 199.999 157.539 199.999 153.569C199.999 151.624 199.482 149.701 198.505 148.007ZM145.331 124.046C136.964 121.804 129.97 116.437 125.638 108.935C116.696 93.4474 122.022 73.5732 137.509 64.6314C142.604 61.69 148.171 60.2931 153.671 60.2931C164.888 60.2931 175.813 66.1107 181.813 76.5028C186.144 84.0052 187.295 92.745 185.052 101.113C182.81 109.481 177.443 116.474 169.941 120.806C162.439 125.138 153.699 126.288 145.331 124.046ZM191.5 158.145C188.979 159.6 185.745 158.734 184.29 156.215L168.123 128.205C169.743 127.544 171.33 126.77 172.871 125.881C174.414 124.99 175.875 123.999 177.258 122.925L193.43 150.936C193.894 151.741 194.139 152.652 194.139 153.57C194.139 155.452 193.128 157.205 191.5 158.145Z" fill="black"/>
<path d="M180.29 100.972C182.358 94.3099 181.866 87.1771 178.903 80.888C178.213 79.424 176.468 78.7966 175.004 79.4861C173.54 80.1759 172.912 81.9213 173.602 83.3849C175.939 88.3459 176.327 93.9744 174.694 99.2345C173.052 104.524 169.504 108.962 164.705 111.733C159.626 114.666 153.708 115.444 148.044 113.927C142.379 112.409 137.644 108.776 134.712 103.697C128.658 93.2119 132.264 79.7572 142.748 73.7037C150.414 69.2783 159.928 69.8697 166.987 75.2103C168.278 76.1869 170.115 75.9326 171.091 74.642C172.067 73.3517 171.813 71.5142 170.522 70.538C161.58 63.772 149.528 63.0232 139.818 68.6291C133.384 72.3439 128.781 78.3423 126.858 85.5189C124.935 92.6955 125.922 100.192 129.637 106.626C133.352 113.061 139.35 117.663 146.527 119.586C148.923 120.229 151.355 120.546 153.771 120.546C158.591 120.546 163.348 119.282 167.634 116.808C173.715 113.297 178.209 107.674 180.29 100.972Z" fill="black"/>
</svg>
