<svg width="123" height="123" viewBox="0 0 123 123" fill="none" xmlns="http://www.w3.org/2000/svg">
<path d="M109.999 64.6004L52.3489 106.882C51.6555 107.357 50.8265 107.594 49.9868 107.557C49.147 107.52 48.342 107.212 47.6928 106.678C47.0436 106.144 46.5855 105.413 46.3874 104.596C46.1893 103.78 46.2619 102.92 46.5944 102.148L65.6909 61.5L46.5944 20.8516C46.2577 20.0792 46.182 19.2181 46.3788 18.3988C46.5756 17.5795 47.0341 16.8468 47.6849 16.3116C48.3357 15.7764 49.1432 15.468 49.9851 15.4331C50.8269 15.3983 51.6572 15.6388 52.35 16.1184L110.001 58.3996C110.481 58.7615 110.87 59.23 111.138 59.7681C111.406 60.3061 111.546 60.8991 111.546 61.5003C111.546 62.1015 111.406 62.6944 111.137 63.2324C110.869 63.7703 110.48 64.2386 109.999 64.6004V64.6004ZM57.2316 60.34L38.7378 17.6909C38.4398 17.003 37.9472 16.4173 37.3206 16.0058C36.694 15.5943 35.9608 15.3751 35.2111 15.375H15.2663C14.6334 15.384 14.0123 15.5477 13.4572 15.8519C12.9021 16.1561 12.4298 16.5915 12.0816 17.1201C11.7335 17.6488 11.5199 18.2546 11.4596 18.8847C11.3994 19.5148 11.4942 20.1501 11.7358 20.7351L29.5658 62.2057L11.7546 102.219C11.5038 102.805 11.4011 103.444 11.4557 104.078C11.5102 104.713 11.7204 105.325 12.0675 105.859C12.4147 106.394 12.8881 106.834 13.446 107.142C14.0039 107.45 14.6291 107.616 15.2663 107.625H35.2115C35.957 107.625 36.6864 107.408 37.3109 107.001C37.9353 106.594 38.4279 106.014 38.7285 105.331L57.2208 63.418C57.4346 62.9334 57.5459 62.4098 57.5478 61.8801C57.5496 61.3504 57.442 60.8261 57.2316 60.34V60.34Z" fill="#FF3C38"/>
</svg>
