<svg width="31" height="18" viewBox="0 0 31 18" fill="none" xmlns="http://www.w3.org/2000/svg">
<path d="M16.7258 17.2535L29.8454 4.13361C30.1491 3.83016 30.3164 3.42509 30.3164 2.99317C30.3164 2.56125 30.1491 2.15617 29.8454 1.85272L28.8795 0.886535C28.25 0.257829 27.227 0.257829 26.5986 0.886535L15.5815 11.9036L4.55216 0.874311C4.24848 0.570863 3.84364 0.40332 3.41196 0.40332C2.9798 0.40332 2.57496 0.570863 2.27104 0.874311L1.30533 1.8405C1.00164 2.14419 0.834338 2.54902 0.834338 2.98094C0.834338 3.41286 1.00164 3.81794 1.30533 4.12139L14.437 17.2535C14.7416 17.5577 15.1484 17.7247 15.5808 17.7238C16.0148 17.7247 16.4214 17.5577 16.7258 17.2535Z" fill="black"/>
</svg>
