<svg width="19" height="30" viewBox="0 0 19 30" fill="none" xmlns="http://www.w3.org/2000/svg">
<path d="M1.38419 16.214L14.5041 29.3337C14.8075 29.6374 15.2126 29.8047 15.6445 29.8047C16.0764 29.8047 16.4815 29.6374 16.785 29.3337L17.7512 28.3677C18.3799 27.7383 18.3799 26.7153 17.7512 26.0869L6.73406 15.0698L17.7634 4.04045C18.0668 3.73676 18.2344 3.33192 18.2344 2.90024C18.2344 2.46808 18.0668 2.06324 17.7634 1.75932L16.7972 0.793609C16.4935 0.489922 16.0887 0.322619 15.6568 0.322619C15.2248 0.322619 14.8198 0.489922 14.5163 0.793609L1.38419 13.9252C1.08002 14.2299 0.91296 14.6366 0.913919 15.069C0.91296 15.5031 1.08002 15.9096 1.38419 16.214Z" fill="black"/>
</svg>
