<svg width="19" height="30" viewBox="0 0 19 30" fill="none" xmlns="http://www.w3.org/2000/svg">
<path d="M17.7642 13.9129L4.64435 0.793256C4.34091 0.489569 3.93583 0.322266 3.50391 0.322266C3.07199 0.322266 2.66691 0.489569 2.36347 0.793256L1.39728 1.75921C0.768571 2.38863 0.768571 3.41163 1.39728 4.04009L12.4144 15.0572L1.38505 26.0865C1.08161 26.3902 0.914062 26.795 0.914062 27.2267C0.914062 27.6589 1.08161 28.0637 1.38505 28.3676L2.35124 29.3333C2.65493 29.637 3.05976 29.8043 3.49169 29.8043C3.92361 29.8043 4.32868 29.637 4.63213 29.3333L17.7642 16.2017C18.0684 15.8971 18.2355 15.4903 18.2345 15.0579C18.2355 14.6238 18.0684 14.2173 17.7642 13.9129Z" fill="black"/>
</svg>
