<svg width="31" height="18" viewBox="0 0 31 18" fill="none" xmlns="http://www.w3.org/2000/svg">
<path d="M14.4227 0.873448L1.30302 13.9933C0.999335 14.2968 0.832031 14.7019 0.832031 15.1338C0.832031 15.5657 0.999335 15.9708 1.30302 16.2742L2.26897 17.2404C2.8984 17.8691 3.92139 17.8691 4.54986 17.2404L15.567 6.22332L26.5963 17.2526C26.9 17.5561 27.3048 17.7236 27.7365 17.7236C28.1686 17.7236 28.5735 17.5561 28.8774 17.2526L29.8431 16.2865C30.1468 15.9828 30.3141 15.5779 30.3141 15.146C30.3141 14.7141 30.1468 14.309 29.8431 14.0056L16.7115 0.873448C16.4068 0.569282 16.0001 0.402218 15.5677 0.403177C15.1336 0.402218 14.7271 0.569282 14.4227 0.873448Z" fill="black"/>
</svg>
