<svg width="31" height="15" viewBox="0 0 31 15" fill="none" xmlns="http://www.w3.org/2000/svg">
<path d="M0.733543 8.29837C0.733901 8.29873 0.734199 8.29915 0.734616 8.29951L6.95969 14.5462C7.42604 15.0141 8.18035 15.0124 8.64456 14.5421C9.10871 14.0719 9.10692 13.3113 8.64057 12.8432L4.46105 8.64933L29.6915 8.64933C30.3494 8.64933 30.8828 8.11151 30.8828 7.44804C30.8828 6.78458 30.3494 6.24676 29.6915 6.24676L4.46111 6.24676L8.64051 2.05284C9.10687 1.58482 9.10865 0.82423 8.6445 0.353988C8.18029 -0.116374 7.42592 -0.117996 6.95963 0.349904L0.734556 6.59658C0.734199 6.59694 0.7339 6.59736 0.733483 6.59772C0.266889 7.0673 0.268379 7.83035 0.733543 8.29837Z" fill="black"/>
</svg>
