<svg width="31" height="15" viewBox="0 0 31 15" fill="none" xmlns="http://www.w3.org/2000/svg">
<path d="M30.5321 6.59762C30.5317 6.59726 30.5314 6.59684 30.531 6.59648L24.3059 0.34981C23.8396 -0.11815 23.0853 -0.116409 22.6211 0.353894C22.1569 0.824136 22.1587 1.58473 22.6251 2.05275L26.8046 6.24667H1.57417C0.916182 6.24667 0.382812 6.78448 0.382812 7.44795C0.382812 8.11142 0.916182 8.64923 1.57417 8.64923H26.8045L22.6251 12.8432C22.1588 13.3112 22.157 14.0718 22.6211 14.542C23.0853 15.0124 23.8397 15.014 24.306 14.5461L30.5311 8.29942C30.5314 8.29906 30.5317 8.29864 30.5321 8.29828C30.9987 7.8287 30.9972 7.06564 30.5321 6.59762Z" fill="black"/>
</svg>
