<svg width="123" height="123" viewBox="0 0 123 123" fill="none" xmlns="http://www.w3.org/2000/svg">
<g clip-path="url(#clip0_381_343)">
<path fill-rule="evenodd" clip-rule="evenodd" d="M61.5 0C95.4655 0 123 27.5345 123 61.5C123 95.4655 95.4655 123 61.5 123C27.5345 123 0 95.4655 0 61.5C0 27.5345 27.5345 0 61.5 0ZM96.216 58.3143L81.7376 43.8365C81.3204 43.4137 80.8237 43.0775 80.276 42.8474C79.7284 42.6173 79.1407 42.4977 78.5466 42.4957C77.9526 42.4937 77.3641 42.6091 76.8149 42.8355C76.2657 43.0619 75.7667 43.3946 75.3466 43.8146C74.9265 44.2346 74.5936 44.7335 74.3672 45.2827C74.1407 45.8319 74.0251 46.4204 74.0271 47.0144C74.029 47.6084 74.1484 48.1962 74.3784 48.7439C74.6084 49.2916 74.9445 49.7884 75.3673 50.2056L82.1561 56.9946H46.3131L33.1538 43.8365C32.3092 42.9918 31.1636 42.5172 29.9691 42.5171C28.7746 42.517 27.6289 42.9915 26.7842 43.836C25.9395 44.6806 25.4649 45.8262 25.4648 47.0207C25.4647 48.2153 25.9391 49.3609 26.7837 50.2056L38.0771 61.5L26.784 72.7934C26.3612 73.2107 26.0251 73.7074 25.795 74.2551C25.565 74.8028 25.4456 75.3905 25.4436 75.9846C25.4417 76.5786 25.5572 77.1671 25.7837 77.7163C26.0101 78.2655 26.343 78.7644 26.763 79.1844C27.1831 79.6044 27.6821 79.9372 28.2313 80.1636C28.7805 80.39 29.369 80.5055 29.963 80.5035C30.557 80.5014 31.1448 80.3819 31.6925 80.1519C32.2401 79.9218 32.7368 79.5856 33.154 79.1628L46.3133 66.0044H82.1563L75.3675 72.7934C74.9475 73.2113 74.6141 73.708 74.3863 74.2549C74.1586 74.8019 74.041 75.3884 74.0402 75.9809C74.0395 76.5733 74.1557 77.1601 74.3821 77.7077C74.6085 78.2552 74.9407 78.7526 75.3597 79.1715C75.7787 79.5905 76.2762 79.9226 76.8237 80.1489C77.3713 80.3753 77.9581 80.4913 78.5506 80.4905C79.1431 80.4897 79.7296 80.372 80.2765 80.1442C80.8234 79.9163 81.32 79.5828 81.7378 79.1628L96.2163 64.6855C97.0608 63.8406 97.5352 62.6949 97.5352 61.5002C97.5352 60.3056 97.0608 59.1599 96.2163 58.315L96.216 58.3143Z" fill="black"/>
</g>
<defs>
<clipPath id="clip0_381_343">
<rect width="123" height="123" fill="white"/>
</clipPath>
</defs>
</svg>
