<svg width="115" height="71" viewBox="0 0 115 71" fill="none" xmlns="http://www.w3.org/2000/svg">
<path d="M114.584 3.18811L112.301 25.1853C112.037 27.6 109.076 28.6376 107.377 26.9398L101.982 21.5442L68.0053 55.5209C65.8735 57.6527 62.1193 57.6527 59.9875 55.5209L41.2729 36.8064L9.65437 68.4439C8.56014 69.538 7.10757 70.104 5.65489 70.104C4.20221 70.104 2.74965 69.538 1.65542 68.4439C-0.551807 66.2365 -0.551807 62.6521 1.65542 60.426L37.2735 24.808C39.4053 22.6762 43.1595 22.6762 45.2724 24.808L64.0058 43.5225L93.9832 13.5452L87.6631 7.22535C85.9465 5.50853 86.9839 2.54675 89.3988 2.30149L111.396 0.0187206C113.226 -0.188773 114.773 1.35821 114.584 3.18811V3.18811Z" fill="#F14F4A"/>
</svg>
