<svg width="176" height="176" viewBox="0 0 176 176" fill="none" xmlns="http://www.w3.org/2000/svg">
<path d="M48.517 127.086C46.4799 125.048 43.1747 125.048 41.1362 127.086L2.12846 166.095C0.0899913 168.132 0.0899913 171.437 2.12846 173.475C3.1477 174.495 4.48362 175.004 5.81954 175.004C7.15412 175.004 8.49004 174.495 9.50928 173.475L48.517 134.468C50.5568 132.429 50.5568 129.124 48.517 127.086V127.086Z" fill="black"/>
<path d="M173.475 2.13217C172.473 1.13023 171.115 0.58868 169.691 0.603316L104.605 1.77557C102.511 1.81416 100.643 3.09951 99.8589 5.04085C99.0752 6.98219 99.5276 9.20562 101.009 10.6852L115.06 24.7363L39.8863 99.9096C38.9083 100.889 38.3574 102.217 38.3574 103.601C38.3574 104.985 38.907 106.312 39.8863 107.292L68.3144 135.717C69.3337 136.737 70.6696 137.246 72.0042 137.246C73.3401 137.246 74.676 136.737 75.6953 135.717L150.867 60.5453L164.92 74.5964C166.399 76.0774 168.623 76.5298 170.564 75.746C172.505 74.9623 173.791 73.0942 173.828 70.9998L175.003 5.91638C175.028 4.50063 174.477 3.13411 173.475 2.13217V2.13217ZM163.613 58.5268L154.558 49.4734C153.58 48.4941 152.252 47.9446 150.869 47.9446C149.483 47.9446 148.155 48.4941 147.178 49.4734L72.0042 124.645L50.9582 103.601L126.131 28.4274C127.111 27.4481 127.66 26.1215 127.66 24.7363C127.66 23.3525 127.111 22.0246 126.131 21.0466L117.078 11.9919L164.469 11.139L163.613 58.5268Z" fill="black"/>
<path d="M7.71797 144.679C9.05389 144.679 10.3898 144.168 11.4077 143.148L34.3033 120.254C36.3417 118.216 36.3417 114.911 34.3033 112.872C32.2648 110.835 28.9609 110.835 26.9225 112.872L4.0269 135.768C1.98843 137.806 1.98843 141.111 4.0269 143.15C5.04614 144.168 6.38205 144.679 7.71797 144.679V144.679Z" fill="black"/>
<path d="M55.3515 141.3L32.4546 164.195C30.4162 166.233 30.4162 169.538 32.4546 171.577C33.4739 172.596 34.8098 173.106 36.1457 173.106C37.4816 173.106 38.8175 172.596 39.8368 171.577L62.7323 148.681C64.7708 146.643 64.7708 143.337 62.7323 141.3C60.6939 139.262 57.3887 139.262 55.3515 141.3Z" fill="black"/>
</svg>
