<svg width="16" height="31" viewBox="0 0 16 31" fill="none" xmlns="http://www.w3.org/2000/svg">
<path d="M6.78122 0.547996C6.78086 0.548354 6.78044 0.548652 6.78008 0.549069L0.533403 6.77414C0.0654437 7.24049 0.0671851 7.9948 0.537487 8.45901C1.00773 8.92316 1.76832 8.92138 2.23634 8.45502L6.43026 4.27551L6.43026 29.5059C6.43026 30.1639 6.96808 30.6973 7.63154 30.6973C8.29501 30.6973 8.83283 30.1639 8.83283 29.5059L8.83283 4.27557L13.0267 8.45496C13.4948 8.92132 14.2554 8.9231 14.7256 8.45895C15.196 7.99474 15.1976 7.24037 14.7297 6.77408L8.48301 0.549009C8.48265 0.548652 8.48223 0.548353 8.48187 0.547936C8.01229 0.0813422 7.24924 0.0828318 6.78122 0.547996Z" fill="black"/>
</svg>
