<svg width="16" height="31" viewBox="0 0 16 31" fill="none" xmlns="http://www.w3.org/2000/svg">
<path d="M8.48441 30.348C8.48477 30.3476 8.48519 30.3473 8.48555 30.3469L14.7322 24.1219C15.2002 23.6555 15.1984 22.9012 14.7281 22.437C14.2579 21.9728 13.4973 21.9746 13.0293 22.441L8.83536 26.6205L8.83536 1.39009C8.83536 0.7321 8.29755 0.19873 7.63408 0.19873C6.97061 0.19873 6.4328 0.7321 6.4328 1.39009L6.4328 26.6204L2.23888 22.441C1.77086 21.9747 1.01027 21.9729 0.540023 22.437C0.0696608 22.9013 0.0680394 23.6556 0.535939 24.1219L6.78261 30.347C6.78297 30.3473 6.78339 30.3476 6.78375 30.3481C7.25333 30.8147 8.01639 30.8132 8.48441 30.348Z" fill="black"/>
</svg>
