<svg width="111" height="111" viewBox="0 0 111 111" fill="none" xmlns="http://www.w3.org/2000/svg">
<g clip-path="url(#clip0_502_1654)">
<path d="M109.945 48.3868L70.633 10.2305C69.634 9.25925 68.1401 8.98637 66.8683 9.52287C65.5871 10.0686 64.75 11.3266 64.75 12.7188V32.3843C28.9386 33.004 0 62.3265 0 98.2813C0 99.863 1.11463 101.158 2.6455 101.556C2.91838 101.625 3.19125 101.658 3.46413 101.658C4.73138 101.658 5.96625 100.931 6.59988 99.789C16.983 81.03 36.7502 69.375 58.1917 69.375H64.75V89.0313C64.75 90.4234 65.5871 91.6814 66.8683 92.2271C68.1355 92.7636 69.6386 92.4908 70.633 91.5195L109.945 53.3633C110.621 52.7111 111 51.8139 111 50.875C111 49.9361 110.621 49.0389 109.945 48.3868V48.3868Z" fill="black"/>
</g>
<defs>
<clipPath id="clip0_502_1654">
<rect width="111" height="111" fill="white"/>
</clipPath>
</defs>
</svg>
