<svg width="174" height="174" viewBox="0 0 174 174" fill="none" xmlns="http://www.w3.org/2000/svg">
<path d="M156.056 83.1937L107.119 39.15C105.488 37.5187 103.313 36.975 101.138 38.0625C98.9625 39.15 97.875 40.7812 97.875 42.9562V70.6875H21.75C18.4875 70.6875 16.3125 72.8625 16.3125 76.125V97.875C16.3125 101.137 18.4875 103.312 21.75 103.312H97.875V131.044C97.875 133.219 98.9625 135.394 101.138 135.937C101.681 136.481 102.769 136.481 103.312 136.481C104.4 136.481 106.031 135.937 107.119 134.85L156.056 90.8062C157.144 89.7187 157.688 88.0875 157.688 87C157.688 85.3687 157.144 83.7375 156.056 83.1937V83.1937ZM38.0625 92.4375H32.625V81.5625H38.0625V92.4375ZM108.75 118.537V97.875C108.75 94.6125 106.575 92.4375 103.312 92.4375H43.5V81.5625H103.312C106.575 81.5625 108.75 79.3875 108.75 76.125V55.4625L144.094 87L108.75 118.537Z" fill="black"/>
</svg>
