<svg width="137" height="137" viewBox="0 0 137 137" fill="none" xmlns="http://www.w3.org/2000/svg">
<path d="M119.875 55.6563H59.9375V33.8219C59.9375 32.1094 59.0812 30.3969 57.3687 29.9688C55.6562 29.1125 53.9438 29.5406 52.6594 30.825L14.1281 65.5031C13.2719 65.9313 12.8438 67.2156 12.8438 68.5C12.8438 69.7844 13.2719 71.0688 14.1281 71.4969L52.6594 106.175C53.5156 107.031 54.3719 107.459 55.6562 107.459C56.0844 107.459 56.9406 107.459 57.3687 107.031C59.0812 106.175 59.9375 104.891 59.9375 103.178V81.3438H119.875C122.444 81.3438 124.156 79.6313 124.156 77.0625V59.9375C124.156 57.3688 122.444 55.6563 119.875 55.6563ZM102.75 72.7813H55.6562C53.0875 72.7813 51.375 74.4938 51.375 77.0625V93.3313L23.5469 68.5L51.375 43.6688V59.9375C51.375 62.5063 53.0875 64.2188 55.6562 64.2188H102.75V72.7813ZM111.312 72.7813H107.031V64.2188H111.312V72.7813Z" fill="black"/>
</svg>
