<svg width="166" height="166" viewBox="0 0 166 166" fill="none" xmlns="http://www.w3.org/2000/svg">
<path d="M165.972 74.856C165.953 74.6576 165.913 74.4618 165.852 74.272C165.814 74.0756 165.755 73.8838 165.676 73.7C165.676 73.656 165.676 73.608 165.632 73.564L141.632 29.564C141.6 29.5 141.524 29.48 141.488 29.42C141.228 28.9918 140.863 28.6369 140.428 28.3885C139.992 28.1401 139.501 28.0064 139 28H101.696C101.063 24.0653 99.2057 20.4303 96.3877 17.6123C93.5697 14.7943 89.9347 12.9367 86 12.304V3C86 2.20435 85.6839 1.44129 85.1213 0.878679C84.5587 0.31607 83.7956 0 83 0C82.2044 0 81.4413 0.31607 80.8787 0.878679C80.3161 1.44129 80 2.20435 80 3V12.304C76.0653 12.9367 72.4303 14.7943 69.6123 17.6123C66.7943 20.4303 64.9367 24.0653 64.304 28H27C26.4989 28.0064 26.0077 28.1401 25.5725 28.3885C25.1373 28.6369 24.7723 28.9918 24.512 29.42C24.476 29.48 24.4 29.5 24.368 29.564L0.368 73.564C0.344 73.608 0.343999 73.656 0.323999 73.7C0.245066 73.8838 0.186064 74.0756 0.148001 74.272C0.0870005 74.4618 0.0467643 74.6576 0.0279999 74.856C0.0279999 74.908 0 74.948 0 75C1.50904e-07 82.1608 2.84464 89.0284 7.90812 94.0919C12.9716 99.1554 19.8392 102 27 102C34.1608 102 41.0284 99.1554 46.0919 94.0919C51.1554 89.0284 54 82.1608 54 75C54 74.948 53.972 74.908 53.972 74.856C53.9532 74.6576 53.913 74.4618 53.852 74.272C53.8139 74.0756 53.7549 73.8838 53.676 73.7C53.676 73.656 53.676 73.608 53.632 73.564L32.032 34H64.284C64.7479 36.8626 65.8635 39.5804 67.5447 41.9433C69.2259 44.3063 71.4277 46.2512 73.98 47.628V148H55C52.6131 148 50.3239 148.948 48.636 150.636C46.9482 152.324 46 154.613 46 157C46 159.387 46.9482 161.676 48.636 163.364C50.3239 165.052 52.6131 166 55 166H111C113.387 166 115.676 165.052 117.364 163.364C119.052 161.676 120 159.387 120 157C120 154.613 119.052 152.324 117.364 150.636C115.676 148.948 113.387 148 111 148H92V47.628C94.5523 46.2512 96.7541 44.3063 98.4353 41.9433C100.116 39.5804 101.232 36.8626 101.696 34H133.948L112.348 73.564C112.324 73.608 112.324 73.656 112.304 73.7C112.225 73.8838 112.166 74.0756 112.128 74.272C112.067 74.4618 112.027 74.6576 112.008 74.856C112.008 74.908 111.98 74.948 111.98 75C111.98 82.1608 114.825 89.0284 119.888 94.0919C124.952 99.1554 131.819 102 138.98 102C146.141 102 153.008 99.1554 158.072 94.0919C163.135 89.0284 165.98 82.1608 165.98 75C166 74.948 165.972 74.908 165.972 74.856V74.856ZM157.948 72H120.052L139 37.264L157.948 72ZM27 37.264L45.948 72H8.052L27 37.264ZM27 96C21.9496 95.9962 17.0692 94.1756 13.2503 90.8708C9.43138 87.5659 6.92889 82.9975 6.2 78H47.8C47.0711 82.9975 44.5686 87.5659 40.7497 90.8708C36.9308 94.1756 32.0504 95.9962 27 96V96ZM114 157C114 157.796 113.684 158.559 113.121 159.121C112.559 159.684 111.796 160 111 160H55C54.2044 160 53.4413 159.684 52.8787 159.121C52.3161 158.559 52 157.796 52 157C52 156.204 52.3161 155.441 52.8787 154.879C53.4413 154.316 54.2044 154 55 154H111C111.796 154 112.559 154.316 113.121 154.879C113.684 155.441 114 156.204 114 157ZM86 148H80V49.696C81.9795 50.1013 84.0205 50.1013 86 49.696V148ZM83 44C80.4288 44 77.9154 43.2376 75.7776 41.8091C73.6397 40.3806 71.9735 38.3503 70.9896 35.9749C70.0056 33.5994 69.7482 30.9856 70.2498 28.4638C70.7514 25.9421 71.9895 23.6257 73.8076 21.8076C75.6257 19.9895 77.9421 18.7514 80.4638 18.2498C82.9856 17.7482 85.5994 18.0056 87.9749 18.9896C90.3503 19.9735 92.3806 21.6397 93.8091 23.7776C95.2376 25.9154 96 28.4288 96 31C95.9958 34.4465 94.6248 37.7507 92.1877 40.1877C89.7507 42.6248 86.4465 43.9958 83 44V44ZM139 96C133.95 95.9962 129.069 94.1756 125.25 90.8708C121.431 87.5659 118.929 82.9975 118.2 78H159.8C159.071 82.9975 156.569 87.5659 152.75 90.8708C148.931 94.1756 144.05 95.9962 139 96V96Z" fill="black"/>
</svg>
