<svg width="82" height="81" viewBox="0 0 82 81" fill="none" xmlns="http://www.w3.org/2000/svg">
<path d="M67.6651 42.5215C67.0061 42.5215 66.4718 43.0558 66.4718 43.7148C66.4718 44.5503 65.7921 45.23 64.9566 45.23C64.1212 45.23 63.4413 44.5503 63.4413 43.7148C63.4413 43.0556 62.9071 42.5215 62.248 42.5215C61.589 42.5215 61.0547 43.0558 61.0547 43.7148C61.0547 45.8663 62.8052 47.6167 64.9566 47.6167C67.108 47.6167 68.8585 45.8662 68.8585 43.7148C68.8585 43.0554 68.3242 42.5215 67.6651 42.5215Z" fill="black"/>
<path d="M78.868 42.7161L75.5092 41.6401C75.079 41.5023 74.74 41.1589 74.6024 40.7215C73.8945 38.4708 72.8262 36.3579 71.4273 34.4411C70.7897 33.5675 70.0807 32.7332 69.3062 31.939C69.8017 29.7652 70.0711 27.305 70.0362 25.1796C69.9862 22.139 69.3786 20.3557 68.1787 19.7272C67.5324 19.3884 65.5657 18.3589 54.9206 23.2318C54.6685 23.3471 54.4331 23.4892 54.2151 23.6519C53.4975 23.459 52.764 23.2806 52.026 23.1205C51.9371 23.1011 51.8455 23.084 51.7559 23.0651C52.6185 21.1807 53.1222 19.134 53.2169 17.0212C53.2463 16.3627 52.7366 15.805 52.078 15.7757C51.4212 15.743 50.8618 16.2559 50.8325 16.9144C50.677 20.3884 49.2359 23.657 46.7749 26.1181C45.3045 27.5885 43.5828 28.6566 41.7479 29.3293C38.5658 28.8827 35.3245 28.8827 32.1424 29.3293C30.3073 28.6566 28.5858 27.5885 27.1154 26.1181C24.4898 23.4925 23.0438 20.0016 23.0438 16.2884C23.0438 12.575 24.4898 9.08422 27.1154 6.45862C29.741 3.83286 33.2321 2.38681 36.9452 2.38681C40.6582 2.38681 44.1493 3.83286 46.7749 6.45862C47.83 7.51373 48.7019 8.71779 49.3664 10.037C49.6629 10.6257 50.3805 10.8628 50.9691 10.5661C51.5578 10.2699 51.7947 9.5522 51.4982 8.96362C50.7194 7.41668 49.6981 6.00618 48.4628 4.77073C45.3864 1.69429 41.296 0 36.9453 0C32.5947 0 28.5043 1.69429 25.4278 4.77073C22.3514 7.84734 20.6571 11.9376 20.6571 16.2882C20.6571 20.6389 22.3514 24.7292 25.4278 27.8057C26.3153 28.6931 27.2807 29.4563 28.3019 30.0956C28.3022 30.0956 28.3025 30.0954 28.3028 30.0954C27.5608 30.2883 26.8244 30.5048 26.0962 30.7482C25.4711 30.9572 25.1338 31.6333 25.3428 32.2585C25.5516 32.8836 26.228 33.2209 26.8529 33.012C33.361 30.8363 40.5296 30.8363 47.0377 33.012C47.1633 33.054 47.2908 33.0739 47.4162 33.0739C47.9154 33.0739 48.3808 32.758 48.5478 32.2585C48.7568 31.6334 48.4196 30.9572 47.7945 30.7482C47.0662 30.5048 46.3298 30.2881 45.5878 30.0954C45.5882 30.0954 45.5885 30.0956 45.5888 30.0956C46.6101 29.4563 47.5754 28.6931 48.4628 27.8057C49.2479 27.0206 49.9409 26.1633 50.5426 25.2522C50.8716 25.3161 51.1981 25.383 51.5199 25.4528C51.9484 25.5459 52.3751 25.6458 52.7979 25.7507C52.7846 25.8026 52.771 25.8543 52.76 25.907C52.1779 28.6689 52.2157 31.1116 52.8722 33.1669C53.4622 35.0143 54.5271 36.511 56.0369 37.6156C57.8164 38.9173 59.9647 39.4796 61.9108 39.4796C63.3754 39.4796 64.7257 39.1609 65.7174 38.5993C66.8391 37.9639 67.7789 36.6252 68.5229 34.6152C68.8667 35.0166 69.1926 35.4277 69.4998 35.8486C70.7453 37.5549 71.6962 39.4354 72.3259 41.4377C72.6957 42.6137 73.6137 43.5391 74.7814 43.9134L78.1402 44.9893C79.0216 45.2717 79.6137 46.0829 79.6137 47.0083V52.5777C79.6137 53.5031 79.0216 54.3143 78.1402 54.5966L72.7287 56.33C71.8629 56.6076 71.1302 57.2025 70.6656 58.0056C68.5395 61.6799 65.1969 64.7204 60.73 67.0428C60.2139 67.3114 59.8565 67.7917 59.7489 68.3609L58.0156 77.5384C57.9678 77.7913 57.7463 77.9746 57.4889 77.9746H51.8535C51.5961 77.9746 51.3746 77.7911 51.3267 77.5384L50.3667 72.4664C50.1778 71.4685 49.2418 70.8056 48.2344 70.9582C45.8069 71.3253 43.3056 71.5112 40.8003 71.5112C38.9364 71.5112 37.0964 71.4073 35.3309 71.2021C34.3548 71.0898 33.4454 71.7553 33.263 72.7191L32.3508 77.5384C32.3029 77.7913 32.0814 77.9746 31.824 77.9746H26.1886C25.9312 77.9746 25.7097 77.7911 25.6612 77.5345L23.9924 68.8665C23.8849 68.3081 23.5342 67.8332 23.0295 67.5637C15.415 63.4988 11.3903 56.7075 11.3903 47.9245C11.3903 43.4869 12.3612 39.5629 14.2758 36.2611C16.0626 33.1799 18.6721 30.6323 22.0321 28.6888C22.6025 28.3587 22.7974 27.6287 22.4675 27.0581C22.1376 26.4876 21.4076 26.293 20.837 26.6226C14.322 30.3914 10.3925 36.2057 9.31068 43.5905V43.5904C9.19585 43.58 9.08086 43.57 8.96635 43.5582C8.98717 42.7614 8.84303 41.9574 8.52912 41.1771C7.83677 39.4561 6.41458 38.2139 4.90575 38.0126C3.71675 37.8534 2.58524 38.3582 1.8 39.3957C0.661445 40.9002 0.847066 42.0908 1.20309 42.8247C1.80416 44.0631 3.34919 44.9392 5.91313 45.49C5.84266 45.5955 5.76514 45.7015 5.68026 45.8081C4.16534 47.708 2.38056 48.1281 1.22167 48.1676C0.54325 48.1905 0 48.7352 0 49.4141V49.4199C0 50.0895 0.528355 50.6356 1.19733 50.6662C1.28301 50.6702 1.37254 50.6723 1.46575 50.6723C2.93214 50.6723 5.28564 50.1315 7.54672 47.2962C7.90371 46.8487 8.19455 46.3766 8.41813 45.8888C8.64331 45.9142 8.85968 45.936 9.06693 45.9552C9.06693 45.9548 9.06693 45.9544 9.06709 45.954C9.02641 46.6007 9.00382 47.2568 9.00382 47.9245C9.00382 52.8938 10.1885 57.3246 12.5247 61.0942C14.6788 64.5696 17.7629 67.4152 21.6944 69.5552L23.3168 77.982C23.5777 79.3606 24.7855 80.3613 26.1886 80.3613H31.824C33.2271 80.3613 34.4349 79.3606 34.6958 77.982L35.5206 73.6245C37.2336 73.8059 39.0072 73.8979 40.8001 73.8979C43.2601 73.8979 45.7172 73.7265 48.1119 73.3882L48.9814 77.9823C49.2424 79.3609 50.4502 80.3614 51.8531 80.3614H57.4886C58.8917 80.3614 60.0994 79.3608 60.3605 77.9817L62.0481 69.0464C66.8156 66.5254 70.4092 63.2137 72.7311 59.2008C72.8985 58.9116 73.1562 58.6994 73.4566 58.6031L78.868 56.8697C80.7413 56.2693 82 54.5446 82 52.5774V47.0079C82 45.0409 80.7413 43.3162 78.868 42.7161ZM67.4703 28.5331C67.011 32.4611 65.7789 35.8212 64.5409 36.5224C63.1338 37.3194 59.885 37.4734 57.4458 35.6891C55.0037 33.9027 54.1909 30.6903 55.095 26.399C55.095 26.3989 55.095 26.3989 55.095 26.3989C55.1858 25.9679 55.4921 25.5951 55.9141 25.4019C61.8885 22.6671 65.333 21.7726 66.6127 21.7726C66.8058 21.7726 66.9496 21.7929 67.0454 21.8304C67.4298 22.2401 67.934 24.5689 67.4703 28.5331ZM3.35063 41.7825C3.22715 41.5279 3.51863 41.0802 3.70345 40.8358C3.99638 40.4489 4.26624 40.3698 4.47012 40.3698C4.5132 40.3698 4.5534 40.3733 4.59024 40.3783C5.13893 40.4515 5.90768 41.0553 6.31496 42.0676C6.41089 42.3059 6.5355 42.7007 6.56464 43.193C4.91263 42.8508 3.62914 42.3573 3.35063 41.7825Z" fill="black"/>
<path d="M38.1015 14.9201V10.6497C39.5742 10.7549 40.1213 11.428 40.6261 11.428C41.2573 11.428 41.5518 10.6287 41.5518 10.2289C41.5518 9.19801 39.5321 8.7563 38.1015 8.71418V8.14594C38.1015 7.89354 37.7859 7.66211 37.4704 7.66211C37.1126 7.66211 36.8602 7.89354 36.8602 8.14594V8.75598C34.8616 8.96642 32.863 10.0183 32.863 12.6691C32.863 15.3619 34.9668 16.1193 36.8602 16.7925V21.7363C34.7142 21.568 34.1463 20.0954 33.452 20.0954C32.9261 20.0954 32.4844 20.7896 32.4844 21.2946C32.4844 22.3254 34.2515 23.7349 36.8602 23.777V24.4292C36.8602 24.6816 37.1127 24.913 37.4704 24.913C37.786 24.913 38.1015 24.6816 38.1015 24.4292V23.7139C40.3737 23.3983 41.9304 21.9677 41.9304 19.3801C41.9304 16.5191 39.9318 15.5932 38.1015 14.9201ZM36.9864 14.5205C35.8714 14.0997 34.9668 13.658 34.9668 12.459C34.9668 11.3649 35.8083 10.839 36.9864 10.6918V14.5205ZM37.9752 21.6942V17.2553C39.0059 17.697 39.8264 18.2861 39.8264 19.6114C39.8264 20.8108 39.1112 21.4839 37.9752 21.6942Z" fill="black"/>
</svg>
