<svg width="134" height="134" viewBox="0 0 134 134" fill="none" xmlns="http://www.w3.org/2000/svg">
<g clip-path="url(#clip0_499_520)">
<path d="M125.139 21.9844H8.86075C3.97498 21.9844 0 25.9594 0 30.8449V103.155C0 108.041 3.97498 112.016 8.86075 112.016H125.139C130.025 112.016 134 108.041 134 103.155V30.8449C134 25.9594 130.025 21.9844 125.139 21.9844V21.9844ZM129.812 103.155C129.812 105.732 127.716 107.828 125.139 107.828H8.86075C6.28387 107.828 4.1875 105.731 4.1875 103.155V30.8449C4.1875 28.2682 6.28387 26.1719 8.86075 26.1719H125.139C127.716 26.1719 129.812 28.2682 129.812 30.8449V103.155ZM60.8928 41.2861H13.6526C12.4963 41.2861 11.5588 42.2236 11.5588 43.3799V90.6201C11.5588 91.7764 12.4963 92.7139 13.6526 92.7139H60.8928C62.0491 92.7139 62.9865 91.7764 62.9865 90.6201V43.3799C62.9865 42.2236 62.0491 41.2861 60.8928 41.2861ZM48.2133 88.5264H26.3323V85.6032C26.3323 79.5706 31.2401 74.6629 37.2727 74.6629C43.3053 74.6629 48.2133 79.5706 48.2133 85.6032V88.5264ZM58.799 88.5264H52.4008V85.6032C52.4008 77.2617 45.6142 70.4754 37.2727 70.4754C28.9312 70.4754 22.1448 77.2617 22.1448 85.6032V88.5264H15.7466V45.4736H58.7993V88.5264H58.799ZM37.2729 68.6179C42.3157 68.6179 46.4184 64.5152 46.4184 59.4724C46.4184 54.4297 42.3157 50.3272 37.2729 50.3272C32.2301 50.3272 28.1274 54.4299 28.1274 59.4724C28.1274 64.5152 32.2299 68.6179 37.2729 68.6179V68.6179ZM37.2729 54.5144C40.0069 54.5144 42.2309 56.7385 42.2309 59.4722C42.2309 62.2061 40.0069 64.4302 37.2729 64.4302C34.539 64.4302 32.3149 62.2061 32.3149 59.4722C32.3149 56.7385 34.539 54.5144 37.2729 54.5144ZM81.0567 59.7085C81.0567 60.8648 80.1192 61.8023 78.9629 61.8023H71.3082C70.1519 61.8023 69.2144 60.8648 69.2144 59.7085C69.2144 58.5522 70.1519 57.6148 71.3082 57.6148H78.9629C80.1192 57.6148 81.0567 58.5522 81.0567 59.7085ZM122.441 59.7085C122.441 60.8648 121.504 61.8023 120.347 61.8023H86.5541C85.3978 61.8023 84.4603 60.8648 84.4603 59.7085C84.4603 58.5522 85.3978 57.6148 86.5541 57.6148H120.347C121.504 57.6148 122.441 58.5522 122.441 59.7085ZM81.0567 86.1256C81.0567 87.2819 80.1192 88.2194 78.9629 88.2194H71.3082C70.1519 88.2194 69.2144 87.2819 69.2144 86.1256C69.2144 84.9693 70.1519 84.0319 71.3082 84.0319H78.9629C80.1192 84.0319 81.0567 84.9693 81.0567 86.1256ZM122.441 86.1256C122.441 87.2819 121.504 88.2194 120.347 88.2194H86.5541C85.3978 88.2194 84.4603 87.2819 84.4603 86.1256C84.4603 84.9693 85.3978 84.0319 86.5541 84.0319H120.347C121.504 84.0319 122.441 84.9693 122.441 86.1256ZM122.441 72.9169C122.441 74.0732 121.504 75.0107 120.347 75.0107H86.5541C85.3978 75.0107 84.4603 74.0732 84.4603 72.9169C84.4603 71.7607 85.3978 70.8232 86.5541 70.8232H120.347C121.504 70.8232 122.441 71.7607 122.441 72.9169ZM81.0567 72.9169C81.0567 74.0732 80.1192 75.0107 78.9629 75.0107H71.3082C70.1519 75.0107 69.2144 74.0732 69.2144 72.9169C69.2144 71.7607 70.1519 70.8232 71.3082 70.8232H78.9629C80.1192 70.8232 81.0567 71.7607 81.0567 72.9169ZM122.441 46.4996C122.441 47.6558 121.504 48.5933 120.347 48.5933H86.5541C85.3978 48.5933 84.4603 47.6558 84.4603 46.4996C84.4603 45.3433 85.3978 44.4058 86.5541 44.4058H120.347C121.504 44.4058 122.441 45.3433 122.441 46.4996ZM81.0567 46.4996C81.0567 47.6558 80.1192 48.5933 78.9629 48.5933H71.3082C70.1519 48.5933 69.2144 47.6558 69.2144 46.4996C69.2144 45.3433 70.1519 44.4058 71.3082 44.4058H78.9629C80.1192 44.4058 81.0567 45.3433 81.0567 46.4996Z" fill="black"/>
</g>
<defs>
<clipPath id="clip0_499_520">
<rect width="134" height="134" fill="white"/>
</clipPath>
</defs>
</svg>
