<svg width="280" height="280" viewBox="0 0 280 280" fill="none" xmlns="http://www.w3.org/2000/svg">
<path d="M61.6463 0.706055C57.2933 0.706055 52.9404 4.18841 52.9404 9.41194V18.1178H26.8227C12.8933 18.1178 0.705078 29.4355 0.705078 44.2355V79.059V253.177C0.705078 267.977 12.0227 279.294 26.8227 279.294H253.176C267.976 279.294 279.293 267.977 279.293 253.177V79.059V44.2355C279.293 29.4355 267.976 18.1178 253.176 18.1178H227.058V9.41194C227.058 4.18841 223.576 0.706055 218.352 0.706055C213.129 0.706055 209.646 4.18841 209.646 9.41194V18.1178H70.3521V9.41194C70.3521 4.18841 66.8698 0.706055 61.6463 0.706055ZM261.882 253.177C261.882 258.4 258.399 261.883 253.176 261.883H26.8227C21.5992 261.883 18.1168 258.4 18.1168 253.177V87.7649H261.882V253.177ZM209.646 35.5296V44.2355C209.646 49.459 213.129 52.9413 218.352 52.9413C223.576 52.9413 227.058 49.459 227.058 44.2355V35.5296H253.176C258.399 35.5296 261.882 39.0119 261.882 44.2355V70.3531H18.1168V44.2355C18.1168 39.0119 21.5992 35.5296 26.8227 35.5296H52.9404V44.2355C52.9404 49.459 56.4227 52.9413 61.6463 52.9413C66.8698 52.9413 70.3521 49.459 70.3521 44.2355V35.5296H209.646Z" fill="black"/>
<path d="M53.8114 161.765H88.6349C93.8584 161.765 97.3408 158.283 97.3408 153.059V118.235C97.3408 113.012 93.8584 109.53 88.6349 109.53H53.8114C48.5878 109.53 45.1055 113.012 45.1055 118.235V153.059C45.1055 158.283 48.5878 161.765 53.8114 161.765ZM62.5172 126.941H79.929V144.353H62.5172V126.941Z" fill="black"/>
<path d="M123.458 161.765H158.281C163.505 161.765 166.987 158.283 166.987 153.059V118.235C166.987 113.012 163.505 109.53 158.281 109.53H123.458C118.234 109.53 114.752 113.012 114.752 118.235V153.059C114.752 158.283 118.234 161.765 123.458 161.765V161.765ZM132.164 126.941H149.575V144.353H132.164V126.941Z" fill="black"/>
<path d="M193.104 161.765H227.928C233.151 161.765 236.634 158.283 236.634 153.059V118.235C236.634 113.012 233.151 109.53 227.928 109.53H193.104C187.881 109.53 184.398 113.012 184.398 118.235V153.059C184.398 158.283 187.881 161.765 193.104 161.765ZM201.81 126.941H219.222V144.353H201.81V126.941Z" fill="black"/>
<path d="M53.8114 240.118H88.6349C93.8584 240.118 97.3408 236.635 97.3408 231.412V196.588C97.3408 191.365 93.8584 187.883 88.6349 187.883H53.8114C48.5878 187.883 45.1055 191.365 45.1055 196.588V231.412C45.1055 236.635 48.5878 240.118 53.8114 240.118ZM62.5172 205.294H79.929V222.706H62.5172V205.294Z" fill="black"/>
<path d="M123.458 240.118H158.281C163.505 240.118 166.987 236.635 166.987 231.412V196.588C166.987 191.365 163.505 187.883 158.281 187.883H123.458C118.234 187.883 114.752 191.365 114.752 196.588V231.412C114.752 236.635 118.234 240.118 123.458 240.118V240.118ZM132.164 205.294H149.575V222.706H132.164V205.294Z" fill="black"/>
<path d="M193.104 240.118H227.928C233.151 240.118 236.634 236.635 236.634 231.412V196.588C236.634 191.365 233.151 187.883 227.928 187.883H193.104C187.881 187.883 184.398 191.365 184.398 196.588V231.412C184.398 236.635 187.881 240.118 193.104 240.118ZM201.81 205.294H219.222V222.706H201.81V205.294Z" fill="black"/>
</svg>
