<svg width="116" height="115" viewBox="0 0 116 115" fill="none" xmlns="http://www.w3.org/2000/svg">
<path d="M11.7266 115H57.7266C60.7756 114.997 63.6989 113.784 65.8549 111.628C68.0109 109.472 69.2235 106.549 69.2266 103.5C69.2266 102.992 69.0246 102.504 68.6652 102.145C68.3057 101.785 67.8182 101.583 67.3099 101.583C66.8016 101.583 66.314 101.785 65.9546 102.145C65.5952 102.504 65.3932 102.992 65.3932 103.5C65.3932 105.533 64.5855 107.483 63.1477 108.921C61.7099 110.359 59.7599 111.167 57.7266 111.167H11.7266C9.69324 111.167 7.74319 110.359 6.30541 108.921C4.86763 107.483 4.0599 105.533 4.0599 103.5V11.5C4.0599 9.46667 4.86763 7.51663 6.30541 6.07885C7.74319 4.64107 9.69324 3.83333 11.7266 3.83333H12.4587L16.6198 12.1555C17.0944 13.1128 17.8278 13.9179 18.7367 14.4796C19.6456 15.0413 20.6938 15.3371 21.7622 15.3333H47.6909C48.7594 15.3371 49.8075 15.0413 50.7164 14.4796C51.6254 13.9179 52.3587 13.1128 52.8333 12.1555L56.9944 3.83333H57.7266C59.7599 3.83333 61.7099 4.64107 63.1477 6.07885C64.5855 7.51663 65.3932 9.46667 65.3932 11.5V15.3333C65.3932 15.8417 65.5952 16.3292 65.9546 16.6886C66.314 17.0481 66.8016 17.25 67.3099 17.25C67.8182 17.25 68.3057 17.0481 68.6652 16.6886C69.0246 16.3292 69.2266 15.8417 69.2266 15.3333V11.5C69.2235 8.45094 68.0109 5.52764 65.8549 3.37163C63.6989 1.21563 60.7756 0.00304449 57.7266 0L11.7266 0C8.67751 0.00304449 5.75421 1.21563 3.5982 3.37163C1.44219 5.52764 0.229607 8.45094 0.226562 11.5L0.226563 103.5C0.229607 106.549 1.44219 109.472 3.5982 111.628C5.75421 113.784 8.67751 114.997 11.7266 115V115ZM49.4044 10.4401C49.2464 10.7592 49.0021 11.0277 48.6992 11.2151C48.3964 11.4024 48.047 11.5011 47.6909 11.5H21.7622C21.4061 11.5011 21.0568 11.4024 20.7539 11.2151C20.451 11.0277 20.2067 10.7592 20.0487 10.4401L16.7444 3.83333H52.7087L49.4044 10.4401Z" fill="black"/>
<path d="M50.0599 107.333C50.5682 107.333 51.0557 107.131 51.4152 106.772C51.7746 106.413 51.9766 105.925 51.9766 105.417C51.9766 104.908 51.7746 104.421 51.4152 104.061C51.0557 103.702 50.5682 103.5 50.0599 103.5H19.3932C18.8849 103.5 18.3974 103.702 18.0379 104.061C17.6785 104.421 17.4766 104.908 17.4766 105.417C17.4766 105.925 17.6785 106.413 18.0379 106.772C18.3974 107.131 18.8849 107.333 19.3932 107.333H50.0599Z" fill="black"/>
<path d="M95.991 63.8021C94.5289 62.4056 92.5848 61.6263 90.563 61.6263C88.5411 61.6263 86.597 62.4056 85.135 63.8021L81.3361 67.601C81.2589 67.6848 81.1549 67.7391 81.042 67.7549C80.9291 67.7706 80.8143 67.7467 80.717 67.6872C76.0422 64.3476 71.9518 60.2578 68.6114 55.5835C68.5556 55.4887 68.5335 55.3777 68.5489 55.2688C68.5642 55.1599 68.6159 55.0593 68.6957 54.9836L72.5041 51.1751C73.9409 49.7341 74.7478 47.7821 74.7478 45.7471C74.7478 43.7122 73.9409 41.7602 72.5041 40.3191L67.0148 34.826C65.553 33.4311 63.6102 32.6528 61.5897 32.6528C59.5692 32.6528 57.6263 33.4311 56.1645 34.826C50.9129 40.0776 48.8812 48.2886 50.7174 56.7986C51.9555 62.495 55.0625 67.7064 60.523 73.2283C62.248 74.8901 61.9145 74.5891 63.101 75.8062C68.5922 81.2381 73.8056 84.345 79.5096 85.5812C87.3679 87.266 95.8395 85.7729 101.475 80.1321C102.189 79.42 102.755 78.5739 103.141 77.6425C103.528 76.7111 103.727 75.7126 103.727 74.7041C103.727 73.6957 103.528 72.6972 103.141 71.7658C102.755 70.8343 102.189 69.9883 101.475 69.2761L95.991 63.8021ZM98.7682 77.4335C97.0229 79.1131 94.9547 80.4208 92.689 81.2774C90.4233 82.134 88.0073 82.5216 85.5873 82.4168C77.5373 82.4168 71.5036 78.7311 65.8226 73.1133C63.8676 71.0951 63.9558 71.2311 63.2198 70.5124C58.9541 66.625 55.9131 61.5793 54.4683 55.9917C52.9043 48.764 54.5526 41.8678 58.8766 37.5419C59.2328 37.184 59.6562 36.9001 60.1224 36.7063C60.5887 36.5126 61.0886 36.4128 61.5935 36.4128C62.0984 36.4128 62.5983 36.5126 63.0646 36.7063C63.5308 36.9001 63.9542 37.184 64.3104 37.5419L69.8016 43.0255C70.1598 43.3817 70.444 43.8052 70.6379 44.2716C70.8318 44.738 70.9317 45.2382 70.9317 45.7433C70.9317 46.2484 70.8318 46.7486 70.6379 47.215C70.444 47.6814 70.1598 48.1049 69.8016 48.4611L65.9683 52.2791C65.2411 52.9982 64.7946 53.9533 64.7092 54.9723C64.6238 55.9914 64.9052 57.0075 65.5025 57.8375C69.0809 62.8394 73.4584 67.2181 78.4592 70.798C79.2909 71.3981 80.31 71.6807 81.332 71.5946C82.354 71.5084 83.3114 71.0593 84.031 70.3284L87.8451 66.5085C88.5664 65.7884 89.5438 65.384 90.563 65.384C91.5821 65.384 92.5596 65.7884 93.2808 66.5085L98.7644 71.9921C99.1236 72.3481 99.4089 72.7718 99.6036 73.2386C99.7984 73.7054 99.8989 74.2061 99.8992 74.712C99.8996 75.2178 99.7998 75.7187 99.6057 76.1858C99.4116 76.6528 99.127 77.0769 98.7682 77.4335Z" fill="black"/>
<path d="M103.725 21.0835H50.0581C47.009 21.0865 44.0857 22.2991 41.9297 24.4551C39.7737 26.6111 38.5611 29.5344 38.5581 32.5835V44.8502L17.5744 56.0416C16.964 56.3694 16.4538 56.8566 16.0981 57.4512C15.7425 58.0459 15.5547 58.7258 15.5547 59.4187C15.5547 60.1116 15.7425 60.7916 16.0981 61.3863C16.4538 61.9809 16.964 62.4681 17.5744 62.7959L38.5581 73.9835V86.2502C38.5611 89.2992 39.7737 92.2225 41.9297 94.3785C44.0857 96.5345 47.009 97.7471 50.0581 97.7502H103.725C106.774 97.7471 109.697 96.5345 111.853 94.3785C114.009 92.2225 115.222 89.2992 115.225 86.2502V32.5835C115.222 29.5344 114.009 26.6111 111.853 24.4551C109.697 22.2991 106.774 21.0865 103.725 21.0835V21.0835ZM111.391 86.2502C111.391 88.2835 110.584 90.2335 109.146 91.6713C107.708 93.1091 105.758 93.9168 103.725 93.9168H50.0581C48.0247 93.9168 46.0747 93.1091 44.6369 91.6713C43.1991 90.2335 42.3914 88.2835 42.3914 86.2502V72.8335C42.3914 72.4863 42.297 72.1456 42.1184 71.8479C41.9399 71.5502 41.6838 71.3065 41.3775 71.143L19.3914 59.4168L41.3832 47.6868C41.6879 47.5228 41.9424 47.2795 42.1199 46.9825C42.2974 46.6856 42.3912 46.3461 42.3914 46.0002V32.5835C42.3914 30.5502 43.1991 28.6001 44.6369 27.1623C46.0747 25.7246 48.0247 24.9168 50.0581 24.9168H103.725C105.758 24.9168 107.708 25.7246 109.146 27.1623C110.584 28.6001 111.391 30.5502 111.391 32.5835V86.2502Z" fill="black"/>
</svg>
