<svg width="150" height="150" viewBox="0 0 150 150" fill="none" xmlns="http://www.w3.org/2000/svg">
<path d="M148.2 80.4L69.6 1.8C68.4 0.600001 66.6 0 64.8 0L9.6 4.2C6.6 4.2 4.2 6.6 4.2 9.6L0 64.8C0 66.6 0.6 68.4 1.8 69.6L80.4 148.2C81.6 149.4 83.4 150 84.6 150C85.8 150 87.6 149.4 88.8 148.2L148.2 88.8C150.6 86.4 150.6 82.8 148.2 80.4V80.4ZM12 63L15.6 15.6L63 12L121.8 70.8L70.8 121.8L12 63ZM79.8 130.8L75 126L126 75L130.8 79.8L79.8 130.8Z" fill="black"/>
<path d="M39 48C43.9706 48 48 43.9706 48 39C48 34.0294 43.9706 30 39 30C34.0294 30 30 34.0294 30 39C30 43.9706 34.0294 48 39 48Z" fill="black"/>
</svg>
