<svg width="219" height="219" viewBox="0 0 219 219" fill="none" xmlns="http://www.w3.org/2000/svg">
<path d="M99.2344 76.9922H150.562C151.509 76.9922 152.273 76.2274 152.273 75.2812C152.273 74.3351 151.509 73.5703 150.562 73.5703H99.2344C98.2882 73.5703 97.5234 74.3351 97.5234 75.2812C97.5234 76.2274 98.2882 76.9922 99.2344 76.9922Z" fill="black"/>
<path d="M99.2344 90.6797H130.031C130.977 90.6797 131.742 89.9149 131.742 88.9688C131.742 88.0226 130.977 87.2578 130.031 87.2578H99.2344C98.2882 87.2578 97.5234 88.0226 97.5234 88.9688C97.5234 89.9149 98.2882 90.6797 99.2344 90.6797Z" fill="black"/>
<path d="M83.8359 70.1484H63.3047C62.3585 70.1484 61.5938 70.9132 61.5938 71.8594V92.3906C61.5938 93.3368 62.3585 94.1016 63.3047 94.1016H83.8359C84.7821 94.1016 85.5469 93.3368 85.5469 92.3906V71.8594C85.5469 70.9132 84.7821 70.1484 83.8359 70.1484ZM82.125 90.6797H65.0156V73.5703H82.125V90.6797Z" fill="black"/>
<path d="M99.2344 119.766H150.562C151.509 119.766 152.273 119.001 152.273 118.055C152.273 117.109 151.509 116.344 150.562 116.344H99.2344C98.2882 116.344 97.5234 117.109 97.5234 118.055C97.5234 119.001 98.2882 119.766 99.2344 119.766Z" fill="black"/>
<path d="M99.2344 133.453H130.031C130.977 133.453 131.742 132.688 131.742 131.742C131.742 130.796 130.977 130.031 130.031 130.031H99.2344C98.2882 130.031 97.5234 130.796 97.5234 131.742C97.5234 132.688 98.2882 133.453 99.2344 133.453Z" fill="black"/>
<path d="M83.8359 112.922H63.3047C62.3585 112.922 61.5938 113.687 61.5938 114.633V135.164C61.5938 136.11 62.3585 136.875 63.3047 136.875H83.8359C84.7821 136.875 85.5469 136.11 85.5469 135.164V114.633C85.5469 113.687 84.7821 112.922 83.8359 112.922ZM82.125 133.453H65.0156V116.344H82.125V133.453Z" fill="black"/>
<path d="M143.719 159.117H99.2344C98.2882 159.117 97.5234 159.882 97.5234 160.828C97.5234 161.774 98.2882 162.539 99.2344 162.539H143.719C144.665 162.539 145.43 161.774 145.43 160.828C145.43 159.882 144.665 159.117 143.719 159.117Z" fill="black"/>
<path d="M130.031 172.805H99.2344C98.2882 172.805 97.5234 173.569 97.5234 174.516C97.5234 175.462 98.2882 176.227 99.2344 176.227H130.031C130.977 176.227 131.742 175.462 131.742 174.516C131.742 173.569 130.977 172.805 130.031 172.805Z" fill="black"/>
<path d="M83.8359 155.695H63.3047C62.3585 155.695 61.5938 156.46 61.5938 157.406V177.938C61.5938 178.884 62.3585 179.648 63.3047 179.648H83.8359C84.7821 179.648 85.5469 178.884 85.5469 177.938V157.406C85.5469 156.46 84.7821 155.695 83.8359 155.695ZM82.125 176.227H65.0156V159.117H82.125V176.227Z" fill="black"/>
<path d="M213.867 153.984C213.867 136.637 200.199 122.462 183.07 121.564V34.2188C183.07 33.2726 182.306 32.5078 181.359 32.5078H142.008V23.9531C142.008 23.007 141.243 22.2422 140.297 22.2422H128.32V19.8691C128.32 9.85671 119.877 1.71094 109.5 1.71094C99.1232 1.71094 90.6797 9.85671 90.6797 19.8691V22.2422H78.7031C77.757 22.2422 76.9922 23.007 76.9922 23.9531V32.5078H37.6406C36.6945 32.5078 35.9297 33.2726 35.9297 34.2188V215.578C35.9297 216.524 36.6945 217.289 37.6406 217.289H181.359C182.306 217.289 183.07 216.524 183.07 215.578V186.405C200.199 185.507 213.867 171.332 213.867 153.984ZM94.1016 19.8691C94.1016 11.7439 101.009 5.13281 109.5 5.13281C117.991 5.13281 124.898 11.7439 124.898 19.8691V22.2422H121.477V19.8691C121.477 13.631 116.103 8.55469 109.5 8.55469C102.897 8.55469 97.5234 13.631 97.5234 19.8691V22.2422H94.1016V19.8691ZM118.055 22.2422H100.945V19.8691C100.945 15.5165 104.783 11.9766 109.5 11.9766C114.217 11.9766 118.055 15.5165 118.055 19.8691V22.2422ZM80.4141 25.6641H138.586V53.0391H80.4141V25.6641ZM39.3516 213.867V35.9297H76.9922V54.75C76.9922 55.6961 77.757 56.4609 78.7031 56.4609H140.297C141.243 56.4609 142.008 55.6961 142.008 54.75V35.9297H179.648V121.564C162.52 122.462 148.852 136.637 148.852 153.984C148.852 171.332 162.52 185.507 179.648 186.405V213.867H39.3516ZM181.359 183.07C165.321 183.07 152.273 170.023 152.273 153.984C152.273 137.946 165.321 124.898 181.359 124.898C197.398 124.898 210.445 137.946 210.445 153.984C210.445 170.023 197.398 183.07 181.359 183.07Z" fill="black"/>
<path d="M204.666 143.365L198.825 137.524C198.156 136.855 197.074 136.855 196.405 137.524L177.084 156.846L168.028 147.79C167.359 147.121 166.277 147.121 165.609 147.79L159.767 153.631C159.098 154.3 159.098 155.381 159.767 156.05L175.874 172.157C176.208 172.491 176.646 172.658 177.084 172.658C177.522 172.658 177.96 172.491 178.293 172.157L204.666 145.785C205.335 145.116 205.335 144.034 204.666 143.365V143.365ZM177.084 168.528L163.396 154.841L166.818 151.419L175.874 160.475C176.543 161.144 177.624 161.144 178.293 160.475L197.615 141.153L201.037 144.575L177.084 168.528Z" fill="black"/>
</svg>
