<svg width="158" height="158" viewBox="0 0 158 158" fill="none" xmlns="http://www.w3.org/2000/svg">
<g clip-path="url(#clip0_470_182)">
<path d="M79 158C57.8984 158 38.0598 149.782 23.1384 134.862C8.21754 119.94 0 100.102 0 79C0 57.8984 8.21754 38.0598 23.1384 23.1384C38.0598 8.21754 57.8984 0 79 0C100.102 0 119.94 8.21754 134.862 23.1384C149.782 38.0598 158 57.8984 158 79C158 100.102 149.782 119.94 134.862 134.862C119.94 149.782 100.102 158 79 158V158ZM79 9.25781C60.3711 9.25781 42.8575 16.5122 29.6849 29.6849C16.5122 42.8575 9.25781 60.3711 9.25781 79C9.25781 97.6289 16.5122 115.142 29.6849 128.315C42.8575 141.488 60.3711 148.742 79 148.742C97.6289 148.742 115.142 141.488 128.315 128.315C141.488 115.142 148.742 97.6289 148.742 79C148.742 60.3711 141.488 42.8575 128.315 29.6849C115.142 16.5122 97.6289 9.25781 79 9.25781V9.25781Z" fill="black"/>
<path d="M74.3711 18.5264H83.6289V30.88H74.3711V18.5264Z" fill="black"/>
<path d="M109.734 41.7101L118.468 32.9761L125.014 39.5213L116.28 48.2554L109.734 41.7101Z" fill="black"/>
<path d="M127.117 74.3711H139.471V83.6289H127.117V74.3711Z" fill="black"/>
<path d="M109.727 116.299L116.272 109.754L125.006 118.488L118.461 125.033L109.727 116.299Z" fill="black"/>
<path d="M74.3711 127.12H83.6289V139.474H74.3711V127.12Z" fill="black"/>
<path d="M32.9492 118.48L41.6832 109.746L48.2285 116.291L39.4945 125.025L32.9492 118.48Z" fill="black"/>
<path d="M18.5273 74.3711H30.881V83.6289H18.5273V74.3711Z" fill="black"/>
<path d="M32.957 39.5116L39.5023 32.9663L48.2363 41.7003L41.691 48.2456L32.957 39.5116Z" fill="black"/>
<path d="M111.678 83.6289H74.3711V46.3224H83.6289V74.3711H111.678V83.6289Z" fill="black"/>
</g>
<defs>
<clipPath id="clip0_470_182">
<rect width="158" height="158" fill="white"/>
</clipPath>
</defs>
</svg>
