<svg width="15" height="16" viewBox="0 0 15 16" fill="none" xmlns="http://www.w3.org/2000/svg">
<path d="M4 0.5C1.79086 0.5 0 2.29086 0 4.5V11.5C0 13.7091 1.79086 15.5 4 15.5H11C13.2091 15.5 15 13.7091 15 11.5V4.5C15 2.29086 13.2091 0.5 11 0.5H4ZM14.0722 10.5722C14.0722 12.7813 12.2813 14.5722 10.0722 14.5722H4.92784C2.7187 14.5722 0.927835 12.7813 0.927835 10.5722V5.42784C0.927835 3.2187 2.7187 1.42784 4.92783 1.42784H10.0722C12.2813 1.42784 14.0722 3.2187 14.0722 5.42783V10.5722Z" fill="#243342"/>
<path d="M4.94904 11.2067L7.49978 8.65595L10.0505 11.2067L10.7066 10.5506L8.15586 7.99987L10.7066 5.44916L10.0505 4.79309L7.49978 7.3438L4.94904 4.79309L4.29297 5.44916L6.84371 7.99987L4.29297 10.5506L4.94904 11.2067Z" fill="#243342"/>
</svg>
