<svg width="129" height="127" viewBox="0 0 129 127" fill="none" xmlns="http://www.w3.org/2000/svg">
<path d="M15.2064 79.24C14.9282 78.0399 14.694 76.8228 14.5038 75.5885C14.4189 75.0051 14.5679 74.4119 14.9185 73.938C15.2691 73.4641 15.7927 73.1479 16.3753 73.0584C16.958 72.9689 17.5524 73.1132 18.0291 73.46C18.5057 73.8068 18.826 74.328 18.9202 74.9099C19.0925 76.0303 19.3057 77.1362 19.5595 78.2276C19.6915 78.804 19.5897 79.4093 19.2763 79.9109C18.9629 80.4124 18.4635 80.7692 17.8875 80.9032C17.3115 81.0371 16.7058 80.9373 16.2033 80.6256C15.7007 80.3138 15.3423 79.8156 15.2064 79.24V79.24Z" fill="black"/>
<path d="M28.8071 103.165C24.0511 98.6314 20.2871 93.1608 17.7531 87.0987C17.5295 86.5535 17.5303 85.9421 17.7552 85.3976C17.9802 84.853 18.4111 84.4193 18.9543 84.1909C19.4974 83.9624 20.1088 83.9578 20.6554 84.1779C21.2019 84.398 21.6395 84.8251 21.8727 85.3662C24.1686 90.8617 27.5796 95.8212 31.8903 99.9311C32.3109 100.342 32.5527 100.902 32.5632 101.49C32.5737 102.077 32.3521 102.646 31.9464 103.071C31.5407 103.497 30.9836 103.745 30.3959 103.763C29.8083 103.78 29.2374 103.565 28.8071 103.165V103.165Z" fill="black"/>
<path d="M121.366 68.8167C118.423 67.6649 115.21 67.3875 112.112 68.0179V65.3647C112.131 63.6542 111.47 62.0061 110.275 60.7821C109.08 59.558 107.448 58.8578 105.738 58.8351H13.6035C11.893 58.8578 10.2613 59.558 9.06629 60.7821C7.87128 62.0061 7.21049 63.6542 7.22885 65.3647V68.0497C7.22173 76.149 8.99001 84.1515 12.4092 91.4937C15.8284 98.8359 20.8154 105.339 27.0191 110.546H2.79495C2.1753 110.612 1.60265 110.907 1.1896 111.374C0.776543 111.841 0.552963 112.445 0.562812 113.068C0.562812 122.694 13.7814 126.187 22.6655 126.187H99.112C107.996 126.187 121.215 122.694 121.215 113.068L121.217 112.781C121.217 112.188 120.981 111.62 120.562 111.201C120.143 110.782 119.575 110.546 118.982 110.546H92.3217C94.0109 109.147 95.6116 107.644 97.1146 106.046C113.008 102.435 126.108 91.2204 128.012 83.2212C128.866 80.4231 128.661 77.4083 127.436 74.7517C126.21 72.095 124.05 69.9824 121.366 68.8167V68.8167ZM111.149 79.7005C112.98 78.991 114.964 78.7703 116.906 79.0601C117.114 79.1495 117.46 79.3012 117.144 80.6355C116.757 82.258 113.336 86.1538 107.713 89.6722C109.056 86.4796 110.101 83.1692 110.832 79.7834C110.938 79.7548 111.044 79.7276 111.149 79.7005V79.7005ZM99.112 121.718H22.6654C16.1936 121.718 7.38697 119.622 5.42863 115.015H116.349C114.39 119.623 105.584 121.718 99.112 121.718ZM84.7348 110.546H34.6064C27.5489 105.933 21.7564 99.629 17.7555 92.2072C13.7546 84.7854 11.6721 76.4812 11.6975 68.0497V65.3647C11.6784 64.8391 11.8681 64.3272 12.2253 63.941C12.5824 63.5548 13.0779 63.3258 13.6035 63.3038H105.738C106.263 63.3258 106.759 63.5548 107.116 63.941C107.473 64.3272 107.663 64.8391 107.644 65.3647V68.0497C107.669 76.4812 105.586 84.7853 101.586 92.2071C97.5846 99.6289 91.7922 105.933 84.7348 110.546V110.546ZM123.665 82.1869C122.478 87.1725 113.878 95.5334 102.075 99.911C102.824 98.8375 103.533 97.7371 104.202 96.6096C112.873 92.6923 120.411 86.2075 121.491 81.6698C121.98 80.406 121.961 79.002 121.439 77.7516C120.917 76.5012 119.931 75.5013 118.688 74.9612C116.411 74.2229 113.959 74.215 111.677 74.9386C111.774 74.1664 111.837 73.3879 111.901 72.6094C114.434 71.9383 117.111 72.0446 119.583 72.9145C121.296 73.6731 122.665 75.0445 123.42 76.7598C124.175 78.4751 124.263 80.4106 123.665 82.1869V82.1869Z" fill="black"/>
<path d="M59.9293 48.8458C63.6834 43.4825 65.1017 38.861 64.1438 35.1068C62.3766 28.1803 52.9663 26.6563 50.803 17.7566C49.6411 12.9758 51.0092 7.61137 54.8681 1.8105C55.1991 1.32394 55.7087 0.98762 56.2862 0.874603C56.8637 0.761587 57.4625 0.881 57.9525 1.2069C58.4425 1.53281 58.7842 2.03888 58.9032 2.6152C59.0222 3.19151 58.9091 3.79152 58.5883 4.2849C55.4485 9.00566 54.2898 13.1821 55.1453 16.7005C56.8461 23.7019 66.2304 25.2052 68.4741 34.0027C69.768 39.0748 68.125 44.9302 63.5907 51.4075C63.2491 51.8883 62.7313 52.2145 62.1502 52.315C61.569 52.4155 60.9717 52.2822 60.4885 51.9441C60.0052 51.606 59.6753 51.0906 59.5705 50.5102C59.4657 49.9298 59.5947 49.3315 59.9293 48.8458V48.8458Z" fill="black"/>
<path d="M73.947 42.2561C77.0094 38.022 78.1844 34.4107 77.4371 31.5229C76.0483 26.1486 68.2033 24.9153 66.3863 17.5427C65.4033 13.5453 66.5827 9.07981 69.8928 4.26739C70.2314 3.78585 70.7464 3.45739 71.3258 3.35339C71.9052 3.24939 72.5023 3.37826 72.9872 3.71199C73.4722 4.04573 73.8058 4.55736 73.9156 5.1357C74.0255 5.71404 73.9027 6.31237 73.5738 6.80066C71.0187 10.5155 70.0608 13.77 70.7263 16.4735C72.0667 21.915 79.8772 23.1086 81.764 30.4034C82.8605 34.642 81.4476 39.5111 77.5669 44.8745C77.218 45.3502 76.6952 45.6686 76.1124 45.7602C75.5296 45.8518 74.9343 45.7092 74.4563 45.3635C73.9783 45.0177 73.6565 44.497 73.5611 43.9148C73.4657 43.3327 73.6044 42.7364 73.947 42.2561V42.2561Z" fill="black"/>
<path d="M45.1071 46.3072C48.1696 42.0753 49.3446 38.4639 48.5972 35.5761C47.2082 30.201 39.3635 28.9695 37.5465 21.5949C36.5635 17.5985 37.7428 13.133 41.0529 8.32062C41.3913 7.8385 41.9064 7.5095 42.4861 7.40519C43.0658 7.30089 43.6633 7.42971 44.1485 7.76365C44.6337 8.09758 44.9675 8.6096 45.0771 9.18833C45.1867 9.76706 45.0634 10.3657 44.734 10.854C42.1789 14.5688 41.221 17.8233 41.8865 20.5257C43.2273 25.9713 51.0365 27.1586 52.9242 34.4567C54.0206 38.6953 52.6078 43.5644 48.7271 48.9278C48.3782 49.4042 47.8549 49.7231 47.2716 49.8148C46.6883 49.9066 46.0923 49.7637 45.614 49.4174C45.1357 49.0712 44.8139 48.5497 44.719 47.9669C44.624 47.3841 44.7635 46.7874 45.1071 46.3072V46.3072Z" fill="black"/>
</svg>
