<svg width="134" height="134" viewBox="0 0 134 134" fill="none" xmlns="http://www.w3.org/2000/svg">
<g clip-path="url(#clip0_439_276)">
<path d="M82.1582 25.8256C87.3094 21.6646 88.4756 17.2164 88.5465 14.2173C88.7198 6.92138 82.9586 1.58231 82.3009 0.997889C80.6719 -0.450989 78.1767 -0.30495 76.7276 1.32425C75.2787 2.95346 75.4247 5.44843 77.0539 6.89756C77.0908 6.93054 80.7408 10.3455 80.6534 14.0302C80.6068 15.9934 79.4761 17.8427 77.1968 19.6839C72.0457 23.8449 70.8795 28.2931 70.8085 31.2922C70.635 38.5881 76.3965 43.9272 77.0539 44.5119C77.8079 45.1824 78.7491 45.5127 79.6863 45.5127C80.774 45.5127 81.8567 45.0678 82.6351 44.1923C84.084 42.5631 83.9458 40.0749 82.3166 38.6261C81.2804 37.6839 78.6114 34.5582 78.7022 31.4497C78.7596 29.4975 79.8899 27.6577 82.1582 25.8256Z" fill="black"/>
<path d="M57.1114 25.8257C62.2625 21.6646 63.4287 17.2164 63.4997 14.2174C63.6729 6.92144 57.9117 1.58237 57.254 0.99795C55.6253 -0.450928 53.1298 -0.304889 51.6807 1.32431C50.2318 2.95352 50.3778 5.44849 52.0071 6.89763C52.044 6.9306 55.6939 10.3455 55.6065 14.0303C55.5599 15.9934 54.4293 17.8427 52.1499 19.6839C46.9988 23.845 45.8326 28.2932 45.7616 31.2922C45.5884 38.5882 51.3496 43.9272 52.0071 44.5119C52.7611 45.1824 53.7022 45.5127 54.6394 45.5127C55.7271 45.5127 56.8099 45.0678 57.5882 44.1924C59.0371 42.5632 58.8989 40.075 57.2697 38.6261C56.2336 37.6839 53.5645 34.5582 53.6554 31.4498C53.7127 29.4976 54.843 27.6577 57.1114 25.8257Z" fill="black"/>
<path d="M113.628 64.4218H108.955V61.5266C108.955 59.3465 107.188 57.5789 105.008 57.5789H4.25246C2.07234 57.5789 0.304688 59.3462 0.304688 61.5266V82.3616C0.304688 100.772 10.4947 116.96 25.7933 126.105H4.25482C2.0747 126.105 0.307043 127.872 0.307043 130.053C0.307043 132.233 2.07417 134 4.25482 134H105.008C107.188 134 108.956 132.233 108.956 130.053C108.956 127.872 107.188 126.105 105.008 126.105H83.467C92.1666 120.904 99.2139 113.427 103.675 104.558H113.628C124.693 104.558 133.696 95.5551 133.696 84.4896C133.696 73.4241 124.693 64.4218 113.628 64.4218ZM101.06 82.3616C101.06 106.482 80.2314 126.105 54.63 126.105C29.0286 126.105 8.20023 106.482 8.20023 82.3616V65.4744H101.06V82.3616H101.06ZM113.628 96.6624H106.834C108.214 92.1193 108.955 87.3212 108.955 82.3616V72.3168H113.628C120.34 72.3168 125.8 77.7776 125.8 84.4896C125.8 91.2017 120.34 96.6624 113.628 96.6624Z" fill="black"/>
<path d="M32.0645 25.8259C37.2156 21.6648 38.3819 17.2166 38.4528 14.2176C38.626 6.92162 32.8648 1.58255 32.2071 0.998133C30.5782 -0.450745 28.0829 -0.304706 26.6338 1.3245C25.1849 2.95344 25.331 5.44867 26.9602 6.89781C26.9971 6.93079 30.647 10.3457 30.5596 14.0304C30.513 15.9936 29.3824 17.8429 27.1031 19.6841C21.9519 23.8452 20.7857 28.2934 20.7148 31.2924C20.5418 38.5881 26.303 43.9272 26.9604 44.5118C27.7126 45.1808 28.6493 45.5098 29.5826 45.5098C30.6706 45.5098 31.7538 45.0625 32.534 44.1855C33.9829 42.5563 33.8368 40.0613 32.2076 38.6122C32.1707 38.5792 28.5208 35.1643 28.6082 31.4795C28.6543 29.5164 29.7849 27.6668 32.0645 25.8259Z" fill="black"/>
</g>
<defs>
<clipPath id="clip0_439_276">
<rect width="134" height="134" fill="white"/>
</clipPath>
</defs>
</svg>
