<svg width="254" height="254" viewBox="0 0 254 254" fill="none" xmlns="http://www.w3.org/2000/svg">
<path d="M43.5432 99.5926C43.2879 130.805 48.9717 173.235 77.5409 198.248C81.1093 201.331 85.4704 203.352 90.1294 204.083C100.826 205.817 111.644 206.689 122.48 206.693C133.316 206.689 144.135 205.816 154.831 204.081C167.935 201.9 176.237 189.67 183.046 179.545C203.049 174.39 232.533 153.645 232.892 134.806C233.445 118.368 213.545 115.729 200.894 116.887C201.303 110.862 201.464 105.032 201.409 99.5388C201.322 84.9072 166.102 79.782 150.944 78.2569C149.907 78.1733 148.88 78.4996 148.081 79.1656C147.283 79.8316 146.778 80.7842 146.674 81.8187C146.571 82.8531 146.877 83.8869 147.528 84.6979C148.178 85.5089 149.121 86.0323 150.153 86.1557C180.771 89.233 193.48 96.4244 193.48 99.5909C193.48 104.604 168.419 114.363 122.48 114.363C76.5412 114.363 51.4806 104.604 51.4806 99.5909C51.4806 96.2927 64.7589 88.9133 96.7453 85.9716C97.7787 85.8568 98.7258 85.341 99.3828 84.5352C100.04 83.7294 100.355 82.698 100.259 81.6626C100.164 80.6273 99.6656 79.6707 98.8722 78.9987C98.0788 78.3267 97.0534 77.9929 96.0165 78.069C80.2254 79.5346 43.6579 84.4776 43.5432 99.5926V99.5926ZM222.679 128.738C232.724 141.669 205.69 162.224 188.568 169.333C194.818 155.246 198.745 140.24 200.196 124.898C210.72 124.024 219.023 125.4 222.679 128.738ZM122.48 122.301C150.228 122.301 179.502 118.51 193.304 110.397C192.204 138.331 185.424 171.932 162.191 192.271C159.742 194.378 156.752 195.755 153.56 196.246C132.974 199.576 111.987 199.576 91.4005 196.248C88.1885 195.75 85.1813 194.359 82.7228 192.233C59.5267 171.927 52.7518 138.329 51.6524 110.395C65.452 118.509 94.7295 122.301 122.48 122.301V122.301Z" fill="black"/>
<path d="M125.804 238.125C189.713 238.898 258.816 211.86 218.68 177.014C217.839 176.4 216.791 176.142 215.761 176.294C214.732 176.445 213.803 176.995 213.175 177.825C212.546 178.655 212.269 179.698 212.403 180.73C212.536 181.762 213.07 182.701 213.888 183.344C244.947 207.93 185.15 230.397 125.805 230.188C61.8731 230.433 -2.52278 204.117 46.2659 178.096C47.1831 177.607 47.8719 176.778 48.1845 175.786C48.4971 174.795 48.4084 173.721 47.9376 172.794C47.4667 171.868 46.6512 171.163 45.6663 170.831C44.6814 170.499 43.6055 170.566 42.6698 171.019C28.5624 178.181 21.1016 187.052 21.1016 196.672C21.1016 219.917 67.091 238.125 125.804 238.125V238.125Z" fill="black"/>
<path d="M110.672 92.4459C110.069 93.2932 109.823 94.343 109.986 95.3698C110.149 96.3965 110.708 97.3184 111.544 97.9375C112.379 98.5565 113.424 98.8233 114.453 98.6806C115.483 98.5378 116.416 97.997 117.051 97.1741C121.508 91.1611 127.132 77.2666 116.516 67.7226C108.621 60.6185 116.664 49.0358 117.082 48.4486C117.672 47.5934 117.903 46.541 117.726 45.5173C117.549 44.4935 116.978 43.58 116.135 42.9727C115.292 42.3653 114.244 42.1126 113.217 42.2687C112.19 42.4248 111.265 42.9773 110.641 43.8076C106.211 49.9562 100.622 64.1007 111.207 73.6234C119.101 80.7218 111.013 91.9808 110.672 92.4459V92.4459Z" fill="black"/>
<path d="M136.958 66.1627C136.356 67.01 136.11 68.0597 136.273 69.0862C136.437 70.1128 136.996 71.0344 137.831 71.653C138.667 72.2716 139.711 72.5379 140.741 72.3947C141.77 72.2515 142.703 71.7101 143.338 70.887C147.791 64.876 153.414 50.9815 142.803 41.4336C134.884 34.3139 142.996 22.6886 143.372 22.1596C143.961 21.3039 144.191 20.2514 144.013 19.228C143.835 18.2046 143.263 17.2917 142.42 16.685C141.577 16.0784 140.53 15.8263 139.503 15.9829C138.476 16.1394 137.551 16.6922 136.927 17.5225C132.493 23.6712 126.908 37.8156 137.493 47.3344C145.384 54.4367 137.299 65.6957 136.958 66.1627Z" fill="black"/>
</svg>
