<svg width="203" height="203" viewBox="0 0 203 203" fill="none" xmlns="http://www.w3.org/2000/svg">
<g clip-path="url(#clip0_439_232)">
<path d="M199.035 81.874H166.523V73.4816C166.523 71.2918 164.748 69.5168 162.559 69.5168H76.918C74.7286 69.5168 72.9531 71.2918 72.9531 73.4816C72.9531 75.6714 74.7286 77.4465 76.918 77.4465H158.594V107.843C158.594 134.546 144.337 159.363 121.317 172.867H45.2064C22.1861 159.364 7.92969 134.546 7.92969 107.844V77.4469H34.4941C36.6835 77.4469 38.459 75.6718 38.459 73.482C38.459 71.2922 36.6835 69.5172 34.4941 69.5172H3.96484C1.77546 69.5172 0 71.2922 0 73.482V107.844C0 122.831 4.02828 137.526 11.6495 150.34C16.7891 158.982 23.458 166.614 31.2676 172.867H3.96484C1.77546 172.867 0 174.642 0 176.832C0 191.261 11.7387 203 26.168 203H149.871C164.3 203 176.039 191.261 176.039 176.832C176.039 174.642 174.264 172.867 172.074 172.867H135.256C142.444 167.112 148.662 160.186 153.614 152.382H164.805C185.866 152.382 203 135.248 203 114.187V85.8389C203 83.6491 201.225 81.874 199.035 81.874ZM167.675 180.797C165.86 188.953 158.566 195.07 149.871 195.07H26.168C17.4727 195.07 10.1793 188.953 8.36384 180.797H44.1442H122.379H167.675ZM166.523 107.844V105.663H179.211V114.187C179.211 122.131 172.749 128.593 164.805 128.593H163.905C165.636 121.85 166.523 114.879 166.523 107.844ZM195.07 114.187C195.07 130.876 181.493 144.452 164.805 144.452H158.057C159.323 141.867 160.454 139.22 161.442 136.523H164.805C177.121 136.523 187.141 126.503 187.141 114.187V101.698C187.141 99.5085 185.365 97.7334 183.176 97.7334H166.523V89.8037H195.07V114.187Z" fill="black"/>
<path d="M87.0501 21.9425L84.9872 19.3523C81.9589 15.5508 81.9545 10.2367 84.9765 6.42968C86.3381 4.71448 86.051 2.2206 84.3358 0.859468C82.6202 -0.502456 80.1267 -0.215005 78.7652 1.50019C73.4357 8.21505 73.4436 17.5875 78.7846 24.2929L80.8475 26.8831C84.8048 31.8511 84.8108 38.7955 80.8618 43.771L78.7478 46.4346C77.3862 48.1497 77.6733 50.6436 79.3885 52.0048C80.1176 52.5832 80.9871 52.8643 81.8506 52.8643C83.0187 52.8643 84.176 52.3505 84.9591 51.364L87.0731 48.7005C93.3297 40.8176 93.3205 29.8143 87.0501 21.9425Z" fill="black"/>
<path d="M109.027 30.8571L106.964 28.2672C103.935 24.4654 103.931 19.1513 106.953 15.3442C108.315 13.629 108.028 11.1351 106.312 9.77402C104.597 8.41209 102.103 8.69955 100.742 10.4147C95.4122 17.1296 95.4201 26.5021 100.761 33.2078L102.824 35.7981C106.781 40.7664 106.787 47.7112 102.838 52.6863L100.724 55.3495C99.3628 57.0647 99.6498 59.5586 101.365 60.9197C102.094 61.4982 102.964 61.7789 103.827 61.7789C104.995 61.7789 106.153 61.2647 106.936 60.2786L109.049 57.6154C115.306 49.7329 115.297 38.7297 109.027 30.8571Z" fill="black"/>
<path d="M65.0736 30.8575L63.0107 28.2677C59.9824 24.4662 59.978 19.1517 62.9996 15.3447C64.3611 13.6295 64.0741 11.1356 62.3589 9.77409C60.6433 8.41257 58.1498 8.70041 56.7883 10.4148C51.4591 17.1297 51.4671 26.5026 56.8081 33.2079L58.871 35.7981C62.8279 40.7665 62.8339 47.7113 58.8853 52.686L56.7712 55.3492C55.4097 57.0644 55.6964 59.5583 57.4116 60.9198C58.1407 61.4983 59.0098 61.7794 59.8737 61.7794C61.0418 61.7794 62.1991 61.2655 62.9818 60.2795L65.0962 57.6159C71.3527 49.7334 71.3436 38.7301 65.0736 30.8575Z" fill="black"/>
<path d="M59.5844 70.6773C58.8469 69.9399 57.824 69.5156 56.7812 69.5156C55.7385 69.5156 54.7156 69.9399 53.9781 70.6773C53.241 71.4187 52.8164 72.4377 52.8164 73.4805C52.8164 74.5232 53.2406 75.5462 53.9781 76.2876C54.7156 77.025 55.7385 77.4453 56.7812 77.4453C57.824 77.4453 58.8469 77.025 59.5844 76.2876C60.3254 75.5462 60.7461 74.5272 60.7461 73.4805C60.7461 72.4377 60.3254 71.4148 59.5844 70.6773Z" fill="black"/>
<path d="M143.527 103.879C141.337 103.879 139.562 105.654 139.562 107.844C139.562 122.561 133.592 137.024 123.184 147.525C121.642 149.08 121.654 151.591 123.209 153.132C123.982 153.899 124.991 154.281 126 154.281C127.021 154.281 128.041 153.889 128.816 153.107C140.685 141.133 147.492 124.635 147.492 107.844C147.492 105.654 145.716 103.879 143.527 103.879Z" fill="black"/>
<path d="M116.521 158.287C115.445 156.379 113.027 155.706 111.12 156.781L111.029 156.832C109.122 157.908 108.448 160.327 109.524 162.234C110.253 163.525 111.596 164.251 112.981 164.251C113.641 164.251 114.31 164.086 114.925 163.739L115.016 163.688C116.923 162.612 117.597 160.194 116.521 158.287Z" fill="black"/>
</g>
<defs>
<clipPath id="clip0_439_232">
<rect width="203" height="203" fill="white"/>
</clipPath>
</defs>
</svg>
