<svg width="134" height="130" viewBox="0 0 134 130" fill="none" xmlns="http://www.w3.org/2000/svg">
<path d="M114.86 0H19.1403C8.58621 0 0 8.54798 0 19.0551V78.0462C0 88.5533 8.58621 97.1012 19.14 97.1012H33.0459V127.394C33.0459 128.442 33.6756 129.387 34.6442 129.794C34.973 129.933 35.3192 130 35.6626 130C36.331 130 36.9887 129.745 37.487 129.263L70.7295 97.1012H114.86C125.414 97.1012 134 88.5533 134 78.0462V19.0551C134 8.54798 125.414 0 114.86 0V0ZM128.766 78.0462C128.766 85.6796 122.528 91.8902 114.86 91.8902H69.6672C68.9859 91.8902 68.3316 92.1546 67.8433 92.6273L38.2806 121.229V94.4957C38.2806 93.0567 37.1088 91.8902 35.6634 91.8902H19.1403C11.4724 91.8902 5.23438 85.6796 5.23438 78.0462V19.0551C5.23438 11.4216 11.4724 5.21133 19.14 5.21133H114.859C122.527 5.21133 128.765 11.4216 128.765 19.0551V78.0462H128.766Z" fill="black"/>
</svg>
