<svg width="118" height="106" viewBox="0 0 118 106" fill="none" xmlns="http://www.w3.org/2000/svg">
<path d="M109.208 0.324219H8.60795C6.38533 0.32677 4.25448 1.21083 2.68285 2.78246C1.11122 4.35409 0.227161 6.48494 0.224609 8.70756V75.7743C0.227161 77.9969 1.11122 80.1278 2.68285 81.6994C4.25448 83.271 6.38533 84.1551 8.60795 84.1576H40.1293L55.6356 103.542C56.0282 104.033 56.5265 104.43 57.0934 104.703C57.6603 104.976 58.2812 105.117 58.9103 105.117C59.5394 105.117 60.1603 104.976 60.7272 104.703C61.2941 104.43 61.7924 104.033 62.185 103.542L77.6888 84.1576H109.208C111.431 84.1551 113.562 83.271 115.133 81.6994C116.705 80.1278 117.589 77.9969 117.591 75.7743V8.70756C117.589 6.48494 116.705 4.35409 115.133 2.78246C113.562 1.21083 111.431 0.32677 109.208 0.324219ZM109.208 75.7743H75.6747C75.0458 75.7747 74.4251 75.9163 73.8583 76.1887C73.2916 76.4612 72.7932 76.8574 72.4001 77.3483L58.908 94.2151L45.4163 77.3483C45.023 76.8575 44.5246 76.4612 43.9578 76.1888C43.391 75.9164 42.7702 75.7747 42.1413 75.7743H8.60795V8.70756H109.208V75.7743Z" fill="black"/>
<path d="M31.6624 33.8576H86.1541C87.2658 33.8576 88.332 33.416 89.1181 32.6299C89.9041 31.8438 90.3458 30.7776 90.3458 29.6659C90.3458 28.5542 89.9041 27.488 89.1181 26.702C88.332 25.9159 87.2658 25.4742 86.1541 25.4742H31.6624C30.5507 25.4742 29.4845 25.9159 28.6984 26.702C27.9123 27.488 27.4707 28.5542 27.4707 29.6659C27.4707 30.7776 27.9123 31.8438 28.6984 32.6299C29.4845 33.416 30.5507 33.8576 31.6624 33.8576V33.8576Z" fill="black"/>
<path d="M31.6624 59.0076H69.3874C70.4991 59.0076 71.5653 58.566 72.3514 57.7799C73.1375 56.9938 73.5791 55.9276 73.5791 54.8159C73.5791 53.7042 73.1375 52.6381 72.3514 51.852C71.5653 51.0659 70.4991 50.6243 69.3874 50.6243H31.6624C30.5507 50.6243 29.4845 51.0659 28.6984 51.852C27.9123 52.6381 27.4707 53.7042 27.4707 54.8159C27.4707 55.9276 27.9123 56.9938 28.6984 57.7799C29.4845 58.566 30.5507 59.0076 31.6624 59.0076V59.0076Z" fill="black"/>
</svg>
