<svg width="206" height="206" viewBox="0 0 206 206" fill="none" xmlns="http://www.w3.org/2000/svg">
<path d="M183.805 0H22.1965C9.95644 0 0 9.95644 0 22.1965V140.581C0 152.82 9.95644 162.776 22.1965 162.776H73.4136L90.3749 196.701C93.3296 202.61 97.9314 206 103 206C108.069 206 112.67 202.61 115.625 196.701L132.588 162.776H183.805C196.044 162.776 206 152.82 206 140.581V22.1965C206 9.95644 196.044 0 183.805 0V0ZM193.93 140.581C193.93 146.164 189.388 150.706 183.805 150.706H128.858C126.572 150.706 124.483 151.998 123.46 154.043L104.829 191.302C104.078 192.804 103.372 193.543 103 193.826C102.628 193.543 101.922 192.804 101.171 191.302L82.5402 154.043C81.5186 151.998 79.4283 150.706 77.1431 150.706H22.1965C16.6124 150.706 12.0703 146.164 12.0703 140.581V22.1965C12.0703 16.6124 16.6124 12.0703 22.1965 12.0703H183.805C189.388 12.0703 193.93 16.6124 193.93 22.1965V140.581Z" fill="black"/>
</svg>
