<svg width="188" height="188" viewBox="0 0 188 188" fill="none" xmlns="http://www.w3.org/2000/svg">
<path d="M168.063 121.219C171.142 118.818 173.394 115.515 174.506 111.771C175.617 108.028 175.532 104.03 174.262 100.338C172.992 96.6447 170.601 93.4405 167.423 91.1722C164.244 88.9038 160.436 87.6846 156.531 87.6846C152.626 87.6846 148.819 88.9038 145.64 91.1722C142.461 93.4405 140.07 96.6447 138.8 100.338C137.53 104.03 137.445 108.028 138.557 111.771C139.668 115.515 141.921 118.818 145 121.219C140.537 122.991 136.531 125.747 133.281 129.282L131.5 112.407C131.415 111.639 131.049 110.93 130.472 110.416C129.894 109.903 129.148 109.621 128.375 109.626H125.25V100.251C125.244 94.0026 123.364 87.9 119.855 82.7306C116.346 77.5612 111.367 73.5625 105.563 71.2507C108.634 68.8447 110.878 65.5404 111.983 61.7983C113.088 58.0562 112.997 54.0628 111.725 50.3745C110.452 46.6862 108.06 43.4868 104.883 41.2221C101.706 38.9574 97.9017 37.7402 94 37.7402C90.0983 37.7402 86.2938 38.9574 83.1167 41.2221C79.9396 43.4868 77.548 46.6862 76.2754 50.3745C75.0028 54.0628 74.9125 58.0562 76.017 61.7983C77.1216 65.5404 79.366 68.8447 82.4375 71.2507C76.6328 73.5625 71.6545 77.5612 68.1451 82.7306C64.6357 87.9 62.7564 94.0026 62.75 100.251V109.626H59.625C58.8476 109.622 58.0967 109.908 57.5188 110.428C56.941 110.948 56.5777 111.665 56.5 112.438L54.8125 129.438C51.5891 125.815 47.5512 123.009 43.0312 121.251C46.1066 118.847 48.3551 115.543 49.4631 111.8C50.5711 108.058 50.4834 104.062 49.2122 100.372C47.941 96.6811 45.5496 93.4793 42.3717 91.2128C39.1938 88.9462 35.3877 87.728 31.4844 87.728C27.581 87.728 23.7749 88.9462 20.597 91.2128C17.4191 93.4793 15.0278 96.6811 13.7566 100.372C12.4854 104.062 12.3976 108.058 13.5056 111.8C14.6136 115.543 16.8621 118.847 19.9375 121.251C14.1329 123.562 9.15445 127.561 5.64506 132.731C2.13568 137.9 0.256448 144.003 0.25 150.251V184.626C0.25 185.454 0.57924 186.249 1.16529 186.835C1.75134 187.421 2.5462 187.751 3.375 187.751H184.625C185.454 187.751 186.249 187.421 186.835 186.835C187.421 186.249 187.75 185.454 187.75 184.626V150.251C187.75 143.997 185.873 137.888 182.364 132.712C178.854 127.537 173.872 123.533 168.063 121.219V121.219ZM144 106.501C144 104.028 144.733 101.612 146.107 99.5561C147.48 97.5004 149.432 95.8983 151.716 94.9522C154.001 94.0061 156.514 93.7586 158.939 94.2409C161.363 94.7232 163.591 95.9137 165.339 97.6619C167.087 99.41 168.278 101.637 168.76 104.062C169.242 106.487 168.995 109 168.048 111.284C167.102 113.568 165.5 115.521 163.445 116.894C161.389 118.268 158.972 119.001 156.5 119.001C153.185 119.001 150.005 117.684 147.661 115.34C145.317 112.995 144 109.816 144 106.501ZM81.5 56.5007C81.5 54.0284 82.2331 51.6117 83.6066 49.5561C84.9801 47.5005 86.9324 45.8983 89.2165 44.9522C91.5005 44.0061 94.0139 43.7586 96.4386 44.2409C98.8634 44.7232 101.091 45.9137 102.839 47.6619C104.587 49.41 105.778 51.6373 106.26 54.0621C106.742 56.4868 106.495 59.0002 105.548 61.2842C104.602 63.5683 103 65.5205 100.945 66.8941C98.889 68.2676 96.4723 69.0007 94 69.0007C90.6848 69.0007 87.5054 67.6837 85.1612 65.3395C82.817 62.9953 81.5 59.8159 81.5 56.5007ZM69 100.251C69 93.6203 71.6339 87.2614 76.3223 82.573C81.0107 77.8846 87.3696 75.2507 94 75.2507C100.63 75.2507 106.989 77.8846 111.678 82.573C116.366 87.2614 119 93.6203 119 100.251V109.626H113.562L115.875 94.4694C115.943 94.0216 115.913 93.5643 115.786 93.1292C115.66 92.6942 115.441 92.2918 115.144 91.9499C114.846 91.6081 114.478 91.335 114.065 91.1495C113.652 90.964 113.203 90.8706 112.75 90.8757H75.25C74.797 90.8706 74.3483 90.964 73.935 91.1495C73.5218 91.335 73.1537 91.6081 72.8565 91.9499C72.5592 92.2918 72.3398 92.6942 72.2135 93.1292C72.0872 93.5643 72.057 94.0216 72.125 94.4694L74.4375 109.626H69V100.251ZM109.125 97.1257L106.312 115.876H81.6875L78.875 97.1257H109.125ZM75.25 115.876L75.7813 119.469C75.8943 120.215 76.2728 120.894 76.847 121.382C77.4213 121.87 78.1526 122.134 78.9063 122.126H108.906C109.66 122.134 110.391 121.87 110.965 121.382C111.54 120.894 111.918 120.215 112.031 119.469L112.75 115.876H125.562L127.969 138.469L129.063 150.969L114.719 156.719C114.137 156.951 113.639 157.352 113.288 157.87C112.937 158.388 112.749 159 112.75 159.626V169.001C112.75 169.452 112.848 169.898 113.037 170.308C113.225 170.718 113.501 171.082 113.844 171.376C114.41 171.86 115.13 172.126 115.875 172.126H116.344L130.719 169.907L131.719 181.501H56.2813L57.2812 169.876L71.6563 172.094H72.125C72.8698 172.095 73.5902 171.829 74.1562 171.344C74.4953 171.054 74.7683 170.695 74.957 170.291C75.1456 169.887 75.2455 169.447 75.25 169.001V159.626C75.2506 159 75.0633 158.388 74.7122 157.87C74.3612 157.352 73.8627 156.951 73.2813 156.719L58.9688 151.001L62.4687 115.876H75.25ZM19 106.501C19 104.028 19.7331 101.612 21.1066 99.5561C22.4801 97.5004 24.4324 95.8983 26.7165 94.9522C29.0005 94.0061 31.5139 93.7586 33.9386 94.2409C36.3634 94.7232 38.5907 95.9137 40.3388 97.6619C42.087 99.41 43.2775 101.637 43.7598 104.062C44.2421 106.487 43.9946 109 43.0485 111.284C42.1024 113.568 40.5002 115.521 38.4446 116.894C36.389 118.268 33.9723 119.001 31.5 119.001C28.1848 119.001 25.0054 117.684 22.6612 115.34C20.317 112.995 19 109.816 19 106.501ZM6.5 150.251C6.5 143.62 9.13392 137.261 13.8223 132.573C18.5107 127.885 24.8696 125.251 31.5 125.251C36.1478 125.25 40.7036 126.545 44.656 128.991C48.6085 131.436 51.8009 134.935 53.875 139.094L52.9375 148.469L44 145.001V137.751H37.75V147.126C37.7494 147.752 37.9367 148.363 38.2878 148.881C38.6388 149.4 39.1373 149.8 39.7188 150.032L69 161.751V165.344L33.5625 159.907L28.0313 148.844L22.4687 151.657L28.7187 164.157C28.9419 164.602 29.2682 164.988 29.6704 165.281C30.0727 165.575 30.5392 165.768 31.0313 165.844L51.0938 168.969L50 181.469H6.5V150.251ZM181.5 181.501H138L136.906 169.001L156.969 165.876C157.461 165.799 157.927 165.606 158.33 165.312C158.732 165.019 159.058 164.633 159.281 164.188L165.531 151.688L159.969 148.876L154.438 159.938L119 165.344V161.751L148.281 150.032C148.863 149.8 149.361 149.4 149.712 148.881C150.063 148.363 150.251 147.752 150.25 147.126V137.751H144V145.001L135.125 148.563L134.281 138.876C136.373 134.781 139.555 131.342 143.475 128.939C147.395 126.535 151.902 125.259 156.5 125.251C163.13 125.251 169.489 127.885 174.178 132.573C178.866 137.261 181.5 143.62 181.5 150.251V181.501Z" fill="black"/>
<path d="M3.375 69H20.5625L29 80.25C29.2911 80.6381 29.6685 80.9531 30.1025 81.1701C30.5364 81.387 31.0149 81.5 31.5 81.5C31.9851 81.5 32.4636 81.387 32.8975 81.1701C33.3315 80.9531 33.7089 80.6381 34 80.25L42.4375 69H59.625C60.4538 69 61.2487 68.6708 61.8347 68.0847C62.4208 67.4987 62.75 66.7038 62.75 65.875V3.375C62.75 2.5462 62.4208 1.75134 61.8347 1.16529C61.2487 0.57924 60.4538 0.25 59.625 0.25H3.375C2.5462 0.25 1.75134 0.57924 1.16529 1.16529C0.57924 1.75134 0.25 2.5462 0.25 3.375V65.875C0.25 66.7038 0.57924 67.4987 1.16529 68.0847C1.75134 68.6708 2.5462 69 3.375 69ZM6.5 6.5H56.5V62.75H40.875C40.3899 62.75 39.9114 62.863 39.4775 63.0799C39.0435 63.2969 38.6661 63.6119 38.375 64L31.5 73.1562L24.625 64C24.3339 63.6119 23.9565 63.2969 23.5225 63.0799C23.0886 62.863 22.6101 62.75 22.125 62.75H6.5V6.5Z" fill="black"/>
<path d="M12.75 50.25H50.25V56.5H12.75V50.25Z" fill="black"/>
<path d="M12.75 37.75H50.25V44H12.75V37.75Z" fill="black"/>
<path d="M12.75 25.25H50.25V31.5H12.75V25.25Z" fill="black"/>
<path d="M44 12.75H50.25V19H44V12.75Z" fill="black"/>
<path d="M25.25 12.75H37.75V19H25.25V12.75Z" fill="black"/>
<path d="M12.75 12.75H19V19H12.75V12.75Z" fill="black"/>
<path d="M184.625 0.25H128.375C127.546 0.25 126.751 0.57924 126.165 1.16529C125.579 1.75134 125.25 2.5462 125.25 3.375V65.875C125.25 66.7038 125.579 67.4987 126.165 68.0847C126.751 68.6708 127.546 69 128.375 69H145.562L154 80.25C154.291 80.6381 154.669 80.9531 155.102 81.1701C155.536 81.387 156.015 81.5 156.5 81.5C156.985 81.5 157.464 81.387 157.898 81.1701C158.331 80.9531 158.709 80.6381 159 80.25L167.438 69H184.625C185.454 69 186.249 68.6708 186.835 68.0847C187.421 67.4987 187.75 66.7038 187.75 65.875V3.375C187.75 2.5462 187.421 1.75134 186.835 1.16529C186.249 0.57924 185.454 0.25 184.625 0.25V0.25ZM181.5 62.75H165.875C165.39 62.75 164.911 62.863 164.477 63.0799C164.044 63.2969 163.666 63.6119 163.375 64L156.5 73.1562L149.625 64C149.334 63.6119 148.956 63.2969 148.523 63.0799C148.089 62.863 147.61 62.75 147.125 62.75H131.5V6.5H181.5V62.75Z" fill="black"/>
<path d="M137.75 12.75H175.25V19H137.75V12.75Z" fill="black"/>
<path d="M137.75 25.25H175.25V31.5H137.75V25.25Z" fill="black"/>
<path d="M137.75 37.75H175.25V44H137.75V37.75Z" fill="black"/>
<path d="M137.75 50.25H144V56.5H137.75V50.25Z" fill="black"/>
<path d="M150.25 50.25H162.75V56.5H150.25V50.25Z" fill="black"/>
<path d="M169 50.25H175.25V56.5H169V50.25Z" fill="black"/>
</svg>
