<svg width="51" height="51" viewBox="0 0 51 51" fill="none" xmlns="http://www.w3.org/2000/svg">
<g clip-path="url(#clip0_521_5998)">
<path d="M25.5003 13.1819L31.5559 8.16985H39.4841V0H19.7422V8.16985H25.5003V13.1819ZM21.3873 6.53588V1.63397H37.839V6.53588H30.9607L27.1454 9.69372V6.53588H21.3873Z" fill="#4069FF"/>
<path d="M23.0322 3.26782H24.6774V4.90179H23.0322V3.26782Z" fill="#4069FF"/>
<path d="M26.3223 3.26782H32.9029V4.90179H26.3223V3.26782Z" fill="#4069FF"/>
<path d="M34.5488 3.26782H36.194V4.90179H34.5488V3.26782Z" fill="#4069FF"/>
<path d="M41.8733 49.0192L41.2082 42.4055C43.9546 41.9743 46.0645 39.6123 46.0645 36.7644V26.1436H42.7742V25.0147C42.7742 23.9041 42.1597 22.9068 41.1716 22.3954C42.154 21.499 42.7742 20.2173 42.7742 18.7908V17.1568C42.7742 14.4533 40.5607 12.2549 37.8387 12.2549C35.1167 12.2549 32.9032 14.4533 32.9032 17.1568V18.7908C32.9032 20.9058 34.2612 22.7065 36.155 23.3927L31.74 27.7776H27.1271C27.0351 26.4157 26.0932 25.2285 24.759 24.8495L21.3871 23.8937V22.4345C22.394 21.5365 23.0323 20.2384 23.0323 18.7908V17.1568C23.0323 14.4533 20.8188 12.2549 18.0968 12.2549C15.3748 12.2549 13.1613 14.4533 13.1613 17.1568V18.7908C13.1613 20.2376 13.7995 21.5357 14.8065 22.4345V23.8945L11.4346 24.8503C10.0296 25.2481 9.04839 26.5406 9.04839 27.9926V31.0455H5.75806V35.9474H7.40323V49.0192H0V50.6532H51V49.0192H41.8733ZM34.5484 35.9474V32.2008L40.3771 26.4117C40.7985 25.9932 41.0491 25.4312 41.1053 24.8447C41.1126 24.9018 41.129 24.9556 41.129 25.0147V35.1305C41.129 36.4816 40.0217 37.5814 38.6613 37.5814H32.0806V35.9474H34.5484ZM32.0806 42.4833H36.2719L36.9298 49.0192H32.0806V42.4833ZM37.9251 42.4833H39.5622L40.2201 49.0192H38.583L37.9251 42.4833ZM42.7742 35.1305V27.7776H44.4194V36.7644C44.4194 39.0167 42.5742 40.8494 40.3065 40.8494H32.0806V39.2154H38.6613C40.929 39.2154 42.7742 37.3828 42.7742 35.1305ZM34.5484 18.7908V17.1568C34.5484 15.3545 36.0241 13.8889 37.8387 13.8889C39.6534 13.8889 41.129 15.3545 41.129 17.1568V18.7908C41.129 20.5931 39.6534 22.0587 37.8387 22.0587C36.0241 22.0587 34.5484 20.5931 34.5484 18.7908ZM32.4212 29.4116L37.9094 23.9607C38.0813 23.79 38.3191 23.6927 38.5617 23.6927C39.0702 23.6927 39.4839 24.1036 39.4839 24.6086C39.4839 24.8495 39.3859 25.0857 39.214 25.2564L33.3852 31.0455H24.6774C24.2236 31.0455 23.8548 30.6793 23.8548 30.2285C23.8548 29.7778 24.2236 29.4116 24.6774 29.4116H32.4212ZM14.8065 17.1568C14.8065 15.3545 16.2821 13.8889 18.0968 13.8889C19.9114 13.8889 21.3871 15.3545 21.3871 17.1568V18.7908C21.3871 20.5931 19.9114 22.0587 18.0968 22.0587C16.2821 22.0587 14.8065 20.5931 14.8065 18.7908V17.1568ZM18.0968 23.6927C18.6743 23.6927 19.2262 23.5882 19.7419 23.4066V24.2843C19.5379 24.597 18.9712 25.3266 18.0968 25.3266C17.2224 25.3266 16.6557 24.597 16.4516 24.2843V23.4066C16.9673 23.5882 17.5192 23.6927 18.0968 23.6927ZM10.6935 27.9926C10.6935 27.2662 11.1848 26.6207 11.8865 26.4213L15.2752 25.4599C15.7523 26.0774 16.681 26.9606 18.0968 26.9606C19.5126 26.9606 20.4412 26.0774 20.9184 25.4591L24.3071 26.4205C24.9373 26.5996 25.3767 27.1437 25.4647 27.7768H24.6774C23.317 27.7768 22.2097 28.8766 22.2097 30.2278C22.2097 30.5154 22.2687 30.7882 22.3611 31.0447H10.6935V27.9926ZM7.40323 32.6795H32.9032V34.3135H7.40323V32.6795ZM9.04839 39.2154H11.5161V37.5814H9.04839V35.9474H30.4355V37.5814H13.1613V39.2154H30.4355V49.0192H28.4762L26.8311 45.7513H12.6528L11.0076 49.0192H9.04839V39.2154ZM26.6367 49.0192H12.8472L13.6698 47.3852H25.8141L26.6367 49.0192Z" fill="#4069FF"/>
</g>
<defs>
<clipPath id="clip0_521_5998">
<rect width="51" height="50.6531" fill="white"/>
</clipPath>
</defs>
</svg>
