<svg width="182" height="182" viewBox="0 0 182 182" fill="none" xmlns="http://www.w3.org/2000/svg">
<g clip-path="url(#clip0_470_204)">
<path d="M180.936 76.1626C183.116 70.4478 181.912 63.7266 177.315 59.1289L122.867 4.68143C116.63 -1.55562 106.481 -1.55491 100.245 4.68143L39.033 65.8939H15.9961C7.17585 65.8939 0 73.0697 0 81.89V166C0 174.82 7.17585 181.996 15.9961 181.996H166.004C174.824 181.996 182 174.82 182 166V81.89C182 79.872 181.621 77.9421 180.936 76.1626V76.1626ZM169.355 66.2497C168.274 66.0183 167.153 65.8939 166.004 65.8939H154.45L161.724 58.6196L169.355 66.2497ZM154.184 51.079L139.369 65.8939H124.287L146.643 43.5381L154.184 51.079ZM107.786 12.222C108.826 11.1826 110.191 10.6625 111.556 10.6625C112.922 10.6625 114.287 11.1826 115.327 12.222L139.102 35.9979L109.206 65.8942H54.1137L107.786 12.222ZM171.336 166C171.336 168.94 168.944 171.332 166.004 171.332H15.9961C13.056 171.332 10.6641 168.94 10.6641 166V81.89C10.6641 78.9499 13.056 76.5579 15.9961 76.5579H166.004C168.944 76.5579 171.336 78.9499 171.336 81.89V166Z" fill="black"/>
<path d="M20.9727 144.528H45.821V155.192H20.9727V144.528Z" fill="black"/>
<path d="M59.375 144.528H84.223V155.192H59.375V144.528Z" fill="black"/>
<path d="M97.7773 144.528H122.625V155.192H97.7773V144.528Z" fill="black"/>
<path d="M136.18 144.528H161.028V155.192H136.18V144.528Z" fill="black"/>
<path d="M48.4387 90.7765H30.2148C25.3147 90.7765 21.3281 94.7631 21.3281 99.6632V113.882C21.3281 118.782 25.3147 122.769 30.2148 122.769H48.4387C53.3388 122.769 57.3254 118.782 57.3254 113.882V99.6632C57.3254 94.7631 53.3388 90.7765 48.4387 90.7765ZM46.6613 112.105H31.9922V101.441H46.6613V112.105Z" fill="black"/>
</g>
<defs>
<clipPath id="clip0_470_204">
<rect width="182" height="182" fill="white"/>
</clipPath>
</defs>
</svg>
