<svg width="151" height="151" viewBox="0 0 151 151" fill="none" xmlns="http://www.w3.org/2000/svg">
<path d="M133.305 151H17.6953C7.93755 151 0 143.062 0 133.305V17.6953C0 7.93755 7.93755 0 17.6953 0H133.305C143.062 0 151 7.93755 151 17.6953V133.305C151 143.062 143.062 151 133.305 151ZM17.6953 11.7969C14.4431 11.7969 11.7969 14.4431 11.7969 17.6953V133.305C11.7969 136.557 14.4431 139.203 17.6953 139.203H133.305C136.557 139.203 139.203 136.557 139.203 133.305V17.6953C139.203 14.4431 136.557 11.7969 133.305 11.7969H17.6953ZM127.081 44.6346L118.292 36.7639L63.7423 97.6848L32.082 67.589L23.9543 76.1382L64.4231 114.609L127.081 44.6346Z" fill="black"/>
</svg>
