<svg width="167" height="166" viewBox="0 0 167 166" fill="none" xmlns="http://www.w3.org/2000/svg">
<path d="M116.201 59.2559H119.489V66.9719H112.765C111.97 66.9719 111.206 67.2879 110.644 67.8505C110.081 68.4131 109.765 69.1762 109.765 69.9719C109.765 70.7675 110.081 71.5306 110.644 72.0932C111.206 72.6558 111.97 72.9719 112.765 72.9719H119.481V74.5439C119.481 75.3395 119.797 76.1026 120.36 76.6652C120.922 77.2278 121.686 77.5439 122.481 77.5439C123.277 77.5439 124.04 77.2278 124.602 76.6652C125.165 76.1026 125.481 75.3395 125.481 74.5439V72.9719H127.621C128.932 72.9983 130.236 72.7628 131.455 72.2793C132.674 71.7957 133.785 71.0738 134.721 70.1558C135.658 69.2378 136.402 68.1421 136.91 66.9329C137.418 65.7238 137.68 64.4254 137.68 63.1139C137.68 61.8023 137.418 60.5039 136.91 59.2948C136.402 58.0856 135.658 56.9899 134.721 56.0719C133.785 55.1539 132.674 54.432 131.455 53.9484C130.236 53.4649 128.932 53.2294 127.621 53.2559H125.481V47.8279H129.909C130.705 47.8279 131.468 47.5118 132.03 46.9492C132.593 46.3866 132.909 45.6235 132.909 44.8279C132.909 44.0322 132.593 43.2691 132.03 42.7065C131.468 42.1439 130.705 41.8279 129.909 41.8279H125.481V40.2559C125.481 39.4602 125.165 38.6971 124.602 38.1345C124.04 37.5719 123.277 37.2559 122.481 37.2559C121.686 37.2559 120.922 37.5719 120.36 38.1345C119.797 38.6971 119.481 39.4602 119.481 40.2559V41.8279H116.201C113.922 41.8767 111.753 42.8162 110.159 44.4451C108.565 46.074 107.672 48.2626 107.672 50.5419C107.672 52.8212 108.565 55.0098 110.159 56.6386C111.753 58.2675 113.922 59.207 116.201 59.2559V59.2559ZM127.629 59.2559C128.146 59.2392 128.661 59.3267 129.144 59.5131C129.627 59.6995 130.067 59.981 130.439 60.3408C130.81 60.7007 131.106 61.1317 131.308 61.6081C131.509 62.0844 131.613 62.5965 131.613 63.1139C131.613 63.6312 131.509 64.1433 131.308 64.6197C131.106 65.096 130.81 65.527 130.439 65.8869C130.067 66.2468 129.627 66.5283 129.144 66.7147C128.661 66.901 128.146 66.9885 127.629 66.9719H125.481V59.2559H127.629ZM116.201 47.8279H119.489V53.2559H116.201C115.499 53.2289 114.835 52.9312 114.348 52.4252C113.861 51.9191 113.589 51.2441 113.589 50.5419C113.589 49.8396 113.861 49.1646 114.348 48.6586C114.835 48.1525 115.499 47.8548 116.201 47.8279V47.8279Z" fill="black"/>
<path d="M164.4 109.536C159.944 103.572 146.488 100.26 132.064 99.2923C143.075 96.93 152.718 90.3381 158.917 80.936C165.115 71.5339 167.374 60.0736 165.206 49.0227C163.038 37.9717 156.617 28.2141 147.326 21.8508C138.034 15.4875 126.615 13.0274 115.528 15.0003C108.699 7.05583 99.2024 1.88145 88.8246 0.451107C78.4469 -0.979232 67.9042 1.43314 59.1811 7.23411C50.458 13.0351 44.1562 21.8245 41.4618 31.948C38.7675 42.0715 39.8665 52.8306 44.552 62.2003C44.04 62.2003 43.52 62.1763 43.008 62.1763C25.532 62.2003 7 65.5523 1.6 72.7603C1.12193 73.008 0.720384 73.3814 0.438492 73.8401C0.156599 74.2989 0.0050082 74.8258 0 75.3643V151.052C0 161.324 22.296 166 43 166C59.348 166 76.636 163.072 83.212 156.8C90.1 162.8 106.992 165.6 122.984 165.6C143.696 165.6 165.992 160.92 165.992 150.652V112.14C165.988 111.603 165.838 111.076 165.557 110.617C165.277 110.158 164.877 109.785 164.4 109.536V109.536ZM160 130.736V132.06C160 134.74 147.408 141.012 122.992 141.012C98.86 141.012 86.304 134.888 86.012 132.16V122.068C94.04 126.704 108.876 128.868 122.992 128.868C137.108 128.868 151.98 126.688 160 122.04V130.736ZM86 95.2883V85.8483C87.316 85.7563 88.604 85.6003 89.884 85.3923C95.9173 92.4263 104.062 97.3229 113.104 99.3523C103.725 99.6282 94.501 101.82 86 105.792V95.2883ZM80 85.2883V95.2883C80 97.9643 67.412 104.236 42.996 104.236C18.58 104.236 6 97.9603 6 95.2843V85.2843C14.02 89.9323 28.876 92.1123 43.008 92.1123C57.14 92.1123 71.992 89.9243 80.012 85.2763L80 85.2883ZM43 110.232C57.132 110.232 71.984 108.052 80.004 103.404V112.004C80.004 112.052 79.98 112.092 79.98 112.14V113.972C79.688 116.7 67.132 122.824 43 122.824C18.6 122.824 5.992 116.548 5.992 113.872V103.4C14.02 108.052 28.876 110.232 43 110.232V110.232ZM6 131.132V121.992C14.02 126.64 28.876 128.824 43 128.824C57.124 128.824 71.952 126.644 79.98 122.024V132.56C79.696 135.288 67.14 141.4 43 141.4C18.6 141.4 5.992 135.124 5.992 132.448L6 131.132ZM160 113.932C160 116.612 147.408 122.884 122.992 122.884C98.86 122.884 86.304 116.76 86.012 114.036V113.832C86.304 111.104 98.86 105 123 105C147.4 105 160 111.252 160 113.928V113.932ZM159.488 57.4003C159.493 65.0568 157.121 72.5261 152.7 78.7772C148.279 85.0283 142.026 89.7529 134.805 92.299C127.584 94.8451 119.751 95.0872 112.387 92.9917C105.023 90.8962 98.4906 86.5665 93.692 80.6003C93.6148 80.4798 93.5292 80.3648 93.436 80.2563C89.7878 75.6216 87.3009 70.1817 86.1827 64.3904C85.0646 58.5991 85.3476 52.6244 87.0082 46.9647C88.6688 41.305 91.6589 36.1246 95.7288 31.8555C99.7988 27.5865 104.831 24.3527 110.405 22.4239C115.979 20.4952 121.933 19.9274 127.771 20.7679C133.609 21.6085 139.162 23.833 143.965 27.2559C148.768 30.6788 152.684 35.2008 155.384 40.4446C158.084 45.6884 159.491 51.502 159.488 57.4003V57.4003ZM46 43.0003C45.9924 35.7104 48.1405 28.581 52.1742 22.5087C56.2078 16.4365 61.9469 11.6925 68.6697 8.87342C75.3924 6.05435 82.7987 5.28606 89.9569 6.66518C97.1152 8.04431 103.706 11.5093 108.9 16.6243C98.2624 20.1508 89.4251 27.6964 84.275 37.6499C79.1249 47.6033 78.0701 59.1758 81.336 69.8963C75.184 65.6643 63.736 63.2523 51.628 62.4843C47.9641 56.6449 46.014 49.8939 46 43.0003V43.0003ZM43 68.2003C67.4 68.2003 80.004 74.4763 80.004 77.1523C80.004 79.8283 67.424 86.1043 43 86.1043C18.576 86.1043 6 79.8323 6 77.1563C6 74.4803 18.6 68.2003 43 68.2003V68.2003ZM43 160C18.6 160 5.992 153.728 5.992 151.052V140.6C14.02 145.228 28.876 147.4 43 147.4C57.124 147.4 71.952 145.22 79.98 140.6V150.652C79.98 150.72 80.004 150.78 80.004 150.848V151.056C80.012 153.728 67.424 160 43 160V160ZM123 159.6C98.868 159.6 86.312 153.476 86.02 150.752V140.2C94.04 144.828 108.876 147 123 147C137.124 147 151.988 144.816 160.008 140.172V150.64C160 153.324 147.4 159.596 123 159.596V159.6Z" fill="black"/>
</svg>
