<svg width="190" height="190" viewBox="0 0 190 190" fill="none" xmlns="http://www.w3.org/2000/svg">
<path d="M164.073 67.5688H123.307V25.0058C123.307 18.8605 120.905 13.0744 116.55 8.71928C112.192 4.36412 106.408 1.9624 100.263 1.9624H25.8989C13.1927 1.9624 2.85547 12.2996 2.85547 25.0058V74.581C2.85547 87.2872 13.1927 97.6244 25.8989 97.6244H27.6416V111.762C27.6416 116.138 30.2452 120.018 34.2767 121.651C35.5741 122.176 36.9248 122.428 38.2638 122.428C41.0514 122.428 43.7708 121.321 45.7687 119.261L66.6688 98.4735V140.184C66.6688 152.888 77.0178 163.225 89.7359 163.225H122.455L144.162 184.817C146.205 186.919 148.936 188.038 151.738 188.038C153.077 188.038 154.428 187.782 155.728 187.254C159.754 185.624 162.355 181.75 162.355 177.383V163.222H164.073C176.795 163.222 187.144 152.888 187.144 140.181V90.6033C187.144 77.906 176.795 67.5688 164.073 67.5688ZM65.6831 88.7182C64.5075 88.7182 63.3764 89.1843 62.5422 90.0155L39.4305 113.003C38.7506 113.703 38.0084 113.552 37.6195 113.394C37.2188 113.231 36.5478 112.807 36.5478 111.762V93.1713C36.5478 90.7102 34.5558 88.7182 32.0947 88.7182H25.8989C18.103 88.7182 11.7617 82.3769 11.7617 74.581V25.0058C11.7617 17.2099 18.103 10.8687 25.8989 10.8687H100.26C104.03 10.8687 107.575 12.3412 110.25 15.016C112.925 17.6879 114.397 21.2355 114.397 25.0029V74.578C114.397 82.374 108.053 88.7152 100.257 88.7152H65.6831V88.7182ZM178.237 140.184C178.237 147.977 171.884 154.319 164.073 154.319H157.901C155.443 154.319 153.448 156.314 153.448 158.772V177.386C153.448 178.419 152.777 178.844 152.382 179.004C151.988 179.161 151.24 179.321 150.5 178.564L127.433 155.619C126.599 154.791 125.471 154.322 124.292 154.322H89.7359C81.9281 154.322 75.575 147.98 75.575 140.187V97.6244H100.257C112.325 97.6244 122.235 88.2996 123.206 76.478H164.07C171.881 76.478 178.234 82.8163 178.234 90.6093V140.184H178.237Z" fill="black"/>
<path d="M99.3355 108.855C95.7136 108.855 92.7656 111.806 92.7656 115.425C92.7656 119.044 95.7166 121.995 99.3355 121.995C102.96 121.995 105.911 119.044 105.911 115.425C105.911 111.806 102.963 108.855 99.3355 108.855Z" fill="black"/>
<path d="M126.906 108.855C123.284 108.855 120.336 111.806 120.336 115.425C120.336 119.044 123.287 121.995 126.906 121.995C130.531 121.995 133.482 119.044 133.482 115.425C133.482 111.806 130.531 108.855 126.906 108.855Z" fill="black"/>
<path d="M154.47 108.855C150.848 108.855 147.9 111.806 147.9 115.425C147.9 119.044 150.851 121.995 154.47 121.995C158.095 121.995 161.046 119.044 161.046 115.425C161.046 111.806 158.095 108.855 154.47 108.855Z" fill="black"/>
<path d="M61.6081 64.7991C59.0372 64.7991 56.9531 66.9425 56.9531 69.5164C56.9531 72.028 58.9748 74.2338 61.6081 74.2338C64.2414 74.2338 66.3255 72.028 66.3255 69.5164C66.3255 66.9425 64.182 64.7991 61.6081 64.7991Z" fill="black"/>
<path d="M62.5189 25.3533C53.0427 25.3533 48.6875 30.9701 48.6875 34.7612C48.6875 37.4984 51.0031 38.7631 52.9002 38.7631C56.6913 38.7631 55.1475 33.357 62.3081 33.357C65.8172 33.357 68.6256 34.9008 68.6256 38.1308C68.6256 41.9219 64.695 44.098 62.3794 46.0633C60.3428 47.8178 57.6739 50.6975 57.6739 56.7359C57.6739 60.3875 58.6566 61.4384 61.5363 61.4384C64.977 61.4384 65.6777 59.8947 65.6777 58.5587C65.6777 54.9072 65.7489 52.8023 69.6083 49.7831C71.5023 48.3076 77.4695 43.5339 77.4695 36.9344C77.4725 30.3378 71.5053 25.3533 62.5189 25.3533V25.3533Z" fill="black"/>
</svg>
