<svg width="304" height="285" viewBox="0 0 304 285" fill="none" xmlns="http://www.w3.org/2000/svg">
<path d="M270.459 0.882324H242.136V29.2059C242.136 34.8706 237.415 38.647 232.694 38.647C227.974 38.647 223.253 34.8706 223.253 29.2059V0.882324H72.1944V29.2059C72.1944 34.8706 67.4738 38.647 62.7532 38.647C58.0326 38.647 53.312 34.8706 53.312 29.2059V0.882324H24.9885C10.8267 0.882324 0.441406 13.1559 0.441406 29.2059V63.1941H302.559V29.2059C302.559 13.1559 285.565 0.882324 270.459 0.882324ZM0.441406 83.0206V255.794C0.441406 272.788 10.8267 284.118 25.9326 284.118H271.403C286.509 284.118 303.503 271.844 303.503 255.794V83.0206H0.441406ZM84.4679 241.632H61.8091C58.0326 241.632 54.2561 238.8 54.2561 234.079V210.476C54.2561 206.7 57.0885 202.923 61.8091 202.923H85.412C89.1885 202.923 92.9649 205.756 92.9649 210.476V234.079C92.0208 238.8 89.1885 241.632 84.4679 241.632ZM84.4679 156.662H61.8091C58.0326 156.662 54.2561 153.829 54.2561 149.109V125.506C54.2561 121.729 57.0885 117.953 61.8091 117.953H85.412C89.1885 117.953 92.9649 120.785 92.9649 125.506V149.109C92.0208 153.829 89.1885 156.662 84.4679 156.662ZM159.997 241.632H136.394C132.618 241.632 128.841 238.8 128.841 234.079V210.476C128.841 206.7 131.674 202.923 136.394 202.923H159.997C163.774 202.923 167.55 205.756 167.55 210.476V234.079C167.55 238.8 164.718 241.632 159.997 241.632ZM159.997 156.662H136.394C132.618 156.662 128.841 153.829 128.841 149.109V125.506C128.841 121.729 131.674 117.953 136.394 117.953H159.997C163.774 117.953 167.55 120.785 167.55 125.506V149.109C167.55 153.829 164.718 156.662 159.997 156.662ZM235.527 241.632H211.924C208.147 241.632 204.371 238.8 204.371 234.079V210.476C204.371 206.7 207.203 202.923 211.924 202.923H235.527C239.303 202.923 243.08 205.756 243.08 210.476V234.079C243.08 238.8 240.247 241.632 235.527 241.632ZM235.527 156.662H211.924C208.147 156.662 204.371 153.829 204.371 149.109V125.506C204.371 121.729 207.203 117.953 211.924 117.953H235.527C239.303 117.953 243.08 120.785 243.08 125.506V149.109C243.08 153.829 240.247 156.662 235.527 156.662Z" fill="black"/>
</svg>
