<svg width="238" height="238" viewBox="0 0 238 238" fill="none" xmlns="http://www.w3.org/2000/svg">
<g clip-path="url(#clip0_532_13864)">
<path d="M173.961 123.994L179.803 118.152C179.805 118.15 179.807 118.148 179.809 118.147C179.81 118.145 179.812 118.143 179.814 118.141L200.422 97.5335C200.422 97.5321 200.424 97.5312 200.425 97.5303C200.427 97.5294 200.428 97.528 200.429 97.5266L221.04 76.9154C221.04 76.9149 221.041 76.9145 221.041 76.914C221.042 76.9135 221.042 76.9131 221.042 76.9126L232.364 65.5913C235.998 61.9572 238 57.1247 238 51.9849C238 46.8451 235.998 42.0126 232.364 38.3789L199.622 5.63671C195.988 2.00257 191.155 0.000483375 186.016 0.000483375C180.875 0.000483375 176.043 2.0021 172.409 5.63671L114.006 64.0388L74.3648 24.3969C67.7287 17.7608 59.4117 13.037 50.3124 10.7365L8.68189 0.212917C6.30189 -0.389056 3.77871 0.305886 2.04252 2.04301C0.305867 3.7792 -0.389074 6.30098 0.212898 8.68191L10.737 50.3124C13.037 59.4112 17.7608 67.7287 24.3969 74.3648L64.0387 114.006L5.63577 172.409C2.00162 176.043 0 180.875 0 186.015C0 191.155 2.00162 195.987 5.63623 199.621L38.3784 232.363C42.013 235.998 46.8451 238 51.9853 238C57.1251 238 61.9572 235.998 65.5913 232.364L97.5154 200.44C97.5205 200.436 97.5252 200.43 97.5303 200.426C97.5354 200.421 97.54 200.416 97.5447 200.411L123.994 173.962L177.683 227.652C184.571 234.54 193.619 237.984 202.667 237.984C211.715 237.984 220.763 234.54 227.651 227.652C241.428 213.876 241.428 191.46 227.651 177.684L173.961 123.994ZM24.2565 46.8949L16.5977 16.5982L46.8944 24.2574C53.556 25.9411 59.645 29.3995 64.5036 34.2581L70.0008 39.7553L39.7544 70.0018L34.2571 64.5045C29.3986 59.6455 25.9406 53.5565 24.2565 46.8949V46.8949ZM49.6151 79.862L79.8615 49.6156L104.145 73.8995L73.899 104.146L49.6151 79.862ZM51.9853 224.055C50.5704 224.055 49.2404 223.503 48.2396 222.503L15.497 189.761C14.4966 188.761 13.9458 187.43 13.9458 186.015C13.9458 184.6 14.4966 183.27 15.497 182.269L182.269 15.497C183.27 14.4966 184.601 13.9453 186.016 13.9453C187.431 13.9453 188.761 14.4966 189.761 15.497L222.504 48.2396C223.504 49.2395 224.055 50.5699 224.055 51.9849C224.055 53.3999 223.504 54.7303 222.504 55.7311L216.111 62.1231L194.842 40.8528C192.119 38.1298 187.704 38.1298 184.981 40.8528C182.258 43.5754 182.258 47.9905 184.981 50.7135L206.251 71.9839L195.495 82.7394L184.533 71.7779C181.811 69.0544 177.396 69.0553 174.672 71.7779C171.949 74.501 171.949 78.9156 174.672 81.6387L185.634 92.6001L174.879 103.356L153.609 82.0854C150.886 79.3623 146.471 79.3623 143.748 82.0854C141.025 84.808 141.025 89.2231 143.748 91.9461L165.018 113.216L154.263 123.972L143.301 113.01C140.578 110.287 136.163 110.287 133.44 113.01C130.717 115.733 130.717 120.148 133.44 122.871L144.401 133.832L133.832 144.401L112.562 123.132C109.839 120.408 105.425 120.408 102.702 123.132C99.9786 125.854 99.9786 130.269 102.702 132.992L123.972 154.262L113.216 165.018L102.254 154.056C99.5319 151.334 95.1168 151.334 92.3937 154.056C89.6707 156.779 89.6707 161.194 92.3937 163.917L103.355 174.878L92.5997 185.634L71.3303 164.365C68.6077 161.642 64.1926 161.642 61.4695 164.365C58.7465 167.087 58.7465 171.502 61.4695 174.225L82.7389 195.495L71.9834 206.25L61.0219 195.289C58.2993 192.566 53.8842 192.566 51.1612 195.289C48.4381 198.011 48.4381 202.426 51.1612 205.15L62.1226 216.111L55.7306 222.503C54.7302 223.504 53.3999 224.055 51.9853 224.055V224.055ZM138.734 159.221C138.744 159.212 138.754 159.202 138.763 159.193C138.773 159.183 138.782 159.174 138.792 159.164L159.185 138.77C159.188 138.768 159.191 138.765 159.193 138.762C159.196 138.76 159.198 138.757 159.201 138.754L164.101 133.855L193.647 163.401L163.401 193.647L133.855 164.101L138.734 159.221ZM217.79 217.79C209.452 226.129 195.883 226.129 187.544 217.79L173.262 203.508L203.508 173.261L217.791 187.544C226.13 195.883 226.13 209.452 217.79 217.79V217.79Z" fill="black"/>
</g>
<defs>
<clipPath id="clip0_532_13864">
<rect width="238" height="238" fill="white"/>
</clipPath>
</defs>
</svg>
