<svg width="194" height="192" viewBox="0 0 194 192" fill="none" xmlns="http://www.w3.org/2000/svg">
<path d="M181.795 6.02252H111.497C109.405 6.02252 107.708 7.70177 107.708 9.77252C107.708 11.8433 109.405 13.5225 111.497 13.5225H181.795C184.346 13.5225 186.422 15.5749 186.422 18.0975V117.484H7.57812V18.0975C7.57812 15.5745 9.65377 13.5225 12.2046 13.5225H78.1835C80.2758 13.5225 81.9726 11.8433 81.9726 9.77252C81.9726 7.70177 80.2758 6.02252 78.1835 6.02252H12.2046C5.47482 6.02252 0 11.4394 0 18.0975V138.304C0 144.964 5.47482 150.383 12.2046 150.383H74.1986L71.8622 170.225C71.3208 174.925 67.3104 178.466 62.5317 178.466C62.5279 178.466 62.5245 178.466 62.521 178.466C62.4888 178.473 62.4184 178.467 62.3668 178.469C62.3267 178.471 62.2869 178.477 62.2467 178.479H57.0955C55.0032 178.479 53.3064 180.159 53.3064 182.229C53.3064 184.3 55.0032 185.979 57.0955 185.979H136.905C138.997 185.979 140.694 184.3 140.694 182.229C140.694 180.159 138.997 178.479 136.905 178.479H131.754C131.713 178.476 131.673 178.471 131.634 178.469C131.584 178.467 131.533 178.466 131.483 178.466C131.477 178.466 131.474 178.466 131.469 178.466C126.69 178.466 122.68 174.925 122.138 170.225C122.138 170.222 122.137 170.219 122.137 170.216L119.802 150.383H181.795C188.525 150.383 194 144.964 194 138.304V18.0975C194 11.4394 188.525 6.02252 181.795 6.02252V6.02252ZM114.609 171.08C114.925 173.811 115.888 176.325 117.337 178.479H76.6641C78.113 176.325 79.0762 173.812 79.3903 171.083L81.8278 150.382H112.172L114.609 171.08ZM186.422 138.304C186.422 140.828 184.346 142.883 181.795 142.883H12.2046C9.65377 142.883 7.57812 140.828 7.57812 138.304V124.984H186.422V138.304Z" fill="black"/>
<path d="M164.692 92.7817C171.54 86.005 175.31 76.9968 175.31 67.4167C175.31 47.6358 159.05 31.543 139.063 31.543C119.079 31.543 102.82 47.6358 102.82 67.4167C102.82 87.1949 119.079 103.286 139.063 103.286C148.746 103.286 157.848 99.5557 164.692 92.7817ZM167.7 68.7277C167.44 74.4873 165.377 80.0759 161.833 84.649L142.853 65.8634V39.2988C156.896 41.1472 167.733 53.3939 167.733 67.417C167.733 67.8554 167.72 68.2923 167.7 68.7277V68.7277ZM110.398 67.4167C110.398 53.0437 121.254 41.1404 135.274 39.2984V67.4167C135.274 68.4112 135.673 69.3648 136.384 70.0683L156.474 89.9515C151.499 93.7319 145.442 95.7858 139.063 95.7858C123.258 95.7862 110.398 83.0594 110.398 67.4167V67.4167Z" fill="black"/>
<path d="M61.6643 67.4145V95.6107H51.0288V39.1241C51.0288 37.0533 49.332 35.3741 47.2397 35.3741H28.5142C26.4219 35.3741 24.7251 37.0533 24.7251 39.1241V95.6107H21.9375C19.8452 95.6107 18.1484 97.29 18.1484 99.3607C18.1484 101.431 19.8452 103.111 21.9375 103.111H90.4919C92.5842 103.111 94.2809 101.431 94.2809 99.3607C94.2809 97.29 92.5842 95.6107 90.4919 95.6107H87.9684V67.4145C87.9684 65.3437 86.2716 63.6645 84.1793 63.6645H65.4537C63.361 63.6645 61.6643 65.3433 61.6643 67.4145V67.4145ZM32.3032 95.6107V42.8741H43.4507V95.6107H32.3032ZM69.2424 71.1645H80.3898V95.6107H69.2424V71.1645Z" fill="black"/>
<path d="M91.5408 11.2052C92.335 13.0907 94.5789 14.0188 96.4897 13.2339C98.3949 12.4513 99.3304 10.2238 98.5392 8.33607C97.7488 6.45057 95.497 5.52395 93.5907 6.30732C91.6875 7.08957 90.7459 9.31895 91.5408 11.2052Z" fill="black"/>
</svg>
