<svg width="234" height="234" viewBox="0 0 234 234" fill="none" xmlns="http://www.w3.org/2000/svg">
<path d="M92.2772 118.081C91.9125 117.717 91.6389 117.261 91.6389 116.714C91.6389 115.619 92.4594 114.799 93.5536 114.799L220.298 114.799C221.392 114.799 222.213 115.619 222.212 116.713C222.212 117.808 221.392 118.628 220.298 118.628L93.5536 118.628C93.0978 118.72 92.6419 118.446 92.2772 118.081Z" fill="#33363A"/>
<path d="M11.8543 118.081C11.4896 117.716 11.216 117.26 11.216 116.713C11.216 115.618 12.0365 114.798 13.1307 114.798L17.6896 114.798C18.784 114.798 19.6046 115.619 19.6043 116.713C19.6043 117.807 18.7838 118.628 17.6896 118.627L13.1307 118.627C12.5837 118.628 12.219 118.445 11.8543 118.081Z" fill="#33363A"/>
<path d="M25.5305 118.081C25.1658 117.716 24.8922 117.26 24.8922 116.713C24.8922 115.619 25.7128 114.798 26.807 114.799L35.9252 114.799C37.0196 114.799 37.8402 115.619 37.84 116.713C37.8397 117.807 37.0194 118.628 35.9252 118.628L26.807 118.628C26.3511 118.719 25.8953 118.446 25.5305 118.081ZM43.9494 118.081C43.5846 117.716 43.311 117.26 43.311 116.713C43.311 115.619 44.1316 114.798 45.2258 114.799L54.3441 114.799C55.4385 114.799 56.259 115.619 56.2588 116.713C56.2588 117.808 55.4382 118.628 54.3441 118.628L45.2258 118.628C44.7702 118.719 44.3141 118.446 43.9494 118.081ZM62.3684 118.081C62.0037 117.716 61.7301 117.26 61.7301 116.713C61.7301 115.619 62.5507 114.798 63.6448 114.798L72.7631 114.798C73.8575 114.798 74.6781 115.619 74.6778 116.713C74.6778 117.807 73.8573 118.628 72.7631 118.628L63.6448 118.628C63.189 118.719 62.7331 118.445 62.3684 118.081Z" fill="#33363A"/>
<path d="M80.7879 118.081C80.4232 117.716 80.1496 117.26 80.1496 116.713C80.1496 115.618 80.9701 114.798 82.0643 114.798L86.6232 114.798C87.7176 114.798 88.5382 115.619 88.5379 116.713C88.5379 117.807 87.7174 118.628 86.6232 118.627L82.0641 118.628C81.5173 118.628 81.1526 118.445 80.7879 118.081Z" fill="#33363A"/>
<path d="M225.675 111.425C228.593 114.343 228.593 119.084 225.675 122.002C222.758 124.92 218.016 124.92 215.098 122.002C212.18 119.084 212.18 114.343 215.098 111.425C218.107 108.598 222.849 108.598 225.675 111.425Z" fill="white"/>
<path d="M215.192 121.911C212.274 118.993 212.274 114.252 215.192 111.334C218.11 108.416 222.851 108.416 225.769 111.334" fill="#D8E5EA"/>
<path d="M213.821 123.279C212.089 121.546 211.086 119.084 211.086 116.714C211.086 114.16 212.089 111.881 213.821 110.149C215.554 108.416 218.016 107.413 220.386 107.413C222.94 107.413 225.219 108.416 226.952 110.148C228.684 111.881 229.687 114.343 229.687 116.713C229.687 119.267 228.684 121.546 226.952 123.278C225.219 125.011 222.757 126.014 220.387 126.014C217.925 126.106 215.645 125.102 213.821 123.279ZM224.307 112.793C223.304 111.79 221.936 111.152 220.478 111.152C219.019 111.152 217.651 111.79 216.648 112.793C215.645 113.796 215.007 115.164 215.007 116.623C215.007 118.081 215.645 119.449 216.648 120.452C217.651 121.455 219.019 122.094 220.478 122.094C221.936 122.094 223.304 121.455 224.307 120.452C225.31 119.449 225.949 118.081 225.949 116.623C225.858 115.255 225.401 113.887 224.307 112.793Z" fill="#33363A"/>
<path d="M18.4175 111.516C21.3353 114.433 21.3353 119.175 18.4175 122.093C15.4997 125.011 10.7581 125.011 7.84032 122.093C4.92255 119.175 4.92255 114.433 7.84032 111.516C10.8495 108.506 15.4997 108.598 18.4175 111.516Z" fill="white"/>
<path d="M7.93016 122.002C5.01239 119.084 5.01239 114.343 7.93017 111.425C10.8479 108.507 15.5896 108.507 18.5073 111.425" fill="#D8E5EA"/>
<path d="M6.56391 123.369C4.83142 121.637 3.82837 119.175 3.82837 116.804C3.82837 114.251 4.83142 111.972 6.56391 110.239C8.2964 108.507 10.7583 107.504 13.1289 107.504C15.6822 107.504 17.9614 108.507 19.6939 110.239C21.4264 111.972 22.4294 114.434 22.4294 116.804C22.4294 119.358 21.4264 121.637 19.6939 123.369C17.9614 125.102 15.4995 126.105 13.1289 126.105C10.6672 126.014 8.2964 125.102 6.56391 123.369ZM17.05 112.883C16.0469 111.88 14.6792 111.242 13.2203 111.242C11.7614 111.242 10.3936 111.88 9.39057 112.883C8.38752 113.886 7.74919 115.254 7.74919 116.713C7.74919 118.172 8.38752 119.54 9.39056 120.543C10.3936 121.546 11.7614 122.184 13.2203 122.184C14.6792 122.184 16.0469 121.546 17.05 120.543C18.053 119.54 18.6913 118.172 18.6913 116.713C18.6913 115.254 18.053 113.886 17.05 112.883Z" fill="#33363A"/>
</svg>
