<svg width="85" height="85" viewBox="0 0 85 85" fill="none" xmlns="http://www.w3.org/2000/svg">
<path d="M39.8315 65.5924C40.2354 65.9962 40.7148 66.3166 41.2425 66.5352C41.7702 66.7538 42.3357 66.8663 42.9069 66.8663C43.4781 66.8663 44.0436 66.7538 44.5713 66.5352C45.099 66.3166 45.5784 65.9962 45.9823 65.5924L62.3837 49.1909C63.1994 48.3753 63.6576 47.2691 63.6576 46.1156C63.6576 44.9622 63.1994 43.8559 62.3837 43.0403C61.5681 42.2247 60.4619 41.7665 59.3085 41.7665C58.155 41.7665 57.0488 42.2247 56.2332 43.0403L47.256 52.0175V4.52881C47.256 3.37535 46.7978 2.26914 45.9822 1.45352C45.1666 0.637898 44.0604 0.179688 42.9069 0.179688C41.7534 0.179688 40.6472 0.637898 39.8316 1.45352C39.016 2.26914 38.5578 3.37535 38.5578 4.52881V52.0175L29.5806 43.0403C28.765 42.2247 27.6588 41.7665 26.5054 41.7665C25.3519 41.7665 24.2457 42.2247 23.4301 43.0403C22.6145 43.8559 22.1562 44.9622 22.1562 46.1156C22.1562 47.2691 22.6145 48.3753 23.4301 49.1909L39.8315 65.5924Z" fill="black"/>
<path d="M80.5992 37.8721C79.4457 37.8721 78.3395 38.3303 77.5239 39.1459C76.7083 39.9615 76.2501 41.0678 76.2501 42.2212V75.5645H9.56349V42.2212C9.56349 41.0678 9.10528 39.9615 8.28966 39.1459C7.47404 38.3303 6.36782 37.8721 5.21436 37.8721C4.0609 37.8721 2.95468 38.3303 2.13906 39.1459C1.32344 39.9615 0.865234 41.0678 0.865234 42.2212V77.0142C0.865234 78.9367 1.62892 80.7804 2.98828 82.1397C4.34765 83.4991 6.19134 84.2628 8.11378 84.2628H77.6998C79.6222 84.2628 81.4659 83.4991 82.8253 82.1397C84.1846 80.7804 84.9483 78.9367 84.9483 77.0142V42.2212C84.9483 41.0678 84.4901 39.9615 83.6745 39.1459C82.8589 38.3303 81.7527 37.8721 80.5992 37.8721Z" fill="black"/>
</svg>
