<svg width="106" height="99" viewBox="0 0 106 99" fill="none" xmlns="http://www.w3.org/2000/svg">
<path d="M106 49.5C106 62.2372 95.5963 72.6 82.8125 72.6H66.25C64.419 72.6 62.9375 71.1224 62.9375 69.3C62.9375 67.4776 64.419 66 66.25 66H82.8125C91.9442 66 99.375 58.5973 99.375 49.5C99.375 40.4027 91.9442 33 82.8125 33H79.5C77.669 33 76.1875 31.5224 76.1875 29.7C76.1875 16.9628 65.7838 6.6 53 6.6C40.2162 6.6 29.8125 16.9628 29.8125 29.7C29.8125 31.5224 28.331 33 26.5 33H23.1875C14.0558 33 6.625 40.4027 6.625 49.5C6.625 58.5973 14.0558 66 23.1875 66H39.75C41.581 66 43.0625 67.4776 43.0625 69.3C43.0625 71.1224 41.581 72.6 39.75 72.6H23.1875C10.4037 72.6 0 62.2372 0 49.5C0 36.7628 10.4037 26.4 23.1875 26.4H23.3722C25.0251 11.5706 37.6797 0 53 0C68.3203 0 80.9749 11.5706 82.6278 26.4H82.8125C95.5971 26.4 106 36.7628 106 49.5ZM63.9081 80.1669L56.3125 87.7338V46.2C56.3125 44.3776 54.831 42.9 53 42.9C51.169 42.9 49.6875 44.3776 49.6875 46.2V87.7338L42.0919 80.1669C40.7976 78.8774 38.7016 78.8774 37.4081 80.1669C36.1145 81.4564 36.1137 83.5445 37.4081 84.8331L50.6581 98.0331C51.3048 98.6774 52.1528 99 53 99C53.8472 99 54.6952 98.6774 55.3419 98.0331L68.5919 84.8331C69.8863 83.5436 69.8863 81.4555 68.5919 80.1669C67.2976 78.8782 65.2016 78.8774 63.9081 80.1669Z" fill="black"/>
</svg>
