<svg width="53" height="37" viewBox="0 0 53 37" fill="none" xmlns="http://www.w3.org/2000/svg">
<path d="M47.8717 0.0839844H4.7188C2.17636 0.0839844 0.117188 2.15594 0.117188 4.68559V32.2952C0.117188 34.8399 2.19149 36.8969 4.7188 36.8969H47.8717C50.3928 36.8969 52.4733 34.8486 52.4733 32.2952V4.68559C52.4733 2.16043 50.4223 0.0839844 47.8717 0.0839844ZM47.2272 3.15172C46.2871 4.08687 30.1077 20.1811 29.5491 20.7367C28.6799 21.6059 27.5244 22.0845 26.2952 22.0845C25.0661 22.0845 23.9106 21.6058 23.0385 20.7339C22.6628 20.3601 6.66201 4.44365 5.36323 3.15172H47.2272ZM3.18493 31.6709V5.31192L16.4414 18.4986L3.18493 31.6709ZM5.36517 33.8291L18.6165 20.6621L20.8722 22.9059C22.3208 24.3545 24.2467 25.1522 26.2952 25.1522C28.3438 25.1522 30.2697 24.3545 31.7154 22.9088L33.974 20.6621L47.2253 33.8291H5.36517ZM49.4055 31.6709L36.149 18.4986L49.4055 5.31192V31.6709Z" fill="black"/>
</svg>
