<svg width="161" height="161" viewBox="0 0 161 161" fill="none" xmlns="http://www.w3.org/2000/svg">
<path d="M83.526 90.6511C77.5485 90.6234 71.61 89.6869 65.914 87.8738C56.8131 84.8291 50.0534 77.1244 48.2185 67.7047C46.2108 58.0341 49.8697 47.8087 58.2551 39.6514C59.1548 38.7751 60.0897 37.9358 61.0599 37.1333C69.6456 29.9454 81.2207 27.4474 92.0065 30.4549C102.449 33.7877 109.664 43.3305 110.025 54.2855C110.416 60.5915 108.36 66.8055 104.286 71.6346C101.144 75.5927 96.0531 77.4622 91.0961 76.4783C89.0689 76.0577 87.3002 74.83 86.1972 73.0778C85.2075 71.3759 84.9537 69.3443 85.4943 67.4511C87.8263 58.6362 90.1972 45.2402 90.2207 45.1045C90.3863 44.1661 91.04 43.3873 91.9355 43.0615C92.831 42.7357 93.8323 42.9125 94.5622 43.5251C95.2921 44.1378 95.6396 45.0933 95.474 46.0317C95.3751 46.589 93.0404 59.7842 90.6511 68.8143C90.4805 69.3147 90.5234 69.8633 90.7695 70.3311C91.1382 70.8414 91.6946 71.1842 92.3161 71.2842C95.3506 71.7907 98.4158 70.5733 100.276 68.1229C103.44 64.3379 105.025 59.4803 104.703 54.5578C104.442 45.8378 98.7235 38.2246 90.4215 35.5445C81.3593 33.0519 71.651 35.1813 64.4639 41.2378C63.6071 41.949 62.7738 42.6935 61.9743 43.4722C57.8287 47.5047 51.2087 55.8722 53.4393 66.6189C54.9381 74.1268 60.3004 80.2799 67.533 82.7909C80.0396 86.7805 98.0108 87.2607 107.48 75.4874C108.41 74.367 110.067 74.2001 111.202 75.1125C112.337 76.0249 112.53 77.6791 111.636 78.8285C104.634 87.5359 93.9791 90.6511 83.526 90.6511Z" fill="black"/>
<path d="M74.4009 76.825C71.5821 76.8734 68.8328 75.9491 66.6158 74.2076C61.4974 70.1114 61.3566 62.9954 62.7915 58.1492C63.2748 56.5353 63.9236 54.9758 64.7278 53.4954C66.7286 49.4583 69.928 46.1381 73.8881 43.989C78.8196 41.43 84.845 42.4004 88.7238 46.3783C90.6481 48.4872 92.0976 50.9843 92.9745 53.7012C93.4388 55.08 92.7125 56.5765 91.342 57.0645C89.9715 57.5526 88.4626 56.8522 87.951 55.4903C87.3188 53.4831 86.2679 51.6329 84.8678 50.0618C82.6064 47.7491 79.0827 47.223 76.2443 48.774C73.2745 50.4489 70.8878 52.9918 69.4043 56.0618C68.7809 57.212 68.2774 58.4233 67.9017 59.6764C66.8654 63.1818 67.0931 67.7564 69.9526 70.0463C73.0787 72.5567 78.3526 71.4954 81.3198 68.9356C83.5311 66.9449 85.4311 64.6336 86.9563 62.0788C87.4502 61.2512 88.3523 60.7545 89.3158 60.7797C90.2793 60.8048 91.1542 61.3479 91.6043 62.2002C92.0543 63.0524 92.0095 64.0812 91.487 64.8911C89.6804 67.9014 87.4312 70.6228 84.815 72.9639C81.899 75.4242 78.2159 76.7898 74.4009 76.825V76.825Z" fill="black"/>
<path d="M152.227 160.011H8.22656C3.8103 160.006 0.231412 156.427 0.226562 152.011V53.3444C0.226604 52.3103 0.824474 51.3695 1.76065 50.9303C2.69683 50.4911 3.80252 50.6327 4.59776 51.2937L70.03 105.674C75.9505 110.563 84.5084 110.562 90.4271 105.67L155.853 51.2937C156.648 50.6314 157.755 50.4889 158.692 50.9283C159.629 51.3677 160.227 52.3095 160.227 53.3444V152.011C160.222 156.427 156.643 160.006 152.227 160.011V160.011ZM5.5599 59.0279V152.011C5.56181 153.483 6.7546 154.676 8.22656 154.678H152.227C153.699 154.676 154.892 153.483 154.893 152.011V59.0279L93.8322 109.775C85.9371 116.299 74.5219 116.301 66.625 109.779L5.5599 59.0279Z" fill="black"/>
<path d="M2.89584 56.0111C1.73432 56.0121 0.705719 55.2612 0.352815 54.1546C-8.90068e-05 53.048 0.403887 51.8403 1.35157 51.1687L25.3516 34.1553C26.5532 33.3225 28.2012 33.6125 29.0465 34.8054C29.8917 35.9983 29.6188 37.6493 28.4348 38.5068L4.43477 55.5201C3.98537 55.8399 3.4474 56.0115 2.89584 56.0111V56.0111Z" fill="black"/>
<path d="M157.556 56.0111C157.004 56.0115 156.466 55.8399 156.017 55.5201L132.017 38.5068C130.833 37.6493 130.56 35.9983 131.405 34.8054C132.25 33.6125 133.898 33.3225 135.1 34.1553L159.1 51.1687C160.048 51.8403 160.452 53.048 160.099 54.1546C159.746 55.2612 158.717 56.0121 157.556 56.0111V56.0111Z" fill="black"/>
<path d="M104.866 18.6779C104.314 18.6782 103.776 18.5067 103.326 18.187L90.5791 9.14701C84.662 4.14697 76.0156 4.09489 70.0388 9.02328L57.1321 18.1873C56.3548 18.7385 55.3425 18.8332 54.4764 18.4356C53.6104 18.0381 53.0222 17.2087 52.9335 16.2599C52.8448 15.3111 53.269 14.387 54.0463 13.8358L66.7929 4.79581C74.6692 -1.64428 86.0066 -1.59306 93.8244 4.91795L106.411 13.8347C107.36 14.5062 107.764 15.7145 107.411 16.8216C107.058 17.9288 106.028 18.6797 104.866 18.6779V18.6779Z" fill="black"/>
<path d="M4.62616 158.571C3.50234 158.572 2.49853 157.869 2.11622 156.812C1.73391 155.755 2.05517 154.572 2.91949 153.854L63.7728 103.294C64.5041 102.672 65.513 102.491 66.4147 102.82C67.3163 103.149 67.9715 103.938 68.1302 104.884C68.2889 105.831 67.9266 106.79 67.1816 107.395L6.32829 157.955C5.85052 158.353 5.24817 158.571 4.62616 158.571V158.571Z" fill="black"/>
<path d="M155.82 158.571C155.199 158.572 154.597 158.354 154.12 157.955L93.2666 107.395C92.5216 106.79 92.1593 105.831 92.318 104.884C92.4767 103.938 93.1319 103.15 94.0336 102.82C94.9352 102.491 95.9442 102.672 96.6754 103.294L157.527 153.854C158.391 154.572 158.713 155.755 158.33 156.812C157.948 157.869 156.944 158.572 155.82 158.571V158.571Z" fill="black"/>
<path d="M133.56 75.9579C132.087 75.9579 130.893 74.764 130.893 73.2912V18.6987C130.885 18.7547 130.779 18.6792 130.6 18.6779H29.8532C29.7354 18.6706 29.6197 18.7121 29.5332 18.7925L29.5599 73.2912C29.5599 74.764 28.366 75.9579 26.8932 75.9579C25.4205 75.9579 24.2266 74.764 24.2266 73.2912V18.6779C24.3126 15.6536 26.8287 13.2687 29.8532 13.3445H130.6C133.624 13.269 136.14 15.6537 136.227 18.6779V73.2912C136.227 74.764 135.033 75.9579 133.56 75.9579Z" fill="black"/>
</svg>
