<svg width="117" height="125" viewBox="0 0 117 125" fill="none" xmlns="http://www.w3.org/2000/svg">
<path d="M11.9168 67.197C8.65779 68.6229 5.88507 70.9677 3.93787 73.9447C1.99068 76.9217 0.953459 80.4018 0.953125 83.959V122.031C0.953125 122.558 1.16219 123.062 1.53433 123.434C1.90648 123.807 2.41121 124.016 2.9375 124.016H90.25C90.7763 124.016 91.281 123.807 91.6532 123.434C92.0253 123.062 92.2344 122.558 92.2344 122.031V118.062C95.5957 118.074 98.9213 117.373 101.992 116.007C105.064 114.64 107.811 112.639 110.053 110.135C112.295 107.631 113.982 104.681 115.002 101.478C116.023 98.275 116.353 94.8926 115.972 91.5528C115.592 88.2131 114.508 84.9919 112.793 82.1009C111.078 79.21 108.771 76.7149 106.022 74.7797C103.274 72.8446 100.147 71.5132 96.847 70.8732C93.5471 70.2332 90.1491 70.2991 86.8766 71.0666C85.2635 69.4382 83.3602 68.1258 81.2647 67.197L58.5 57.2335V51.961C60.7222 49.9688 62.4105 47.4523 63.4113 44.6406H64.4531C66.3055 44.6427 68.1 43.9959 69.5251 42.8125C70.9501 41.6292 71.9157 39.9841 72.2541 38.1629C72.5925 36.3417 72.2823 34.4596 71.3774 32.8433C70.4725 31.227 69.0301 29.9788 67.3007 29.3153C68.0464 27.0635 68.4249 24.7063 68.4219 22.3343V16.8594C68.4161 12.6508 66.7417 8.61632 63.7658 5.64043C60.7899 2.66454 56.7554 0.99015 52.5469 0.984375H38.6562C36.8613 0.985718 35.1196 1.59434 33.7145 2.71123C32.3094 3.82812 31.3235 5.38758 30.9172 7.13594C29.1688 7.54223 27.6094 8.52812 26.4925 9.93325C25.3756 11.3384 24.767 13.0801 24.7656 14.875V18.8438C24.7704 22.3435 25.3579 25.818 26.5039 29.1248C24.6726 29.6579 23.0954 30.8343 22.0624 32.4376C21.0293 34.041 20.6099 35.9634 20.8813 37.8513C21.1527 39.7392 22.0966 41.4656 23.5395 42.713C24.9823 43.9605 26.8271 44.6449 28.7344 44.6406H29.7762C30.777 47.4523 32.4653 49.9688 34.6875 51.961V57.2335L11.9168 67.197ZM43.1251 64.7185L37.1719 69.481L32.7527 62.4127L36.523 60.7617L43.1251 64.7185ZM56.6585 60.7498L60.4288 62.4008L56.0096 69.4691L50.0565 64.7066L56.6585 60.7498ZM49.3362 74.4062H43.8513L41.9999 70.7014L46.5938 67.0264L51.1876 70.7014L49.3362 74.4062ZM37.9121 73.9717L38.8289 73.2374L40.6148 76.8093L39.1325 103.511C34.3078 91.866 31.5151 79.4801 30.8755 66.8914L34.9891 73.4736C35.1375 73.7111 35.3344 73.9145 35.567 74.0705C35.7995 74.2264 36.0625 74.3314 36.3385 74.3785C36.4487 74.3966 36.5602 74.4059 36.6719 74.4062C37.1226 74.4065 37.5601 74.2532 37.9121 73.9717ZM44.5022 78.375H48.6853L50.5089 111.204C49.2945 113.598 47.9894 115.95 46.5938 118.261C45.2007 115.951 43.8957 113.6 42.6786 111.206L44.5022 78.375ZM54.055 103.511L52.5747 76.8054L54.3606 73.2335L55.2774 73.9677C55.6284 74.2502 56.0651 74.4049 56.5156 74.4062C56.6273 74.4059 56.7388 74.3966 56.849 74.3785C57.125 74.3314 57.388 74.2264 57.6205 74.0705C57.8531 73.9145 58.05 73.7111 58.1984 73.4736L62.312 66.8914C61.6724 79.4801 58.8797 91.866 54.055 103.511ZM4.92188 83.959C4.92186 81.1737 5.73387 78.4487 7.25853 76.1176C8.78319 73.7866 10.9544 71.9506 13.5063 70.8344L26.8254 65.0063C27.4583 84.4334 33.0378 103.378 43.0358 120.047H20.7969V98.2188H16.8281V120.047H4.92188V83.959ZM88.2656 120.047H76.3594V111.949C79.7017 114.958 83.8312 116.954 88.2656 117.703V120.047ZM112.078 94.25C112.078 98.1747 110.914 102.011 108.734 105.275C106.553 108.538 103.454 111.081 99.8283 112.583C96.2023 114.085 92.2124 114.478 88.363 113.712C84.5137 112.947 80.9779 111.057 78.2027 108.282C75.4275 105.506 73.5376 101.971 72.7719 98.1213C72.0062 94.272 72.3992 90.2821 73.9011 86.6561C75.4031 83.0302 77.9465 79.931 81.2098 77.7505C84.4731 75.5701 88.3097 74.4062 92.2344 74.4062C97.4955 74.412 102.539 76.5046 106.26 80.2247C109.98 83.9449 112.072 88.9889 112.078 94.25ZM82.5467 72.5191C79.3856 73.9213 76.5688 75.9966 74.2928 78.6001C72.0168 81.2036 70.3366 84.2726 69.3695 87.5926C68.4024 90.9127 68.1717 94.4039 68.6935 97.8224C69.2153 101.241 70.4771 104.504 72.3906 107.385V120.047H50.1517C60.1501 103.377 65.7295 84.4321 66.3621 65.0043L79.6812 70.8344C80.6984 71.2831 81.66 71.8484 82.5467 72.5191ZM64.4531 40.6719H64.3361C64.4122 40.0131 64.4512 39.3506 64.4531 38.6875V32.7344C65.5057 32.7344 66.5152 33.1525 67.2595 33.8968C68.0037 34.6411 68.4219 35.6505 68.4219 36.7031C68.4219 37.7557 68.0037 38.7652 67.2595 39.5095C66.5152 40.2537 65.5057 40.6719 64.4531 40.6719ZM28.7344 40.6719C27.6818 40.6719 26.6723 40.2537 25.928 39.5095C25.1838 38.7652 24.7656 37.7557 24.7656 36.7031C24.7656 35.6505 25.1838 34.6411 25.928 33.8968C26.6723 33.1525 27.6818 32.7344 28.7344 32.7344V38.6875C28.7363 39.3506 28.7753 40.0131 28.8515 40.6719H28.7344ZM29.4825 25.1501C28.9923 23.0836 28.7413 20.9676 28.7344 18.8438V14.875C28.7344 13.8224 29.1525 12.813 29.8968 12.0687C30.6411 11.3244 31.6505 10.9062 32.7031 10.9062C33.2294 10.9062 33.7341 10.6972 34.1063 10.325C34.4784 9.9529 34.6875 9.44816 34.6875 8.92188C34.6875 7.8693 35.1056 6.85983 35.8499 6.11554C36.5942 5.37126 37.6037 4.95312 38.6562 4.95312H52.5469C55.7033 4.95733 58.7293 6.21308 60.9612 8.44502C63.1932 10.677 64.4489 13.7029 64.4531 16.8594V22.3343C64.4479 23.4781 64.335 24.6188 64.1158 25.7414C63.9447 25.4565 63.7035 25.2201 63.4152 25.0547C63.1269 24.8894 62.8011 24.8006 62.4688 24.7969H60.9031C51.9632 24.8061 43.2221 22.1595 35.7888 17.1928C35.572 17.0481 35.3288 16.9476 35.0732 16.8969C34.8175 16.8462 34.5544 16.8464 34.2988 16.8975C34.0432 16.9485 33.8002 17.0494 33.5836 17.1944C33.367 17.3394 33.1811 17.5256 33.0365 17.7424L32.3698 18.7346C31.0637 20.7012 30.0883 22.8684 29.4825 25.1501ZM32.7031 38.6875V30.75C32.7021 27.511 33.5948 24.3346 35.2828 21.5703C42.8754 26.2097 51.5868 28.6969 60.4844 28.7656V38.6875C60.4844 42.3715 59.0209 45.9047 56.4159 48.5097C53.8109 51.1147 50.2778 52.5781 46.5938 52.5781C42.9097 52.5781 39.3766 51.1147 36.7716 48.5097C34.1666 45.9047 32.7031 42.3715 32.7031 38.6875ZM46.5938 56.5469C49.3503 56.545 52.0683 55.8995 54.5312 54.6617V57.4081L46.5938 62.1706L38.6562 57.4081V54.6617C41.1192 55.8995 43.8372 56.545 46.5938 56.5469Z" fill="black"/>
<path d="M74.956 97.6374L86.8622 109.544C87.2344 109.916 87.739 110.125 88.2652 110.125C88.7914 110.125 89.296 109.916 89.6682 109.544L109.512 89.6999C109.884 89.3278 110.093 88.8231 110.093 88.2969C110.093 87.7708 109.884 87.2661 109.512 86.894L103.559 80.9409C103.187 80.5688 102.682 80.3599 102.156 80.3599C101.63 80.3599 101.125 80.5688 100.753 80.9409L88.2652 93.4285L83.715 88.8784C83.3429 88.5063 82.8383 88.2974 82.3121 88.2974C81.7859 88.2974 81.2812 88.5063 80.9091 88.8784L74.956 94.8315C74.584 95.2036 74.375 95.7083 74.375 96.2344C74.375 96.7606 74.584 97.2653 74.956 97.6374ZM82.3121 93.0872L86.8622 97.6374C87.2344 98.0094 87.739 98.2184 88.2652 98.2184C88.7914 98.2184 89.296 98.0094 89.6682 97.6374L102.156 85.1497L105.303 88.2969L88.2652 105.335L79.1649 96.2344L82.3121 93.0872Z" fill="black"/>
</svg>
