<svg width="83" height="112" viewBox="0 0 83 112" fill="none" xmlns="http://www.w3.org/2000/svg">
<path d="M82.8977 26.6527L57.0726 0.805908H4.66283C2.36245 0.805908 0.496094 2.67226 0.496094 4.97265V78.9106H82.8977V26.6527Z" fill="#EFF3F5"/>
<path d="M57.0723 22.486C57.0723 24.7864 58.9386 26.6527 61.239 26.6527H82.9191L57.0723 0.805908V22.486Z" fill="#DBDFE0"/>
<path d="M0.517578 78.8889V106.884C0.517578 109.185 2.38393 111.051 4.68432 111.051H78.7524C81.0528 111.051 82.9192 109.185 82.9192 106.884V78.8889H0.517578Z" fill="#F1786B"/>
<path d="M20.5701 74.1579C19.2463 74.1579 17.9659 73.6588 16.794 72.6822C14.8191 71.0329 14.6672 69.2099 14.8626 67.9729C15.8174 62.3956 26.1909 57.2957 32.224 54.7782C35.5009 46.575 38.3439 36.9177 40.1017 29.6693C36.586 22.1388 35.349 16.8219 36.4341 13.8053C36.9767 12.3079 38.0834 11.3313 39.646 10.9841L39.863 10.9407L40.08 10.9624C40.2536 10.9841 41.7944 11.2228 43.0531 12.9155C44.6808 15.1291 45.0497 18.7099 44.1382 23.5711C43.8778 24.96 43.4438 26.9566 42.8795 29.3438C46.0914 36.0279 50.6054 43.4065 54.2947 48.5281C57.3763 48.0941 60.3061 47.9422 62.7801 48.2026C67.4025 48.68 68.3791 50.6983 68.5527 51.8702C68.8131 53.5846 67.5544 55.3642 65.406 56.2757C62.4328 57.5344 57.5716 57.2088 53.6219 52.0872C53.4483 51.8702 53.2747 51.6315 53.1011 51.3928C48.0229 52.2391 42.12 53.8451 36.1303 56.0804C35.5009 56.3191 34.8933 56.5578 34.2856 56.7965C30.2274 66.7359 26.256 72.4435 22.4582 73.8107C21.8505 74.0494 21.1995 74.1579 20.5701 74.1579V74.1579ZM30.7699 58.2939C22.1543 62.1785 17.8791 66.0198 17.4885 68.4287C17.4017 68.9495 17.4017 69.7525 18.5084 70.6639C19.5284 71.5103 20.505 71.7273 21.5901 71.3367C24.6066 70.2516 27.8185 65.0432 30.7699 58.2939V58.2939ZM56.161 50.9804C59.0908 54.431 62.3894 54.7131 64.386 53.8451C65.4277 53.411 66.0136 52.6732 65.9485 52.2608C65.8834 51.8268 64.9068 51.0889 62.5196 50.8502C60.7401 50.6766 58.5916 50.72 56.161 50.9804V50.9804ZM41.9247 33.3152C40.6008 38.4151 38.7996 44.5567 36.6945 50.503C36.3256 51.523 35.9784 52.4996 35.6094 53.4544C40.3187 51.7183 46.0046 50.0256 51.4083 49.0056C48.5003 44.8605 44.9195 39.1096 41.9247 33.3152V33.3152ZM39.9715 13.6751C39.4724 13.8487 39.1468 14.1742 38.9515 14.7385C38.192 16.8219 39.1902 20.7499 41.1217 25.3941C41.2953 24.5694 41.4472 23.8098 41.5774 23.1154C42.5757 17.7116 41.6208 15.3895 40.9481 14.4998C40.5791 14.0006 40.1885 13.7619 39.9715 13.6751Z" fill="#F1786B"/>
<path d="M61.3257 93.2989H56.356V88.2424H61.3257C62.2588 88.2424 63.0184 87.4829 63.0184 86.5497C63.0184 85.6165 62.2588 84.8569 61.3257 84.8569H54.6849C53.7517 84.8569 52.9922 85.6165 52.9922 86.5497V103.39C52.9922 104.323 53.7517 105.083 54.6849 105.083C55.6181 105.083 56.3777 104.323 56.3777 103.39V96.6627H61.3474C62.2805 96.6627 63.0401 95.9031 63.0401 94.97C63.0184 94.0368 62.2588 93.2989 61.3257 93.2989V93.2989Z" fill="#EFF3F5"/>
<path d="M25.5181 84.8786H22.0892C21.156 84.8786 20.3965 85.6382 20.3965 86.5713V103.412C20.3965 104.345 21.156 105.105 22.0892 105.105C23.0224 105.105 23.782 104.345 23.782 103.412V96.6844H25.5181C28.7734 96.6844 31.421 94.0367 31.421 90.7815C31.421 87.5262 28.7734 84.8786 25.5181 84.8786ZM25.5181 93.2989H23.782V88.2424H25.5181C26.907 88.2424 28.0355 89.3709 28.0355 90.7598C28.0355 92.1487 26.907 93.2989 25.5181 93.2989Z" fill="#EFF3F5"/>
<path d="M40.0574 84.8787H35.6302C34.6971 84.8787 33.9375 85.6382 33.9375 86.5714V103.412C33.9375 104.345 34.6971 105.105 35.6302 105.105H40.0574C45.6348 105.105 50.1704 100.569 50.1704 94.9917C50.1704 89.3926 45.6348 84.8787 40.0574 84.8787V84.8787ZM40.0574 101.698H37.323V88.2207H40.0574C43.7684 88.2207 46.7849 91.2373 46.7849 94.9483C46.8066 98.681 43.7684 101.698 40.0574 101.698V101.698Z" fill="#EFF3F5"/>
</svg>
