<svg width="99" height="97" viewBox="0 0 99 97" fill="none" xmlns="http://www.w3.org/2000/svg">
<path d="M92.5156 14.7133L78.9694 1.30571C78.1186 0.463781 76.9876 0 75.7844 0H18.7511C16.2676 0 14.2469 2.00006 14.2469 4.45821V48.5978H11.0795C7.7498 48.5978 5.04102 51.2791 5.04102 54.5746V81.9108C5.04102 85.2065 7.7498 87.8879 11.0795 87.8879H58.6439C61.1276 87.8879 63.1481 85.8878 63.1481 83.4297V62.1683C63.1481 59.7099 61.1274 57.7099 58.6439 57.7099H11.0795C9.33292 57.7099 7.91211 56.3036 7.91211 54.5748C7.91211 52.8461 9.33292 51.4397 11.0795 51.4397H14.2469V53.0567C14.2469 53.8414 14.8896 54.4776 15.6824 54.4776C16.4752 54.4776 17.118 53.8414 17.118 53.0567V4.45821C17.118 3.56683 17.8507 2.8418 18.7511 2.8418H74.086V16.6077C74.086 18.2286 75.4182 19.5474 77.0559 19.5474H90.9637V92.5418C90.9637 93.4332 90.231 94.1582 89.3306 94.1582H18.7511C17.8505 94.1582 17.118 93.4332 17.118 92.5418C17.118 91.7571 16.4752 91.1209 15.6824 91.1209C14.8896 91.1209 14.2469 91.7571 14.2469 92.5418C14.2469 95.0001 16.2676 97 18.7511 97H89.3306C91.8143 97 93.8348 94.9999 93.8348 92.5418V17.8658C93.8349 16.6751 93.3664 15.5554 92.5156 14.7133V14.7133ZM11.0795 60.5517H58.6439C59.5445 60.5517 60.277 61.2769 60.277 62.1683V83.4299C60.277 84.3212 59.5443 85.0463 58.6439 85.0463H11.0795C9.33292 85.0463 7.91211 83.6398 7.91211 81.911V59.6616C8.83335 60.226 9.91862 60.5517 11.0795 60.5517ZM76.9571 16.6077V3.33305L90.4679 16.7056H77.0559C77.0015 16.7056 76.9571 16.6616 76.9571 16.6077Z" fill="black"/>
<path d="M45.7188 80.25C46.5116 80.25 47.1543 79.6139 47.1543 78.8291V74.1055H50.2648C51.0576 74.1055 51.7004 73.4693 51.7004 72.6846C51.7004 71.8999 51.0576 71.2637 50.2648 71.2637H47.1543V68.1895H50.6572C51.45 68.1895 52.0928 67.5533 52.0928 66.7686C52.0928 65.9837 51.45 65.3477 50.6572 65.3477H45.7188C44.9259 65.3477 44.2832 65.9837 44.2832 66.7686V78.8289C44.2832 79.6137 44.9259 80.25 45.7188 80.25V80.25Z" fill="black"/>
<path d="M30.6299 79.7023C30.8988 79.9666 31.2625 80.1148 31.6413 80.1148H31.6467C31.7487 80.1144 34.1537 80.1053 35.1144 80.0886C38.6617 80.0272 41.2365 76.9615 41.2365 72.7988C41.2365 68.423 38.7266 65.4829 34.9907 65.4829H31.6172C31.2359 65.4829 30.8705 65.633 30.6012 65.9001C30.3319 66.1672 30.1809 66.5293 30.1816 66.9065V66.9157V66.9159V78.5023C30.1816 78.5999 30.1916 78.6952 30.2105 78.7873C30.2335 79.1319 30.3809 79.4577 30.6299 79.7023ZM34.9907 68.3247C37.479 68.3247 38.3654 70.6358 38.3654 72.7988C38.3654 75.8324 36.7074 77.219 35.0642 77.2472C34.6075 77.2551 33.7927 77.2614 33.0719 77.2658C33.0673 75.8718 33.0577 69.7748 33.0552 68.3247H34.9907Z" fill="black"/>
<path d="M18.707 80.2944C19.4998 80.2944 20.1426 79.6584 20.1426 78.8735V75.0094C20.8554 75.0056 21.6658 75.002 22.1248 75.002C24.8638 75.002 27.0922 72.8267 27.0922 70.1526C27.0922 67.4785 24.8638 65.303 22.1248 65.303H18.707C18.3256 65.303 17.9598 65.4534 17.6903 65.7207C17.4219 65.9871 17.2717 66.348 17.2717 66.7239H17.2715V78.8733C17.2715 79.6584 17.9142 80.2944 18.707 80.2944ZM22.1248 68.145C23.2612 68.145 24.2211 69.0646 24.2211 70.1528C24.2211 71.241 23.2612 72.1604 22.1248 72.1604C21.6689 72.1604 20.8686 72.164 20.1585 72.1676C20.1546 71.4418 20.1489 68.9045 20.1468 68.1452H22.1248V68.145Z" fill="black"/>
<path d="M45.5988 41.1989C42.0706 42.3012 38.4494 43.8268 36.5178 45.8004C34.9239 47.4287 34.6351 49.3179 35.7252 50.9838C36.4649 52.1143 37.4819 52.7052 38.6253 52.7052C39.0642 52.7052 39.5219 52.618 39.9895 52.4411C41.6764 51.8026 43.4982 49.9863 45.559 46.8882C46.2244 45.8881 46.8979 44.7766 47.5684 43.5741C47.8125 43.5031 48.0613 43.4324 48.3159 43.3619C52.3672 42.24 56.9506 41.4257 60.9732 41.0854C63.4253 43.4324 65.9599 45.261 68.1207 45.7598C70.4977 46.3087 72.3823 45.2328 73.1608 42.8816C73.6322 41.4575 73.0894 40.1147 71.7084 39.2896C70.2885 38.4411 67.8211 38.0313 64.3764 38.0703C63.6427 38.0786 62.8683 38.1082 62.0625 38.1576C60.5149 36.578 58.9048 34.6901 57.3543 32.6051C56.153 30.9901 55.0792 29.3738 54.1712 27.8376C54.2699 27.5009 54.3637 27.1688 54.4527 26.8426C55.4341 23.2405 55.7841 20.4826 55.493 18.6453C55.0725 15.992 53.3424 15.6152 52.6181 15.5765C50.1518 15.4445 48.4906 16.6761 48.1746 18.8709C47.9235 20.6145 48.5159 23.0133 49.9352 26.0006C50.2726 26.7107 50.651 27.4425 51.0666 28.1899C50.9117 28.6818 50.7438 29.1935 50.562 29.726C49.2386 33.6011 47.4463 37.7302 45.5988 41.1989V41.1989ZM38.705 49.8558C38.6026 49.8685 38.4299 49.8899 38.1348 49.4388C37.8945 49.0716 37.8815 48.7947 38.0865 48.4165C38.5658 47.5322 40.2021 46.2912 43.3686 45.0094C41.1586 48.4021 39.507 49.7567 38.705 49.8558V49.8558ZM70.4562 41.9001C70.4541 41.9177 70.4484 41.9492 70.4325 41.9969C70.074 43.0798 69.5922 43.1819 68.7728 42.9927C67.7725 42.7617 66.5019 42.0302 65.0848 40.9108C68.9221 40.9411 70.2608 41.6254 70.4562 41.9001V41.9001ZM51.0168 19.2722C51.0754 18.866 51.141 18.4092 52.2332 18.4092C52.3019 18.4092 52.3748 18.4111 52.4518 18.4147C52.7787 18.809 52.9469 20.5631 52.1905 24.0347C51.2995 22.0123 50.8642 20.3322 51.0168 19.2722ZM53.0158 31.398C53.6459 32.3564 54.3237 33.3243 55.0421 34.2901C56.0726 35.6758 57.2367 37.1143 58.468 38.4875C57.0436 38.6576 55.5744 38.8772 54.1046 39.1413C53.11 39.3199 51.3761 39.657 49.3464 40.1581C49.7966 39.2341 50.2404 38.2764 50.6747 37.2916C51.538 35.3348 52.3319 33.3325 53.0158 31.398V31.398Z" fill="black"/>
</svg>
