<svg width="200" height="172" viewBox="0 0 200 172" fill="none" xmlns="http://www.w3.org/2000/svg">
<path d="M56.6703 69.1758H24.2578C22.6398 69.1758 21.3281 70.4871 21.3281 72.1055C21.3281 73.7238 22.6398 75.0352 24.2578 75.0352H56.6703C58.2883 75.0352 59.6 73.7238 59.6 72.1055C59.6 70.4871 58.2883 69.1758 56.6703 69.1758Z" fill="black"/>
<path d="M56.6703 54.6133H24.2578C22.6398 54.6133 21.3281 55.9246 21.3281 57.543C21.3281 59.1613 22.6398 60.4727 24.2578 60.4727H56.6703C58.2883 60.4727 59.6 59.1613 59.6 57.543C59.6 55.9246 58.2883 54.6133 56.6703 54.6133Z" fill="black"/>
<path d="M192.929 114.258C192.409 114.258 191.95 113.931 191.786 113.446C191.228 111.793 190.552 110.162 189.777 108.597C189.547 108.134 189.639 107.576 190.009 107.206C192.766 104.449 192.766 99.9627 190.009 97.2049L183.357 90.5537C180.6 87.7971 176.114 87.7963 173.355 90.5553C172.987 90.9228 172.429 91.0154 171.966 90.7861C170.401 90.0103 168.769 89.3342 167.118 88.7768C166.631 88.6127 166.305 88.1529 166.305 87.6334C166.305 83.7342 163.132 80.5615 159.233 80.5615H149.826C145.927 80.5615 142.754 83.7342 142.754 87.6334C142.754 88.1529 142.428 88.6127 141.943 88.7764C140.29 89.3342 138.659 90.01 137.094 90.7857C136.631 91.0162 136.072 90.9232 135.703 90.5537C132.946 87.7971 128.46 87.7971 125.702 90.5537L119.051 97.2053C116.294 99.9627 116.294 104.449 119.052 107.208C119.42 107.575 119.513 108.133 119.283 108.597C118.507 110.162 117.832 111.793 117.274 113.445C117.11 113.931 116.65 114.257 116.13 114.257C112.231 114.257 109.059 117.429 109.059 121.329V130.735C109.059 134.635 112.231 137.807 116.13 137.807C116.65 137.807 117.109 138.134 117.273 138.619C117.831 140.271 118.507 141.902 119.283 143.468C119.513 143.931 119.42 144.489 119.051 144.858C116.287 147.621 116.287 152.096 119.051 154.86L125.702 161.51C128.466 164.274 132.939 164.276 135.704 161.51C136.072 161.142 136.63 161.049 137.094 161.279C138.659 162.054 140.29 162.73 141.942 163.288C142.428 163.452 142.754 163.912 142.754 164.431C142.754 168.331 145.927 171.503 149.826 171.503H159.233C163.132 171.503 166.305 168.331 166.305 164.431C166.305 163.912 166.631 163.452 167.117 163.288C168.769 162.73 170.4 162.054 171.966 161.279C172.429 161.049 172.987 161.142 173.356 161.51C176.12 164.274 180.593 164.275 183.357 161.511L190.008 154.86C192.771 152.097 192.773 147.623 190.007 144.858C189.64 144.49 189.547 143.931 189.777 143.468C190.552 141.903 191.228 140.272 191.786 138.62C191.95 138.134 192.409 137.808 192.929 137.808C196.828 137.808 200.001 134.635 200.001 130.736V121.329C200.001 117.43 196.828 114.258 192.929 114.258V114.258ZM194.141 130.735C194.141 131.404 193.597 131.948 192.929 131.948C189.893 131.948 187.203 133.876 186.234 136.745C185.76 138.149 185.186 139.536 184.526 140.866C183.179 143.584 183.717 146.853 185.865 149.001C186.338 149.474 186.339 150.242 185.865 150.716L179.214 157.367C178.743 157.838 177.976 157.844 177.498 157.366C175.35 155.218 172.081 154.681 169.364 156.028C168.034 156.688 166.647 157.262 165.243 157.737C162.373 158.705 160.446 161.396 160.446 164.431C160.446 165.099 159.902 165.644 159.233 165.644H149.827C149.158 165.644 148.614 165.099 148.614 164.431C148.614 161.396 146.686 158.705 143.818 157.737C142.413 157.262 141.026 156.687 139.696 156.029C138.698 155.534 137.626 155.293 136.562 155.293C134.729 155.293 132.921 156.008 131.561 157.367C131.09 157.838 130.322 157.843 129.846 157.367L123.195 150.716C122.726 150.247 122.717 149.48 123.196 149C125.343 146.853 125.88 143.584 124.534 140.867C123.874 139.536 123.3 138.149 122.825 136.744C121.857 133.875 119.166 131.948 116.131 131.948C115.463 131.948 114.918 131.404 114.918 130.735V121.329C114.918 120.661 115.463 120.117 116.131 120.117C119.166 120.117 121.856 118.189 122.825 115.319C123.3 113.915 123.874 112.528 124.533 111.198C125.88 108.479 125.343 105.211 123.195 103.063C122.722 102.59 122.722 101.821 123.195 101.348L129.846 94.6971C130.319 94.224 131.088 94.2244 131.562 94.6978C133.709 96.8451 136.977 97.383 139.696 96.0357C141.026 95.3764 142.413 94.8022 143.818 94.3279C146.686 93.3588 148.614 90.6682 148.614 87.6334C148.614 86.9646 149.158 86.4209 149.826 86.4209H159.233C159.901 86.4209 160.445 86.965 160.445 87.6334C160.445 90.6682 162.373 93.3584 165.243 94.3283C166.647 94.8022 168.033 95.3768 169.364 96.0361C172.082 97.3826 175.351 96.8451 177.499 94.6971C177.971 94.224 178.741 94.224 179.214 94.6971L185.865 101.348C186.338 101.821 186.338 102.59 185.864 103.064C183.717 105.211 183.179 108.479 184.526 111.199C185.185 112.528 185.76 113.915 186.234 115.32C187.203 118.189 189.893 120.117 192.929 120.117C193.597 120.117 194.141 120.661 194.141 121.329V130.735H194.141Z" fill="black"/>
<path d="M154.529 106.047C143.509 106.047 134.543 115.013 134.543 126.033C134.543 137.053 143.509 146.019 154.529 146.019C165.549 146.019 174.515 137.053 174.515 126.033C174.515 115.013 165.549 106.047 154.529 106.047ZM154.529 140.159C146.739 140.159 140.402 133.822 140.402 126.033C140.402 118.244 146.739 111.906 154.529 111.906C162.318 111.906 168.655 118.244 168.655 126.033C168.655 133.822 162.318 140.159 154.529 140.159Z" fill="black"/>
<path d="M106.97 150.224C106.97 150.224 106.97 150.224 106.97 150.224L13.4125 150.255C13.4117 150.255 13.4109 150.255 13.4102 150.255C9.23789 150.255 5.85977 146.879 5.85977 142.704V46.1676C5.85977 42.0043 9.24688 38.6168 13.4105 38.6168H103.552C108.785 38.6168 113.572 35.5414 115.748 30.782L124.895 10.7738C126.12 8.09492 128.815 6.36289 131.761 6.3625L173.292 6.35547H173.293C177.465 6.35547 180.843 9.73164 180.844 13.9059L180.85 80.1828C180.85 81.8008 182.162 83.1121 183.78 83.1121C185.398 83.1121 186.71 81.8004 186.71 80.182L186.703 13.9051C186.702 6.49531 180.707 0.496094 173.293 0.496094C173.293 0.496094 173.291 0.496094 173.291 0.496094L131.759 0.503124C126.527 0.504296 121.741 3.5793 119.565 8.33789L118.01 11.7402L13.4141 11.7117C13.4129 11.7117 13.4117 11.7117 13.4105 11.7117C6.00039 11.7117 0 17.7078 0 25.1219V142.704C0 150.114 5.9957 156.114 13.4098 156.114H13.4141L106.971 156.083C108.589 156.083 109.9 154.771 109.9 153.152C109.899 151.535 108.588 150.224 106.97 150.224ZM13.4105 17.5711H13.4125L115.331 17.5992L110.418 28.3461C109.193 31.0258 106.498 32.7574 103.551 32.7574H13.4102C10.6117 32.7574 8.01172 33.6203 5.85938 35.0922V25.1219C5.85938 20.9492 9.23594 17.5711 13.4105 17.5711V17.5711Z" fill="black"/>
</svg>
