<svg width="173" height="173" viewBox="0 0 173 173" fill="none" xmlns="http://www.w3.org/2000/svg">
<g clip-path="url(#clip0_378_111)">
<path d="M164.35 46.1342H149.933V37.4842C149.933 32.7071 146.06 28.8342 141.283 28.8342H73.4328L61.611 14.6482C59.9695 12.6725 57.5333 11.5311 54.965 11.5342H8.65C3.8729 11.5342 0 15.4071 0 20.1842V147.051C0.00946094 155.009 6.45844 161.458 14.4168 161.468H158.584C166.542 161.458 172.991 155.009 173 147.051V54.7842C173 50.0071 169.127 46.1342 164.35 46.1342V46.1342ZM5.76678 147.051V20.1842C5.76678 18.5917 7.05786 17.301 8.65 17.301H54.965C55.8216 17.3003 56.6342 17.6808 57.1822 18.339L65.9275 28.8342H31.7168C30.1243 28.8342 28.8336 30.1253 28.8336 31.7174C28.8336 33.3095 30.1246 34.6006 31.7168 34.6006H141.284C142.876 34.6006 144.167 35.8914 144.167 37.4838V46.1338H31.7168C26.9397 46.1338 23.0668 50.0068 23.0668 54.7838V147.051C23.0668 151.828 19.1939 155.701 14.4168 155.701C9.63968 155.701 5.76678 151.828 5.76678 147.051V147.051ZM167.233 147.051C167.233 151.828 163.36 155.701 158.583 155.701H25.875C27.7831 153.22 28.8227 150.181 28.8332 147.051V54.7842C28.8332 53.1917 30.1243 51.901 31.7164 51.901H164.35C165.942 51.901 167.233 53.192 167.233 54.7842V147.051Z" fill="black"/>
<path d="M122.107 87.1985L83.7583 120.069L74.1136 110.424C73.3895 109.674 72.3177 109.374 71.3094 109.638C70.3015 109.901 69.5142 110.689 69.2503 111.697C68.9864 112.705 69.2871 113.777 70.0366 114.501L81.5698 126.034C82.6352 127.099 84.3415 127.165 85.4853 126.184L125.852 91.584C126.68 90.9278 127.082 89.8719 126.901 88.8312C126.72 87.7909 125.985 86.9323 124.985 86.5937C123.985 86.2551 122.879 86.4903 122.104 87.207L122.107 87.1985Z" fill="black"/>
<path d="M98.0317 57.668C72.553 57.668 51.8984 78.3225 51.8984 103.801C51.8984 129.28 72.553 149.934 98.0317 149.934C123.51 149.934 144.165 129.28 144.165 103.801C144.135 78.3351 123.498 57.698 98.0317 57.668V57.668ZM98.0317 144.168C75.7376 144.168 57.6649 126.095 57.6649 103.801C57.6649 81.5072 75.7376 63.4344 98.0317 63.4344C120.326 63.4344 138.398 81.5072 138.398 103.801C138.374 126.085 120.316 144.144 98.0317 144.168Z" fill="black"/>
</g>
<defs>
<clipPath id="clip0_378_111">
<rect width="173" height="173" fill="white"/>
</clipPath>
</defs>
</svg>
