<svg width="50" height="51" viewBox="0 0 50 51" fill="none" xmlns="http://www.w3.org/2000/svg">
<path d="M34.0078 40.0987L28.9063 38.3979V36.2924C29.6678 35.799 30.3239 35.1593 30.8364 34.4104C31.349 33.6616 31.7078 32.8185 31.8922 31.9299H32.8125C33.4341 31.9299 34.0302 31.683 34.4698 31.2435C34.9093 30.8039 35.1563 30.2078 35.1563 29.5862C35.1563 28.9646 34.9093 28.3684 34.4698 27.9289C34.0302 27.4894 33.4341 27.2424 32.8125 27.2424H32.4039L33.1625 25.3448C33.5282 24.4311 33.6644 23.4417 33.5591 22.4632C33.4539 21.4847 33.1103 20.5469 32.5587 19.732C32.007 18.917 31.2639 18.2497 30.3946 17.7884C29.5252 17.3272 28.556 17.0861 27.5719 17.0862H22.4281C21.4441 17.0863 20.475 17.3276 19.6057 17.7889C18.7365 18.2502 17.9935 18.9175 17.4418 19.7323C16.8901 20.5472 16.5465 21.4849 16.441 22.4633C16.3355 23.4417 16.4714 24.431 16.8367 25.3448L17.5961 27.2424H17.1875C16.5659 27.2424 15.9698 27.4894 15.5302 27.9289C15.0907 28.3684 14.8438 28.9646 14.8438 29.5862C14.8438 30.2078 15.0907 30.8039 15.5302 31.2435C15.9698 31.683 16.5659 31.9299 17.1875 31.9299H18.1508C18.5532 33.6759 19.6055 35.2031 21.0938 36.201V38.3979L15.9922 40.0987C14.7472 40.5125 13.6642 41.308 12.8971 42.3723C12.1299 43.4366 11.7176 44.7156 11.7188 46.0276V49.1174C11.7188 49.3246 11.8011 49.5233 11.9476 49.6699C12.0941 49.8164 12.2928 49.8987 12.5 49.8987H37.5C37.7072 49.8987 37.9059 49.8164 38.0524 49.6699C38.1989 49.5233 38.2813 49.3246 38.2813 49.1174V46.0276C38.2824 44.7156 37.8701 43.4366 37.1029 42.3723C36.3358 41.308 35.2528 40.5125 34.0078 40.0987ZM21.6641 39.8549L23.6813 41.8721L22.2852 42.5706L21.2539 39.9924L21.6641 39.8549ZM24.7477 45.9924H25.2523L26.1898 48.3362H23.8102L24.7477 45.9924ZM25.2164 44.4299H24.7805L24.3898 43.2635L25 42.9596L25.607 43.2635L25.2164 44.4299ZM26.3172 41.8721L28.3344 39.8549L28.7445 39.9916L27.7133 42.5698L26.3172 41.8721ZM32.8125 28.8049C33.0197 28.8049 33.2184 28.8872 33.3649 29.0338C33.5114 29.1803 33.5938 29.379 33.5938 29.5862C33.5938 29.7934 33.5114 29.9921 33.3649 30.1386C33.2184 30.2851 33.0197 30.3674 32.8125 30.3674H32.0313V28.8049H32.8125ZM22.4281 18.6487H27.5719C28.3007 18.6485 29.0185 18.8269 29.6624 19.1684C30.3063 19.5099 30.8566 20.0041 31.2652 20.6076C31.6739 21.2111 31.9283 21.9056 32.0063 22.6303C32.0842 23.3549 31.9834 24.0877 31.7125 24.7643L31.0398 26.4463C30.518 26.4128 30.014 26.2428 29.5785 25.9534C29.1429 25.664 28.7909 25.2653 28.5578 24.7971L28.0469 23.7682C27.9747 23.6471 27.8723 23.5469 27.7497 23.4773C27.6272 23.4076 27.4886 23.371 27.3477 23.371C27.2067 23.371 27.0682 23.4076 26.9456 23.4773C26.823 23.5469 26.7206 23.6471 26.6484 23.7682L26.1344 24.7971C25.8856 25.299 25.5009 25.7211 25.0242 26.0152C24.5474 26.3094 23.9977 26.4639 23.4375 26.4612H18.9664L18.2875 24.7643C18.017 24.0877 17.9165 23.355 17.9946 22.6305C18.0728 21.906 18.3272 21.2117 18.7358 20.6083C19.1443 20.0049 19.6945 19.5108 20.3382 19.1691C20.9818 18.8275 21.6994 18.6488 22.4281 18.6487ZM17.1875 30.3674C16.9803 30.3674 16.7816 30.2851 16.6351 30.1386C16.4886 29.9921 16.4063 29.7934 16.4063 29.5862C16.4063 29.379 16.4886 29.1803 16.6351 29.0338C16.7816 28.8872 16.9803 28.8049 17.1875 28.8049H17.9688V30.3674H17.1875ZM19.5313 30.3674V28.0237H23.4375C24.2226 28.0266 24.9952 27.8261 25.6797 27.4416C26.3643 27.0571 26.9376 26.5019 27.3438 25.8299C27.6812 26.3883 28.135 26.8674 28.6743 27.2347C29.2135 27.6019 29.8256 27.8486 30.4688 27.9581V30.5549C30.4671 31.9551 29.9102 33.2974 28.9201 34.2875C27.93 35.2776 26.5877 35.8345 25.1875 35.8362H25.0313C23.5773 35.8383 22.1819 35.2638 21.1509 34.2386C20.1199 33.2135 19.5375 31.8213 19.5313 30.3674ZM25.0305 37.3987H25.1867C25.92 37.3978 26.6484 37.2785 27.3438 37.0456V38.6377L25 40.9815L22.6563 38.6377V36.9807C23.4177 37.2556 24.2209 37.397 25.0305 37.3987ZM13.2813 46.0276C13.2803 45.0438 13.5892 44.0848 14.1642 43.2865C14.7392 42.4883 15.551 41.8915 16.4844 41.5807L19.7656 40.487L21.1461 43.9393C21.1863 44.0397 21.247 44.1306 21.3242 44.2063C21.4014 44.282 21.4934 44.3409 21.5945 44.3792C21.6841 44.4134 21.7792 44.4306 21.875 44.4299C21.9958 44.4309 22.1153 44.4042 22.2242 44.3518L22.9813 43.9729L23.3867 45.1901L22.1273 48.3362H17.9688V45.9924H16.4063V48.3362H13.2813V46.0276ZM36.7188 48.3362H33.5938V45.9924H32.0313V48.3362H27.8727L26.6133 45.1862L27.0188 43.969L27.7758 44.3479C27.8843 44.402 28.0038 44.43 28.125 44.4299C28.2198 44.4302 28.3138 44.413 28.4023 44.3792C28.5035 44.3409 28.5955 44.282 28.6727 44.2063C28.7499 44.1306 28.8105 44.0397 28.8508 43.9393L30.2344 40.487L33.5156 41.5807C34.449 41.8915 35.2608 42.4883 35.8358 43.2865C36.4108 44.0848 36.7197 45.0438 36.7188 46.0276V48.3362Z" fill="#4069FF"/>
<path d="M46.0938 1.46118H32.0312C31.2024 1.46118 30.4076 1.79042 29.8215 2.37647C29.2355 2.96252 28.9062 3.75738 28.9062 4.58618V13.9612C28.9062 14.79 29.2355 15.5848 29.8215 16.1709C30.4076 16.7569 31.2024 17.0862 32.0312 17.0862H36.7188V19.4299C36.7188 19.5844 36.7646 19.7354 36.8505 19.8639C36.9363 19.9923 37.0583 20.0924 37.201 20.1516C37.3438 20.2107 37.5008 20.2261 37.6524 20.196C37.8039 20.1659 37.9431 20.0915 38.0523 19.9823L40.9484 17.0862H46.0938C46.9226 17.0862 47.7174 16.7569 48.3035 16.1709C48.8895 15.5848 49.2188 14.79 49.2188 13.9612V4.58618C49.2188 3.75738 48.8895 2.96252 48.3035 2.37647C47.7174 1.79042 46.9226 1.46118 46.0938 1.46118ZM47.6562 13.9612C47.6562 14.3756 47.4916 14.773 47.1986 15.066C46.9056 15.3591 46.5082 15.5237 46.0938 15.5237H40.625C40.4178 15.5237 40.2191 15.6061 40.0727 15.7526L38.2812 17.544V16.3049C38.2812 16.0977 38.1989 15.899 38.0524 15.7525C37.9059 15.606 37.7072 15.5237 37.5 15.5237H32.0312C31.6168 15.5237 31.2194 15.3591 30.9264 15.066C30.6334 14.773 30.4688 14.3756 30.4688 13.9612V4.58618C30.4688 4.17178 30.6334 3.77435 30.9264 3.48133C31.2194 3.1883 31.6168 3.02368 32.0312 3.02368H46.0938C46.5082 3.02368 46.9056 3.1883 47.1986 3.48133C47.4916 3.77435 47.6562 4.17178 47.6562 4.58618V13.9612Z" fill="#4069FF"/>
<path d="M38.6043 8.49243H41.4059C41.613 8.49239 41.8117 8.41005 41.9582 8.26353L42.9684 7.25337V8.49243H44.5309V5.36743C44.5309 5.16023 44.4486 4.96152 44.302 4.815C44.1555 4.66849 43.9568 4.58618 43.7496 4.58618H40.6246V6.14868H41.8637L41.0824 6.92993H38.2809C38.0737 6.92998 37.875 7.01232 37.7285 7.15884L34.6035 10.2838L35.7082 11.3885L38.6043 8.49243Z" fill="#4069FF"/>
<path d="M44.5312 9.27368H42.9688V12.3987H41.4062V10.0549H39.8438V12.3987H38.2812V10.8362H36.7188V12.3987H33.5938V4.58618H32.0312V13.1799C32.0312 13.3871 32.1136 13.5858 32.2601 13.7324C32.4066 13.8789 32.6053 13.9612 32.8125 13.9612H46.0938V12.3987H44.5312V9.27368Z" fill="#4069FF"/>
<path d="M12.5 20.2112C12.7072 20.2112 12.9059 20.1289 13.0524 19.9824C13.1989 19.8358 13.2812 19.6371 13.2812 19.4299V17.0862H17.9688C18.7976 17.0862 19.5924 16.7569 20.1785 16.1709C20.7645 15.5848 21.0938 14.79 21.0938 13.9612V4.58618C21.0938 3.75738 20.7645 2.96252 20.1785 2.37647C19.5924 1.79042 18.7976 1.46118 17.9688 1.46118H3.90625C3.07745 1.46118 2.28259 1.79042 1.69654 2.37647C1.11049 2.96252 0.78125 3.75738 0.78125 4.58618V13.9612C0.78125 14.79 1.11049 15.5848 1.69654 16.1709C2.28259 16.7569 3.07745 17.0862 3.90625 17.0862H9.05156L11.9477 19.9823C12.0941 20.1288 12.2928 20.2111 12.5 20.2112ZM11.7188 16.3049V17.544L9.92734 15.7526C9.78086 15.6061 9.58218 15.5237 9.375 15.5237H3.90625C3.49185 15.5237 3.09442 15.3591 2.8014 15.066C2.50837 14.773 2.34375 14.3756 2.34375 13.9612V4.58618C2.34375 4.17178 2.50837 3.77435 2.8014 3.48133C3.09442 3.1883 3.49185 3.02368 3.90625 3.02368H17.9688C18.3832 3.02368 18.7806 3.1883 19.0736 3.48133C19.3666 3.77435 19.5312 4.17178 19.5312 4.58618V13.9612C19.5312 14.3756 19.3666 14.773 19.0736 15.066C18.7806 15.3591 18.3832 15.5237 17.9688 15.5237H12.5C12.2928 15.5237 12.0941 15.606 11.9476 15.7525C11.8011 15.899 11.7188 16.0977 11.7188 16.3049Z" fill="#4069FF"/>
<path d="M13.2812 10.8362C13.2812 10.2146 13.0343 9.61844 12.5948 9.1789C12.1552 8.73936 11.5591 8.49243 10.9375 8.49243C10.783 8.49243 10.6319 8.44661 10.5035 8.36077C10.375 8.27492 10.2749 8.15291 10.2157 8.01015C10.1566 7.8674 10.1411 7.71031 10.1713 7.55877C10.2014 7.40722 10.2758 7.26801 10.3851 7.15875C10.4943 7.04949 10.6335 6.97509 10.7851 6.94494C10.9366 6.9148 11.0937 6.93027 11.2365 6.9894C11.3792 7.04853 11.5012 7.14867 11.5871 7.27714C11.6729 7.40562 11.7188 7.55666 11.7188 7.71118H13.2812C13.2792 7.22817 13.1281 6.75756 12.8484 6.36376C12.5687 5.96996 12.1741 5.67218 11.7188 5.51118V4.58618H10.1562V5.51118C9.63541 5.69464 9.19629 6.0565 8.91669 6.53269C8.63708 7.00888 8.53503 7.56866 8.6286 8.11288C8.72218 8.65711 9.00534 9.15065 9.42794 9.5061C9.85053 9.86156 10.3853 10.056 10.9375 10.0549C11.092 10.0549 11.2431 10.1008 11.3715 10.1866C11.5 10.2724 11.6002 10.3945 11.6593 10.5372C11.7184 10.68 11.7339 10.837 11.7037 10.9886C11.6736 11.1401 11.5992 11.2793 11.4899 11.3886C11.3807 11.4979 11.2415 11.5723 11.0899 11.6024C10.9384 11.6326 10.7813 11.6171 10.6385 11.558C10.4958 11.4988 10.3738 11.3987 10.2879 11.2702C10.2021 11.1417 10.1562 10.9907 10.1562 10.8362H8.59375C8.59575 11.3192 8.74694 11.7898 9.02663 12.1836C9.30632 12.5774 9.70085 12.8752 10.1562 13.0362V13.9612H11.7188V13.0362C12.1741 12.8752 12.5687 12.5774 12.8484 12.1836C13.1281 11.7898 13.2792 11.3192 13.2812 10.8362Z" fill="#4069FF"/>
</svg>
