<svg width="87" height="86" viewBox="0 0 87 86" fill="none" xmlns="http://www.w3.org/2000/svg">
<g clip-path="url(#clip0_527_13519)">
<path d="M75.4532 20.894L55.2974 0.738223C54.827 0.267574 54.1848 0 53.5156 0H18.2422C14.0744 0 10.6836 3.39079 10.6836 7.55859V78.4414C10.6836 82.6092 14.0744 86 18.2422 86H68.6328C72.8006 86 76.1914 82.6092 76.1914 78.4414V22.6758C76.1914 21.9888 75.903 21.3436 75.4532 20.894ZM56.0352 8.60218L67.5892 20.1562H58.5547C57.1654 20.1562 56.0352 19.026 56.0352 17.6367V8.60218ZM68.6328 80.9609H18.2422C16.8529 80.9609 15.7227 79.8307 15.7227 78.4414V7.55859C15.7227 6.16932 16.8529 5.03906 18.2422 5.03906H50.9961V17.6367C50.9961 21.8045 54.3869 25.1953 58.5547 25.1953H71.1523V78.4414C71.1523 79.8307 70.0221 80.9609 68.6328 80.9609Z" fill="black"/>
<path d="M58.5547 35.6094H28.3203C26.9289 35.6094 25.8008 36.7375 25.8008 38.1289C25.8008 39.5204 26.9289 40.6484 28.3203 40.6484H58.5547C59.9461 40.6484 61.0742 39.5204 61.0742 38.1289C61.0742 36.7375 59.9461 35.6094 58.5547 35.6094Z" fill="black"/>
<path d="M58.5547 45.6875H28.3203C26.9289 45.6875 25.8008 46.8156 25.8008 48.207C25.8008 49.5985 26.9289 50.7266 28.3203 50.7266H58.5547C59.9461 50.7266 61.0742 49.5985 61.0742 48.207C61.0742 46.8156 59.9461 45.6875 58.5547 45.6875Z" fill="black"/>
<path d="M58.5547 55.7656H28.3203C26.9289 55.7656 25.8008 56.8937 25.8008 58.2852C25.8008 59.6766 26.9289 60.8047 28.3203 60.8047H58.5547C59.9461 60.8047 61.0742 59.6766 61.0742 58.2852C61.0742 56.8937 59.9461 55.7656 58.5547 55.7656Z" fill="black"/>
<path d="M48.4766 65.8438H28.3203C26.9289 65.8438 25.8008 66.9718 25.8008 68.3633C25.8008 69.7547 26.9289 70.8828 28.3203 70.8828H48.4766C49.868 70.8828 50.9961 69.7547 50.9961 68.3633C50.9961 66.9718 49.868 65.8438 48.4766 65.8438Z" fill="black"/>
</g>
<defs>
<clipPath id="clip0_527_13519">
<rect width="86" height="86" fill="white" transform="translate(0.4375)"/>
</clipPath>
</defs>
</svg>
