<svg width="82" height="69" viewBox="0 0 82 69" fill="none" xmlns="http://www.w3.org/2000/svg">
<path d="M66.6589 7.06826L65.7981 0.994522C65.7547 0.688715 65.5892 0.412808 65.3384 0.228344C65.0878 0.0440369 64.7729 -0.0334822 64.4637 0.0133459L57.6897 1.03819C57.0515 1.13469 56.6134 1.724 56.7111 2.35428C56.8088 2.98472 57.4057 3.41772 58.0435 3.3209L61.9908 2.72368C56.7121 9.1703 51.0347 14.6615 45.0883 19.0613C39.9139 22.8898 34.5258 25.9074 29.0736 28.0305C19.7943 31.6437 13.4579 31.4064 13.3956 31.4042C12.7495 31.3719 12.2045 31.8652 12.1733 32.5015C12.1419 33.1384 12.6392 33.6798 13.284 33.7108C13.3221 33.7125 13.4816 33.7193 13.7551 33.7193C15.4393 33.7193 21.4311 33.464 29.7844 30.2355C35.4488 28.0463 41.0387 24.9311 46.3992 20.9764C52.5591 16.4317 58.4304 10.7568 63.8767 4.09277L64.3437 7.38846C64.4255 7.96574 64.9262 8.38308 65.4999 8.38308C65.5537 8.38308 65.6085 8.37944 65.6634 8.37185C66.3027 8.28341 66.7484 7.6998 66.6589 7.06826Z" fill="black"/>
<path d="M79.8432 62.2784H70.3973C71.1749 61.7677 71.9071 61.1776 72.5823 60.5105C75.244 57.8813 76.7097 54.3856 76.7097 50.6676C76.7097 46.9493 75.244 43.4537 72.5823 40.8246C71.6342 39.8881 70.5817 39.117 69.4638 38.5036V33.8423C69.4638 33.2046 68.9404 32.6878 68.295 32.6878C67.6494 32.6878 67.1261 33.2048 67.1261 33.8423V37.4782C63.9267 36.4082 60.4526 36.5101 57.3284 37.7628V23.5802C57.3284 23.4308 57.4514 23.3093 57.6026 23.3093H66.8519C67.0031 23.3093 67.1261 23.4308 67.1261 23.5802V26.446C67.1261 27.0837 67.6495 27.6006 68.295 27.6006C68.9405 27.6006 69.4638 27.0836 69.4638 26.446V23.5802C69.4638 22.1575 68.2921 21 66.8518 21H57.6024C56.1622 21 54.9905 22.1575 54.9905 23.5802V38.9642C54.1624 39.4908 53.3774 40.1091 52.6535 40.8243C49.9918 43.4535 48.5261 46.9492 48.5261 50.6672C48.5261 54.3855 49.9918 57.8811 52.6535 60.5102C53.3287 61.1771 54.0609 61.7674 54.8385 62.2781H47.4573V34.0569C47.4573 32.6341 46.2856 31.4767 44.8454 31.4767H35.5962C34.1559 31.4767 32.9842 32.6341 32.9842 34.0569V62.2784H25.4509V43.5549C25.4509 42.1322 24.2792 40.9748 22.8389 40.9748H13.5896C12.1493 40.9748 10.9776 42.1322 10.9776 43.5549V62.2784H6.16281V2.89908C6.16281 1.72426 5.19531 0.768555 4.00599 0.768555H2.15682C0.967504 0.768555 0 1.72426 0 2.89908V11.0962C0 11.7339 0.523391 12.2508 1.16882 12.2508C1.81425 12.2508 2.33764 11.7338 2.33764 11.0962V3.07785H3.82485V62.4572C3.82485 63.632 4.79252 64.5877 5.98168 64.5877H79.662V66.3252H2.3378V18.3925C2.3378 17.7548 1.81441 17.238 1.16898 17.238C0.523551 17.238 0 17.7548 0 18.3925V66.5039C0 67.6787 0.967504 68.6344 2.15682 68.6344H79.8432C81.0325 68.6344 82 67.6787 82 66.5039V64.4088C82 63.2341 81.0325 62.2784 79.8432 62.2784ZM23.1131 62.2784H13.3154V43.5549C13.3154 43.4056 13.4384 43.2841 13.5896 43.2841H22.8389C22.9901 43.2841 23.1131 43.4056 23.1131 43.5549V62.2784ZM35.3218 62.2784V34.0569C35.3218 33.9075 35.4448 33.786 35.596 33.786H44.8452C44.9964 33.786 45.1194 33.9075 45.1194 34.0569V62.2784H35.3218ZM67.7815 61.0979C66.5976 61.6698 65.3112 62.0414 64.001 62.1961C63.9789 62.1987 63.957 62.2017 63.9349 62.2042C63.8453 62.2143 63.7558 62.2229 63.6661 62.2309C63.5293 62.2428 63.3924 62.2536 63.2548 62.2607C63.2114 62.2631 63.168 62.2643 63.1246 62.2662C62.9563 62.2732 62.7875 62.2784 62.6179 62.2784C62.4478 62.2784 62.2787 62.2732 62.1099 62.2662C62.0565 62.264 62.003 62.2615 61.9499 62.2585C61.8226 62.2515 61.6957 62.2419 61.569 62.2309C61.464 62.2216 61.3591 62.2107 61.2543 62.1985C61.1794 62.19 61.1046 62.1813 61.0301 62.1713C60.9236 62.1569 60.8174 62.1417 60.7114 62.1245C60.6976 62.1223 60.6838 62.1197 60.6701 62.1174C59.291 61.8886 57.9591 61.4189 56.744 60.7255C56.7376 60.7218 56.7309 60.7195 56.7245 60.716C55.8523 60.215 55.0388 59.6011 54.3064 58.8775C52.0863 56.6845 50.8637 53.7688 50.8637 50.6674C50.8637 47.566 52.0863 44.6503 54.3064 42.4573C55.1565 41.6175 56.1059 40.9344 57.1172 40.4062C57.1457 40.3912 57.1745 40.3769 57.2032 40.3622C58.8949 39.4962 60.7561 39.0621 62.6179 39.0621C64.1062 39.0621 65.5944 39.3399 66.9958 39.8933C67.0201 39.9029 67.0446 39.9121 67.0688 39.9219C67.2144 39.9805 67.3587 40.043 67.5022 40.1075C67.5593 40.1333 67.6164 40.1602 67.6732 40.1869C68.8513 40.74 69.9556 41.4954 70.9292 42.4571C75.5121 46.9843 75.5121 54.3502 70.9292 58.8774C70.0078 59.788 68.9588 60.5255 67.8241 61.0805C67.81 61.0867 67.7954 61.0911 67.7815 61.0979Z" fill="black"/>
<path d="M63.1632 49.5498V45.4373C64.5989 45.5386 65.1322 46.1869 65.6244 46.1869C66.2397 46.1869 66.5268 45.4171 66.5268 45.0322C66.5268 44.0394 64.558 43.614 63.1634 43.5735V43.0265C63.1634 42.7833 62.8559 42.5605 62.5482 42.5605C62.1996 42.5605 61.9534 42.7833 61.9534 43.0265V43.614C60.005 43.8167 58.0567 44.8297 58.0567 47.3823C58.0567 49.9754 60.1076 50.7047 61.9534 51.353V56.1138C59.8615 55.9518 59.3078 54.5337 58.631 54.5337C58.1182 54.5337 57.6875 55.2021 57.6875 55.6884C57.6875 56.6811 59.4103 58.0385 61.9534 58.079H61.9533V58.7069C61.9533 58.9501 62.1994 59.1728 62.5481 59.1728C62.8556 59.1728 63.1632 58.9501 63.1632 58.7069V58.0181C65.3782 57.7142 66.8958 56.3366 66.8958 53.8447C66.8958 51.0894 64.9475 50.1981 63.1632 49.5498ZM62.0766 49.1649C60.9894 48.7597 60.1076 48.3343 60.1078 47.1796C60.1078 46.126 60.9281 45.6196 62.0766 45.4778V49.1649ZM63.0404 56.0733V51.7987C64.0454 52.2241 64.8452 52.7912 64.8452 54.0676C64.8452 55.2225 64.1479 55.8708 63.0404 56.0733Z" fill="black"/>
</svg>
