<svg width="135" height="138" viewBox="0 0 135 138" fill="none" xmlns="http://www.w3.org/2000/svg">
<path d="M106.743 113.103L87.1307 132.716C86.3304 133.516 85.2662 133.957 84.1347 133.957C83.0031 133.957 81.9389 133.516 81.1387 132.716C80.3384 131.915 79.8977 130.852 79.8977 129.72C79.8977 128.588 80.3384 127.524 81.1387 126.724L82.5522 125.31C86.1727 121.69 86.1727 115.799 82.5522 112.178C78.9313 108.557 73.0404 108.557 69.4201 112.178L66.7995 114.798C64.1299 117.468 60.5805 118.938 56.8052 118.938C53.03 118.938 49.4806 117.468 46.811 114.798C44.1414 112.129 42.6712 108.579 42.6712 104.804C42.6712 101.029 44.1416 97.4791 46.811 94.8095L52.8375 88.783C53.627 87.9935 53.627 86.7134 52.8375 85.9242C52.048 85.1347 50.7679 85.1347 49.9787 85.9242L43.9521 91.9507C36.8649 99.0379 36.8649 110.57 43.9521 117.657C47.3854 121.091 51.9501 122.982 56.8055 122.982C61.6609 122.982 66.2257 121.091 69.6589 117.657L72.2794 115.037C74.3237 112.993 77.6496 112.993 79.6936 115.037C81.7376 117.081 81.7376 120.407 79.6936 122.451L78.2801 123.865C76.7162 125.429 75.8547 127.508 75.8547 129.72C75.8547 131.931 76.7159 134.011 78.2801 135.575C79.844 137.138 81.9233 138 84.1349 138C86.3468 138 88.4261 137.139 89.99 135.575L109.603 115.962C110.392 115.172 110.392 113.892 109.603 113.103C108.813 112.314 107.533 112.314 106.743 113.103V113.103Z" fill="black"/>
<path d="M25.6813 76.7887L2.15604 100.314C-0.718681 103.189 -0.718681 107.866 2.15604 110.741C3.59354 112.178 5.48145 112.897 7.36936 112.897C9.25727 112.897 11.1455 112.178 12.5827 110.741L36.108 87.2156C38.9827 84.3409 38.9827 79.6635 36.108 76.7887C33.2333 73.914 28.5561 73.914 25.6813 76.7887V76.7887ZM33.2492 84.3565L9.72386 107.882C8.42572 109.18 6.31328 109.18 5.01487 107.882C3.71645 106.584 3.71672 104.471 5.01487 103.173L28.5402 79.6476C29.1892 78.9985 30.0421 78.6739 30.8947 78.6739C31.7472 78.6739 32.6001 78.9985 33.2492 79.6476C34.5473 80.946 34.5473 83.0584 33.2492 84.3565Z" fill="black"/>
<path d="M134.941 28.9929C134.941 18.8965 126.726 10.6823 116.63 10.6823C106.534 10.6823 98.3197 18.8965 98.3197 28.9929C98.3197 31.4558 98.8113 33.8049 99.697 35.9519C98.449 36.7007 97.2711 37.6096 96.1964 38.6843L88.2057 46.675C86.0935 48.7872 82.6565 48.7872 80.5441 46.675C78.4319 44.5626 78.4319 41.1255 80.5441 39.0131L88.5348 31.0224C91.968 27.5891 93.8589 23.0246 93.8589 18.169C93.8589 13.3136 91.968 8.74884 88.5348 5.31561C81.4476 -1.77187 69.9153 -1.77187 62.8281 5.31561L31.3584 36.7853C24.2712 43.8725 24.2712 55.4046 31.3584 62.492C39.292 70.427 51.6162 68.997 58.2751 61.2818C60.3876 59.1699 63.8243 59.1696 65.9368 61.2818C66.96 62.305 67.5236 63.6657 67.5236 65.1126C67.5236 66.5595 66.9602 67.9202 65.9368 68.9434L55.6346 79.2455C54.8451 80.035 54.8451 81.3151 55.6346 82.1043C56.4241 82.8938 57.7042 82.8938 58.4935 82.1043L68.7956 71.8022C70.5824 70.0154 71.5665 67.6396 71.5665 65.1126C71.5665 62.5856 70.5824 60.2098 68.7956 58.4227C65.1071 54.7342 59.1051 54.7339 55.416 58.4227C49.7768 65.1517 39.996 65.4261 34.2172 59.633C28.7063 54.1221 28.7063 45.1553 34.2172 39.6441L65.6869 8.17444C68.3565 5.50484 71.9059 4.03472 75.6814 4.03472C79.4567 4.03472 83.0061 5.50511 85.6757 8.17444C88.3453 10.844 89.8154 14.3934 89.8154 18.1687C89.8154 21.944 88.345 25.4934 85.6757 28.163L77.685 36.1537C73.9962 39.8425 73.9962 45.8448 77.685 49.5335C81.3737 53.2223 87.3758 53.2226 91.0645 49.5335L99.0553 41.5428C99.8464 40.7517 100.716 40.0689 101.645 39.4956C105.822 45.6844 114.616 49.0095 122.23 46.424C122.854 48.0332 123.184 49.7594 123.184 51.5371C123.184 55.3124 121.713 58.8618 119.044 61.5314L90.1529 90.4231C88.399 92.1768 87.4332 94.5089 87.4332 96.989C87.4332 99.4691 88.399 101.801 90.1529 103.555C91.9066 105.309 94.2387 106.275 96.7188 106.275C99.1989 106.275 101.531 105.309 103.285 103.555L109.2 97.6402C110 96.84 111.064 96.3992 112.196 96.3992C113.327 96.3992 114.391 96.84 115.192 97.6402C116.844 99.2923 116.844 101.98 115.192 103.632L112.418 106.406C111.629 107.195 111.629 108.476 112.418 109.265C112.813 109.66 113.33 109.857 113.847 109.857C114.365 109.857 114.882 109.66 115.277 109.265L118.051 106.491C121.279 103.262 121.279 98.0095 118.051 94.7811C116.487 93.2172 114.407 92.3558 112.195 92.3558C109.984 92.3558 107.904 93.217 106.34 94.7811L100.425 100.696C99.435 101.686 98.1186 102.231 96.7183 102.231C95.318 102.231 94.0015 101.686 93.0112 100.696C92.0211 99.7055 91.4758 98.389 91.4758 96.9887C91.4758 95.5884 92.0211 94.2717 93.0112 93.2817L121.903 64.3902C125.336 60.957 127.227 56.3925 127.227 51.5368C127.227 49.1767 126.776 46.8863 125.923 44.7601C131.315 41.5706 134.941 35.6987 134.941 28.9929ZM116.63 43.2604C112.113 43.2604 108.082 41.1479 105.466 37.8619C110.619 36.498 116.717 38.2934 120.169 42.8156C119.037 43.1054 117.851 43.2604 116.63 43.2604V43.2604ZM124.004 41.2029C119.712 34.6793 110.543 31.7472 103.38 34.2745C102.726 32.6397 102.363 30.8585 102.363 28.9929C102.363 21.1259 108.763 14.7255 116.63 14.7255C124.497 14.7255 130.897 21.1259 130.897 28.9929C130.897 34.1637 128.132 38.7002 124.004 41.2029Z" fill="black"/>
<path d="M15.8104 27.1315C20.3452 27.1315 24.0348 23.4419 24.0348 18.9071C24.0348 14.3722 20.3452 10.6826 15.8104 10.6826C11.2755 10.6826 7.58594 14.3722 7.58594 18.9071C7.58594 23.4419 11.2755 27.1315 15.8104 27.1315ZM15.8104 14.7258C18.1158 14.7258 19.9916 16.6013 19.9916 18.9071C19.9916 21.2128 18.1161 23.0883 15.8104 23.0883C13.5047 23.0883 11.6292 21.2128 11.6292 18.9071C11.6292 16.6013 13.5049 14.7258 15.8104 14.7258Z" fill="black"/>
</svg>
