<svg width="186" height="186" viewBox="0 0 186 186" fill="none" xmlns="http://www.w3.org/2000/svg">
<path d="M158.662 116.134H123.778V31.0039C123.778 29.3967 122.476 28.0977 120.872 28.0977H27.3398C25.7356 28.0977 24.4336 29.3967 24.4336 31.0039V136.701C24.4336 148.384 33.9399 157.888 45.6231 157.888C97.2991 157.888 88.0718 157.902 139.774 157.902C151.794 157.902 161.571 148.123 161.571 136.103V119.04C161.568 117.433 160.269 116.134 158.662 116.134ZM45.6202 152.075C37.1426 152.075 30.2432 145.179 30.2432 136.701V33.9102H117.965V136.114C117.965 136.129 117.974 136.14 117.974 136.155C117.989 142.453 120.703 148.114 125.001 152.09C124.461 152.09 130.611 152.075 45.6202 152.075ZM155.755 136.103C155.755 144.917 148.586 152.09 139.771 152.09C130.956 152.09 123.787 144.917 123.787 136.103V121.946H155.758V136.103H155.755Z" fill="black"/>
<path d="M61.7917 88.7074L72.4722 95.9585C72.9633 96.2927 73.5329 96.4613 74.1055 96.4613C74.678 96.4613 75.2447 96.2927 75.7388 95.9585L86.4193 88.7074C92.4468 84.6125 95.9053 78.614 95.9053 72.2435V51.3301C95.9053 50.002 95.0043 48.8424 93.7169 48.514L74.8233 43.7041C74.3554 43.585 73.8584 43.585 73.3905 43.7041L54.497 48.514C53.2095 48.8395 52.3086 50.002 52.3086 51.3301V72.2435C52.3028 78.614 55.7612 84.6154 61.7917 88.7074ZM58.1153 53.5883L74.1026 49.5195L90.0899 53.5883V72.2435C90.0899 76.6552 87.5585 80.9012 83.1497 83.9005L74.1026 90.0414L65.0554 83.9005C60.6437 80.9041 58.1153 76.6581 58.1153 72.2435V53.5883Z" fill="black"/>
<path d="M71.4868 75.0188C72.0506 75.5652 72.7801 75.8384 73.5096 75.8384C74.2507 75.8384 74.9918 75.5565 75.5585 74.9927L85.0997 65.5038C86.2389 64.3703 86.2448 62.5336 85.1113 61.3943C83.9779 60.2551 82.1382 60.2464 81.0019 61.3827L73.4834 68.8576L69.5774 65.0736C68.4265 63.9576 66.5869 63.9838 65.468 65.1347C64.352 66.2856 64.3781 68.1281 65.5319 69.2441L71.4868 75.0188Z" fill="black"/>
<path d="M97.6102 105.325H50.6016C48.9973 105.325 47.6953 106.624 47.6953 108.231C47.6953 109.839 48.9973 111.138 50.6016 111.138H97.6131C99.2173 111.138 100.519 109.839 100.519 108.231C100.519 106.624 99.2173 105.325 97.6102 105.325Z" fill="black"/>
<path d="M97.6102 123.083H50.6016C48.9973 123.083 47.6953 124.382 47.6953 125.989C47.6953 127.596 48.9973 128.895 50.6016 128.895H97.6131C99.2173 128.895 100.519 127.596 100.519 125.989C100.519 124.382 99.2173 123.083 97.6102 123.083Z" fill="black"/>
</svg>
