<svg width="62" height="43" viewBox="0 0 62 43" fill="none" xmlns="http://www.w3.org/2000/svg">
<path d="M38.1595 26.9771C40.2619 26.9771 41.9682 28.6834 41.9682 30.7859C41.9682 32.8883 40.2619 34.5946 38.1595 34.5946H32.4463H36.2551C38.3499 34.5946 40.0639 36.3086 40.0639 38.4034C40.0639 40.4982 38.3499 42.2121 36.2551 42.2121H17.2113C13.0216 42.2121 9.59375 38.7843 9.59375 34.5946V32.6902V17.5314C9.59375 16.2897 10.1993 15.128 11.2125 14.4158L30.0849 1.16511C31.7227 -0.167958 34.1222 0.0986559 35.4172 1.77451C36.7502 3.41228 36.4836 5.8118 34.8078 7.10678L28.9804 11.742H57.2033C59.2981 11.742 61.012 13.456 61.012 15.5508C61.012 17.6456 59.2981 19.3596 57.2033 19.3596H32.4463H40.0639C42.1663 19.3596 43.8726 21.0659 43.8726 23.1683C43.8726 25.2708 42.1663 26.9771 40.0639 26.9771H34.3507" fill="#FFCA28"/>
<path d="M1.97469 11.7419H9.59222C10.6434 11.7419 11.4966 12.4999 11.4966 13.433V40.5171C11.4966 41.4541 10.6434 42.212 9.59222 42.212H1.97469C0.923475 42.212 0.0703125 41.4541 0.0703125 40.521V13.4368C0.0703125 12.4999 0.923475 11.7419 1.97469 11.7419Z" fill="#263238"/>
</svg>
