<svg width="73" height="73" viewBox="0 0 73 73" fill="none" xmlns="http://www.w3.org/2000/svg">
<path d="M29.6562 45.625C29.6562 48.1435 27.6122 50.1875 25.0937 50.1875C22.5752 50.1875 20.5312 48.1435 20.5312 45.625V38.7812V43.3438C20.5312 45.8531 18.4781 47.9062 15.9688 47.9062C13.4594 47.9062 11.4062 45.8531 11.4062 43.3438V20.5312C11.4062 15.5125 15.5125 11.4062 20.5312 11.4062H22.8125H40.9713C42.4586 11.4062 43.8502 12.1317 44.7034 13.3453L60.5763 35.9525C62.1732 37.9144 61.8538 40.7887 59.8463 42.34C57.8844 43.9369 55.0101 43.6175 53.4588 41.61L47.9062 34.6294V68.4375C47.9062 70.9469 45.8531 73 43.3438 73C40.8344 73 38.7812 70.9469 38.7812 68.4375V38.7812V47.9062C38.7812 50.4247 36.7372 52.4688 34.2188 52.4688C31.7003 52.4688 29.6562 50.4247 29.6562 47.9062V41.0625" fill="#FFCA28"/>
<path d="M47.9062 2.28125V11.4062C47.9062 12.6655 46.9983 13.6875 45.8805 13.6875H13.432C12.3142 13.6875 11.4062 12.6655 11.4062 11.4062V2.28125C11.4062 1.022 12.3142 0 13.432 0H45.8759C46.9983 0 47.9062 1.022 47.9062 2.28125Z" fill="#263238"/>
</svg>
