<svg width="189" height="189" viewBox="0 0 189 189" fill="none" xmlns="http://www.w3.org/2000/svg">
<g clip-path="url(#clip0_469_59)">
<path d="M18.457 105.979C16.4196 105.979 14.7656 107.633 14.7656 109.671C14.7656 111.708 16.4196 113.362 18.457 113.362C20.4945 113.362 22.1485 111.708 22.1485 109.671C22.1485 107.633 20.4945 105.979 18.457 105.979Z" fill="black"/>
<path d="M169.664 118.78L134.863 130.744C135.018 129.887 135.104 129.013 135.104 128.126C135.104 119.985 128.481 113.361 120.339 113.361H96.4338C95.7994 113.361 95.1736 113.198 94.6213 112.886L75.1188 101.917C71.263 99.7444 66.8809 98.5952 62.4469 98.5952H36.2782C34.7555 94.2996 30.6517 91.2138 25.8399 91.2138H3.69141C1.65248 91.2138 0 92.8663 0 94.9052V161.349C0 163.388 1.65248 165.041 3.69141 165.041H25.8399C30.5421 165.041 34.5738 162.086 36.1744 157.936C40.3532 158.455 45.1881 159.691 48.2263 161.514L67.5312 173.097C74.8448 177.486 83.2183 179.806 91.7489 179.806C98.5088 179.806 105.058 178.387 111.217 175.59L180.115 145.253C187.746 142.157 191.514 133.002 187.152 124.933C183.943 118.995 176.429 116.353 169.664 118.78V118.78ZM29.5313 153.984C29.5227 156.011 27.8687 157.658 25.8399 157.658H7.38283V98.5966H25.8399C27.8745 98.5966 29.5313 100.252 29.5313 102.288V153.984ZM177.31 138.425C177.271 138.439 177.233 138.457 177.194 138.473C177.194 138.473 108.193 168.855 108.18 168.86C102.982 171.225 97.4533 172.423 91.7489 172.423C84.5564 172.423 77.4966 170.468 71.3308 166.767L52.0244 155.183C47.8918 152.705 41.974 151.193 36.9141 150.588V105.979H62.4469C65.6134 105.979 68.7425 106.798 71.4981 108.351L91.0005 119.32C92.653 120.252 94.5333 120.745 96.4338 120.745H120.339C124.409 120.745 127.721 124.056 127.721 128.128C127.721 132.184 124.408 135.511 120.339 135.511H82.8131C80.7742 135.511 79.1217 137.163 79.1217 139.202C79.1217 141.24 80.7742 142.892 82.8131 142.892H120.339C122.76 142.892 125.143 142.291 127.259 141.163C127.259 141.163 172.125 125.74 172.142 125.734C175.45 124.54 179.191 125.728 180.657 128.442C182.856 132.51 181.038 136.933 177.31 138.425V138.425Z" fill="black"/>
<path d="M107.51 98.7652C108.205 99.3665 109.066 99.6665 109.928 99.6665C110.791 99.6665 111.653 99.3665 112.347 98.7652C142.465 72.6629 161.095 59.4531 161.095 38.9254C161.095 22.6861 149.598 9.22827 133.447 9.22827C122.84 9.22827 114.717 15.3422 109.486 24.5174C104.266 15.3624 96.1519 9.22827 85.529 9.22827C73.1642 9.22827 62.8268 17.2412 59.1931 29.6406C58.6192 31.5974 59.741 33.6478 61.6978 34.2217C63.6545 34.7956 65.705 33.6738 66.2774 31.7171C68.9667 22.5404 76.5226 16.6111 85.529 16.6111C96.0597 16.6111 103.447 25.9622 105.928 34.6687C106.371 36.2679 107.827 37.3753 109.486 37.3753C111.145 37.3753 112.6 36.2679 113.043 34.6687C113.094 34.4885 118.221 16.6111 133.447 16.6111C145 16.6111 153.712 26.203 153.712 38.9254C153.712 55.3464 137.66 67.1849 109.926 91.0983C93.0272 76.5865 79.604 66.3716 71.9746 56.3789C70.7374 54.7581 68.4216 54.4466 66.8009 55.6838C65.1801 56.921 64.8701 59.2368 66.1059 60.859C74.7057 72.1222 89.2233 82.9138 107.51 98.7652V98.7652Z" fill="black"/>
<path d="M62.3867 41.7488C60.3492 41.7488 58.6953 43.4028 58.6953 45.4403C58.6953 47.4777 60.3492 49.1317 62.3867 49.1317C64.4242 49.1317 66.0781 47.4777 66.0781 45.4403C66.0781 43.4028 64.4242 41.7488 62.3867 41.7488Z" fill="black"/>
</g>
<defs>
<clipPath id="clip0_469_59">
<rect width="189" height="189" fill="white"/>
</clipPath>
</defs>
</svg>
