<svg width="226" height="226" viewBox="0 0 226 226" fill="none" xmlns="http://www.w3.org/2000/svg">
<path fill-rule="evenodd" clip-rule="evenodd" d="M100.944 26.0395C107.928 20.2193 118.073 20.2193 125.058 26.0395L200.391 88.8172C204.685 92.3955 207.167 97.6959 207.167 103.286V188.333C207.167 198.735 198.736 207.167 188.334 207.167H37.6673C27.266 207.167 18.834 198.735 18.834 188.333V103.286C18.834 97.6959 21.3167 92.3955 25.6105 88.8172L100.944 26.0395ZM113.001 40.5077L37.6673 103.286V188.333H75.334V155.375C75.334 144.973 83.766 136.542 94.1673 136.542H131.834C142.236 136.542 150.667 144.973 150.667 155.375V188.333H188.334V103.286L113.001 40.5077ZM131.834 188.333V155.375H94.1673V188.333H131.834Z" fill="black"/>
</svg>
