<svg width="30" height="34" viewBox="0 0 30 34" fill="none" xmlns="http://www.w3.org/2000/svg">
<path d="M12.3899 16.9566C13.8307 16.9566 14.9986 15.7887 14.9986 14.348C14.9986 12.9072 13.8307 11.7393 12.3899 11.7393C10.9492 11.7393 9.78125 12.9072 9.78125 14.348C9.78125 15.7887 10.9492 16.9566 12.3899 16.9566Z" fill="#4069FF"/>
<path d="M24.1323 25.5649C25.2129 25.5649 26.0888 24.6889 26.0888 23.6084C26.0888 22.5278 25.2129 21.6519 24.1323 21.6519C23.0517 21.6519 22.1758 22.5278 22.1758 23.6084C22.1758 24.6889 23.0517 25.5649 24.1323 25.5649Z" fill="#4069FF"/>
<path d="M24.7611 17.773C24.7749 17.7201 24.7825 17.665 24.7825 17.6086V12.3912C24.7825 12.2183 24.7138 12.0524 24.5915 11.9301L20.8696 8.20807V2.34783C20.8696 1.98763 20.5776 1.69565 20.2174 1.69565H17.6087C17.2485 1.69565 16.9565 1.98763 16.9565 2.34783V4.29502L12.8525 0.190957C12.5978 -0.0636522 12.1848 -0.0636522 11.9301 0.190957L0.190956 11.9301C0.0686739 12.0524 0 12.2183 0 12.3913V17.6087C0 17.8724 0.158935 18.1103 0.402587 18.2112C0.646239 18.3123 0.926804 18.2564 1.11333 18.0699L2.6087 16.5745V26.7391C2.6087 27.0993 2.90067 27.3913 3.26087 27.3913H9.78261C10.1428 27.3913 10.4348 27.0993 10.4348 26.7391V20.8696H14.3478V26.7391C14.3478 27.0993 14.6398 27.3913 15 27.3913H19.3509C20.8852 30.3922 23.5134 33.0445 23.6692 33.2003C23.7966 33.3277 23.9635 33.3913 24.1304 33.3913C24.2973 33.3913 24.4642 33.3277 24.5915 33.2003C24.8124 32.9795 30 27.7443 30 23.6087C30 20.5853 27.7021 18.0887 24.7611 17.773ZM23.3856 17.7862C22.9664 17.8395 22.561 17.9376 22.1739 18.0748V16.5745L23.3856 17.7862ZM18.2609 3H19.5652V6.90372L18.2609 5.59937V3ZM1.30435 12.6614L12.3913 1.57448L23.4783 12.6614V16.0342L21.983 14.5389L21.9829 14.5388L12.8525 5.40841C12.7251 5.28104 12.5582 5.21739 12.3913 5.21739C12.2244 5.21739 12.0575 5.28111 11.9302 5.40841L2.79978 14.5388L2.79972 14.5389L1.30435 16.0342V12.6614ZM15.6522 26.087V20.2174C15.6522 19.8572 15.3602 19.5652 15 19.5652H9.78261C9.42241 19.5652 9.13043 19.8572 9.13043 20.2174V26.087H3.91304V15.2701L12.3913 6.79187L20.8696 15.2701V18.7306C19.2976 19.7849 18.2609 21.5779 18.2609 23.6086C18.2609 24.4083 18.4554 25.2492 18.77 26.0869H15.6522V26.087ZM24.1304 31.7907C22.8878 30.4383 19.5652 26.5472 19.5652 23.6087C19.5652 21.0914 21.6132 19.0435 24.1304 19.0435C26.6477 19.0435 28.6957 21.0914 28.6957 23.6087C28.6957 26.5471 25.373 30.4384 24.1304 31.7907Z" fill="#4069FF"/>
</svg>
