<svg width="125" height="125" viewBox="0 0 125 125" fill="none" xmlns="http://www.w3.org/2000/svg">
<g clip-path="url(#clip0_502_1658)">
<path d="M114.827 23.6816H10.1728C4.56333 23.6816 0 28.245 0 33.8545V91.0473C0 96.6568 4.56333 101.22 10.1728 101.22H114.827C120.437 101.22 125 96.6568 125 91.0473V33.8545C125 28.245 120.437 23.6816 114.827 23.6816V23.6816ZM117.412 91.0463C117.412 92.4721 116.252 93.6317 114.827 93.6317H10.1728C8.74805 93.6317 7.58839 92.4721 7.58839 91.0463V33.8545C7.58839 32.4297 8.74805 31.27 10.1728 31.27H114.827C116.252 31.27 117.412 32.4297 117.412 33.8545V91.0463Z" fill="black"/>
<path d="M50.3867 61.387C54.744 56.0455 54.4341 48.1414 49.4568 43.1642C44.1496 37.8561 35.5122 37.8561 30.2041 43.1642C25.2268 48.1414 24.9169 56.0455 29.2742 61.387C25.4557 63.3525 22.1837 66.3643 19.9349 70.158C18.0323 73.3671 18.0018 77.2266 19.8557 80.4815C21.7269 83.765 25.0952 85.7248 28.868 85.7248H50.7929C54.5647 85.7248 57.9341 83.765 59.8042 80.4815C61.6582 77.2266 61.6286 73.3671 59.726 70.158C57.4772 66.3643 54.2052 63.3525 50.3867 61.387ZM53.2105 76.725C52.9692 77.1494 52.2492 78.1364 50.7929 78.1364H28.868C27.4108 78.1364 26.6917 77.1494 26.4495 76.725C26.2158 76.3149 25.7485 75.2306 26.4618 74.027C29.2494 69.3254 34.3716 66.4043 39.8305 66.4043C45.2883 66.4043 50.4105 69.3254 53.1981 74.027C53.9115 75.2306 53.4451 76.3149 53.2105 76.725ZM35.5704 48.5296C36.7444 47.3547 38.2874 46.7682 39.8305 46.7682C41.3735 46.7682 42.9165 47.3547 44.0915 48.5296C46.4404 50.8785 46.4404 54.7018 44.0915 57.0507C41.7416 59.4005 37.9193 59.4005 35.5704 57.0507C33.2205 54.7018 33.2205 50.8785 35.5704 48.5296Z" fill="black"/>
<path d="M105.2 44.3087H78.9129C76.8176 44.3087 75.1191 46.0072 75.1191 48.1024C75.1191 50.1986 76.8176 51.8971 78.9129 51.8971H105.2C107.295 51.8971 108.995 50.1986 108.995 48.1024C108.995 46.0072 107.295 44.3087 105.2 44.3087Z" fill="black"/>
<path d="M105.2 58.6567H78.9129C76.8176 58.6567 75.1191 60.3552 75.1191 62.4505C75.1191 64.5466 76.8176 66.2451 78.9129 66.2451H105.2C107.295 66.2451 108.995 64.5466 108.995 62.4505C108.995 60.3552 107.295 58.6567 105.2 58.6567Z" fill="black"/>
<path d="M99.5904 73.0048H78.9129C76.8176 73.0048 75.1191 74.7033 75.1191 76.7985C75.1191 78.8947 76.8176 80.5931 78.9129 80.5931H99.5904C101.686 80.5931 103.385 78.8947 103.385 76.7985C103.385 74.7033 101.686 73.0048 99.5904 73.0048Z" fill="black"/>
</g>
<defs>
<clipPath id="clip0_502_1658">
<rect width="125" height="125" fill="white"/>
</clipPath>
</defs>
</svg>
