<svg width="134" height="134" viewBox="0 0 134 134" fill="none" xmlns="http://www.w3.org/2000/svg">
<g clip-path="url(#clip0_499_522)">
<path d="M116.434 22.1692H17.5659C7.88003 22.1692 0 30.0492 0 39.735V94.2649C0 103.951 7.88003 111.831 17.5659 111.831H116.434C126.12 111.831 134 103.951 134 94.2649V39.735C134 30.0492 126.12 22.1692 116.434 22.1692V22.1692ZM126.137 94.2649C126.137 99.6152 121.784 103.968 116.434 103.968H17.5659C12.2155 103.968 7.86273 99.6152 7.86273 94.2649V39.735C7.86273 34.3847 12.2155 30.0319 17.5659 30.0319H116.434C121.784 30.0319 126.137 34.3847 126.137 39.735V94.2649Z" fill="black"/>
<path d="M48.4541 64.6038C50.8819 62.0167 52.3732 58.5409 52.3732 54.7217C52.3732 46.7499 45.8877 40.2645 37.9162 40.2645C29.9445 40.2645 23.4591 46.7499 23.4591 54.7217C23.4591 58.5411 24.9506 62.0167 27.3781 64.6038C21.1576 68.2406 16.9668 74.9871 16.9668 82.698V89.2802C16.9668 91.4513 18.727 93.2115 20.8982 93.2115H54.9338C57.105 93.2115 58.8652 91.4513 58.8652 89.2802V82.698C58.8654 74.9871 54.6746 68.2406 48.4541 64.6038V64.6038ZM37.9162 48.1272C41.5522 48.1272 44.5105 51.0854 44.5105 54.7217C44.5105 58.3576 41.5522 61.3159 37.9162 61.3159C34.28 61.3159 31.3218 58.3576 31.3218 54.7217C31.3218 51.0854 34.28 48.1272 37.9162 48.1272ZM51.0027 85.3488H24.8295V82.698C24.8295 75.4821 30.7001 69.6116 37.9162 69.6116C45.1321 69.6116 51.0027 75.4821 51.0027 82.698V85.3488Z" fill="black"/>
<path d="M113.102 78.7942H72.8083C70.6372 78.7942 68.877 80.5544 68.877 82.7256C68.877 84.8967 70.6372 86.6569 72.8083 86.6569H113.102C115.273 86.6569 117.033 84.8967 117.033 82.7256C117.033 80.5544 115.273 78.7942 113.102 78.7942Z" fill="black"/>
<path d="M113.102 63.0686H72.8083C70.6372 63.0686 68.877 64.8288 68.877 67C68.877 69.1711 70.6372 70.9313 72.8083 70.9313H113.102C115.273 70.9313 117.033 69.1711 117.033 67C117.033 64.8285 115.273 63.0686 113.102 63.0686Z" fill="black"/>
<path d="M113.102 47.3435H72.8083C70.6372 47.3435 68.877 49.1037 68.877 51.2749C68.877 53.446 70.6372 55.2062 72.8083 55.2062H113.102C115.273 55.2062 117.033 53.446 117.033 51.2749C117.033 49.1037 115.273 47.3435 113.102 47.3435Z" fill="black"/>
</g>
<defs>
<clipPath id="clip0_499_522">
<rect width="134" height="134" fill="white"/>
</clipPath>
</defs>
</svg>
