<svg width="50" height="50" viewBox="0 0 50 50" fill="none" xmlns="http://www.w3.org/2000/svg">
<path d="M49.6241 15.0607C49.5082 12.4325 49.0832 10.6257 48.4744 9.06007C47.8463 7.3982 46.8801 5.91032 45.6141 4.67344C44.3772 3.41731 42.8795 2.44125 41.2369 1.823C39.6622 1.21418 37.8648 0.789181 35.2367 0.673306C32.589 0.547618 31.7484 0.518555 25.0329 0.518555C18.3175 0.518555 17.4769 0.547618 14.839 0.663493C12.2108 0.779367 10.404 1.20474 8.83877 1.81318C7.17652 2.44125 5.68864 3.4075 4.45176 4.67344C3.19563 5.91032 2.21994 7.40801 1.60132 9.05064C0.992501 10.6257 0.567501 12.4227 0.451626 15.0508C0.325938 17.6986 0.296875 18.5392 0.296875 25.2546C0.296875 31.9701 0.325938 32.8106 0.441813 35.4486C0.557688 38.0767 0.983065 39.8835 1.59188 41.4492C2.21994 43.111 3.19563 44.5989 4.45176 45.8358C5.68864 47.0919 7.18633 48.068 8.82896 48.6862C10.404 49.2951 12.201 49.7201 14.8295 49.8359C17.4671 49.9522 18.308 49.9809 25.0235 49.9809C31.739 49.9809 32.5795 49.9522 35.2175 49.8359C37.8456 49.7201 39.6524 49.2951 41.2177 48.6862C44.5418 47.401 47.1699 44.7729 48.4551 41.4492C49.0636 39.8741 49.4889 38.0767 49.6048 35.4486C49.7207 32.8106 49.7497 31.9701 49.7497 25.2546C49.7497 18.5392 49.7399 17.6986 49.6241 15.0607ZM45.1699 35.2553C45.0634 37.671 44.6577 38.9754 44.3195 39.845C43.4884 41.9998 41.7782 43.71 39.6233 44.5412C38.7537 44.8794 37.4398 45.2851 35.0336 45.3912C32.4248 45.5074 31.6423 45.5361 25.0427 45.5361C18.4432 45.5361 17.6509 45.5074 15.0515 45.3912C12.6358 45.2851 11.3314 44.8794 10.4618 44.5412C9.38946 44.1449 8.41339 43.5168 7.62114 42.6955C6.79983 41.8934 6.17176 40.9272 5.77545 39.8548C5.43726 38.9852 5.03151 37.671 4.92545 35.2651C4.8092 32.6563 4.78051 31.8734 4.78051 25.2739C4.78051 18.6743 4.8092 17.882 4.92545 15.283C5.03151 12.8673 5.43726 11.5629 5.77545 10.6933C6.17176 9.62058 6.79983 8.64489 7.63096 7.85226C8.43264 7.03094 9.3989 6.40288 10.4716 6.00694C11.3412 5.66876 12.6555 5.263 15.0613 5.15657C17.6702 5.04069 18.453 5.01163 25.0522 5.01163C31.6616 5.01163 32.444 5.04069 35.0435 5.15657C37.4591 5.263 38.7635 5.66876 39.6332 6.00694C40.7055 6.40288 41.6815 7.03094 42.4738 7.85226C43.2951 8.65432 43.9232 9.62058 44.3195 10.6933C44.6577 11.5629 45.0634 12.8768 45.1699 15.283C45.2857 17.8918 45.3148 18.6743 45.3148 25.2739C45.3148 31.8734 45.2857 32.6464 45.1699 35.2553Z" fill="black"/>
<path d="M25.0343 12.5483C18.0196 12.5483 12.3281 18.2394 12.3281 25.2546C12.3281 32.2697 18.0196 37.9608 25.0343 37.9608C32.0495 37.9608 37.7406 32.2697 37.7406 25.2546C37.7406 18.2394 32.0495 12.5483 25.0343 12.5483ZM25.0343 33.4968C20.4835 33.4968 16.7921 29.8058 16.7921 25.2546C16.7921 20.7034 20.4835 17.0124 25.0343 17.0124C29.5855 17.0124 33.2766 20.7034 33.2766 25.2546C33.2766 29.8058 29.5855 33.4968 25.0343 33.4968Z" fill="black"/>
<path d="M41.2065 12.0459C41.2065 13.684 39.8782 15.0122 38.2398 15.0122C36.6017 15.0122 35.2734 13.684 35.2734 12.0459C35.2734 10.4074 36.6017 9.07959 38.2398 9.07959C39.8782 9.07959 41.2065 10.4074 41.2065 12.0459Z" fill="black"/>
</svg>
