<svg width="48" height="48" viewBox="0 0 48 48" fill="none" xmlns="http://www.w3.org/2000/svg">
<path d="M17.7515 0.561523C12.5831 0.561523 8.37501 4.77114 8.37501 9.93955C8.37501 10.2388 8.38883 10.5343 8.4086 10.8337C8.41743 11.9354 10.097 11.8284 9.96652 10.7345C9.94875 10.4584 9.9375 10.1943 9.9375 9.93955C9.9375 5.61559 13.4276 2.12549 17.7515 2.12549C22.0755 2.12549 25.5594 5.61556 25.5594 9.93955C25.5594 10.9053 25.4275 11.9605 25.1795 13.0523C25.0103 13.0701 24.8392 13.101 24.6744 13.153C24.3801 12.1921 23.4845 11.4959 22.4344 11.4959C21.1225 11.4959 20.0937 10.4672 20.0937 9.15523C20.1 8.71686 19.7417 8.35984 19.3033 8.36477C18.8717 8.37068 18.5264 8.72362 18.5312 9.15523C18.5312 10.4672 17.5009 11.4959 16.189 11.4959H13.0625C12.0124 11.4959 11.123 12.2105 10.8286 13.1714C10.3711 13.0273 9.8833 13.0124 9.44159 13.1285C8.48889 13.3789 7.63516 14.2227 7.59681 15.3914C7.59681 17.6484 9.23859 19.12 11.1109 19.2885C11.5061 20.4242 12.1867 21.4097 13.0625 22.1968V23.9989H13.0578C12.852 24.0006 12.6551 24.0833 12.51 24.2292L10.946 25.7932C10.7425 25.997 10.6675 26.2958 10.7507 26.5714L15.7662 42.8647L10.0076 35.5359L10.6957 32.7818C10.762 32.5154 10.6839 32.2341 10.4898 32.0402L8.45423 30.0046L9.20649 26.7957C9.32144 26.3057 8.9499 25.8364 8.44661 25.8359C8.38333 25.8359 8.32033 25.8448 8.25892 25.8595C3.82846 26.9547 0.562531 30.9527 0.5625 35.7183V46.6558C0.562547 47.0873 0.912297 47.437 1.34375 47.4371H30.25C31.3065 47.4518 31.3065 45.8596 30.25 45.8745H19.3583L26.9587 36.2004C27.1075 36.0108 27.1604 35.763 27.1021 35.5291L26.4277 32.8329L28.4586 30.8019C28.6431 30.6173 28.7232 30.3528 28.6723 30.0969L28.2282 27.8554C29.5506 28.4195 30.736 29.3377 31.6294 30.5135C32.2611 31.3366 33.4983 30.3965 32.8745 29.5674C31.5075 27.7684 29.6556 26.5007 27.3829 25.9389C26.8266 25.8013 26.3162 26.2895 26.4292 26.8514L27.0579 29.9932L25.0102 32.0409C24.8161 32.2349 24.7379 32.5163 24.8042 32.7825L25.4923 35.5367L19.7321 42.8685L24.7477 26.5721C24.8305 26.2964 24.7547 25.9972 24.5509 25.7939L22.9884 24.23C22.8415 24.0829 22.6422 24.0008 22.4345 24.0011V22.2006C23.3112 21.413 23.9925 20.4326 24.3876 19.2953C26.2862 19.1524 27.9078 17.6488 27.9078 15.3921C27.8783 14.492 27.3638 13.7919 26.6963 13.3994C26.9645 12.2193 27.1235 11.0484 27.1235 9.94018C27.1235 4.77177 22.92 0.561523 17.7515 0.561523ZM19.3125 11.5005C20.0252 12.457 21.1544 13.0584 22.4345 13.0585C22.8808 13.0585 23.2188 13.398 23.2188 13.8443V16.9693C23.2188 20.0125 20.7948 22.4365 17.7515 22.4365C14.7084 22.4365 12.2782 20.0125 12.2782 16.9693V13.8443C12.2782 13.398 12.6162 13.0585 13.0625 13.0585H16.189C17.4694 13.0584 18.5998 12.4575 19.3125 11.5005ZM10.7157 14.8865V16.9693C10.7157 17.1934 10.7288 17.4143 10.7493 17.633C9.87676 17.3747 9.16544 16.6374 9.16544 15.4175C9.16544 14.6059 10.375 14.3685 10.7157 14.8865ZM26.3392 15.4236C26.3392 16.5838 25.6211 17.3772 24.7477 17.6347C24.7683 17.4156 24.7813 17.1939 24.7813 16.9694V14.8896C25.1405 14.3597 26.3392 14.6105 26.3392 15.4236ZM20.8781 23.2621V25.0611L17.7515 27.6673L14.6265 25.0626V23.2636C15.568 23.7328 16.6282 23.999 17.7515 23.999C18.8761 23.999 19.9365 23.7322 20.8781 23.2621ZM13.1098 25.8393L16.4713 28.6393L13.6439 30.658L12.3835 26.5595L13.1098 25.8393ZM22.3887 25.8393L23.115 26.5595L21.8546 30.6565L19.0272 28.6378L22.3887 25.8393ZM7.36487 27.7985L6.83387 30.0705C6.77191 30.3336 6.85043 30.6101 7.04139 30.8014L9.07233 32.8324L8.3979 35.5286C8.33954 35.7625 8.39243 36.0103 8.54133 36.2L16.1417 45.874H7.59681V40.4068C7.60564 39.9638 7.24324 39.602 6.8003 39.6103C6.36865 39.6192 6.02469 39.9752 6.03278 40.4068V45.874H2.12501V35.7178C2.12501 32.1712 4.32665 29.1179 7.36487 27.7985ZM42.3853 34.0256L39.6906 40.0894C39.6475 40.1895 39.6265 40.298 39.6281 40.4069C39.6281 40.4069 39.6162 41.3481 40.0995 42.3157C40.5834 43.2833 41.5961 44.31 43.5312 44.31C45.4664 44.31 46.4776 43.2833 46.9614 42.3157C47.4454 41.3481 47.4344 40.4069 47.4344 40.4069C47.436 40.2979 47.4138 40.1895 47.3719 40.0894L44.6756 34.0211C45.1127 33.9222 45.9104 33.6423 46.4258 33.1452C47.1229 32.4727 46.1255 31.299 45.3257 32.0374C45.0378 32.3031 44.256 32.5913 43.5297 32.5913C41.5571 32.5618 40.696 31.2381 38.0625 31.0654V29.4663C38.0687 29.0345 37.7235 28.6806 37.2919 28.6759V28.6729C37.2857 28.6729 37.2828 28.67 37.2798 28.67C36.8482 28.6759 36.5044 29.0288 36.5092 29.4604V31.0595C33.8757 31.2322 33.0147 32.5568 31.042 32.5854C30.3157 32.5854 29.5341 32.2975 29.246 32.0315C28.4462 31.2931 27.4487 32.4668 28.1459 33.1392C28.6612 33.6364 29.459 33.9162 29.8961 34.0151L27.1998 40.0836C27.1567 40.1837 27.1361 40.292 27.1373 40.4009C27.1373 40.4009 27.1255 41.3422 27.6103 42.3097C28.0941 43.2773 29.1053 44.3042 31.0405 44.3042C32.9756 44.3042 33.9884 43.2773 34.4722 42.3097C34.956 41.3422 34.9437 40.4009 34.9437 40.4009C34.9452 40.292 34.923 40.1836 34.8811 40.0836L32.1864 34.0197C33.7839 33.7661 34.7222 32.5894 37.2798 32.5884C39.8472 32.5914 40.7851 33.7715 42.3853 34.0256ZM17.75 29.6478L18.9738 30.5222L18.1147 31.8145H17.3884L16.5262 30.5222L17.75 29.6478ZM15.2552 31.43L16.1478 32.7698L15.4948 36.6775L14.1291 32.2342L15.2552 31.43ZM20.2479 31.4316L21.3694 32.2327L20.0037 36.67L19.3537 32.7729L20.2479 31.4316ZM17.6295 33.3771H17.8706L18.9753 40.0117L17.747 44.0003L16.5232 40.0208L17.6295 33.3771ZM37.2889 34.137C36.8982 34.137 36.5092 34.3974 36.5092 34.9182V45.868H33.3445C32.2897 45.9397 32.3615 47.4563 33.3811 47.4305H37.2798V47.4363H41.1906C42.2101 47.4629 42.282 45.9455 41.2272 45.8738H38.0625V34.9242C38.0625 34.4073 37.6795 34.1486 37.2919 34.1444V34.1355L37.2889 34.137ZM31.0404 35.2906L32.96 39.6149H29.1224L31.0404 35.2906ZM43.5313 35.2965L45.4493 39.6208H41.6117L43.5313 35.2965ZM28.837 41.1788H33.2453C33.2453 41.1788 32.9698 42.7412 31.0419 42.7412C29.1139 42.7412 28.837 41.1788 28.837 41.1788ZM41.3264 41.1846H45.7346C45.7346 41.1846 45.4577 42.7472 43.5297 42.7472C41.6017 42.7472 41.3264 41.1846 41.3264 41.1846Z" fill="#4069FF"/>
</svg>
