<svg width="219" height="219" viewBox="0 0 219 219" fill="none" xmlns="http://www.w3.org/2000/svg">
<path d="M215.57 103.027C215.349 102.879 215.121 102.742 214.886 102.617L199.345 94.2485L113.161 139.879C110.871 141.091 108.13 141.091 105.84 139.879L19.656 94.2485L4.11462 102.617C0.337419 104.622 -1.09977 109.31 0.905235 113.087C1.02989 113.321 1.16646 113.55 1.31449 113.771L109.5 171.047L217.686 113.771C220.069 110.219 219.122 105.409 215.57 103.027Z" fill="black"/>
<path d="M218.053 152.713C217.329 151.371 216.227 150.27 214.886 149.546L199.345 141.177L113.16 186.807C110.871 188.02 108.129 188.02 105.84 186.807L19.6551 141.177L4.11371 149.546C0.312227 151.598 -1.10571 156.342 0.946038 160.144C1.67059 161.486 2.77185 162.587 4.11371 163.311L105.792 218.061C108.107 219.308 110.893 219.308 113.207 218.061L214.886 163.311C218.687 161.26 220.105 156.515 218.053 152.713Z" fill="black"/>
<path d="M215.57 56.0978C215.349 55.9498 215.121 55.8132 214.886 55.6886L113.208 0.938467C110.894 -0.307614 108.108 -0.307614 105.793 0.938467L4.11462 55.6886C0.337419 57.6936 -1.09977 62.3809 0.905235 66.1581C1.02989 66.3928 1.16646 66.621 1.31449 66.8419L109.5 124.118L217.686 66.8419C220.069 63.2906 219.122 58.4805 215.57 56.0978Z" fill="black"/>
</svg>
