<svg width="264" height="264" viewBox="0 0 264 264" fill="none" xmlns="http://www.w3.org/2000/svg">
<g clip-path="url(#clip0_540_7783)">
<path d="M262.859 127.522C261.986 125.903 260.658 124.576 259.041 123.703L221.92 103.714L259.041 83.725C262.094 82.0814 263.999 78.8948 264 75.4275C263.999 71.9602 262.094 68.7735 259.041 67.1299L136.466 1.12785C133.676 -0.374322 130.317 -0.374322 127.527 1.12785L4.95208 67.1299C0.369331 69.6033 -1.34001 75.3231 1.1334 79.9058C2.00686 81.524 3.33444 82.8516 4.95208 83.7245L42.0737 103.713L4.95208 123.703C0.369331 126.176 -1.34001 131.896 1.1334 136.479C2.00686 138.097 3.33444 139.425 4.95208 140.298L42.0732 160.287L4.95208 180.276C0.369331 182.749 -1.34001 188.469 1.1334 193.052C2.00686 194.67 3.33444 195.998 4.95208 196.871L127.527 262.873C130.317 264.375 133.675 264.375 136.465 262.873L259.04 196.871C263.623 194.397 265.332 188.677 262.859 184.095C261.985 182.477 260.658 181.149 259.04 180.276L221.919 160.287L259.04 140.298C263.623 137.824 265.333 132.104 262.859 127.522ZM29.3067 75.4275L131.996 20.1367L234.686 75.4275L131.996 130.718L29.3067 75.4275ZM234.686 188.574L131.996 243.864L29.3067 188.574L61.9494 170.998L127.527 206.3C130.317 207.802 133.676 207.802 136.466 206.3L202.043 170.998L234.686 188.574ZM131.996 187.291L29.3067 132.001L61.9494 114.425L127.527 149.727C130.317 151.229 133.676 151.229 136.466 149.727L202.043 114.425L234.686 132.001L131.996 187.291Z" fill="black"/>
</g>
<defs>
<clipPath id="clip0_540_7783">
<rect width="264" height="264" fill="white"/>
</clipPath>
</defs>
</svg>
