<svg width="202" height="202" viewBox="0 0 202 202" fill="none" xmlns="http://www.w3.org/2000/svg">
<g clip-path="url(#clip0_378_55)">
<path d="M56.244 164.301V154.191L38.3125 144.132V173.915C38.3125 175.422 37.0899 176.645 35.5828 176.645C34.0757 176.645 32.853 175.422 32.853 173.915V139.47C32.853 138.502 33.3667 137.604 34.2035 137.116C35.0371 136.622 36.0712 136.615 36.9191 137.089L60.3084 150.211C61.1705 150.695 61.7035 151.605 61.7035 152.593V164.301C61.7035 165.808 60.4809 167.031 58.9737 167.031C57.4666 167.031 56.244 165.808 56.244 164.301V164.301ZM6.03514 136.495V103.957C6.03514 94.6792 15.1981 90.526 24.2795 90.526H26.5492C22.9242 87.1808 20.5563 81.8021 20.5563 75.7283C20.5563 66.4087 26.1543 60.6197 35.1646 60.6197C44.1765 60.6197 49.7749 66.4087 49.7749 75.7283C49.7749 81.8021 47.4069 87.1808 43.7815 90.526H65.2046C66.0753 90.526 66.7665 90.4124 67.5931 90.1334L77.7925 86.6884L84.6806 84.2837L99.5856 79.0187C100.91 78.5512 101.905 77.8635 102.809 76.7884L107.592 71.1024C112.989 64.6814 117.251 59.6093 125.204 59.6093L132.357 59.532C128.169 56.2148 125.373 50.3631 125.373 43.6912C125.373 34.1968 131.076 28.2981 140.255 28.2981C149.435 28.2981 155.138 34.1964 155.138 43.6912C155.138 50.2439 152.444 56.012 148.381 59.3584H164.983L165.025 43.2221C165.025 38.9383 167.88 35.4581 171.862 34.3479V2.72976C171.862 1.22186 173.084 0 174.592 0H199.271C200.225 0 201.11 0.498688 201.604 1.31418C202.1 2.13007 202.132 3.14481 201.691 3.99068L198.821 9.50268L201.691 15.0147C202.132 15.8606 202.1 16.8753 201.604 17.6912C201.11 18.5071 200.225 19.0054 199.271 19.0054H177.321V34.4126C181.08 35.5997 183.831 39.0771 183.831 43.2229V68.5467C183.831 73.728 179.619 77.9436 174.444 77.9436L163.001 78.4005C160.795 78.4032 158.81 79.2329 157.305 80.7408C155.8 82.2487 154.97 84.2383 154.97 86.3424V104.533L177.595 117.613C178.439 118.102 178.958 119.003 178.958 119.977V142.803C178.958 144.31 177.735 145.533 176.228 145.533C174.721 145.533 173.498 144.31 173.498 142.803V121.551L150.873 108.471C150.029 107.982 149.51 107.081 149.51 106.108V86.342C149.51 82.7813 150.907 79.4227 153.441 76.8831C155.979 74.3419 159.336 72.9433 162.892 72.9433L174.335 72.4864C176.61 72.4837 178.372 70.7174 178.372 68.5467V43.2229C178.372 41.1161 176.657 39.4018 174.549 39.4018C172.194 39.4018 170.484 41.0084 170.484 43.2229L170.449 59.8969C170.449 62.7182 168.153 65.0385 165.329 65.0685L125.234 65.0696C120.024 65.0696 117.191 68.1683 111.772 74.6157L106.986 80.3037C105.44 82.1414 103.667 83.3684 101.404 84.1681L91.4054 87.7003C92.1736 88.5012 92.8237 89.4379 93.2755 90.5216C93.8984 92.0153 94.0736 93.6065 93.8838 95.17L108.165 90.7599C109.526 90.3398 110.559 89.6805 111.511 88.6204L119.084 80.1968C119.841 79.3544 121.037 79.0664 122.091 79.4736C123.147 79.878 123.843 80.8919 123.843 82.0219V153.38C123.843 154.887 122.62 156.109 121.113 156.109C119.606 156.109 118.383 154.887 118.383 153.38V89.14L115.57 92.2694C113.942 94.0803 112.101 95.2576 109.775 95.9749L88.0665 102.678C88.0641 102.679 88.0617 102.679 88.0594 102.68L72.4592 108.245C71.0073 108.762 69.6691 108.993 68.1213 108.993H60.7728C58.7449 108.993 56.8255 109.796 55.3685 111.257C53.9111 112.716 53.1079 114.641 53.1079 116.674V130.542L75.1945 143.311C76.0388 143.8 76.5576 144.701 76.5576 145.674V164.301C76.5576 165.808 75.335 167.031 73.8279 167.031C72.3207 167.031 71.0981 165.808 71.0981 164.301V147.249L49.0114 134.48C48.1671 133.991 47.6483 133.09 47.6483 132.116V116.674C47.6483 113.184 49.0185 109.891 51.5049 107.399C53.9948 104.906 57.2859 103.534 60.7728 103.534H68.1213C69.0402 103.534 69.7654 103.41 70.6254 103.102L86.3444 97.4985C87.1405 97.1636 87.8621 96.4392 88.244 95.5089C88.6259 94.5778 88.6244 93.5524 88.2349 92.6209C87.4333 90.6972 85.2207 89.7847 83.3053 90.5808C83.2485 90.6049 69.3404 95.3053 69.3404 95.3053C67.947 95.7752 66.6711 95.9851 65.205 95.9851H24.2798C22.972 95.9851 11.4951 96.2092 11.4951 103.957V136.495C11.4951 139.985 13.9017 142.926 17.2213 144.003V108.042C17.2213 106.535 18.4439 105.313 19.9511 105.313C21.4582 105.313 22.6808 106.535 22.6808 108.042V147.179C22.6808 147.185 22.6828 147.191 22.6828 147.197C22.6828 147.203 22.6808 147.208 22.6808 147.215V173.915C22.6808 175.422 21.4582 176.645 19.9511 176.645C18.4439 176.645 17.2213 175.422 17.2213 173.915V149.664C10.8508 148.435 6.03514 142.999 6.03514 136.495V136.495ZM177.321 13.5454H194.771L193.322 10.7632C192.91 9.97336 192.91 9.03121 193.322 8.24136L194.771 5.45913H177.321V13.5454ZM130.832 43.6916C130.832 51.0054 135.058 56.9565 140.254 56.9565C145.451 56.9565 149.678 51.0058 149.678 43.6916C149.678 35.0482 143.775 33.7581 140.254 33.7581C136.735 33.7581 130.832 35.0486 130.832 43.6916V43.6916ZM26.0158 75.7287C26.0158 82.8452 30.1193 88.6346 35.1646 88.6346C40.2098 88.6346 44.3153 82.8456 44.3153 75.7287C44.3153 67.3335 38.582 66.0796 35.1646 66.0796C31.7471 66.0796 26.0158 67.3335 26.0158 75.7287ZM161.033 145.532C162.54 145.532 163.762 144.31 163.762 142.803V127.053C163.762 126.065 163.229 125.155 162.367 124.672L138.438 111.249C137.596 110.774 136.56 110.781 135.724 111.276C134.887 111.764 134.374 112.662 134.374 113.63V153.378C134.374 154.885 135.596 156.108 137.104 156.108C138.611 156.108 139.833 154.885 139.833 153.378V118.292L158.303 128.653V142.803C158.303 144.31 159.526 145.532 161.033 145.532V145.532ZM199.27 155.829H150.135C148.628 155.829 147.406 157.052 147.406 158.559V166.777H101C99.4929 166.777 98.2702 167.999 98.2702 169.506V175.91H51.8647C50.3576 175.91 49.1349 177.132 49.1349 178.639V186.224H2.72976C1.22265 186.224 0 187.447 0 188.954V199.271C0 200.777 1.22265 202 2.72976 202C4.23687 202 5.45952 200.777 5.45952 199.27V191.683H49.1353V199.27C49.1353 200.777 50.358 202 51.8651 202C53.3722 202 54.5948 200.777 54.5948 199.27V181.369H98.2706V199.27C98.2706 200.777 99.4933 202 101 202C102.508 202 103.73 200.777 103.73 199.27V172.236H147.406V199.27C147.406 200.777 148.629 202 150.136 202C151.643 202 152.865 200.777 152.865 199.27V161.289H196.541V199.27C196.541 200.777 197.764 202 199.271 202C200.778 202 202.001 200.777 202.001 199.27V158.559C202 157.052 200.777 155.829 199.27 155.829V155.829Z" fill="black"/>
</g>
<defs>
<clipPath id="clip0_378_55">
<rect width="202" height="202" fill="white"/>
</clipPath>
</defs>
</svg>
