<svg width="60" height="60" viewBox="0 0 60 60" fill="none" xmlns="http://www.w3.org/2000/svg">
<path fill-rule="evenodd" clip-rule="evenodd" d="M30 0C13.4314 0 0 13.4314 0 30C0 46.5686 13.4314 60 30 60C46.5686 60 60 46.5686 60 30C60 13.4314 46.5686 0 30 0ZM13.0653 28.446L20.128 21.3837C20.3315 21.1774 20.5738 21.0134 20.841 20.9012C21.1081 20.7889 21.3948 20.7306 21.6846 20.7296C21.9743 20.7286 22.2614 20.7849 22.5293 20.8954C22.7972 21.0058 23.0407 21.1681 23.2456 21.373C23.4505 21.5779 23.6129 21.8212 23.7233 22.0891C23.8338 22.357 23.8902 22.6441 23.8892 22.9339C23.8883 23.2236 23.8301 23.5103 23.7178 23.7775C23.6056 24.0447 23.4417 24.287 23.2355 24.4905L19.9239 27.8023H37.4082L43.8274 21.3837C44.2394 20.9716 44.7982 20.7401 45.3809 20.7401C45.9636 20.74 46.5225 20.9714 46.9345 21.3834C47.3466 21.7954 47.5781 22.3542 47.5782 22.9369C47.5782 23.5196 47.3468 24.0785 46.9348 24.4905L41.4258 30L46.9346 35.509C47.1409 35.7125 47.3048 35.9548 47.4171 36.222C47.5293 36.4892 47.5875 36.7759 47.5885 37.0656C47.5894 37.3554 47.5331 37.6425 47.4226 37.9104C47.3121 38.1783 47.1498 38.4217 46.9449 38.6266C46.74 38.8314 46.4966 38.9938 46.2287 39.1042C45.9608 39.2146 45.6737 39.271 45.3839 39.27C45.0941 39.269 44.8074 39.2107 44.5403 39.0985C44.2731 38.9862 44.0308 38.8222 43.8273 38.616L37.4081 32.1973H19.9237L23.2354 35.509C23.4402 35.7128 23.6029 35.9551 23.714 36.2219C23.8251 36.4887 23.8825 36.7748 23.8828 37.0638C23.8832 37.3529 23.8265 37.6391 23.7161 37.9062C23.6056 38.1733 23.4436 38.4159 23.2392 38.6203C23.0348 38.8246 22.7921 38.9866 22.525 39.097C22.2579 39.2074 21.9717 39.2641 21.6826 39.2637C21.3936 39.2633 21.1075 39.2059 20.8407 39.0947C20.5739 38.9836 20.3317 38.8209 20.1279 38.616L13.0652 31.5539C12.6533 31.1417 12.4219 30.5829 12.4219 30.0001C12.4219 29.4174 12.6534 28.8581 13.0653 28.446Z" fill="#F8DDE4"/>
</svg>
