<svg width="278" height="278" viewBox="0 0 278 278" fill="none" xmlns="http://www.w3.org/2000/svg">
<path d="M251.311 164.659C251.311 157.529 248.087 151.135 243.013 146.867C244.751 143.601 245.724 139.876 245.71 135.928C245.71 123.112 235.285 112.673 222.455 112.673H172.471C172.54 112.534 172.596 112.382 172.665 112.243C173.569 110.31 174.528 108.42 175.543 106.418C177.725 102.137 179.977 97.6893 181.7 92.7131C187.927 74.6987 187.552 58.4635 180.588 45.745C180.477 45.5643 180.366 45.3697 180.255 45.189C179.963 44.7442 179.643 44.2855 179.282 43.799C175.598 38.8367 170.65 35.2088 165.354 33.5964C160.948 32.2481 156.138 32.2759 151.801 33.652C147.075 35.1671 143.156 38.1139 140.501 42.2005C137.206 47.2601 137.123 52.4031 137.304 56.8372C137.457 60.4651 137.304 63.6621 136.873 66.6228C135.914 73.1558 133.926 78.7575 130.979 83.2611C129.325 85.8048 128.088 87.7091 127.31 88.9184C126.92 89.5161 126.642 89.9748 126.448 90.2945C126.42 90.3501 126.378 90.4057 126.35 90.4613C124.015 93.5471 120.832 97.4252 116.954 101.401C111.325 107.169 103.402 113.952 94.3527 117.816V116.982C94.3527 112.076 90.3634 108.086 85.4567 108.086H35.5835C30.6768 108.086 26.6875 112.076 26.6875 116.982V235.271C26.6875 240.178 30.6768 244.167 35.5835 244.167H85.4567C90.3634 244.167 94.3527 240.178 94.3527 235.271V230.823C94.7836 230.823 95.1867 230.823 95.3813 230.865C96.8686 231.338 98.4671 232.352 100.316 233.52C100.719 233.784 101.122 234.034 101.525 234.285C104.861 236.37 107.975 237.94 111.033 239.08C118.636 241.93 126.503 243.055 134.551 244.042C142.002 244.96 148.827 245.405 155.276 245.405C156.458 245.405 157.639 245.391 158.821 245.377C158.904 245.377 158.988 245.363 159.085 245.363H217.632C230.461 245.363 240.9 234.938 240.886 222.108C240.886 218.48 240.052 215.033 238.551 211.975C244.195 207.722 247.836 200.98 247.836 193.391C247.836 188.915 246.572 184.745 244.375 181.187C248.657 176.975 251.311 171.123 251.311 164.659ZM76.5607 226.375H44.4795V125.878H76.5607V128.575V130.368V226.375ZM217.632 227.571H158.571C158.376 227.571 158.181 227.585 157.987 227.599C151.496 227.738 144.532 227.348 136.734 226.389C129.52 225.514 123.07 224.596 117.274 222.428C115.314 221.691 113.298 220.676 110.949 219.203C110.574 218.967 110.213 218.744 109.851 218.508C107.294 216.882 104.389 215.047 100.663 213.879C98.3281 213.143 96.1597 213.018 94.3527 213.031V136.679C100.01 135.066 105.653 132.481 111.255 128.978C117.51 125.058 123.723 119.971 129.7 113.827C134.26 109.143 137.999 104.584 140.737 100.956C140.765 100.914 140.793 100.886 140.82 100.845C140.945 100.692 141.071 100.525 141.223 100.316C141.376 100.108 141.571 99.8438 141.821 99.4963C144.434 95.9379 145.894 93.561 146.019 93.3664C146.422 92.7131 146.728 92.032 146.95 91.3231C150.731 85.0125 153.261 77.5899 154.498 69.236C155.11 65.1633 155.304 60.8682 155.11 56.1283C155.068 54.9051 154.971 52.6394 155.443 51.9166C156.43 50.4154 158.571 50.1235 160.183 50.6239C161.851 51.1382 163.63 52.5282 165.048 54.4325C165.104 54.502 165.159 54.5715 165.201 54.641C170.636 64.9409 168.064 77.854 164.923 86.9168C163.602 90.7393 161.726 94.4506 159.724 98.3843C158.696 100.428 157.625 102.54 156.597 104.737C154.15 109.977 152.913 115.648 152.913 121.583C152.913 126.49 156.903 130.479 161.809 130.479H222.511C225.527 130.479 227.973 132.926 227.973 135.942C227.973 138.958 225.527 141.405 222.511 141.405H198.936C194.03 141.405 190.04 145.394 190.04 150.301C190.04 155.208 194.03 159.197 198.936 159.197H228.057C231.073 159.197 233.519 161.643 233.519 164.659C233.519 167.676 231.073 170.122 228.057 170.122H224.596H197.06C192.153 170.122 188.164 174.111 188.164 179.018C188.164 183.925 192.153 187.914 197.06 187.914H224.095C224.262 187.928 224.429 187.928 224.596 187.928C227.612 187.928 230.058 190.374 230.058 193.391C230.058 196.407 227.612 198.853 224.596 198.853H217.632H193.307C188.4 198.853 184.411 202.843 184.411 207.749C184.411 212.656 188.4 216.645 193.307 216.645H217.632C220.648 216.645 223.094 219.092 223.094 222.108C223.094 225.124 220.648 227.571 217.632 227.571V227.571Z" fill="black"/>
</svg>
