<svg width="48" height="48" viewBox="0 0 48 48" fill="none" xmlns="http://www.w3.org/2000/svg">
<path d="M21.9244 13.1679C20.9527 13.1221 20.1326 13.912 20.112 14.8963C19.9781 22.9763 14.123 26.3946 12.1614 27.3144C11.7654 26.7231 11.0919 26.3321 10.3281 26.3321H2.68537C1.46898 26.3321 0.479492 27.3216 0.479492 28.538V44.8042C0.479492 46.0206 1.46898 47.0101 2.68537 47.0101H10.3281C11.2398 47.0101 12.0239 46.454 12.3596 45.6634C13.6512 46.5628 15.2033 47.0589 16.778 47.0589H16.8211L33.2338 46.9699C34.2097 46.9642 35.1223 46.5254 35.7384 45.7664C36.3549 45.0067 36.5944 44.0129 36.3955 43.0407C36.3003 42.5761 36.1018 42.151 35.8257 41.7862C37.1659 41.3963 38.1565 40.2352 38.2226 38.8328C38.262 37.987 37.9842 37.1835 37.437 36.5512C38.3357 36.1164 39.0113 35.2975 39.2102 34.2983C39.3984 33.3526 39.1718 32.3904 38.5884 31.6436C39.786 31.1882 40.6215 30.049 40.674 28.7376C40.7463 26.954 39.2766 25.4006 37.269 25.3556L24.2739 25.4679C25.1808 22.5878 25.5732 19.8854 25.4407 17.4361C25.3754 16.2344 24.9223 15.121 24.1644 14.3017C23.3476 13.4185 22.4974 13.1981 21.9244 13.1679ZM10.3281 45.5395H2.68537C2.28003 45.5395 1.95008 45.2096 1.95008 44.8042V28.538C1.95008 28.1327 2.28003 27.8027 2.68537 27.8027H10.3281C10.718 27.8027 11.0307 28.1104 11.0546 28.4946L11.0633 30.0528V44.8042C11.0633 45.2096 10.7334 45.5395 10.3281 45.5395ZM37.2776 26.8261C37.8208 26.8233 38.3353 27.0444 38.7112 27.4336C39.048 27.7822 39.2232 28.2242 39.2049 28.6784C39.1665 29.6239 38.3965 30.3798 37.4402 30.3849L26.6284 30.4459C26.2241 30.4484 25.8978 30.7769 25.8974 31.1808V31.1855C25.8992 31.5916 26.2353 31.8856 26.637 31.9165C26.9205 31.9149 36.0964 31.8637 36.0221 31.8637C37.108 31.8637 38.0009 32.8419 37.7677 34.0111C37.6065 34.8225 36.8478 35.4149 35.9643 35.4199L29.1642 35.458C28.76 35.4605 28.4336 35.789 28.4332 36.1929V36.1976C28.435 36.6036 28.7707 36.9063 29.1728 36.9285L34.9665 36.8962C35.9876 36.8993 36.802 37.7292 36.7534 38.7639C36.71 39.6913 35.854 40.4506 34.8459 40.4564L30.9856 40.4779C30.5813 40.4804 30.255 40.8089 30.2546 41.2129V41.2175C30.2564 41.6236 30.5964 41.927 30.9942 41.9485C31.1435 41.9477 30.344 41.9522 33.1279 41.9367C34.0212 41.9367 34.7884 42.5237 34.955 43.3358C35.1941 44.5075 34.3058 45.4935 33.2256 45.4993L16.8129 45.5884C15.4435 45.5812 14.0648 45.1367 12.9684 44.2951L12.6129 44.0215L12.5339 30.0283V28.7527C14.4704 27.8637 21.4312 24.0354 21.5826 14.9243C21.584 14.8421 21.6199 14.7627 21.6806 14.706C21.7161 14.6726 21.7732 14.6335 21.8518 14.6371C22.2838 14.6593 22.6984 14.8823 23.0844 15.2998C23.6104 15.8685 23.9256 16.6555 23.9723 17.5158C24.0954 19.7884 23.7249 22.3153 22.8711 25.0267C22.7326 25.4672 22.813 25.9508 23.0858 26.3206C23.3594 26.6919 23.7784 26.9037 24.2426 26.9001L37.2776 26.8261Z" fill="#4069FF"/>
<path d="M6.50998 39.1255C5.12592 39.1255 4 40.2514 4 41.6355C4 43.0192 5.12592 44.1451 6.50998 44.1451C7.89045 44.1451 9.01386 43.0192 9.01386 41.6355C9.01386 40.2514 7.89045 39.1255 6.50998 39.1255ZM6.50998 42.6745C5.93697 42.6745 5.47059 42.2085 5.47059 41.6355C5.47059 41.0625 5.93697 40.5961 6.50998 40.5961C7.07976 40.5961 7.54327 41.0625 7.54327 41.6355C7.54327 42.2085 7.07976 42.6745 6.50998 42.6745Z" fill="#4069FF"/>
<path d="M28.1535 15.1902H29.8571L29.9289 17.1157C29.9494 17.6586 30.2707 18.1332 30.7669 18.3536C31.2632 18.5745 31.83 18.4953 32.2468 18.1468L35.7639 15.1902H44.7526C46.2788 15.1902 47.5207 13.9487 47.5207 12.4225V2.76812C47.5207 1.24153 46.2788 0 44.7526 0H28.1535C26.6273 0 25.3857 1.24153 25.3857 2.76812V12.4225C25.3857 13.9487 26.6273 15.1902 28.1535 15.1902ZM26.8563 2.76812C26.8563 2.05258 27.4383 1.47059 28.1535 1.47059H44.7526C45.4681 1.47059 46.0501 2.05258 46.0501 2.76812V12.4225C46.0501 13.1376 45.4681 13.7196 44.7526 13.7196H35.7639C35.4339 13.7196 35.1122 13.8363 34.858 14.0481L31.3941 16.9426L31.3248 15.08C31.2961 14.3171 30.6761 13.7196 29.9131 13.7196H28.1535C27.4383 13.7196 26.8563 13.1376 26.8563 12.4225V2.76812Z" fill="#4069FF"/>
<path d="M30.4355 6.33729H42.4695C42.8755 6.33729 43.2048 6.00806 43.2048 5.60199C43.2048 5.19593 42.8755 4.8667 42.4695 4.8667H30.4355C30.0294 4.8667 29.7002 5.19593 29.7002 5.60199C29.7002 6.00806 30.0294 6.33729 30.4355 6.33729Z" fill="#4069FF"/>
<path d="M30.4355 10.3236H42.4695C42.8755 10.3236 43.2048 9.99474 43.2048 9.58832C43.2048 9.18262 42.8755 8.85303 42.4695 8.85303H30.4355C30.0294 8.85303 29.7002 9.18262 29.7002 9.58832C29.7002 9.99474 30.0294 10.3236 30.4355 10.3236Z" fill="#4069FF"/>
</svg>
