<svg width="252" height="197" viewBox="0 0 252 197" fill="none" xmlns="http://www.w3.org/2000/svg">
<path d="M158.742 24.0107C158.26 22.5188 157.317 21.2184 156.049 20.2969C154.78 19.3755 153.252 18.8806 151.684 18.8836H137.221L132.751 5.12712C132.266 3.63682 131.323 2.3381 130.055 1.41708C128.787 0.496053 127.26 0 125.693 0C124.126 0 122.599 0.496053 121.332 1.41708C120.064 2.3381 119.12 3.63682 118.636 5.12712L114.166 18.8836H99.7019C98.1348 18.8836 96.608 19.3798 95.3402 20.3009C94.0725 21.222 93.1288 22.5208 92.6445 24.0112C92.1602 25.5016 92.1602 27.107 92.6443 28.5974C93.1285 30.0878 94.072 31.3867 95.3398 32.3079L107.041 40.8093L102.572 54.5657C102.085 56.0564 102.084 57.6629 102.568 59.1544C103.052 60.646 103.995 61.9459 105.264 62.8675C106.533 63.7891 108.061 64.285 109.629 64.284C111.197 64.283 112.724 63.7851 113.991 62.8619L125.693 54.3605L137.395 62.8624C138.663 63.7835 140.19 64.2796 141.757 64.2796C143.324 64.2796 144.851 63.7835 146.119 62.8623C147.386 61.9412 148.33 60.6424 148.814 59.152C149.299 57.6616 149.299 56.0561 148.815 54.5657L144.345 40.8093L156.047 32.3074C157.317 31.3882 158.262 30.0894 158.747 28.5983C159.231 27.1072 159.229 25.5008 158.742 24.0107V24.0107ZM136.979 35.8341C136.265 36.3526 135.734 37.0839 135.461 37.9229C135.189 38.762 135.189 39.6658 135.461 40.5048L139.981 54.4143L128.147 45.8179C127.434 45.2999 126.575 45.0209 125.693 45.0209C124.812 45.0209 123.952 45.2999 123.239 45.8179L111.407 54.4143L115.926 40.5048C116.199 39.6658 116.199 38.762 115.926 37.9229C115.654 37.0839 115.122 36.3526 114.409 35.8341L102.577 27.2382H117.202C118.084 27.2383 118.944 26.959 119.657 26.4405C120.371 25.9219 120.902 25.1907 121.175 24.3517L125.693 10.4428L130.213 24.3522C130.485 25.1912 131.016 25.9224 131.73 26.441C132.444 26.9595 133.303 27.2388 134.186 27.2387H148.81L136.979 35.8341Z" fill="black"/>
<path d="M73.8581 83.5383C74.9228 83.5371 75.9722 83.2841 76.9205 82.8001C77.8689 82.3161 78.6893 81.6147 79.3149 80.7531C79.9406 79.8916 80.3536 78.8943 80.5203 77.8427C80.6871 76.7911 80.6028 75.715 80.2744 74.7022L76.9284 64.4051L85.6882 58.041C86.8409 57.2034 87.6988 56.0226 88.139 54.6675C88.5793 53.3125 88.5792 51.8528 88.1389 50.4978C87.6986 49.1427 86.8407 47.9619 85.688 47.1244C84.5354 46.287 83.1472 45.8359 81.7224 45.8359H70.8953L67.5493 35.5388C67.1089 34.1838 66.251 33.0029 65.0983 32.1654C63.9456 31.328 62.5574 30.877 61.1326 30.877C59.7079 30.877 58.3197 31.328 57.167 32.1654C56.0143 33.0029 55.1563 34.1838 54.716 35.5388L51.37 45.8364H40.5424C39.1174 45.8359 37.7288 46.2865 36.5757 47.1238C35.4226 47.961 34.5642 49.1419 34.1236 50.4971C33.683 51.8522 33.6827 53.3121 34.1229 54.6674C34.5631 56.0227 35.4211 57.2038 36.5739 58.0415L45.3338 64.4056L41.9888 74.7027C41.5485 76.0577 41.5485 77.5173 41.9887 78.8723C42.429 80.2273 43.2868 81.4081 44.4394 82.2456C45.592 83.0831 46.9801 83.5343 48.4048 83.5344C49.8295 83.5346 51.2177 83.0837 52.3705 82.2464L61.1303 75.8818L69.8901 82.2464C71.0428 83.0859 72.4321 83.5382 73.8581 83.5383V83.5383ZM58.6766 67.3386L51.4655 72.5806L54.2205 64.1028C54.4932 63.2636 54.4933 62.3596 54.2206 61.5205C53.9479 60.6813 53.4165 59.95 52.7025 59.4315L45.4914 54.1926H54.4053C55.2874 54.1926 56.1468 53.9134 56.8604 53.3949C57.5741 52.8765 58.1053 52.1455 58.378 51.3066L61.1324 42.8287L63.8873 51.3066C64.16 52.1455 64.6912 52.8765 65.4048 53.3949C66.1185 53.9134 66.9779 54.1926 67.86 54.1926H76.7733L69.5622 59.432C68.8485 59.9506 68.3172 60.6818 68.0446 61.5208C67.772 62.3599 67.7721 63.2637 68.0448 64.1028L70.7992 72.5806L63.5876 67.3407C62.8742 66.822 62.0148 66.5424 61.1327 66.542C60.2506 66.5416 59.391 66.8205 58.6772 67.3386H58.6766Z" fill="black"/>
<path d="M47.9268 100.141H37.0992L33.7532 89.844C33.313 88.4889 32.4551 87.3079 31.3025 86.4704C30.1498 85.6329 28.7616 85.1818 27.3368 85.1818C25.912 85.1818 24.5238 85.6329 23.3711 86.4704C22.2185 87.3079 21.3606 88.4889 20.9204 89.844L17.5739 100.142H6.74679C5.32202 100.142 3.93382 100.593 2.78116 101.43C1.6285 102.268 0.770539 103.448 0.330243 104.803C-0.110053 106.159 -0.110082 107.618 0.330161 108.973C0.770403 110.328 1.62832 111.509 2.78095 112.347L11.5408 118.711L8.19475 129.008C7.75437 130.363 7.75428 131.823 8.19451 133.178C8.63474 134.533 9.49268 135.714 10.6454 136.552C11.798 137.389 13.1863 137.841 14.6111 137.841C16.036 137.841 17.4242 137.39 18.577 136.552L27.3368 130.187L36.0966 136.552C37.2494 137.39 38.638 137.842 40.0634 137.842C41.4888 137.843 42.8776 137.392 44.0307 136.554C45.1838 135.716 46.042 134.534 46.482 133.179C46.9221 131.823 46.9216 130.363 46.4804 129.007L43.1349 118.71L51.8947 112.346C53.0475 111.508 53.9055 110.327 54.3457 108.972C54.7859 107.617 54.7857 106.157 54.345 104.802C53.9044 103.447 53.046 102.266 51.8929 101.428C50.7399 100.591 49.3513 100.141 47.9263 100.141H47.9268ZM35.7666 113.735C35.0527 114.253 34.5213 114.984 34.2486 115.824C33.9759 116.663 33.9759 117.567 34.2487 118.406L37.0036 126.886L29.792 121.644C29.0786 121.126 28.2195 120.847 27.3378 120.847C26.4562 120.847 25.5971 121.126 24.8837 121.644L17.67 126.886L20.4244 118.406C20.6971 117.567 20.6971 116.663 20.4245 115.824C20.152 114.985 19.6207 114.254 18.907 113.735L11.6959 108.496H20.6092C21.4913 108.496 22.3507 108.216 23.0643 107.698C23.778 107.18 24.3092 106.449 24.5819 105.61L27.3368 97.1318L30.0912 105.61C30.3639 106.449 30.8951 107.18 31.6087 107.698C32.3224 108.216 33.1818 108.496 34.0639 108.496H42.9777L35.7666 113.735Z" fill="black"/>
<path d="M244.261 100.141H233.434L230.088 89.8438C229.648 88.4887 228.79 87.3078 227.637 86.4703C226.484 85.6327 225.096 85.1816 223.671 85.1816C222.247 85.1816 220.858 85.6327 219.706 86.4703C218.553 87.3078 217.695 88.4887 217.255 89.8438L213.909 100.141H203.081C201.656 100.141 200.268 100.592 199.115 101.429C197.962 102.266 197.103 103.447 196.663 104.802C196.222 106.157 196.222 107.617 196.662 108.972C197.102 110.328 197.96 111.509 199.113 112.347L207.873 118.711L204.527 129.008C204.086 130.363 204.086 131.823 204.527 133.178C204.967 134.533 205.825 135.714 206.977 136.552C208.13 137.389 209.518 137.84 210.943 137.841C212.368 137.841 213.756 137.389 214.909 136.552L223.669 130.187L232.429 136.552C233.581 137.391 234.97 137.844 236.396 137.845C237.822 137.846 239.212 137.395 240.365 136.557C241.519 135.719 242.378 134.537 242.818 133.18C243.258 131.824 243.257 130.363 242.815 129.007L239.47 118.71L248.229 112.346C249.382 111.508 250.24 110.327 250.68 108.972C251.121 107.617 251.12 106.157 250.68 104.802C250.239 103.446 249.381 102.266 248.228 101.428C247.074 100.591 245.686 100.14 244.261 100.141H244.261ZM232.101 113.734C231.387 114.253 230.856 114.984 230.583 115.823C230.311 116.663 230.311 117.567 230.583 118.406L233.338 126.886L226.127 121.644C225.413 121.126 224.554 120.847 223.672 120.847C222.791 120.847 221.932 121.126 221.218 121.644L214.005 126.886L216.759 118.406C217.032 117.567 217.032 116.663 216.759 115.824C216.487 114.985 215.955 114.254 215.242 113.735L208.031 108.496H216.944C217.826 108.496 218.685 108.216 219.399 107.698C220.113 107.179 220.644 106.448 220.916 105.61L223.671 97.1317L226.426 105.61C226.699 106.448 227.23 107.179 227.943 107.698C228.657 108.216 229.516 108.496 230.398 108.496H239.312L232.101 113.734Z" fill="black"/>
<path d="M202.979 83.5386C204.044 83.5379 205.093 83.2853 206.042 82.8014C206.991 82.3176 207.811 81.6162 208.437 80.7546C209.063 79.8929 209.476 78.8955 209.643 77.8437C209.81 76.7919 209.726 75.7156 209.397 74.7026L206.052 64.4055L214.811 58.0413C215.964 57.2037 216.822 56.0226 217.262 54.6672C217.703 53.3119 217.702 51.8521 217.262 50.4969C216.821 49.1417 215.963 47.9609 214.81 47.1236C213.657 46.2864 212.268 45.8357 210.843 45.8362H200.016L196.67 35.5391C196.23 34.1841 195.372 33.0031 194.219 32.1656C193.066 31.328 191.678 30.877 190.253 30.877C188.829 30.877 187.44 31.328 186.288 32.1656C185.135 33.0031 184.277 34.1841 183.837 35.5391L180.491 45.8368H169.663C168.238 45.8362 166.85 46.2869 165.697 47.1242C164.544 47.9614 163.685 49.1423 163.245 50.4974C162.804 51.8526 162.804 53.3125 163.244 54.6678C163.684 56.0231 164.542 57.2042 165.695 58.0418L174.455 64.406L171.109 74.7036C170.668 76.0587 170.668 77.5184 171.109 78.8735C171.549 80.2286 172.407 81.4096 173.559 82.2471C174.712 83.0847 176.1 83.5358 177.525 83.5358C178.95 83.5359 180.338 83.0848 181.491 82.2473L190.251 75.8827L199.011 82.2473C200.163 83.0867 201.553 83.5388 202.979 83.5386V83.5386ZM187.798 67.339L180.587 72.581L183.341 64.101C183.614 63.262 183.614 62.3582 183.341 61.5191C183.069 60.6801 182.537 59.9488 181.824 59.4303L174.613 54.1909H183.526C184.408 54.1909 185.267 53.9116 185.981 53.3932C186.695 52.8748 187.226 52.1437 187.499 51.3049L190.253 42.827L193.008 51.3049C193.281 52.1437 193.812 52.8748 194.525 53.3932C195.239 53.9116 196.098 54.1909 196.981 54.1909H205.894L198.683 59.4298C197.969 59.9483 197.438 60.6796 197.165 61.5187C196.893 62.3579 196.893 63.2619 197.165 64.101L199.92 72.581L192.709 67.339C191.995 66.8205 191.136 66.5413 190.253 66.5413C189.371 66.5413 188.512 66.8205 187.798 67.339H187.798Z" fill="black"/>
<path d="M175.819 121.507H146.578V100.62C146.573 96.1904 144.81 91.9433 141.678 88.8108C138.545 85.6783 134.298 83.9162 129.868 83.9111H121.514C120.508 83.9112 119.537 84.2739 118.777 84.9327C118.017 85.5914 117.521 86.502 117.379 87.4974L115.843 98.2456C115.143 103.126 113.307 107.774 110.482 111.814C107.656 115.855 103.921 119.175 99.5776 121.507H67.2086C66.1007 121.507 65.0382 121.947 64.2548 122.731C63.4714 123.514 63.0312 124.576 63.0312 125.684V184.167C63.0312 185.275 63.4714 186.337 64.2548 187.121C65.0382 187.904 66.1007 188.344 67.2086 188.344H99.3624L102.097 190.168C108.482 194.433 115.99 196.706 123.669 196.699H171.642C174.061 196.7 176.43 196 178.46 194.684C180.491 193.368 182.097 191.492 183.084 189.283C184.071 187.074 184.397 184.626 184.023 182.236C183.649 179.845 182.59 177.614 180.975 175.812C183.034 173.517 184.173 170.541 184.173 167.458C184.173 164.374 183.034 161.398 180.975 159.103C182.722 157.155 183.815 154.708 184.099 152.106C184.384 149.505 183.845 146.88 182.559 144.6C184.843 143.141 186.592 140.981 187.545 138.444C188.498 135.907 188.602 133.129 187.843 130.528C187.084 127.926 185.501 125.641 183.334 124.014C181.166 122.388 178.529 121.508 175.819 121.507ZM71.3859 129.862H96.4498V179.989H71.3859V129.862ZM175.819 138.216H171.642C170.534 138.216 169.471 138.656 168.688 139.44C167.904 140.223 167.464 141.286 167.464 142.394C167.464 143.502 167.904 144.564 168.688 145.347C169.471 146.131 170.534 146.571 171.642 146.571C172.749 146.571 173.812 147.011 174.595 147.794C175.379 148.578 175.819 149.64 175.819 150.748C175.819 151.856 175.379 152.919 174.595 153.702C173.812 154.485 172.749 154.926 171.642 154.926C170.534 154.926 169.471 155.366 168.688 156.149C167.904 156.932 167.464 157.995 167.464 159.103C167.464 160.211 167.904 161.273 168.688 162.057C169.471 162.84 170.534 163.28 171.642 163.28C172.749 163.28 173.812 163.72 174.595 164.504C175.379 165.287 175.819 166.35 175.819 167.458C175.819 168.565 175.379 169.628 174.595 170.411C173.812 171.195 172.749 171.635 171.642 171.635C170.534 171.635 169.471 172.075 168.688 172.858C167.904 173.642 167.464 174.704 167.464 175.812C167.464 176.92 167.904 177.983 168.688 178.766C169.471 179.549 170.534 179.989 171.642 179.989C172.749 179.989 173.812 180.43 174.595 181.213C175.379 181.996 175.819 183.059 175.819 184.167C175.819 185.275 175.379 186.337 174.595 187.121C173.812 187.904 172.749 188.344 171.642 188.344H123.669C117.64 188.35 111.745 186.565 106.731 183.216L104.804 181.931V128.167C109.978 125.138 114.402 120.98 117.745 116.003C121.088 111.027 123.265 105.36 124.114 99.4247L125.137 92.2632H129.868C132.083 92.2658 134.207 93.1468 135.773 94.7131C137.339 96.2793 138.22 98.4028 138.223 100.618V125.682C138.223 126.79 138.663 127.852 139.447 128.636C140.23 129.419 141.292 129.859 142.4 129.859H175.819C176.927 129.859 177.989 130.299 178.773 131.083C179.556 131.866 179.996 132.928 179.996 134.036C179.996 135.144 179.556 136.207 178.773 136.99C177.989 137.774 176.927 138.214 175.819 138.214V138.216Z" fill="black"/>
</svg>
