<svg width="136" height="136" viewBox="0 0 136 136" fill="none" xmlns="http://www.w3.org/2000/svg">
<g clip-path="url(#clip0_372_454)">
<path d="M41.4201 135.889C28.9745 135.89 17.9372 126.664 13.7639 115.269C9.51324 103.662 13.3684 91.5098 22.9643 83.9045L71.5079 45.4113C81.791 37.2618 82.7807 23.454 74.7701 13.3175C66.7796 3.20599 53.0542 0.834698 42.7485 9.0018C33.2373 16.5553 22.7114 27.8034 9.63517 20.5201C2.88043 16.7574 -0.760311 9.64436 0.133538 1.95646C0.422013 -0.51949 4.39267 -0.172576 4.09144 2.41653C3.38699 8.47292 6.25421 14.0759 11.5743 17.039C22.6418 23.2038 32.2948 12.2159 40.2723 5.88036C52.2746 -3.63242 68.5339 -0.968938 77.8931 10.8426C87.3034 22.7185 85.963 39.0391 73.9833 48.5336L25.4397 87.0267C14.7204 95.5219 13.2318 109.853 21.1976 120.821C29.6465 132.456 44.9705 135.352 56.4354 126.266L92.1825 97.9354C100.909 91.0197 112.371 90.0884 122.096 95.5051C131.844 100.935 137.098 111.199 135.807 122.294C135.519 124.77 131.548 124.423 131.849 121.834C132.95 112.371 128.47 103.616 120.157 98.986C111.867 94.3688 102.096 95.1622 94.6571 101.058L58.91 129.389C53.4776 133.695 47.4828 135.889 41.4201 135.889V135.889Z" fill="#060606"/>
</g>
<defs>
<clipPath id="clip0_372_454">
<rect width="136" height="136" fill="white"/>
</clipPath>
</defs>
</svg>
