<svg width="55" height="55" viewBox="0 0 55 55" fill="none" xmlns="http://www.w3.org/2000/svg">
<path d="M54.873 54.7291V54.7268H54.8867V34.6549C54.8867 24.8355 52.7728 17.2715 41.2933 17.2715C35.7748 17.2715 32.0714 20.2998 30.5595 23.1708H30.3999V18.1882H19.5156V54.7268H30.8491V36.6343C30.8491 31.8705 31.7522 27.2641 37.6515 27.2641C43.4642 27.2641 43.5509 32.7006 43.5509 36.9398V54.7291H54.873Z" fill="black"/>
<path d="M1.05859 18.1904H12.4058V54.7291H1.05859V18.1904Z" fill="black"/>
<path d="M6.72833 0C3.10023 0 0.15625 2.94398 0.15625 6.57208C0.15625 10.2002 3.10023 13.2057 6.72833 13.2057C10.3564 13.2057 13.3004 10.2002 13.3004 6.57208C13.2981 2.94398 10.3541 0 6.72833 0V0Z" fill="black"/>
</svg>
