<svg width="122" height="122" viewBox="0 0 122 122" fill="none" xmlns="http://www.w3.org/2000/svg">
<g clip-path="url(#clip0_430_209)">
<path d="M63.8639 28.5392C71.7451 28.5392 78.134 22.1505 78.134 14.2696C78.134 6.38872 71.7451 0 63.8639 0C55.9827 0 49.5938 6.38872 49.5938 14.2696C49.5938 22.1505 55.9827 28.5392 63.8639 28.5392Z" fill="black"/>
<path d="M63.8619 122C68.5901 122 72.4231 118.167 72.4231 113.439C72.4231 108.711 68.5901 104.878 63.8619 104.878C59.1337 104.878 55.3008 108.711 55.3008 113.439C55.3008 118.167 59.1337 122 63.8619 122Z" fill="black"/>
<path d="M28.7972 41.6327C35.8908 41.6327 41.6412 35.8824 41.6412 28.7891C41.6412 21.6958 35.8908 15.9456 28.7972 15.9456C21.7036 15.9456 15.9531 21.6958 15.9531 28.7891C15.9531 35.8824 21.7036 41.6327 28.7972 41.6327Z" fill="black"/>
<path d="M98.9241 106.045C102.865 106.045 106.059 102.851 106.059 98.9103C106.059 94.9699 102.865 91.7755 98.9241 91.7755C94.9835 91.7755 91.7891 94.9699 91.7891 98.9103C91.7891 102.851 94.9835 106.045 98.9241 106.045Z" fill="black"/>
<path d="M14.2727 75.2696C20.5761 75.2696 25.686 70.1599 25.686 63.8567C25.686 57.5535 20.5761 52.4438 14.2727 52.4438C7.9693 52.4438 2.85938 57.5535 2.85938 63.8567C2.85938 70.1599 7.9693 75.2696 14.2727 75.2696Z" fill="black"/>
<path d="M113.447 69.5562C116.597 69.5562 119.151 67.0024 119.151 63.8521C119.151 60.7018 116.597 58.1479 113.447 58.1479C110.296 58.1479 107.742 60.7018 107.742 63.8521C107.742 67.0024 110.296 69.5562 113.447 69.5562Z" fill="black"/>
<path d="M21.736 91.8587C17.8328 95.7618 17.8328 102.077 21.736 105.98C25.6346 109.883 31.9594 109.883 35.858 105.98C39.7612 102.077 39.7612 95.7618 35.858 91.8587C31.9594 87.951 25.6392 87.914 21.736 91.8587Z" fill="black"/>
<path d="M98.9189 33.0674C101.282 33.0674 103.197 31.1521 103.197 28.7893C103.197 26.4266 101.282 24.5112 98.9189 24.5112C96.5561 24.5112 94.6406 26.4266 94.6406 28.7893C94.6406 31.1521 96.5561 33.0674 98.9189 33.0674Z" fill="black"/>
</g>
<defs>
<clipPath id="clip0_430_209">
<rect width="122" height="122" fill="white"/>
</clipPath>
</defs>
</svg>
