<svg width="168" height="168" viewBox="0 0 168 168" fill="none" xmlns="http://www.w3.org/2000/svg">
<g clip-path="url(#clip0_430_199)">
<path d="M84 49.2188C81.8244 49.2188 79.7379 48.3545 78.1995 46.8161C76.6611 45.2777 75.7969 43.1912 75.7969 41.0156V8.20312C75.7969 6.02752 76.6611 3.94102 78.1995 2.40264C79.7379 0.864255 81.8244 0 84 0C86.1756 0 88.2621 0.864255 89.8005 2.40264C91.3389 3.94102 92.2031 6.02752 92.2031 8.20312V41.0156C92.2031 43.1912 91.3389 45.2777 89.8005 46.8161C88.2621 48.3545 86.1756 49.2187 84 49.2188V49.2188Z" fill="black"/>
<path d="M84 168C81.8244 168 79.7379 167.136 78.1995 165.597C76.6611 164.059 75.7969 161.972 75.7969 159.797V126.984C75.7969 124.809 76.6611 122.722 78.1995 121.184C79.7379 119.646 81.8244 118.781 84 118.781C86.1756 118.781 88.2621 119.646 89.8005 121.184C91.3389 122.722 92.2031 124.809 92.2031 126.984V159.797C92.2031 161.972 91.3389 164.059 89.8005 165.597C88.2621 167.136 86.1756 168 84 168Z" fill="black"/>
<path d="M41.0156 92.2031H8.20312C6.02752 92.2031 3.94102 91.3389 2.40264 89.8005C0.864255 88.2621 0 86.1756 0 84C0 81.8244 0.864255 79.7379 2.40264 78.1995C3.94102 76.6611 6.02752 75.7969 8.20312 75.7969H41.0156C43.1912 75.7969 45.2777 76.6611 46.8161 78.1995C48.3545 79.7379 49.2187 81.8244 49.2188 84C49.2187 86.1756 48.3545 88.2621 46.8161 89.8005C45.2777 91.3389 43.1912 92.2031 41.0156 92.2031V92.2031Z" fill="black"/>
<path d="M159.797 92.2031H126.984C124.809 92.2031 122.722 91.3389 121.184 89.8005C119.646 88.2621 118.781 86.1756 118.781 84C118.781 81.8244 119.646 79.7379 121.184 78.1995C122.722 76.6611 124.809 75.7969 126.984 75.7969H159.797C161.972 75.7969 164.059 76.6611 165.597 78.1995C167.136 79.7379 168 81.8244 168 84C168 86.1756 167.136 88.2621 165.597 89.8005C164.059 91.3389 161.972 92.2031 159.797 92.2031Z" fill="black"/>
<path d="M114.391 61.809C112.77 61.806 111.186 61.3228 109.839 60.4202C108.493 59.5176 107.443 58.2361 106.825 56.7377C106.206 55.2392 106.044 53.591 106.362 52.0011C106.679 50.4111 107.46 48.9509 108.607 47.8046L131.792 24.6094C132.545 23.8108 133.45 23.1714 134.455 22.7291C135.459 22.2867 136.542 22.0505 137.64 22.0343C138.737 22.0182 139.827 22.2224 140.844 22.635C141.861 23.0475 142.785 23.66 143.561 24.4361C144.337 25.2122 144.95 26.1362 145.362 27.1533C145.775 28.1704 145.979 29.2599 145.963 30.3574C145.947 31.4549 145.711 32.5379 145.268 33.5424C144.826 34.5469 144.186 35.4525 143.388 36.2054L120.186 59.4071C119.426 60.169 118.522 60.7734 117.528 61.1855C116.534 61.5977 115.468 61.8096 114.391 61.809Z" fill="black"/>
<path d="M30.4012 145.799C28.7791 145.798 27.1938 145.316 25.8455 144.414C24.4972 143.512 23.4466 142.231 22.8264 140.732C22.2062 139.233 22.0443 137.584 22.3612 135.993C22.678 134.403 23.4594 132.941 24.6065 131.795L47.8017 108.609C48.5635 107.847 49.4679 107.243 50.4633 106.831C51.4587 106.419 52.5255 106.206 53.6029 106.206C54.6803 106.206 55.7472 106.419 56.7426 106.831C57.7379 107.243 58.6424 107.847 59.4042 108.609C60.166 109.371 60.7703 110.276 61.1826 111.271C61.5949 112.266 61.8071 113.333 61.8071 114.411C61.8071 115.488 61.5949 116.555 61.1826 117.55C60.7703 118.546 60.166 119.45 59.4042 120.212L36.2025 143.391C35.4418 144.154 34.5377 144.76 33.5421 145.173C32.5466 145.587 31.4792 145.799 30.4012 145.799V145.799Z" fill="black"/>
<path d="M53.6076 61.8089C52.5301 61.8104 51.4629 61.5989 50.4673 61.1867C49.4718 60.7746 48.5674 60.1697 47.8063 59.407L24.6112 36.2053C23.8125 35.4524 23.1731 34.5469 22.7308 33.5424C22.2885 32.5379 22.0522 31.4548 22.036 30.3573C22.0199 29.2599 22.2241 28.1703 22.6367 27.1532C23.0492 26.1361 23.6617 25.2121 24.4378 24.436C25.2139 23.6599 26.1379 23.0474 27.155 22.6349C28.1721 22.2223 29.2616 22.0181 30.3591 22.0343C31.4566 22.0504 32.5396 22.2867 33.5441 22.729C34.5487 23.1713 35.4542 23.8108 36.2071 24.6094L59.4088 47.8111C60.5564 48.9583 61.3379 50.4201 61.6545 52.0116C61.9712 53.603 61.8087 55.2526 61.1877 56.7518C60.5667 58.2509 59.5151 59.5321 58.1658 60.4335C56.8165 61.3348 55.2302 61.8158 53.6076 61.8155V61.8089Z" fill="black"/>
<path d="M137.595 145.799C136.517 145.799 135.45 145.587 134.454 145.174C133.459 144.76 132.555 144.154 131.794 143.391L108.609 120.195C107.198 118.634 106.442 116.591 106.495 114.488C106.548 112.385 107.407 110.383 108.895 108.896C110.382 107.408 112.385 106.549 114.488 106.496C116.591 106.442 118.634 107.199 120.195 108.609L143.39 131.795C144.537 132.942 145.319 134.404 145.636 135.995C145.952 137.587 145.79 139.236 145.169 140.735C144.548 142.234 143.496 143.516 142.147 144.417C140.798 145.318 139.211 145.799 137.589 145.799H137.595Z" fill="black"/>
</g>
<defs>
<clipPath id="clip0_430_199">
<rect width="168" height="168" fill="white"/>
</clipPath>
</defs>
</svg>
