<svg width="123" height="123" viewBox="0 0 123 123" fill="none" xmlns="http://www.w3.org/2000/svg">
<g clip-path="url(#clip0_430_182)">
<path d="M61.5022 26.2514C59.0977 26.2514 57.1484 24.3023 57.1484 21.8976V4.35377C57.1484 1.94902 59.0977 0 61.5022 0C63.9067 0 65.856 1.94902 65.856 4.35377V21.8978C65.856 24.3023 63.9067 26.2514 61.5022 26.2514V26.2514Z" fill="black"/>
<path opacity="0.52" d="M61.5022 123C59.0977 123 57.1484 121.051 57.1484 118.646V101.102C57.1484 98.6973 59.0977 96.7483 61.5022 96.7483C63.9067 96.7483 65.856 98.6973 65.856 101.102V118.646C65.856 121.051 63.9067 123 61.5022 123Z" fill="black"/>
<path opacity="0.58" d="M83.0955 118.763C81.3788 118.763 79.7519 117.74 79.0632 116.054L72.4334 99.8106C71.5246 97.5843 72.5929 95.0429 74.8189 94.1346C77.0435 93.2248 79.5861 94.2936 80.495 96.5196L87.1247 112.763C88.0335 114.989 86.9652 117.53 84.7392 118.439C84.2006 118.659 83.6435 118.763 83.0955 118.763Z" fill="black"/>
<path opacity="0.94" d="M76.4627 29.1892C75.9147 29.1892 75.3576 29.0854 74.819 28.8651C72.5927 27.957 71.5246 25.4154 72.4334 23.1891L79.0632 6.94615C79.9718 4.7199 82.513 3.64869 84.7392 4.56086C86.9655 5.46895 88.0335 8.01063 87.1247 10.2369L80.495 26.4798C79.8062 28.1673 78.1794 29.1892 76.4627 29.1892Z" fill="black"/>
<path opacity="0.46" d="M39.9002 118.763C39.3522 118.763 38.7951 118.659 38.2565 118.439C36.0302 117.531 34.9621 114.989 35.8709 112.763L42.5007 96.5197C43.4095 94.2934 45.9505 93.2246 48.1767 94.1346C50.403 95.0427 51.471 97.5844 50.5622 99.8107L43.9325 116.054C43.2437 117.741 41.6169 118.763 39.9002 118.763Z" fill="black"/>
<path opacity="0.36" d="M8.59079 87.4503C6.87407 87.4503 5.2472 86.4291 4.55845 84.7412C3.64965 82.515 4.71773 79.9735 6.94374 79.0652L23.1865 72.4352C25.4125 71.5238 27.9539 72.5933 28.8627 74.8202C29.7715 77.0465 28.7034 79.5879 26.4774 80.4963L10.2347 87.1263C9.6961 87.3466 9.13876 87.4503 8.59079 87.4503V87.4503Z" fill="black"/>
<path opacity="0.82" d="M98.1689 50.8888C96.4522 50.8888 94.8253 49.8675 94.1366 48.1796C93.2278 45.9534 94.2958 43.4119 96.5219 42.5036L112.765 35.8736C114.99 34.9629 117.532 36.0317 118.441 38.2589C119.35 40.4852 118.282 43.0266 116.056 43.9349L99.8128 50.5649C99.2742 50.785 98.7169 50.8888 98.1689 50.8888V50.8888Z" fill="black"/>
<path opacity="0.24" d="M24.8304 50.8889C24.2824 50.8889 23.7253 50.7851 23.1865 50.5648L6.94377 43.9348C4.71752 43.0267 3.64968 40.485 4.55848 38.2588C5.46705 36.0325 8.00777 34.9647 10.2347 35.8735L26.4775 42.5035C28.7037 43.4116 29.7716 45.9532 28.8628 48.1795C28.174 49.8667 26.5469 50.8889 24.8304 50.8889Z" fill="black"/>
<path opacity="0.7" d="M114.409 87.4504C113.861 87.4504 113.303 87.3466 112.765 87.1263L96.5219 80.4964C94.2956 79.5883 93.2278 77.0466 94.1366 74.8203C95.0454 72.5958 97.5861 71.527 99.8129 72.4353L116.056 79.0653C118.282 79.9734 119.35 82.515 118.441 84.7413C117.752 86.4282 116.125 87.4504 114.409 87.4504V87.4504Z" fill="black"/>
<path opacity="0.88" d="M89.502 37.8506C88.3878 37.8506 87.2739 37.4254 86.4237 36.5752C84.7235 34.8753 84.7233 32.1186 86.4234 30.4187L98.8286 18.0133C100.529 16.3126 103.285 16.3126 104.986 18.0133C106.686 19.7132 106.686 22.4698 104.986 24.1697L92.5806 36.5752C91.7307 37.4254 90.6162 37.8506 89.502 37.8506Z" fill="black"/>
<path opacity="0.4" d="M21.0919 106.262C19.9777 106.262 18.8637 105.837 18.0135 104.987C16.3134 103.287 16.3131 100.53 18.0133 98.8303L30.4185 86.4249C32.1186 84.7243 34.8753 84.7243 36.5755 86.4249C38.2756 88.1248 38.2758 90.8815 36.5757 92.5814L24.1705 104.987C23.3203 105.837 22.2058 106.262 21.0919 106.262V106.262Z" fill="black"/>
<path opacity="0.18" d="M33.4972 37.8506C32.3827 37.8506 31.269 37.4253 30.4186 36.5752L18.0134 24.1697C16.3132 22.4698 16.3132 19.7131 18.0136 18.0132C19.7135 16.3133 22.4702 16.3133 24.1706 18.0132L36.5758 30.4187C38.2759 32.1186 38.2759 34.8753 36.5755 36.5752C35.7256 37.4253 34.6111 37.8506 33.4972 37.8506Z" fill="black"/>
<path opacity="0.64" d="M101.907 106.262C100.793 106.262 99.6791 105.837 98.8286 104.987L86.4234 92.5813C84.7233 90.8814 84.7235 88.1247 86.4237 86.4248C88.1238 84.7249 90.8805 84.7249 92.5806 86.4248L104.986 98.8303C106.686 100.53 106.686 103.287 104.986 104.987C104.136 105.837 103.021 106.262 101.907 106.262Z" fill="black"/>
<path opacity="0.3" d="M21.8971 65.8538H4.35377C1.94926 65.8538 0 63.9048 0 61.5C0 59.0953 1.94926 57.1462 4.35377 57.1462H21.8971C24.3016 57.1462 26.2509 59.0953 26.2509 61.5C26.2509 63.9048 24.3016 65.8538 21.8971 65.8538Z" fill="black"/>
<path opacity="0.76" d="M118.644 65.8538H101.1C98.6954 65.8538 96.7461 63.9048 96.7461 61.5C96.7461 59.0953 98.6954 57.1462 101.1 57.1462H118.644C121.048 57.1462 122.997 59.0953 122.997 61.5C122.997 63.9048 121.048 65.8538 118.644 65.8538Z" fill="black"/>
</g>
<defs>
<clipPath id="clip0_430_182">
<rect width="123" height="123" fill="white"/>
</clipPath>
</defs>
</svg>
