<svg width="35" height="51" viewBox="0 0 35 51" fill="none" xmlns="http://www.w3.org/2000/svg">
<path d="M16.5257 49.3965C16.7922 49.7963 17.241 50.0364 17.7214 50.0364C18.2019 50.0364 18.6506 49.7964 18.9172 49.3965C22.3181 44.2951 27.3275 37.9949 30.8182 31.5874C33.6094 26.4641 34.9663 22.0946 34.9663 18.2292C34.9663 8.72042 27.2302 0.984375 17.7214 0.984375C8.21261 0.984375 0.476562 8.72042 0.476562 18.2292C0.476562 22.0946 1.83345 26.4641 4.62462 31.5874C8.11278 37.99 13.1317 44.3057 16.5257 49.3965ZM17.7214 3.85852C25.6454 3.85852 32.0922 10.3052 32.0922 18.2292C32.0922 21.602 30.8499 25.5217 28.2944 30.2124C25.2854 35.7355 20.9916 41.338 17.7214 46.048C14.4517 41.3387 10.1576 35.7358 7.14851 30.2124C4.59301 25.5217 3.35071 21.602 3.35071 18.2292C3.35071 10.3052 9.79741 3.85852 17.7214 3.85852Z" fill="black"/>
<path d="M17.7201 26.8518C22.4745 26.8518 26.3425 22.9838 26.3425 18.2294C26.3425 13.475 22.4745 9.60693 17.7201 9.60693C12.9657 9.60693 9.09766 13.475 9.09766 18.2294C9.09766 22.9838 12.9657 26.8518 17.7201 26.8518ZM17.7201 12.4811C20.8897 12.4811 23.4684 15.0598 23.4684 18.2294C23.4684 21.399 20.8897 23.9777 17.7201 23.9777C14.5505 23.9777 11.9718 21.399 11.9718 18.2294C11.9718 15.0598 14.5505 12.4811 17.7201 12.4811Z" fill="black"/>
</svg>
