<svg width="201" height="201" viewBox="0 0 201 201" fill="none" xmlns="http://www.w3.org/2000/svg">
<path d="M100.5 0C65.1817 0 35.7246 28.4501 35.7246 64.7754C35.7246 78.5949 39.8773 90.918 47.847 102.465L95.5429 176.89C97.8568 180.508 103.148 180.501 105.457 176.89L153.36 102.212C161.158 91.188 165.275 78.2436 165.275 64.7754C165.275 29.0582 136.217 0 100.5 0ZM100.5 94.2188C84.2657 94.2188 71.0566 81.0097 71.0566 64.7754C71.0566 48.5411 84.2657 35.332 100.5 35.332C116.734 35.332 129.943 48.5411 129.943 64.7754C129.943 81.0097 116.734 94.2188 100.5 94.2188Z" fill="black"/>
<path d="M146.535 135.32L116.883 181.678C109.208 193.645 91.749 193.605 84.1106 181.689L54.4105 135.332C28.279 141.374 12.1699 152.442 12.1699 165.668C12.1699 188.619 57.6807 201 100.5 201C143.319 201 188.83 188.619 188.83 165.668C188.83 152.432 172.699 141.358 146.535 135.32Z" fill="black"/>
</svg>
