<svg width="176" height="240" viewBox="0 0 176 240" fill="none" xmlns="http://www.w3.org/2000/svg">
<path d="M88 0.9375C64.8433 0.9375 42.635 10.1365 26.2607 26.5107C9.88647 42.885 0.6875 65.0933 0.6875 88.25C0.6875 134.367 78.475 231.919 81.8088 236.126C82.5525 237.053 83.495 237.801 84.5665 238.315C85.6381 238.829 86.8115 239.096 88 239.096C89.1885 239.096 90.3619 238.829 91.4335 238.315C92.505 237.801 93.4475 237.053 94.1913 236.126C97.525 231.919 175.312 134.367 175.312 88.25C175.312 65.0933 166.114 42.885 149.739 26.5107C133.365 10.1365 111.157 0.9375 88 0.9375V0.9375ZM88 112.062C81.7204 112.062 75.5819 110.2 70.3606 106.712C65.1394 103.223 61.0699 98.2643 58.6668 92.4627C56.2637 86.6611 55.635 80.2773 56.8601 74.1184C58.0851 67.9595 61.109 62.3022 65.5494 57.8619C69.9897 53.4215 75.647 50.3976 81.8059 49.1726C87.9648 47.9475 94.3486 48.5762 100.15 50.9793C105.952 53.3824 110.91 57.4519 114.399 62.6731C117.888 67.8944 119.75 74.0329 119.75 80.3125C119.75 88.7331 116.405 96.8089 110.451 102.763C104.496 108.717 96.4206 112.062 88 112.062Z" fill="black"/>
</svg>
