<svg width="146" height="126" viewBox="0 0 146 126" fill="none" xmlns="http://www.w3.org/2000/svg">
<path d="M73 111.477C74.5749 111.477 75.8516 110.2 75.8516 108.625C75.8516 107.05 74.5749 105.773 73 105.773C71.4251 105.773 70.1484 107.05 70.1484 108.625C70.1484 110.2 71.4251 111.477 73 111.477Z" fill="black"/>
<path d="M126.039 77.2578C127.614 77.2578 128.891 75.9811 128.891 74.4062C128.891 72.8314 127.614 71.5547 126.039 71.5547C124.464 71.5547 123.188 72.8314 123.188 74.4062C123.188 75.9811 124.464 77.2578 126.039 77.2578Z" fill="black"/>
<path d="M19.9609 77.2578C21.5358 77.2578 22.8125 75.9811 22.8125 74.4062C22.8125 72.8314 21.5358 71.5547 19.9609 71.5547C18.3861 71.5547 17.1094 72.8314 17.1094 74.4062C17.1094 75.9811 18.3861 77.2578 19.9609 77.2578Z" fill="black"/>
<path d="M126.04 57.2969C116.606 57.2969 108.931 64.9721 108.931 74.4062C108.931 76.8013 109.428 79.082 110.32 81.1536L108.68 82.211C108.041 82.6242 107.599 83.2604 107.439 84.0046C107.28 84.7517 107.419 85.5131 107.83 86.1515C108.358 86.9699 109.256 87.4576 110.228 87.4576C110.779 87.4576 111.312 87.3007 111.774 87.0042L113.418 85.9425C116.548 89.365 121.047 91.5156 126.04 91.5156C135.474 91.5156 143.15 83.8404 143.15 74.4062C143.15 64.9721 135.474 57.2969 126.04 57.2969ZM126.04 85.8125C119.751 85.8125 114.634 80.6957 114.634 74.4062C114.634 68.1168 119.751 63 126.04 63C132.33 63 137.446 68.1168 137.446 74.4062C137.446 80.6957 132.33 85.8125 126.04 85.8125Z" fill="black"/>
<path d="M73 34.4844C61.9935 34.4844 53.0391 43.4389 53.0391 54.4453C53.0391 64.6907 69.0517 82.8306 70.8776 84.8655C71.4185 85.468 72.1902 85.8125 73 85.8125C73.8098 85.8125 74.5815 85.468 75.1224 84.8655C76.9483 82.8306 92.9609 64.6907 92.9609 54.4453C92.9609 43.4389 84.0065 34.4844 73 34.4844V34.4844ZM73 78.6117C66.7725 71.223 58.7422 59.8812 58.7422 54.4453C58.7422 46.5836 65.1382 40.1875 73 40.1875C80.8618 40.1875 87.2578 46.5836 87.2578 54.4453C87.2578 59.8812 79.2275 71.223 73 78.6117Z" fill="black"/>
<path d="M73 45.8906C68.2829 45.8906 64.4453 49.7283 64.4453 54.4453C64.4453 59.1624 68.2829 63 73 63C77.7171 63 81.5547 59.1624 81.5547 54.4453C81.5547 49.7283 77.7171 45.8906 73 45.8906ZM73 57.2969C71.4276 57.2969 70.1484 56.0177 70.1484 54.4453C70.1484 52.873 71.4276 51.5938 73 51.5938C74.5724 51.5938 75.8516 52.873 75.8516 54.4453C75.8516 56.0177 74.5724 57.2969 73 57.2969Z" fill="black"/>
<path d="M126.039 51.5938C126.849 51.5938 127.621 51.2493 128.161 50.6467C129.987 48.6119 146 30.4719 146 20.2266C146 9.2201 137.046 0.265625 126.039 0.265625C115.033 0.265625 106.078 9.2201 106.078 20.2266C106.078 30.4719 122.091 48.6119 123.917 50.6467C124.458 51.2493 125.229 51.5938 126.039 51.5938ZM126.039 5.96875C133.901 5.96875 140.297 12.3648 140.297 20.2266C140.297 25.6625 132.267 37.0043 126.039 44.393C119.812 37.0043 111.781 25.6625 111.781 20.2266C111.781 12.3648 118.177 5.96875 126.039 5.96875V5.96875Z" fill="black"/>
<path d="M134.594 20.2266C134.594 15.5095 130.756 11.6719 126.039 11.6719C121.322 11.6719 117.484 15.5095 117.484 20.2266C117.484 24.9436 121.322 28.7812 126.039 28.7812C130.756 28.7812 134.594 24.9436 134.594 20.2266ZM123.188 20.2266C123.188 18.6542 124.467 17.375 126.039 17.375C127.611 17.375 128.891 18.6542 128.891 20.2266C128.891 21.7989 127.611 23.0781 126.039 23.0781C124.467 23.0781 123.188 21.7989 123.188 20.2266Z" fill="black"/>
<path d="M19.9609 0.265625C8.95448 0.265625 0 9.2201 0 20.2266C0 30.4719 16.0127 48.6119 17.8385 50.6467C18.3795 51.2493 19.1511 51.5938 19.9609 51.5938C20.7708 51.5938 21.5424 51.2493 22.0834 50.6467C23.9092 48.6119 39.9219 30.4719 39.9219 20.2266C39.9219 9.2201 30.9674 0.265625 19.9609 0.265625ZM19.9609 44.393C13.7334 37.0043 5.70312 25.6625 5.70312 20.2266C5.70312 12.3648 12.0992 5.96875 19.9609 5.96875C27.8227 5.96875 34.2188 12.3648 34.2188 20.2266C34.2188 25.6625 26.1885 37.0043 19.9609 44.393Z" fill="black"/>
<path d="M19.9609 11.6719C15.2439 11.6719 11.4062 15.5095 11.4062 20.2266C11.4062 24.9436 15.2439 28.7812 19.9609 28.7812C24.678 28.7812 28.5156 24.9436 28.5156 20.2266C28.5156 15.5095 24.678 11.6719 19.9609 11.6719ZM19.9609 23.0781C18.3886 23.0781 17.1094 21.7989 17.1094 20.2266C17.1094 18.6542 18.3886 17.375 19.9609 17.375C21.5333 17.375 22.8125 18.6542 22.8125 20.2266C22.8125 21.7989 21.5333 23.0781 19.9609 23.0781Z" fill="black"/>
<path d="M37.3213 82.211L35.681 81.1536C36.5736 79.0822 37.0703 76.8013 37.0703 74.4062C37.0703 64.9721 29.395 57.2969 19.9609 57.2969C10.5268 57.2969 2.85156 64.9721 2.85156 74.4062C2.85156 83.8404 10.5268 91.5156 19.9609 91.5156C24.9537 91.5156 29.4529 89.365 32.5834 85.9428L34.227 87.0045C34.689 87.301 35.2222 87.4578 35.7697 87.4578H35.7726C36.7449 87.4578 37.6432 86.9702 38.1707 86.1518C39.0208 84.8316 38.6415 83.0633 37.3213 82.211ZM19.9609 85.8125C13.6715 85.8125 8.55469 80.6957 8.55469 74.4062C8.55469 68.1168 13.6715 63 19.9609 63C26.2503 63 31.3672 68.1168 31.3672 74.4062C31.3672 80.6957 26.2503 85.8125 19.9609 85.8125Z" fill="black"/>
<path d="M46.5547 94.416C48.1296 94.416 49.4062 93.1393 49.4062 91.5645C49.4062 89.9896 48.1296 88.7129 46.5547 88.7129C44.9798 88.7129 43.7031 89.9896 43.7031 91.5645C43.7031 93.1393 44.9798 94.416 46.5547 94.416Z" fill="black"/>
<path d="M88.6584 95.6701C88.1109 95.6701 87.5776 95.8272 87.1157 96.1238L85.6229 97.0881C82.4922 93.666 77.993 91.5156 73.0004 91.5156C68.0079 91.5156 63.5087 93.666 60.378 97.0881L58.8852 96.1238C58.4232 95.8272 57.89 95.6701 57.3425 95.6701C56.3673 95.6701 55.4719 96.158 54.9415 96.9732C54.0917 98.2966 54.471 100.064 55.7941 100.917L57.2809 101.876C56.3878 103.948 55.8911 106.229 55.8911 108.625C55.8911 118.059 63.5663 125.734 73.0004 125.734C82.4345 125.734 90.1098 118.059 90.1098 108.625C90.1098 106.229 89.6131 103.948 88.72 101.876L90.2068 100.917C91.5299 100.065 91.9092 98.2969 91.0565 96.9735C90.529 96.158 89.6336 95.6701 88.6584 95.6701V95.6701ZM73.0004 120.031C66.711 120.031 61.5942 114.914 61.5942 108.625C61.5942 102.336 66.711 97.2188 73.0004 97.2188C79.2898 97.2188 84.4067 102.336 84.4067 108.625C84.4067 114.914 79.2898 120.031 73.0004 120.031Z" fill="black"/>
<path d="M99.4453 94.416C101.02 94.416 102.297 93.1393 102.297 91.5645C102.297 89.9896 101.02 88.7129 99.4453 88.7129C97.8704 88.7129 96.5938 89.9896 96.5938 91.5645C96.5938 93.1393 97.8704 94.416 99.4453 94.416Z" fill="black"/>
</svg>
