<svg width="161" height="161" viewBox="0 0 161 161" fill="none" xmlns="http://www.w3.org/2000/svg">
<path d="M29.5167 150.267C30.3303 150.267 31.1007 149.896 31.6091 149.26C32.7372 147.865 59.0333 114.868 59.0333 99.2833C59.0333 82.9815 45.8184 69.7666 29.5167 69.7666C13.2149 69.7666 0 82.9815 0 99.2833C0 114.868 26.2961 147.852 27.4242 149.26C27.9326 149.896 28.703 150.267 29.5167 150.267ZM29.5167 75.1333C42.8482 75.1477 53.6523 85.9518 53.6667 99.2833C53.6667 109.694 37.8051 132.459 29.5167 143.233C21.2282 132.463 5.36667 109.7 5.36667 99.2833C5.38108 85.9518 16.1852 75.1477 29.5167 75.1333Z" fill="black"/>
<path d="M40.2479 96.5995C40.2479 90.6721 35.442 85.8662 29.5146 85.8662C23.5871 85.8662 18.7812 90.6721 18.7812 96.5995C18.7812 102.527 23.5871 107.333 29.5146 107.333C35.442 107.333 40.2479 102.527 40.2479 96.5995ZM24.1479 96.5995C24.1479 93.6358 26.5509 91.2329 29.5146 91.2329C32.4783 91.2329 34.8813 93.6358 34.8813 96.5995C34.8813 99.5633 32.4783 101.966 29.5146 101.966C26.5509 101.966 24.1479 99.5633 24.1479 96.5995Z" fill="black"/>
<path d="M139.533 56.35C140.315 56.35 141.057 56.0093 141.567 55.4158C143.558 53.1059 161 32.5171 161 21.4667C161 9.61047 151.389 0 139.533 0C127.677 0 118.066 9.61047 118.066 21.4667C118.066 32.5171 135.508 53.1059 137.5 55.4158C138.009 56.0093 138.751 56.35 139.533 56.35ZM139.533 5.36667C148.422 5.37584 155.624 12.5781 155.633 21.4667C155.633 28.2667 145.388 42.2782 139.533 49.4779C133.675 42.2782 123.433 28.2798 123.433 21.4667C123.442 12.5781 130.645 5.37584 139.533 5.36667Z" fill="black"/>
<path d="M147.584 18.7834C147.584 14.3378 143.98 10.7334 139.534 10.7334C135.089 10.7334 131.484 14.3378 131.484 18.7834C131.484 23.229 135.089 26.8334 139.534 26.8334C143.98 26.8334 147.584 23.229 147.584 18.7834ZM136.851 18.7834C136.851 17.3015 138.053 16.1001 139.534 16.1001C141.016 16.1001 142.218 17.3015 142.218 18.7834C142.218 20.2653 141.016 21.4667 139.534 21.4667C138.053 21.4667 136.851 20.2653 136.851 18.7834Z" fill="black"/>
<path d="M136.847 67.0835H139.531C141.013 67.0835 142.214 65.882 142.214 64.4001C142.214 62.9183 141.013 61.7168 139.531 61.7168H136.847C135.366 61.7168 134.164 62.9183 134.164 64.4001C134.164 65.882 135.366 67.0835 136.847 67.0835Z" fill="black"/>
<path d="M101.966 83.1831H107.392C108.874 83.1831 110.075 81.9816 110.075 80.4997C110.075 79.0179 108.874 77.8164 107.392 77.8164H101.923C101.214 77.8177 100.534 78.102 100.035 78.6052C99.5356 79.1083 99.2566 79.7909 99.2618 80.4997C99.271 81.9855 100.48 83.1844 101.966 83.1831V83.1831Z" fill="black"/>
<path d="M132.047 80.4997C132.047 81.9816 133.248 83.1831 134.73 83.1831H140.196C141.678 83.1831 142.88 81.9816 142.88 80.4997C142.88 79.0179 141.678 77.8164 140.196 77.8164H134.73C133.248 77.8164 132.047 79.0179 132.047 80.4997Z" fill="black"/>
<path d="M120.449 67.0835H125.917C127.398 67.0835 128.6 65.882 128.6 64.4001C128.6 62.9183 127.398 61.7168 125.917 61.7168H120.449C118.966 61.7168 117.766 62.9183 117.766 64.4001C117.766 65.882 118.966 67.0835 120.449 67.0835Z" fill="black"/>
<path d="M48.8788 155.634H43.4099C41.928 155.634 40.7266 156.835 40.7266 158.317C40.7266 159.799 41.928 161 43.4099 161H48.8788C50.3606 161 51.5621 159.799 51.5621 158.317C51.5621 156.835 50.3606 155.634 48.8788 155.634Z" fill="black"/>
<path d="M94.0871 76.7969C94.2745 76.7969 94.4605 76.7772 94.6427 76.7379C96.0918 76.4326 97.0194 75.0123 96.7167 73.5632C96.6407 73.1964 96.6027 72.8243 96.6014 72.4495C96.6001 71.6005 96.8006 70.7646 97.1858 70.0073C97.8579 68.6866 97.3325 67.0711 96.0105 66.3989C94.6898 65.7268 93.0743 66.2522 92.4022 67.5742C91.2898 69.7583 90.9596 72.2596 91.4654 74.6586C91.7235 75.9007 92.8175 76.7942 94.0871 76.7969V76.7969Z" fill="black"/>
<path d="M118.336 83.1831H123.805C125.286 83.1831 126.488 81.9816 126.488 80.4997C126.488 79.0179 125.286 77.8164 123.805 77.8164H118.336C116.854 77.8164 115.652 79.0179 115.652 80.4997C115.652 81.9816 116.854 83.1831 118.336 83.1831Z" fill="black"/>
<path d="M104.043 67.0835H109.512C110.993 67.0835 112.195 65.882 112.195 64.4001C112.195 62.9183 110.993 61.7168 109.512 61.7168H104.043C102.561 61.7168 101.359 62.9183 101.359 64.4001C101.359 65.882 102.561 67.0835 104.043 67.0835Z" fill="black"/>
<path d="M77.5269 113.712C77.7392 113.767 77.9593 113.793 78.1781 113.793C79.4097 113.79 80.4815 112.952 80.7789 111.758C81.1261 110.379 81.7799 109.094 82.6918 108.002C83.3365 107.271 83.533 106.249 83.2081 105.332C82.8831 104.413 82.0852 103.744 81.1248 103.581C80.1657 103.42 79.1922 103.791 78.5843 104.551C77.147 106.266 76.1171 108.283 75.5734 110.454C75.3991 111.145 75.5079 111.877 75.8748 112.488C76.2403 113.1 76.8351 113.54 77.5269 113.712V113.712Z" fill="black"/>
<path d="M130.538 155.52C129.962 155.596 129.381 155.634 128.799 155.633H125.422C123.938 155.633 122.738 156.835 122.738 158.316C122.738 159.798 123.938 161 125.422 161H128.799C129.606 161 130.414 160.947 131.214 160.844C132.684 160.654 133.722 159.308 133.533 157.838C133.343 156.368 131.998 155.33 130.528 155.52H130.538Z" fill="black"/>
<path d="M134.278 124.238C132.502 123.701 130.656 123.43 128.801 123.434H128.097C126.616 123.434 125.414 124.635 125.414 126.117C125.414 127.599 126.616 128.8 128.097 128.8H128.801C130.127 128.8 131.446 128.996 132.716 129.379C132.969 129.458 133.232 129.497 133.497 129.497C134.827 129.499 135.957 128.525 136.154 127.21C136.349 125.893 135.551 124.632 134.278 124.247V124.238Z" fill="black"/>
<path d="M128.556 104.65C130.038 104.65 131.239 103.448 131.239 101.967C131.239 100.485 130.038 99.2832 128.556 99.2832H123.09C121.608 99.2832 120.406 100.485 120.406 101.967C120.406 103.448 121.608 104.65 123.09 104.65H128.556Z" fill="black"/>
<path d="M144.588 146.373C143.239 145.765 141.651 146.365 141.041 147.715C140.416 149.102 139.558 150.373 138.506 151.472C137.817 152.16 137.555 153.167 137.821 154.102C138.087 155.039 138.839 155.758 139.785 155.981C140.732 156.205 141.727 155.898 142.383 155.18C143.858 153.642 145.061 151.862 145.936 149.919C146.542 148.568 145.939 146.981 144.588 146.373V146.373Z" fill="black"/>
<path d="M158.644 91.7049C157.962 91.5031 157.227 91.5804 156.6 91.9211C155.975 92.2617 155.51 92.8369 155.308 93.5196C154.914 94.835 154.193 96.0299 153.213 96.9916C152.153 98.0293 152.135 99.7287 153.173 100.789C154.21 101.849 155.91 101.866 156.97 100.829C158.605 99.2269 159.805 97.2353 160.458 95.0407C160.661 94.3581 160.582 93.6231 160.243 92.9968C159.902 92.3718 159.327 91.9067 158.644 91.7049V91.7049Z" fill="black"/>
<path d="M155.58 86.7522C156.64 86.7535 157.6 86.1299 158.032 85.1629C158.463 84.196 158.287 83.0653 157.579 82.2765C156.047 80.5732 154.108 79.2879 151.944 78.5411C150.542 78.0589 149.015 78.8057 148.533 80.2077C148.051 81.6096 148.798 83.136 150.2 83.6182C151.5 84.065 152.663 84.8367 153.58 85.8613C154.09 86.4286 154.817 86.7522 155.58 86.7522Z" fill="black"/>
<path d="M117.165 123.434H111.699C110.217 123.434 109.016 124.635 109.016 126.117C109.016 127.599 110.217 128.8 111.699 128.8H117.165C118.647 128.8 119.849 127.599 119.849 126.117C119.849 124.635 118.647 123.434 117.165 123.434Z" fill="black"/>
<path d="M144.957 99.2832H139.488C138.006 99.2832 136.805 100.485 136.805 101.967C136.805 103.448 138.006 104.65 139.488 104.65H144.957C146.439 104.65 147.64 103.448 147.64 101.967C147.64 100.485 146.439 99.2832 144.957 99.2832Z" fill="black"/>
<path d="M65.2785 155.634H59.8122C58.3304 155.634 57.1289 156.835 57.1289 158.317C57.1289 159.799 58.3304 161 59.8122 161H65.2785C66.7603 161 67.9618 159.799 67.9618 158.317C67.9618 156.835 66.7603 155.634 65.2785 155.634Z" fill="black"/>
<path d="M144.344 131.671C143.507 130.446 141.835 130.132 140.609 130.969C139.383 131.806 139.069 133.478 139.906 134.704C140.763 135.959 141.399 137.352 141.784 138.822C141.993 139.783 142.711 140.552 143.656 140.827C144.599 141.102 145.618 140.839 146.311 140.14C147.002 139.443 147.258 138.423 146.976 137.481C146.439 135.408 145.549 133.442 144.344 131.671V131.671Z" fill="black"/>
<path d="M85.7379 122.471C84.4631 121.835 83.3481 120.923 82.4715 119.8C81.5622 118.629 79.876 118.418 78.7059 119.327C77.5346 120.235 77.3237 121.922 78.2316 123.093C79.6061 124.857 81.3591 126.289 83.3625 127.282C84.6845 127.899 86.2581 127.346 86.904 126.037C87.5499 124.729 87.0311 123.144 85.7379 122.471V122.471Z" fill="black"/>
<path d="M81.6809 155.634H76.2068C74.7249 155.634 73.5234 156.835 73.5234 158.317C73.5234 159.799 74.7249 161 76.2068 161H81.6809C83.1627 161 84.3642 159.799 84.3642 158.317C84.3642 156.835 83.1627 155.634 81.6809 155.634Z" fill="black"/>
<path d="M114.486 155.634H109.019C107.537 155.634 106.336 156.835 106.336 158.317C106.336 159.799 107.537 161 109.019 161H114.486C115.967 161 117.169 159.799 117.169 158.317C117.169 156.835 115.967 155.634 114.486 155.634Z" fill="black"/>
<path d="M95.7511 104.65C97.233 104.65 98.4345 103.448 98.4345 101.967C98.4345 100.485 97.233 99.2832 95.7511 99.2832H90.2849C88.803 99.2832 87.6016 100.485 87.6016 101.967C87.6016 103.448 88.803 104.65 90.2849 104.65H95.7511Z" fill="black"/>
<path d="M112.163 104.65C113.645 104.65 114.846 103.448 114.846 101.967C114.846 100.485 113.645 99.2832 112.163 99.2832H106.683C105.201 99.2832 104 100.485 104 101.967C104 103.448 105.201 104.65 106.683 104.65H112.163Z" fill="black"/>
<path d="M100.76 123.434H95.2927C93.8108 123.434 92.6094 124.635 92.6094 126.117C92.6094 127.599 93.8108 128.8 95.2927 128.8H100.76C102.243 128.8 103.444 127.599 103.444 126.117C103.444 124.635 102.243 123.434 100.76 123.434Z" fill="black"/>
<path d="M98.0897 155.634H92.6208C91.139 155.634 89.9375 156.835 89.9375 158.317C89.9375 159.799 91.139 161 92.6208 161H98.0897C99.5716 161 100.773 159.799 100.773 158.317C100.773 156.835 99.5716 155.634 98.0897 155.634Z" fill="black"/>
<path d="M32.2026 155.634H29.5193C28.0374 155.634 26.8359 156.835 26.8359 158.317C26.8359 159.799 28.0374 161 29.5193 161H32.2026C33.6845 161 34.8859 159.799 34.8859 158.317C34.8859 156.835 33.6845 155.634 32.2026 155.634Z" fill="black"/>
</svg>
