<svg width="192" height="192" viewBox="0 0 192 192" fill="none" xmlns="http://www.w3.org/2000/svg">
<path d="M96 0C57.6581 0 26.4648 31.1932 26.4648 69.5347C26.4648 117.118 88.692 186.972 91.3413 189.923C93.8298 192.694 98.1746 192.69 100.659 189.923C103.308 186.972 165.535 117.118 165.535 69.5347C165.534 31.1932 134.341 0 96 0ZM96 176.148C75.0573 151.272 38.9868 102.192 38.9868 69.5355C38.9868 38.0977 64.5626 12.522 96 12.522C127.437 12.522 153.013 38.0978 153.013 69.5351C153.013 102.193 116.948 151.264 96 176.148Z" fill="black"/>
<path d="M96.0001 34.5503C76.7094 34.5503 61.0156 50.2444 61.0156 69.5351C61.0156 88.8259 76.7098 104.52 96.0001 104.52C115.291 104.52 130.984 88.8259 130.984 69.5351C130.984 50.2444 115.291 34.5503 96.0001 34.5503ZM96.0001 91.998C83.6139 91.998 73.5376 81.9214 73.5376 69.5351C73.5376 57.1489 83.6143 47.0723 96.0001 47.0723C108.386 47.0723 118.463 57.1489 118.463 69.5351C118.463 81.9214 108.386 91.998 96.0001 91.998Z" fill="black"/>
</svg>
