<svg width="172" height="172" viewBox="0 0 172 172" fill="none" xmlns="http://www.w3.org/2000/svg">
<path d="M162.762 0.00292969H152.074C148.921 0.00292969 148.778 5.04199 152.074 5.04199H162.762C165.077 5.04199 166.961 6.92559 166.961 9.24121V64.4515C166.961 66.7671 165.077 68.6508 162.762 68.6508H155.116C153.724 68.6508 152.597 69.7788 152.597 71.1703V77.9579L144.027 69.3888C143.555 68.9161 142.914 68.6508 142.246 68.6508H93.2052V50.0002C93.2096 44.8587 88.973 40.687 83.8339 40.7619V9.24121C83.8339 6.92559 85.7175 5.04199 88.0331 5.04199H137.734C140.887 5.04199 141.031 0.00292969 137.734 0.00292969H88.0331C82.9393 0.00292969 78.7948 4.14705 78.7948 9.24121V40.7619H9.23828C4.14446 40.7619 0 44.906 0 50.0002V105.21C0 110.305 4.14446 114.449 9.23828 114.449H14.3644V124.8C14.3644 126.971 17.067 128.179 18.6657 126.581L30.7977 114.449H50.6103V149.894C50.6103 154.988 54.7548 159.132 59.8486 159.132H113.018L125.15 171.265C126.749 172.863 129.451 171.654 129.451 169.483V159.132H134.577C139.671 159.132 143.816 154.988 143.816 149.894V94.6842C143.816 89.5901 139.671 85.4459 134.577 85.4459H93.2052V73.6902H141.202L153.334 85.8225C154.933 87.4206 157.636 86.2119 157.636 84.0411V73.6902H162.762C167.856 73.6902 172 69.546 172 64.4519V9.24121C172 4.14739 167.856 0.00292969 162.762 0.00292969V0.00292969ZM50.61 94.6842V96.1573C48.8836 97.0721 47.4633 97.7245 46.5996 98.1017C44.9511 97.3821 41.2753 95.6578 37.2487 92.9851C34.6227 91.2402 31.7155 95.3601 34.4621 97.1833C40.3377 101.084 45.4712 103.098 45.6868 103.182C46.2952 103.411 46.9039 103.411 47.5126 103.182C47.5886 103.153 48.7684 102.691 50.61 101.804V109.41H29.754C29.0858 109.41 28.4452 109.675 27.9722 110.148L19.4034 118.717V111.93C19.4034 110.538 18.2757 109.41 16.8839 109.41H9.23828C6.92266 109.41 5.03906 107.526 5.03906 105.211V50.0002C5.03906 47.6846 6.92266 45.801 9.23828 45.801H83.9669C86.2825 45.801 88.1661 47.6846 88.1661 50.0002V85.4459H71.2618C74.4925 80.8023 76.1275 75.8852 76.1278 70.7722C76.1285 61.3848 68.5934 53.7469 59.3303 53.7462C54.351 53.7459 49.7497 55.9375 46.6033 59.6517C43.4575 55.9372 38.8562 53.7449 33.8766 53.7442C24.6148 53.7435 17.0777 61.3804 17.077 70.7675C17.0764 76.8023 19.3624 82.5875 23.8714 87.9621C25.8974 90.3778 29.8507 87.2489 27.732 84.7233C24.0051 80.2809 22.1154 75.5858 22.1161 70.7678C22.1168 64.1589 27.3923 58.7826 33.8763 58.7829C38.3137 58.7833 42.3271 61.2897 44.3508 65.3243C44.7848 66.1897 45.6841 66.6318 46.6029 66.7144C47.556 66.7144 48.4277 66.1766 48.8547 65.3246C54.5939 54.1587 70.9651 58.2639 71.0887 70.7715C71.0881 75.8559 68.9888 80.7878 64.8477 85.4456H59.8483C54.7545 85.4459 50.61 89.5901 50.61 94.6842V94.6842ZM134.577 90.485C136.893 90.485 138.776 92.3686 138.776 94.6842V149.895C138.776 152.21 136.893 154.094 134.577 154.094H126.932C125.54 154.094 124.412 155.222 124.412 156.613V163.401L115.843 154.832C115.37 154.359 114.73 154.094 114.061 154.094H59.8483C57.5327 154.094 55.6491 152.21 55.6491 149.895V94.6842C55.6491 92.3686 57.5327 90.485 59.8483 90.485H134.577Z" fill="black"/>
<path d="M125.907 11.3262C124.976 11.3262 124.121 11.8398 123.683 12.6615L117.084 25.0546C116.553 26.056 115.986 26.9147 114.882 27.3931C113.793 25.6361 111.848 24.463 109.634 24.463H105.395C101.993 24.463 99.2246 27.2311 99.2246 30.6338V56.0606C99.2246 59.463 101.993 62.2315 105.395 62.2315H109.634C112.177 62.2315 114.364 60.6851 115.308 58.4841C116.438 58.8808 117.707 59.1264 119.268 59.1264H140.633C144.152 59.1264 147.237 56.7503 148.135 53.3483L152.717 36.0078C153.89 31.6689 150.213 27.294 145.839 27.294H136.096C135.505 27.294 135.024 26.8126 135.024 26.2213V20.4432C135.024 15.4162 130.934 11.3262 125.907 11.3262V11.3262ZM110.766 56.0606C110.766 56.6845 110.258 57.1924 109.634 57.1924H105.395C104.772 57.1924 104.264 56.6848 104.264 56.0606V30.6338C104.264 30.01 104.772 29.5021 105.395 29.5021H109.634C110.258 29.5021 110.766 30.0097 110.766 30.6338V56.0606ZM136.096 32.333H145.839C147.116 32.333 148.09 33.5243 147.831 34.7746L143.264 52.0613C142.949 53.2542 141.866 54.0873 140.633 54.0873H119.268C117.913 54.0873 117.013 53.8424 115.804 53.1994V32.4103C118.353 31.6749 120.488 29.8417 121.582 27.3286L127.291 16.6074C128.86 17.1755 129.984 18.6805 129.984 20.4435V26.2216C129.985 29.5911 132.726 32.333 136.096 32.333V32.333Z" fill="black"/>
<path d="M75.4879 131.916C80.4124 131.916 84.4188 127.909 84.4188 122.985C83.9283 111.136 67.0454 111.14 66.5566 122.985C66.5566 127.909 70.5634 131.916 75.4879 131.916ZM75.4879 119.093C77.6338 119.093 79.3797 120.839 79.3797 122.985C79.1657 128.148 71.8087 128.146 71.5957 122.985C71.5957 120.839 73.3416 119.093 75.4879 119.093V119.093Z" fill="black"/>
<path d="M97.2122 131.916C102.137 131.916 106.143 127.909 106.143 122.985C105.653 111.137 88.77 111.14 88.2812 122.985C88.2812 127.909 92.2876 131.916 97.2122 131.916ZM97.2122 119.093C99.3585 119.093 101.104 120.839 101.104 122.985C100.891 128.148 93.5333 128.147 93.3203 122.985C93.3203 120.839 95.0662 119.093 97.2122 119.093Z" fill="black"/>
<path d="M118.937 131.916C123.862 131.916 127.868 127.909 127.868 122.985C127.378 111.136 110.495 111.14 110.006 122.985C110.006 127.909 114.013 131.916 118.937 131.916ZM118.937 119.093C121.083 119.093 122.829 120.839 122.829 122.985C122.615 128.148 115.258 128.146 115.045 122.985C115.045 120.839 116.791 119.093 118.937 119.093Z" fill="black"/>
</svg>
