<svg width="192" height="200" viewBox="0 0 192 200" fill="none" xmlns="http://www.w3.org/2000/svg">
<path d="M82.654 68.7483C82.654 65.3837 80.5239 62.7485 77.8047 62.7485C75.0872 62.7485 72.957 65.3837 72.957 68.7483C72.957 72.1128 75.0856 74.748 77.8047 74.748C80.5239 74.748 82.654 72.1128 82.654 68.7483Z" fill="black"/>
<path d="M114.217 74.748C116.936 74.748 119.066 72.1128 119.066 68.7483C119.066 65.3837 116.936 62.7485 114.217 62.7485C111.498 62.7485 109.369 65.3837 109.369 68.7483C109.369 72.1128 111.498 74.748 114.217 74.748Z" fill="black"/>
<path d="M99.1289 88.9341C99.431 88.9341 99.7377 88.928 100.051 88.9158C101.68 88.8471 102.947 87.4708 102.878 85.8412C102.811 84.2115 101.441 82.9496 99.8049 83.0137C98.3629 83.0747 95.8223 82.9893 95.038 81.7411C94.0264 80.1328 95.1906 76.309 96.2969 74.2292C97.0675 72.7949 96.5304 71.0066 95.096 70.233C93.6602 69.4609 91.8688 69.998 91.0952 71.4338C90.6466 72.2654 86.8059 79.7193 90.0286 84.8707C91.7177 87.57 94.7771 88.9341 99.1289 88.9341Z" fill="black"/>
<path d="M80.8241 92.0577C79.46 92.9534 79.0801 94.7829 79.9742 96.1471C80.2107 96.5087 85.89 104.99 96.0127 104.99C106.134 104.99 111.815 96.5087 112.051 96.1471C112.942 94.7875 112.564 92.9702 111.209 92.0714C109.854 91.1742 108.024 91.5465 107.12 92.8969C107.078 92.958 102.897 99.0829 96.0127 99.0829C89.128 99.0829 84.9471 92.9595 84.912 92.9076C84.0178 91.5435 82.1867 91.1635 80.8241 92.0577V92.0577Z" fill="black"/>
<path d="M39.8002 194.093H6.93586C7.21357 192.085 7.69422 189.29 8.49835 186.236C9.90369 180.899 12.5984 173.713 17.4537 169.787C26.0322 162.852 62.3191 143.416 74.2667 137.082C76.4075 147.122 85.3415 154.677 96.012 154.677C106.681 154.677 115.616 147.12 117.757 137.08C122.227 139.45 130.094 143.648 138.595 148.314C140.008 149.087 141.831 148.555 142.605 147.145C143.389 145.715 142.867 143.921 141.437 143.135C131.19 137.51 121.857 132.564 118.247 130.658V116.887C118.947 116.253 119.631 115.591 120.292 114.885C123.667 111.267 126.455 106.753 128.649 101.388C129.636 101.564 130.608 101.652 131.559 101.652C136.272 101.652 140.452 99.5069 143.48 95.4023C148.856 88.1117 149.677 75.8086 145.203 69.5891C145.005 69.3129 144.8 69.0504 144.593 68.7971C149.872 50.6102 148.275 35.2019 139.834 22.9766C127.778 5.51445 105.886 0.505 98.4686 0.0487628C87.9843 -0.595157 80.593 5.26116 77.3261 8.52653C73.1055 6.08971 68.5645 5.59533 64.0571 7.11052C56.2064 9.74876 49.3949 18.4554 46.2791 29.8324C45.6412 32.1608 45.2048 34.9547 44.9836 38.1331C44.8692 39.7597 46.096 41.1711 47.7225 41.2856C49.3445 41.4016 50.7606 40.1717 50.875 38.5451C51.0703 35.7543 51.4411 33.3464 51.9752 31.3918C54.5386 22.0305 60.0196 14.6972 65.9385 12.7074C69.3641 11.5569 72.753 12.239 76.0062 14.7384C77.2971 15.7317 79.1541 15.483 80.149 14.1936C80.2191 14.1051 87.1634 5.27184 98.1039 5.94323C104.281 6.32469 124.308 10.8855 134.974 26.332C142.045 36.5737 143.554 49.6031 139.486 65.0984C137.9 64.5522 136.197 64.4118 134.421 64.6895C134.391 63.7083 134.354 63.1285 134.348 63.0415C134.266 61.7964 133.41 60.7359 132.209 60.3957C100.263 51.3243 86.1991 30.5632 86.0648 30.3588C85.4575 29.4356 84.3833 28.929 83.2862 29.045C82.186 29.161 81.2445 29.8827 80.8448 30.9127C73.5724 49.626 58.7913 61.0045 58.6448 61.1159C57.9566 61.6362 57.5294 62.4342 57.4775 63.2964C57.4729 63.3742 57.447 63.8533 57.4241 64.6635C55.6876 64.4194 54.0214 64.5766 52.4695 65.1259C51.6639 59.4374 51.1253 54.1808 50.8735 49.4658C50.7865 47.8377 49.3949 46.585 47.7668 46.675C46.1387 46.762 44.889 48.1536 44.9744 49.7817C45.2842 55.5571 46.0029 62.0909 47.1046 69.2076C47.0084 69.3327 46.9138 69.4579 46.8207 69.5876C42.3515 75.8009 43.1663 88.098 48.5328 95.3871C51.5616 99.5024 55.7441 101.654 60.4651 101.654C61.4036 101.654 62.3649 101.565 63.3414 101.394C65.5829 106.839 68.4348 111.401 71.8787 115.045C72.4921 115.693 73.1284 116.301 73.7754 116.887V130.658C64.9787 135.295 23.5069 157.3 13.7413 165.194C2.26209 174.476 0.751477 195.947 0.693494 196.856C0.585156 198.535 1.95997 200 3.63996 200H39.8002C41.4314 200 42.7543 198.678 42.7543 197.047C42.7543 195.416 41.4314 194.093 39.8002 194.093V194.093ZM133.491 82.2325C134.072 77.8914 134.324 73.9241 134.417 70.735C137.537 69.8042 139.246 71.4232 140.407 73.0376C143.126 76.8156 142.884 86.2593 138.726 91.8959C136.626 94.7447 133.915 96.0142 130.645 95.706C131.881 91.609 132.834 87.1214 133.491 82.2325ZM112.34 132.441C112.34 141.446 105.016 148.77 96.012 148.77C87.0078 148.77 79.6836 141.446 79.6836 132.441V121.119C84.4504 123.735 89.8993 125.055 95.9799 125.055H96.1188C102.175 125.035 107.598 123.71 112.34 121.11V132.441ZM53.2889 91.8867C49.1401 86.2501 48.9005 76.8095 51.6151 73.036C53.2371 70.7823 55.0788 70.0255 57.4515 70.6862C57.5583 73.9256 57.8345 78.0058 58.4647 82.4812C59.1392 87.2755 60.1005 91.6838 61.3303 95.7121C58.0787 96.002 55.3809 94.7279 53.2889 91.8867ZM63.3292 64.929C66.7914 62.0543 77.3474 52.5054 84.3344 37.7333C90.1755 44.5418 104.209 58.0489 128.528 65.4692C128.679 72.7507 128.238 97.7201 115.963 110.866C110.856 116.334 104.172 119.122 96.0989 119.148C88.0271 119.182 81.3254 116.432 76.1801 110.997C63.346 97.4348 63.1843 71.0402 63.3292 64.929V64.929Z" fill="black"/>
<path d="M191.332 196.856C191.272 195.947 189.761 174.475 178.284 165.195C174.5 162.135 165.584 156.647 151.784 148.881C150.363 148.082 148.563 148.585 147.762 150.006C146.962 151.428 147.466 153.229 148.888 154.028C165.72 163.499 172.144 167.825 174.57 169.787C181.725 175.572 184.267 188.2 185.085 194.093H51.6147C49.9835 194.093 48.6621 195.415 48.6621 197.046C48.6621 198.677 49.9835 200 51.6147 200H188.384C190.065 200 191.44 198.535 191.332 196.856V196.856Z" fill="black"/>
</svg>
