<svg width="122" height="122" viewBox="0 0 122 122" fill="none" xmlns="http://www.w3.org/2000/svg">
<g clip-path="url(#clip0_436_132)">
<path d="M92.907 78.09L72.8087 71.3873V67.3106C77.1574 64.4676 80.4116 60.1026 81.8384 54.9786C86.7126 54.3983 90.5184 50.286 90.5184 45.2581V27.6032C90.5184 12.3829 78.1355 0 62.9152 0C53.751 0 45.2382 4.51005 40.0892 12.0803C34.9864 13.7031 31.4861 18.438 31.4861 23.855V45.2581C31.4861 50.286 35.2919 54.3983 40.1661 54.9786C41.59 60.1045 44.8472 64.4676 49.1958 67.3106V71.3873L29.0995 78.088C23.4634 79.9655 19.6797 85.2173 19.6797 91.1541V122H102.325V91.1541C102.325 85.2173 98.5412 79.9655 92.907 78.09V78.09ZM82.5427 91.7738L78.4285 95.888L80.477 102.033L71.7163 115.173L78.293 77.3655L80.8507 78.2177L82.5427 91.7738ZM39.4618 91.7738L41.1557 78.2177L43.7134 77.3655L50.2902 115.173L41.5295 102.033L43.578 95.888L39.4618 91.7738ZM61.0023 83.4599L66.4789 88.9356L63.7214 94.4516H58.2832L55.5256 88.9356L61.0023 83.4599ZM69.4123 91.8699L71.4232 93.8809L68.2295 112.24L66.943 96.8046L69.4123 91.8699ZM52.5923 91.8699L55.0597 96.8046L53.7731 112.24L50.5794 93.8809L52.5923 91.8699ZM58.877 98.3871H63.1257L64.7648 118.065H57.2359L58.877 98.3871ZM74.5151 76.104L72.2476 89.1383L63.9481 80.8388L71.2349 75.0106L74.5151 76.104ZM82.5648 50.825C82.6061 50.2841 82.6474 49.7441 82.6474 49.1936V39.7171C84.9322 40.5318 86.5829 42.6965 86.5829 45.2581C86.5829 47.8494 84.8929 50.0333 82.5648 50.825ZM35.4216 45.2581C35.4216 42.6965 37.0723 40.5318 39.3571 39.7171V49.1936C39.3571 49.7441 39.3984 50.2841 39.4397 50.825C37.1117 50.0333 35.4216 47.8494 35.4216 45.2581ZM39.3571 25.5806V35.6182C37.8948 35.9171 36.5708 36.5666 35.4216 37.4361V23.8531C35.4216 19.9801 38.0446 16.6211 41.8033 15.6814L42.5412 15.496L43.2215 14.4708C47.622 7.87481 54.9828 3.93548 62.9152 3.93548C75.965 3.93548 86.5829 14.5534 86.5829 27.6032V37.438C85.4338 36.5685 84.1098 35.9171 82.6474 35.6202V29.5161H78.712V34.9255C73.4698 33.5775 68.4735 31.187 64.1509 27.9442L62.2657 26.529L61.2108 28.6389C60.2211 30.6182 59.881 32.8511 60.1913 35.0043L59.2152 34.864C53.1707 34.0002 47.3933 31.6078 42.5076 27.9442L39.3571 25.5806ZM43.2926 49.1936V33.2249C47.9717 36.0862 53.2159 37.9809 58.6569 38.7582L66.4097 39.866L64.7293 36.508C64.1326 35.3175 63.9087 33.9829 64.0538 32.682C68.4755 35.5885 73.44 37.7272 78.71 38.9715V49.1936C78.71 58.9573 70.7641 66.9032 61.0004 66.9032C51.2366 66.9032 43.2926 58.9573 43.2926 49.1936ZM61.0023 70.8387C63.7809 70.8387 66.4289 70.2939 68.8732 69.335V71.8601L61.0023 78.1572L53.1313 71.8601V69.335C55.5756 70.2939 58.2236 70.8387 61.0023 70.8387ZM50.7696 75.0125L58.0564 80.8408L49.7569 89.1403L47.4894 76.1059L50.7696 75.0125ZM23.6152 91.1541C23.6152 86.9131 26.3189 83.1611 30.3428 81.8208L37.0175 79.5956L35.3169 93.1939L39.0737 96.9507L37.1866 102.612L47.4875 118.065H23.6152V91.1541ZM98.3894 118.065H74.5171L84.8179 102.612L82.9309 96.9507L86.6877 93.1939L84.987 79.5956L91.6637 81.8208C95.6857 83.163 98.3894 86.9131 98.3894 91.1541V118.065Z" fill="black"/>
<path d="M53.1308 41.3226C53.1308 42.4092 52.2497 43.2903 51.1631 43.2903C50.0764 43.2903 49.1953 42.4092 49.1953 41.3226C49.1953 40.2359 50.0764 39.3548 51.1631 39.3548C52.2497 39.3548 53.1308 40.2359 53.1308 41.3226Z" fill="black"/>
<path d="M72.8066 41.3226C72.8066 42.4092 71.9255 43.2903 70.8388 43.2903C69.7522 43.2903 68.8711 42.4092 68.8711 41.3226C68.8711 40.2359 69.7522 39.3548 70.8388 39.3548C71.9255 39.3548 72.8066 40.2359 72.8066 41.3226Z" fill="black"/>
<path d="M68.8708 53.129H64.9354C64.9354 55.2995 63.1703 57.0645 60.9999 57.0645C58.8294 57.0645 57.0644 55.2995 57.0644 53.129H53.1289C53.1289 57.47 56.6589 61 60.9999 61C65.3408 61 68.8708 57.47 68.8708 53.129Z" fill="black"/>
<path d="M27.5469 106.258H35.4178V110.194H27.5469V106.258Z" fill="black"/>
</g>
<defs>
<clipPath id="clip0_436_132">
<rect width="122" height="122" fill="white"/>
</clipPath>
</defs>
</svg>
