<svg width="50" height="51" viewBox="0 0 50 51" fill="none" xmlns="http://www.w3.org/2000/svg">
<path d="M47.6562 39.7424H44.6328C44.6831 39.6143 44.7172 39.4805 44.7344 39.344L46.5625 28.4065C46.6181 28.0709 46.5999 27.7272 46.5093 27.3993C46.4186 27.0714 46.2577 26.7671 46.0377 26.5077C45.8176 26.2482 45.5437 26.0398 45.235 25.8969C44.9263 25.7539 44.5902 25.6799 44.25 25.6799H31.6719C30.9326 25.6787 30.2169 25.9405 29.653 26.4186C29.089 26.8967 28.7136 27.5598 28.5937 28.2893L27.2031 36.6174H26.5625V33.1799C26.5609 31.7372 26.1154 30.3299 25.2867 29.1489C24.4579 27.9679 23.2859 27.0705 21.9297 26.5784L17.9688 25.1331V24.4846C19.3383 24.0015 20.5244 23.1058 21.3638 21.9208C22.2033 20.7357 22.6548 19.3197 22.6562 17.8674V7.71118C22.6562 7.50398 22.5739 7.30527 22.4274 7.15875C22.2809 7.01224 22.0822 6.92993 21.875 6.92993H12.5C11.464 6.92993 10.4704 7.34148 9.73786 8.07405C9.0053 8.80661 8.59375 9.80018 8.59375 10.8362V14.094C8.13432 14.2566 7.73701 14.5584 7.45711 14.9574C7.17721 15.3563 7.02864 15.8326 7.03208 16.32C7.03551 16.8073 7.19079 17.2815 7.47629 17.6764C7.76179 18.0714 8.16332 18.3676 8.625 18.5237C8.77296 20.1578 9.49218 21.6876 10.6562 22.844C10.9829 23.1675 11.3386 23.4604 11.7188 23.719V25.1331L7.75781 26.5784C6.40159 27.0705 5.22959 27.9679 4.40082 29.1489C3.57206 30.3299 3.12664 31.7372 3.125 33.1799V37.3987C3.12737 38.2473 3.41028 39.0713 3.92969 39.7424H2.34375C2.13655 39.7424 1.93784 39.8247 1.79132 39.9713C1.64481 40.1178 1.5625 40.3165 1.5625 40.5237V43.6487C1.5625 43.8559 1.64481 44.0546 1.79132 44.2011C1.93784 44.3476 2.13655 44.4299 2.34375 44.4299H3.90625V48.3362C3.90625 48.5434 3.98856 48.7421 4.13507 48.8886C4.28159 49.0351 4.4803 49.1174 4.6875 49.1174H45.3125C45.5197 49.1174 45.7184 49.0351 45.8649 48.8886C46.0114 48.7421 46.0938 48.5434 46.0938 48.3362V44.4299H47.6562C47.8634 44.4299 48.0622 44.3476 48.2087 44.2011C48.3552 44.0546 48.4375 43.8559 48.4375 43.6487V40.5237C48.4375 40.3165 48.3552 40.1178 48.2087 39.9713C48.0622 39.8247 47.8634 39.7424 47.6562 39.7424ZM44.25 27.2424C44.3628 27.2424 44.4743 27.2669 44.5768 27.3141C44.6793 27.3613 44.7704 27.4301 44.8438 27.5159C44.9184 27.6032 44.9731 27.7058 45.0041 27.8164C45.0351 27.927 45.0417 28.0431 45.0234 28.1565L43.1953 39.094C43.1657 39.2755 43.0724 39.4405 42.9321 39.5594C42.7917 39.6782 42.6136 39.7431 42.4297 39.7424H31.3906L33.4766 27.2424H44.25ZM30.1328 28.5471C30.1921 28.1821 30.3797 27.8502 30.6618 27.611C30.9439 27.3719 31.302 27.2412 31.6719 27.2424H31.8906L29.8047 39.7424H28.2656L30.1328 28.5471ZM26.9453 38.1799L26.6797 39.7424H21.0938C20.8865 39.7424 20.6878 39.6601 20.5413 39.5136C20.3948 39.3671 20.3125 39.1684 20.3125 38.9612V38.1799H26.9453ZM10.1562 10.8362C10.1581 10.2152 10.4056 9.62009 10.8448 9.18095C11.2839 8.74181 11.879 8.49429 12.5 8.49243H21.0938V11.0002C20.6328 11.0706 20.2109 11.1565 19.7969 11.2346C18.6836 11.4833 17.5469 11.6116 16.4062 11.6174C15.6993 11.6566 14.9923 11.5392 14.3359 11.2737C13.5035 10.9471 12.6121 10.7981 11.7188 10.8362C11.5115 10.8362 11.3128 10.9185 11.1663 11.065C11.0198 11.2115 10.9375 11.4102 10.9375 11.6174V13.1799C10.9375 13.3871 10.8552 13.5858 10.7087 13.7324C10.5622 13.8789 10.3635 13.9612 10.1562 13.9612V10.8362ZM10.1562 17.8674C10.1562 17.6602 10.0739 17.4615 9.92743 17.315C9.78091 17.1685 9.5822 17.0862 9.375 17.0862C9.1678 17.0862 8.96909 17.0039 8.82257 16.8574C8.67606 16.7108 8.59375 16.5121 8.59375 16.3049C8.59375 16.0977 8.67606 15.899 8.82257 15.7525C8.96909 15.606 9.1678 15.5237 9.375 15.5237H10.1562C10.7773 15.5218 11.3723 15.2743 11.8115 14.8352C12.2506 14.396 12.4981 13.801 12.5 13.1799V12.4299C12.9439 12.4631 13.3793 12.5686 13.7891 12.7424C14.6215 13.069 15.5129 13.218 16.4062 13.1799C17.6493 13.1739 18.8881 13.0351 20.1016 12.7659C20.4141 12.7034 20.75 12.6409 21.0938 12.5862V17.8674C21.0938 18.5856 20.9523 19.2967 20.6775 19.9602C20.4026 20.6237 19.9998 21.2266 19.492 21.7344C18.9842 22.2422 18.3813 22.6451 17.7178 22.9199C17.0543 23.1947 16.3432 23.3362 15.625 23.3362C14.9068 23.3362 14.1957 23.1947 13.5322 22.9199C12.8687 22.6451 12.2658 22.2422 11.758 21.7344C11.2502 21.2266 10.8474 20.6237 10.5725 19.9602C10.2977 19.2967 10.1562 18.5856 10.1562 17.8674ZM16.4062 24.8518V25.6799C16.4062 26.0943 16.2416 26.4918 15.9486 26.7848C15.6556 27.0778 15.2582 27.2424 14.8438 27.2424C14.4293 27.2424 14.0319 27.0778 13.7389 26.7848C13.4459 26.4918 13.2812 26.0943 13.2812 25.6799V24.4924C14.0343 24.758 14.8265 24.8953 15.625 24.8987C15.8861 24.8989 16.147 24.8832 16.4062 24.8518ZM4.6875 33.1799C4.68765 32.058 5.03347 30.9633 5.6779 30.0449C6.32233 29.1265 7.23407 28.4289 8.28906 28.0471L11.9141 26.7268C12.1266 27.3343 12.5228 27.8606 13.0477 28.233C13.5725 28.6054 14.2002 28.8055 14.8438 28.8055C15.4873 28.8055 16.115 28.6054 16.6398 28.233C17.1647 27.8606 17.5609 27.3343 17.7734 26.7268L21.3984 28.0471C22.4534 28.4289 23.3652 29.1265 24.0096 30.0449C24.654 30.9633 24.9998 32.058 25 33.1799V36.6174H22.6562V31.9299H21.0938V36.6174H19.5312C19.324 36.6174 19.1253 36.6997 18.9788 36.8463C18.8323 36.9928 18.75 37.1915 18.75 37.3987V38.9612C18.7521 39.2277 18.7997 39.4919 18.8906 39.7424H14.8438C14.8438 38.7064 14.4322 37.7129 13.6996 36.9803C12.9671 36.2477 11.9735 35.8362 10.9375 35.8362H8.59375V31.9299H7.03125V36.6174C7.03125 36.8246 7.11356 37.0233 7.26007 37.1699C7.40659 37.3164 7.6053 37.3987 7.8125 37.3987H9.375V39.7424H7.03125C6.41022 39.7406 5.81515 39.4931 5.37602 39.0539C4.93688 38.6148 4.68935 38.0197 4.6875 37.3987V33.1799ZM13.2812 39.7424H10.9375V37.3987C11.5585 37.4005 12.1536 37.6481 12.5927 38.0872C13.0319 38.5263 13.2794 39.1214 13.2812 39.7424ZM44.5312 47.5549H5.46875V44.4299H44.5312V47.5549ZM46.875 42.8674H3.125V41.3049H46.875V42.8674Z" fill="#4069FF"/>
<path d="M38.2813 35.8362C38.7448 35.8362 39.1979 35.6987 39.5834 35.4412C39.9688 35.1837 40.2692 34.8176 40.4466 34.3893C40.624 33.9611 40.6704 33.4898 40.58 33.0352C40.4895 32.5805 40.2663 32.1629 39.9385 31.8352C39.6108 31.5074 39.1931 31.2842 38.7385 31.1937C38.2838 31.1033 37.8126 31.1497 37.3843 31.3271C36.9561 31.5045 36.59 31.8049 36.3325 32.1903C36.075 32.5757 35.9375 33.0289 35.9375 33.4924C35.9375 34.114 36.1844 34.7102 36.624 35.1497C37.0635 35.5893 37.6596 35.8362 38.2813 35.8362ZM38.2813 32.7112C38.4358 32.7112 38.5868 32.757 38.7153 32.8428C38.8438 32.9287 38.9439 33.0507 39.003 33.1935C39.0622 33.3362 39.0776 33.4933 39.0475 33.6448C39.0173 33.7964 38.9429 33.9356 38.8337 34.0449C38.7244 34.1541 38.5852 34.2285 38.4337 34.2587C38.2821 34.2888 38.125 34.2733 37.9823 34.2142C37.8395 34.1551 37.7175 34.0549 37.6317 33.9265C37.5458 33.798 37.5 33.6469 37.5 33.4924C37.5 33.2852 37.5823 33.0865 37.7288 32.94C37.8753 32.7935 38.074 32.7112 38.2813 32.7112Z" fill="#4069FF"/>
<path d="M14.8438 14.7424H13.2812V16.3049H14.8438V14.7424Z" fill="#4069FF"/>
<path d="M19.5312 14.7424H17.9688V16.3049H19.5312V14.7424Z" fill="#4069FF"/>
<path d="M25.6703 15.5159L27.7656 15.8151C27.9072 16.2557 28.0846 16.6839 28.2961 17.0956L27.0266 18.7885C26.914 18.9389 26.8593 19.1248 26.8727 19.3122C26.886 19.4996 26.9665 19.6759 27.0992 19.8088L29.3086 22.0182C29.4415 22.151 29.6178 22.2314 29.8052 22.2447C29.9926 22.2581 30.1785 22.2035 30.3289 22.0909L32.0219 20.8213C32.4335 21.0328 32.8618 21.2102 33.3023 21.3518L33.6016 23.4471C33.6283 23.6332 33.7212 23.8034 33.8632 23.9266C34.0053 24.0497 34.187 24.1175 34.375 24.1174H37.5C37.688 24.1175 37.8697 24.0497 38.0118 23.9266C38.1538 23.8034 38.2467 23.6332 38.2734 23.4471L38.5727 21.3518C39.0132 21.2101 39.4414 21.0327 39.8531 20.8213L41.5461 22.0909C41.6965 22.2035 41.8824 22.2581 42.0698 22.2447C42.2572 22.2314 42.4335 22.151 42.5664 22.0182L44.7758 19.8088C44.9085 19.6759 44.989 19.4996 45.0023 19.3122C45.0157 19.1248 44.961 18.9389 44.8484 18.7885L43.5789 17.0956C43.7904 16.6839 43.9678 16.2557 44.1094 15.8151L46.2047 15.5159C46.3908 15.4892 46.561 15.3963 46.6841 15.2542C46.8073 15.1121 46.875 14.9304 46.875 14.7424V11.6174C46.875 11.4294 46.8073 11.2477 46.6841 11.1057C46.561 10.9636 46.3908 10.8707 46.2047 10.844L44.1094 10.5448C43.9678 10.1042 43.7904 9.67595 43.5789 9.26431L44.8484 7.57134C44.961 7.42095 45.0157 7.23503 45.0023 7.04764C44.989 6.86025 44.9085 6.68394 44.7758 6.55103L42.5664 4.34165C42.4335 4.20889 42.2572 4.12847 42.0698 4.11512C41.8824 4.10178 41.6965 4.15641 41.5461 4.26899L39.8531 5.53853C39.4414 5.3272 39.0132 5.14979 38.5727 5.00806L38.2734 2.91274C38.2467 2.72665 38.1538 2.55643 38.0118 2.4333C37.8697 2.31017 37.688 2.24241 37.5 2.24243H34.375C34.187 2.24241 34.0053 2.31017 33.8632 2.4333C33.7212 2.55643 33.6283 2.72665 33.6016 2.91274L33.3023 5.00806C32.8618 5.14966 32.4335 5.32708 32.0219 5.53853L30.3289 4.26899C30.1785 4.15641 29.9926 4.10178 29.8052 4.11512C29.6178 4.12847 29.4415 4.20889 29.3086 4.34165L27.0992 6.55103C26.9665 6.68394 26.886 6.86025 26.8727 7.04764C26.8593 7.23503 26.914 7.42095 27.0266 7.57134L28.2961 9.26431C28.0846 9.67595 27.9072 10.1042 27.7656 10.5448L25.6703 10.844C25.4842 10.8707 25.314 10.9636 25.1909 11.1057C25.0677 11.2477 25 11.4294 25 11.6174V14.7424C25 14.9304 25.0677 15.1121 25.1909 15.2542C25.314 15.3963 25.4842 15.4892 25.6703 15.5159ZM26.5625 12.2948L28.4867 12.0206C28.6399 11.9985 28.783 11.9315 28.898 11.8281C29.0131 11.7246 29.0948 11.5893 29.1328 11.4393C29.2976 10.7923 29.5546 10.1724 29.8961 9.59868C29.9748 9.46564 30.0124 9.31222 30.0039 9.15786C29.9954 9.00349 29.9413 8.8551 29.8484 8.73149L28.6828 7.17602L29.9328 5.92603L31.4883 7.09165C31.6119 7.18451 31.7603 7.2386 31.9146 7.24708C32.069 7.25557 32.2224 7.21806 32.3555 7.13931C32.9292 6.79783 33.5491 6.54076 34.1961 6.37603C34.3461 6.33799 34.4814 6.25628 34.5849 6.14126C34.6883 6.02624 34.7553 5.88308 34.7773 5.72993L35.0523 3.80493H36.8227L37.0969 5.72915C37.1189 5.8823 37.1859 6.02546 37.2894 6.14048C37.3928 6.2555 37.5282 6.33721 37.6781 6.37524C38.3251 6.53998 38.945 6.79705 39.5187 7.13853C39.6518 7.21728 39.8052 7.25479 39.9596 7.2463C40.1139 7.23782 40.2623 7.18373 40.3859 7.09087L41.9414 5.92524L43.1914 7.17524L42.0258 8.73071C41.9329 8.85432 41.8788 9.0027 41.8703 9.15707C41.8619 9.31144 41.8994 9.46486 41.9781 9.5979C42.3196 10.1716 42.5767 10.7915 42.7414 11.4385C42.7794 11.5885 42.8611 11.7238 42.9762 11.8273C43.0912 11.9308 43.2344 11.9978 43.3875 12.0198L45.3125 12.2948V14.0651L43.3883 14.3393C43.2351 14.3613 43.092 14.4283 42.977 14.5318C42.8619 14.6353 42.7802 14.7706 42.7422 14.9206C42.5774 15.5676 42.3204 16.1875 41.9789 16.7612C41.9002 16.8942 41.8626 17.0476 41.8711 17.202C41.8796 17.3564 41.9337 17.5048 42.0266 17.6284L43.1922 19.1838L41.9422 20.4338L40.3867 19.2682C40.2631 19.1754 40.1147 19.1213 39.9604 19.1128C39.806 19.1043 39.6526 19.1418 39.5195 19.2206C38.9458 19.562 38.3259 19.8191 37.6789 19.9838C37.5289 20.0219 37.3936 20.1036 37.2901 20.2186C37.1867 20.3336 37.1197 20.4768 37.0977 20.6299L36.8227 22.5549H35.0523L34.7781 20.6307C34.7561 20.4776 34.6891 20.3344 34.5856 20.2194C34.4822 20.1044 34.3468 20.0227 34.1969 19.9846C33.5499 19.8199 32.93 19.5628 32.3563 19.2213C32.2232 19.1426 32.0698 19.1051 31.9154 19.1136C31.7611 19.122 31.6127 19.1761 31.4891 19.269L29.9336 20.4346L28.6836 19.1846L29.8492 17.6292C29.9421 17.5055 29.9962 17.3572 30.0047 17.2028C30.0131 17.0484 29.9756 16.895 29.8969 16.762C29.5554 16.1882 29.2983 15.5683 29.1336 14.9213C29.0956 14.7714 29.0139 14.6361 28.8988 14.5326C28.7838 14.4291 28.6406 14.3621 28.4875 14.3401L26.5625 14.0651V12.2948Z" fill="#4069FF"/>
<path d="M35.9375 17.8674C36.8646 17.8674 37.7709 17.5925 38.5417 17.0774C39.3126 16.5624 39.9134 15.8303 40.2682 14.9738C40.623 14.1172 40.7158 13.1747 40.5349 12.2654C40.3541 11.3562 39.9076 10.5209 39.2521 9.86537C38.5965 9.20981 37.7613 8.76337 36.852 8.5825C35.9427 8.40163 35.0002 8.49446 34.1437 8.84925C33.2871 9.20403 32.5551 9.80484 32.04 10.5757C31.5249 11.3466 31.25 12.2528 31.25 13.1799C31.2512 14.4228 31.7455 15.6143 32.6243 16.4931C33.5031 17.3719 34.6947 17.8662 35.9375 17.8674ZM35.9375 10.0549C36.5556 10.0549 37.1598 10.2382 37.6737 10.5816C38.1876 10.925 38.5881 11.413 38.8246 11.984C39.0611 12.5551 39.123 13.1834 39.0025 13.7896C38.8819 14.3958 38.5842 14.9526 38.1472 15.3896C37.7102 15.8267 37.1533 16.1243 36.5472 16.2449C35.941 16.3655 35.3126 16.3036 34.7416 16.0671C34.1706 15.8305 33.6825 15.43 33.3392 14.9161C32.9958 14.4022 32.8125 13.798 32.8125 13.1799C32.8125 12.3511 33.1417 11.5563 33.7278 10.9702C34.3138 10.3842 35.1087 10.0549 35.9375 10.0549Z" fill="#4069FF"/>
<path d="M16.4062 21.7737C17.2351 21.7737 18.0299 21.4444 18.616 20.8584C19.202 20.2723 19.5312 19.4775 19.5312 18.6487H17.9688C17.9688 19.0631 17.8041 19.4605 17.5111 19.7535C17.2181 20.0466 16.8207 20.2112 16.4062 20.2112C15.9918 20.2112 15.5944 20.0466 15.3014 19.7535C15.0084 19.4605 14.8438 19.0631 14.8438 18.6487H13.2812C13.2812 19.4775 13.6105 20.2723 14.1965 20.8584C14.7826 21.4444 15.5774 21.7737 16.4062 21.7737Z" fill="#4069FF"/>
</svg>
