<svg width="221" height="139" viewBox="0 0 221 139" fill="none" xmlns="http://www.w3.org/2000/svg">
<path d="M183.987 79.9939L188.141 79.7965C189.217 79.7448 190.218 79.2853 190.958 78.5015L195.319 73.8843C196.509 72.6237 196.789 70.7345 196.013 69.1831L192.962 63.1445L199.736 58.9759C200.61 58.438 201.251 57.5989 201.541 56.6151L204.284 47.2888C204.875 45.2758 203.868 43.1349 201.939 42.3082L197.825 40.5714L198.373 37.3861L203.076 35.4055C204.2 34.9334 205.054 33.9956 205.422 32.8327L206.084 30.7366L211.498 37.1349C212.289 38.0702 213.436 38.6065 214.644 38.6065C216.941 38.6065 218.809 36.7449 218.809 34.4561L218.809 27.1487L218.641 19.2396C218.529 13.9765 214.161 9.6946 208.905 9.6946C208.514 9.6946 208.119 9.7181 207.73 9.76509L167.294 14.6172L167.571 13.8643C168.029 12.6225 167.863 11.2241 167.127 10.1249C166.391 9.02515 165.162 8.33796 163.84 8.28731L158.697 8.0894C157.34 8.0424 156.032 8.66433 155.221 9.74473L142.594 26.5868L131.458 32.1689L122.279 27.4395C121.694 27.1387 121.038 26.9795 120.381 26.9795C119.239 26.9795 118.136 27.4573 117.355 28.2902L108.843 37.3699C107.763 38.5219 107.431 40.1584 107.977 41.6398L109.514 45.7568L104.065 50.9196L98.8711 53.9269C97.3881 54.7859 96.5939 56.436 96.8487 58.131L97.2826 61.0234C97.5845 63.0369 99.3479 64.5565 101.384 64.556C101.971 64.556 102.544 64.4327 103.085 64.1894L107.524 62.191L113.062 59.8443L118.732 63.8139C119.213 64.1513 119.75 64.3784 120.324 64.4886L128.993 66.1413V68.2844L111.053 65.5935C110.331 65.4828 109.592 65.569 108.914 65.8369L97.2153 70.4546C95.9328 70.9611 94.9892 72.0666 94.6905 73.4122L92.4033 83.7056C92.079 85.163 92.5673 86.6888 93.6769 87.6867L99.0685 92.5399C99.9379 93.3221 101.101 93.7002 102.265 93.5822L112.676 92.4809L112.975 108.062C112.983 108.444 113.043 108.822 113.153 109.186L115.052 115.452C116.217 119.299 119.702 121.884 123.722 121.884C127.111 121.884 130.189 120.017 131.756 117.012L146.138 89.4219C146.994 87.7797 146.649 85.7473 145.297 84.48L143.423 82.7233L146.339 81.7515C147.712 81.2936 148.73 80.1787 149.063 78.7704C149.395 77.362 148.983 75.9093 147.959 74.8864L143.679 70.6478L143.963 70.2885L152.921 76.0644L160.137 86.4872C160.911 87.6063 162.184 88.2736 163.543 88.2736C165.104 88.2736 166.517 87.4126 167.232 86.0261L170.448 79.7051L177.667 84.8345C178.378 85.34 179.206 85.6074 180.061 85.6074C181.292 85.6068 182.455 85.0627 183.254 84.1134C184.036 83.1834 184.364 81.9552 184.153 80.7442L183.987 79.9939ZM128.051 115.079C127.206 116.699 125.548 117.705 123.721 117.705C121.554 117.705 119.677 116.311 119.048 114.238L117.151 107.98L116.852 92.3984C116.83 91.2423 116.32 90.1399 115.455 89.3734C114.589 88.6068 113.434 88.2387 112.283 88.353L101.862 89.4324L96.4806 84.61L98.7489 74.3381L110.431 69.7225L129.924 72.6467L137.701 82.7661C137.879 83.0037 142.433 87.4888 142.433 87.4888L128.051 115.079ZM180.75 77.3704C180.007 78.2978 179.698 79.502 179.901 80.6732L180.024 81.3824L172.867 76.2973C172.161 75.796 171.332 75.5307 170.469 75.5307C168.908 75.5307 167.494 76.3918 166.78 77.7788L163.552 84.0784L156.356 73.6843C156.045 73.2352 155.655 72.8571 155.195 72.5605L146.229 66.7758C145.557 66.3424 144.78 66.1131 143.981 66.1131C142.797 66.1131 141.668 66.6207 140.881 67.5047L140.557 67.8698C139.1 69.5084 139.174 72.006 140.724 73.5564L144.969 77.8022L140.218 79.408L133.17 70.0217V66.1387C133.17 64.157 131.758 62.4453 129.812 62.0677L121.128 60.3894L115.456 56.4193C114.301 55.6104 112.77 55.4464 111.469 55.9942L105.855 58.3587L101.413 60.4009L100.964 57.5399L106.154 54.5347C106.433 54.3739 106.694 54.1791 106.932 53.9545L112.386 48.7875C113.592 47.646 113.999 45.9014 113.425 44.3432L111.89 40.2247L120.365 31.1512L129.545 35.8806C130.129 36.1814 130.786 36.3407 131.443 36.3407C132.083 36.3407 132.724 36.1893 133.297 35.9031L144.464 30.3199C145.036 30.0327 145.54 29.6118 145.924 29.1006L158.537 12.2632L163.651 12.4199L163.356 13.2204C162.887 14.4919 163.07 15.9133 163.844 17.0235C164.715 18.272 166.18 18.9582 167.74 18.7707L208.227 13.9123C208.452 13.8851 208.68 13.8716 208.904 13.8716C211.906 13.8716 214.4 16.3196 214.464 19.3279L214.631 27.193L214.63 34.3705L209.236 27.9951C208.447 27.0615 207.296 26.5257 206.079 26.5257C204.257 26.5257 202.664 27.6902 202.117 29.4243L201.456 31.5549L196.751 33.5355C195.447 34.0849 194.523 35.2436 194.277 36.6363L193.711 39.8446C193.374 41.7495 194.382 43.6132 196.161 44.3766L200.275 46.1097L197.545 55.4182L190.772 59.5868C188.928 60.721 188.268 63.0364 189.236 64.9721L192.281 71.0159L187.941 75.6237L183.787 75.8211C182.601 75.878 181.494 76.443 180.75 77.3704Z" fill="black"/>
<path d="M220.522 113.724L215.655 104.478C214.936 103.112 213.53 102.264 211.984 102.264C210.612 102.264 209.335 102.939 208.56 104.075L207.29 102.487C206.499 101.498 205.319 100.932 204.051 100.932C203.301 100.932 202.564 101.136 201.919 101.523L190.408 108.43C189.309 109.088 188.567 110.242 188.421 111.514L187.441 120.091C187.307 121.263 187.68 122.44 188.465 123.32C189.367 124.331 190.7 124.846 192.075 124.675L201.824 123.434L203.368 127.102C204.017 128.644 205.517 129.639 207.189 129.639C207.189 129.639 207.189 129.639 207.189 129.639C207.427 129.639 207.666 129.618 207.9 129.578L213.253 128.647C214.566 128.42 215.696 127.567 216.276 126.368L220.586 117.461C221.156 116.282 221.132 114.884 220.522 113.724ZM212.537 124.531L207.209 125.458L205.674 121.812C205.025 120.271 203.525 119.275 201.853 119.275C201.683 119.275 201.51 119.285 201.338 119.307L191.592 120.564L192.557 112.011L204.029 105.097L205.326 106.717C206.117 107.706 207.296 108.273 208.562 108.273C209.934 108.273 211.207 107.602 211.984 106.47L216.826 115.642L212.537 124.531Z" fill="black"/>
<path d="M80.1395 97.3848L60.4542 84.6309C59.3748 83.9317 58.1257 83.562 56.8427 83.562C54.7717 83.562 52.849 84.5249 51.5942 86.1453L47.1791 83.6738L39.2941 72.4489H43.316C44.2747 72.4489 45.21 72.1136 45.9494 71.5053L60.9032 59.2094L69.2258 54.493C70.2389 53.9186 70.9678 52.9384 71.2253 51.8032C71.4832 50.6674 71.2488 49.4685 70.5825 48.5129L63.2139 37.9506C62.4144 36.8055 61.0954 36.1397 59.7085 36.1778C58.3127 36.2128 57.0375 36.9413 56.2976 38.1251L52.4997 44.2775L48.1452 39.3804L56.7994 33.0165C58.4014 31.8379 58.9414 29.6808 58.0834 27.8876L55.9498 23.4255C55.4521 22.3853 54.5352 21.5932 53.4339 21.2527C52.3321 20.9117 51.1284 21.0485 50.1321 21.6261L46.3598 23.8245L29.3126 16.6115L17.0683 9.70562C15.5832 8.86803 13.7039 9.03566 12.3911 10.1208L5.9061 15.4779C5.3364 15.9484 4.90194 16.564 4.65024 17.2575L0.248741 29.3623C-0.206083 30.6118 -0.0301065 32.0144 0.718708 33.1142C1.46804 34.2134 2.70876 34.8896 4.03877 34.9246L13.3807 35.1449L19.3101 49.8048L18.342 64.3231C18.2835 65.2025 18.5127 66.0954 18.9884 66.8369L26.9606 79.2728C27.4405 80.0221 28.1345 80.5871 28.9684 80.9077L44.3035 86.7771C44.4424 86.9097 44.5969 87.0199 44.7609 87.1077L49.2444 89.6178L46.8366 93.2292C45.9771 94.5185 45.9061 96.1634 46.6512 97.5226L51.6971 106.715L51.0391 129.091C51.0109 130.049 51.318 130.993 51.9049 131.752L55.9754 137.009C56.7691 138.034 57.956 138.622 59.2333 138.622C60.3596 138.622 61.4552 138.161 62.239 137.359C63.0144 136.564 63.4264 135.504 63.3993 134.372L63.2123 126.942L78.5025 112.302C79.0518 111.776 79.4455 111.11 79.6408 110.376L81.892 101.934C82.3557 100.193 81.6518 98.3655 80.1395 97.3848ZM30.4781 77.0185L22.5106 64.6009L23.4787 50.0826C23.52 49.4617 23.4186 48.8293 23.1858 48.2529L17.2537 33.5784C16.6339 32.0468 15.1665 31.0301 13.5159 30.9878L4.18915 30.7487L8.56612 18.6987L15.0162 13.3447L27.2604 20.2517C27.3987 20.3295 27.5413 20.3995 27.6818 20.4585L44.7327 27.6725C45.9238 28.1759 47.3039 28.0892 48.4246 27.4422L52.1812 25.2286L54.3247 29.6521L45.67 36.0154C44.7353 36.7026 44.128 37.758 44.0037 38.911C43.8795 40.0639 44.2476 41.2248 45.0136 42.0952L49.3634 47.0382C50.2376 48.0314 51.495 48.5416 52.8135 48.4314C54.132 48.3239 55.2908 47.6184 55.9921 46.4967L59.815 40.3804L67.1669 50.858L58.8474 55.5729C58.6416 55.6888 58.4437 55.8245 58.2552 55.9786L43.3165 68.2708C43.3165 68.2708 38.6722 68.2714 38.6477 68.2719C37.2331 68.2938 35.9511 69.0985 35.302 70.3716C34.6352 71.6797 34.7422 73.2342 35.5819 74.4295L39.9437 80.6388L30.4781 77.0185ZM75.6122 109.284L60.3226 123.923C59.4829 124.727 59.0171 125.855 59.0448 127.017L59.2187 134.375L55.214 129.214L55.872 106.837C55.8934 106.1 55.7179 105.368 55.3628 104.722L50.3117 95.5462L54.7832 88.8397C55.2422 88.1505 56.0124 87.7395 56.8427 87.7395C57.3179 87.7395 57.7811 87.8768 58.1826 88.1374L77.855 100.857L75.6122 109.284Z" fill="black"/>
<path d="M71.0511 15.3667L73.2986 17.0695V37.6625C73.2986 39.9507 75.1612 41.8123 77.4505 41.8123C78.2521 41.8123 79.0348 41.5773 79.7142 41.1324L93.9479 31.826C94.8393 31.2432 95.4654 30.3518 95.7119 29.3164L100.459 9.37826C100.813 7.89003 100.323 6.33496 99.1797 5.31931L94.7918 1.41858C93.6278 0.383609 91.9093 0.0896176 90.467 0.68021L71.9999 8.2352C70.6078 8.80438 69.6579 10.0346 69.4595 11.5255C69.2611 13.0163 69.8558 14.4523 71.0511 15.3667ZM92.0164 4.54125L96.3944 8.41117L91.6607 28.3305L77.4756 37.6045V17.0701C77.4756 15.7865 76.8672 14.5552 75.8479 13.7761L73.6318 12.0816L92.0164 4.54125Z" fill="black"/>
</svg>
