<svg width="210" height="210" viewBox="0 0 210 210" fill="none" xmlns="http://www.w3.org/2000/svg">
<path d="M104.999 0C63.0629 0 28.9453 34.1176 28.9453 76.0536C28.9453 128.098 97.0062 204.501 99.904 207.728C102.626 210.76 107.378 210.754 110.095 207.728C112.992 204.501 181.053 128.098 181.053 76.0536C181.053 34.1176 146.935 0 104.999 0ZM104.999 114.318C83.9001 114.318 66.7351 97.1529 66.7351 76.0536C66.7351 54.9544 83.9005 37.7893 104.999 37.7893C126.098 37.7893 143.263 54.9548 143.263 76.054C143.263 97.1533 126.098 114.318 104.999 114.318Z" fill="black"/>
</svg>
