<svg width="233" height="233" viewBox="0 0 233 233" fill="none" xmlns="http://www.w3.org/2000/svg">
<g clip-path="url(#clip0_495_149)">
<path d="M220.705 94.5941C228.157 88.9167 233 79.9733 233 69.9C233 52.7706 219.063 38.8333 201.933 38.8333C184.804 38.8333 170.867 52.7706 170.867 69.9C170.867 79.1811 174.979 87.5031 181.453 93.2H160.824L134.779 67.1545C133.26 65.6361 130.806 65.6361 129.288 67.1545L113.754 82.6878C112.236 84.2062 112.236 86.6605 113.754 88.1788L148.704 123.129C149.431 123.859 150.417 124.267 151.45 124.267H182.517V151.45H163.1H115.987L135.264 122.539L128.802 118.232L106.656 151.45H97.0833V132.033C97.0833 129.886 95.3475 128.15 93.2 128.15H62.1333V112.617C62.1333 104.431 57.0229 97.4445 49.8387 94.5941C57.2908 88.9167 62.1333 79.9733 62.1333 69.9C62.1333 52.7706 48.1961 38.8333 31.0667 38.8333C13.9373 38.8333 0 52.7706 0 69.9C0 79.9733 4.84252 88.9167 12.2946 94.5941C5.11047 97.4445 0 104.431 0 112.617V166.983C0 177.69 8.71032 186.4 19.4167 186.4V233H27.1833V186.4H54.3667V229.117C54.3667 231.264 56.1025 233 58.25 233H85.4333C87.5808 233 89.3167 231.264 89.3167 229.117V170.867C89.3167 166.498 87.8682 162.463 85.4256 159.217H89.3167H93.2H112.617V225.233H97.0833V233H135.917V225.233H120.383V159.217H147.668C145.202 162.471 143.683 166.478 143.683 170.867V229.117C143.683 231.264 145.419 233 147.567 233H174.75C176.897 233 178.633 231.264 178.633 229.117V186.4H205.817V233H213.583V186.4C224.29 186.4 233 177.69 233 166.983V112.617C233 104.431 227.89 97.4445 220.705 94.5941ZM7.76667 69.9C7.76667 57.05 18.2167 46.6 31.0667 46.6C43.9166 46.6 54.3667 57.05 54.3667 69.9C54.3667 82.7499 43.9166 93.2 31.0667 93.2C18.2167 93.2 7.76667 82.7499 7.76667 69.9ZM89.3167 151.45H38.8333V120.383H31.0667V155.333C31.0667 157.481 32.8025 159.217 34.95 159.217H69.9C76.323 159.217 81.55 164.444 81.55 170.867V225.233H62.1333V182.517C62.1333 180.369 60.3975 178.633 58.25 178.633H19.4167C12.9936 178.633 7.76667 173.406 7.76667 166.983V112.617C7.76667 106.194 12.9936 100.967 19.4167 100.967H42.7167C49.1397 100.967 54.3667 106.194 54.3667 112.617V132.033C54.3667 134.181 56.1025 135.917 58.25 135.917H89.3167V151.45ZM178.633 69.9C178.633 57.05 189.083 46.6 201.933 46.6C214.783 46.6 225.233 57.05 225.233 69.9C225.233 82.7499 214.783 93.2 201.933 93.2C189.083 93.2 178.633 82.7499 178.633 69.9ZM225.233 166.983C225.233 173.406 220.006 178.633 213.583 178.633H174.75C172.603 178.633 170.867 180.369 170.867 182.517V225.233H151.45V170.867C151.45 164.444 156.677 159.217 163.1 159.217H186.4C188.547 159.217 190.283 157.481 190.283 155.333V120.383C190.283 118.236 188.547 116.5 186.4 116.5H153.058L121.991 85.4333L132.033 75.391L156.471 99.8288C157.197 100.559 158.184 100.967 159.217 100.967H213.583C220.006 100.967 225.233 106.194 225.233 112.617V166.983Z" fill="black"/>
<path d="M155.334 0H77.6676C71.2445 0 66.0176 5.22697 66.0176 11.65V42.7167C66.0176 49.1397 71.2445 54.3667 77.6676 54.3667H81.5509V77.6667C81.5509 79.2355 82.4946 80.6568 83.9469 81.2549C84.4285 81.4568 84.9333 81.55 85.4342 81.55C86.4439 81.55 87.438 81.1539 88.1798 80.4122L114.225 54.3667H155.334C161.757 54.3667 166.984 49.1397 166.984 42.7167V11.65C166.984 5.22697 161.757 0 155.334 0ZM159.218 42.7167C159.218 44.8603 157.478 46.6 155.334 46.6H112.618C111.585 46.6 110.598 47.0078 109.872 47.7378L89.3176 68.2923V50.4833C89.3176 48.3359 87.5817 46.6 85.4342 46.6H77.6676C75.524 46.6 73.7842 44.8603 73.7842 42.7167V11.65C73.7842 9.5064 75.524 7.76667 77.6676 7.76667H155.334C157.478 7.76667 159.218 9.5064 159.218 11.65V42.7167Z" fill="black"/>
<path d="M104.851 15.5332H81.5508V23.2999H104.851V15.5332Z" fill="black"/>
<path d="M151.451 31.0669H81.5508V38.8336H151.451V31.0669Z" fill="black"/>
<path d="M151.451 15.5332H112.617V23.2999H151.451V15.5332Z" fill="black"/>
</g>
<defs>
<clipPath id="clip0_495_149">
<rect width="233" height="233" fill="white"/>
</clipPath>
</defs>
</svg>
