<svg width="67" height="77" viewBox="0 0 67 77" fill="none" xmlns="http://www.w3.org/2000/svg">
<path d="M35.6652 48.329H31.2629C29.6621 48.329 28.3654 47.0324 28.3654 45.4315C28.3654 43.8307 29.6621 42.534 31.2629 42.534H39.011C40.0675 42.534 40.932 41.6696 40.932 40.613C40.932 39.5565 40.0675 38.692 39.011 38.692H35.3771V36.0187C35.3771 34.9621 34.5126 34.0977 33.4561 34.0977C32.3995 34.0977 31.5351 34.9621 31.5351 36.0187V38.692H31.2629C27.549 38.692 24.5234 41.7176 24.5234 45.4315C24.5234 49.1455 27.549 52.171 31.2629 52.171H35.6652C37.2661 52.171 38.5627 53.4677 38.5627 55.0686C38.5627 56.6694 37.2661 57.9661 35.6652 57.9661H27.7731C26.7166 57.9661 25.8521 58.8305 25.8521 59.8871C25.8521 60.9436 26.7166 61.8081 27.7731 61.8081H31.5511V64.5455C31.5511 65.602 32.4155 66.4665 33.4721 66.4665C34.5286 66.4665 35.3931 65.602 35.3931 64.5455V61.8081H35.7132C35.7293 61.8081 35.7453 61.8081 35.7613 61.8081C39.4432 61.76 42.4047 58.7505 42.4047 55.0686C42.4047 51.3546 39.3792 48.329 35.6652 48.329Z" fill="black"/>
<path d="M62.3364 43.9748C60.3193 39.3324 57.5339 34.8341 54.0121 30.6239C49.7538 25.5012 45.5116 22.0755 43.3505 20.4906L51.5148 5.34678C51.915 4.59439 51.7869 3.6659 51.1626 3.0736C49.0495 1.00852 46.8083 0 44.311 0C42.0218 0 39.9247 0.864449 38.0998 1.63285C36.659 2.22516 35.2983 2.80146 34.1938 2.80146C33.8576 2.80146 33.5694 2.75343 33.2813 2.64137C29.4713 1.24865 26.5418 0.3842 23.7083 0.3842C20.1225 0.3842 17.0649 1.82495 14.0713 4.89854C13.447 5.53888 13.3509 6.5474 13.8472 7.29979L22.6518 20.6027C20.4746 22.2195 16.3125 25.6133 12.1343 30.6239C8.62848 34.8341 5.82703 39.3324 3.80998 43.9748C1.28067 49.8179 0 55.917 0 62.0963C0 70.3085 6.69148 77 14.9037 77H51.2426C59.4549 77 66.1464 70.3085 66.1464 62.0963C66.1464 55.917 64.8657 49.8179 62.3364 43.9748ZM17.9453 6.49938C19.8023 4.89854 21.5792 4.19418 23.7083 4.19418C25.9815 4.19418 28.5428 4.96258 31.9526 6.22724C32.657 6.48337 33.4094 6.61143 34.1778 6.61143C36.0507 6.61143 37.8437 5.87505 39.5565 5.15468C41.2054 4.46632 42.7742 3.80998 44.295 3.80998C45.0314 3.80998 46.0719 3.93805 47.3846 4.86653L39.7006 19.1459H26.3177L17.9453 6.49938ZM51.2426 73.158H14.9037C8.80457 73.158 3.842 68.1954 3.842 62.0963C3.842 51.8349 7.60395 42.1019 14.9998 33.1692C19.6742 27.5183 24.4287 24.0125 25.8694 22.9879H40.2449C41.7017 23.9965 46.4401 27.5183 51.1146 33.1692C58.5264 42.1019 62.2724 51.8189 62.2724 62.0963C62.3044 68.1954 57.3418 73.158 51.2426 73.158Z" fill="black"/>
</svg>
