<svg width="146" height="146" viewBox="0 0 146 146" fill="none" xmlns="http://www.w3.org/2000/svg">
<path d="M85.5978 99.1989C82.6898 97.9525 79.0202 97.1739 75.0781 96.9464V65.3906H70.2344V96.9464C66.2923 97.1739 62.6227 97.9525 59.7147 99.1989C54.117 101.598 53.2812 104.842 53.2812 106.562V135.625C53.2812 137.345 54.117 140.59 59.7147 142.989C63.2112 144.487 67.8075 145.312 72.6562 145.312C77.505 145.312 82.1013 144.487 85.5978 142.989C91.1955 140.59 92.0312 137.345 92.0312 135.625V106.562C92.0312 104.842 91.1955 101.598 85.5978 99.1989ZM87.1875 135.625C87.1875 137.333 81.6706 140.469 72.6562 140.469C63.6419 140.469 58.125 137.333 58.125 135.625V127.686C58.6075 127.95 59.1341 128.209 59.7147 128.457C63.2112 129.956 67.8075 130.781 72.6562 130.781C77.505 130.781 82.1013 129.956 85.5978 128.457C86.1784 128.209 86.705 127.95 87.1875 127.686V135.625ZM87.1875 121.094C87.1875 122.801 81.6706 125.938 72.6562 125.938C63.6419 125.938 58.125 122.801 58.125 121.094V113.155C58.6075 113.419 59.1341 113.677 59.7147 113.926C63.2112 115.425 67.8075 116.25 72.6562 116.25C77.505 116.25 82.1013 115.425 85.5978 113.926C86.1784 113.677 86.705 113.419 87.1875 113.155V121.094ZM72.6562 111.406C63.6419 111.406 58.125 108.27 58.125 106.562C58.125 104.855 63.6419 101.719 72.6562 101.719C81.6706 101.719 87.1875 104.855 87.1875 106.562C87.1875 108.27 81.6706 111.406 72.6562 111.406Z" fill="black"/>
<path d="M138.879 99.1989C135.383 97.7003 130.786 96.875 125.938 96.875C121.089 96.875 116.492 97.7003 112.996 99.1989C110.707 100.18 109.215 101.302 108.25 102.403L87.1875 81.3406V65.3906H82.3438V83.3469L106.562 107.566V135.625C106.562 137.345 107.398 140.59 112.996 142.989C116.492 144.487 121.089 145.312 125.938 145.312C130.786 145.312 135.383 144.487 138.879 142.989C144.477 140.59 145.312 137.345 145.312 135.625V106.562C145.312 104.842 144.477 101.598 138.879 99.1989ZM140.469 135.625C140.469 137.333 134.952 140.469 125.938 140.469C116.923 140.469 111.406 137.333 111.406 135.625V127.686C111.889 127.95 112.415 128.209 112.996 128.457C116.492 129.956 121.089 130.781 125.938 130.781C130.786 130.781 135.383 129.956 138.879 128.457C139.46 128.209 139.986 127.95 140.469 127.686V135.625ZM140.469 121.094C140.469 122.801 134.952 125.938 125.938 125.938C116.923 125.938 111.406 122.801 111.406 121.094V113.155C111.889 113.419 112.415 113.677 112.996 113.926C116.492 115.425 121.089 116.25 125.938 116.25C130.786 116.25 135.383 115.425 138.879 113.926C139.46 113.677 139.986 113.419 140.469 113.155V121.094ZM125.938 111.406C116.923 111.406 111.406 108.27 111.406 106.562C111.406 104.855 116.923 101.719 125.938 101.719C134.952 101.719 140.469 104.855 140.469 106.562C140.469 108.27 134.952 111.406 125.938 111.406Z" fill="black"/>
<path d="M62.9688 65.3906H58.125V81.3406L37.0621 102.403C36.0972 101.302 34.6053 100.18 32.3166 99.1989C28.8201 97.7003 24.2238 96.875 19.375 96.875C14.5262 96.875 9.92992 97.7003 6.43341 99.1989C0.835771 101.598 0 104.842 0 106.562V135.625C0 137.345 0.835771 140.59 6.43341 142.989C9.92992 144.487 14.5262 145.312 19.375 145.312C24.2238 145.312 28.8201 144.487 32.3166 142.989C37.9142 140.59 38.75 137.345 38.75 135.625V107.566L62.9688 83.3469V65.3906ZM33.9062 135.625C33.9062 137.333 28.3893 140.469 19.375 140.469C10.3607 140.469 4.84375 137.333 4.84375 135.625V127.686C5.32623 127.95 5.85284 128.209 6.43341 128.457C9.92992 129.956 14.5262 130.781 19.375 130.781C24.2238 130.781 28.8201 129.956 32.3166 128.457C32.8972 128.209 33.4238 127.95 33.9062 127.686V135.625ZM33.9062 121.094C33.9062 122.801 28.3893 125.938 19.375 125.938C10.3607 125.938 4.84375 122.801 4.84375 121.094V113.155C5.32623 113.419 5.85284 113.677 6.43341 113.926C9.92992 115.425 14.5262 116.25 19.375 116.25C24.2238 116.25 28.8201 115.425 32.3166 113.926C32.8972 113.677 33.4238 113.419 33.9062 113.155V121.094ZM19.375 111.406C10.3607 111.406 4.84375 108.27 4.84375 106.562C4.84375 104.855 10.3607 101.719 19.375 101.719C28.3893 101.719 33.9062 104.855 33.9062 106.562C33.9062 108.27 28.3893 111.406 19.375 111.406Z" fill="black"/>
<path d="M36.3281 82.3438H48.4375V77.5H36.3281C30.5472 77.5 25.0031 75.2035 20.9154 71.1158C16.8277 67.0281 14.5313 61.484 14.5312 55.7031C14.5312 49.9222 16.8277 44.3781 20.9154 40.2904C25.0031 36.2027 30.5472 33.9063 36.3281 33.9063C36.3556 33.9063 36.3831 33.9082 36.4107 33.9083C36.3578 34.7084 36.3281 35.5148 36.3281 36.3281C36.3131 43.7534 38.5873 51.0027 42.8411 57.0888L46.8139 54.3178C44.1545 50.4947 42.3763 46.1293 41.6074 41.5361C40.8385 36.943 41.098 32.2365 42.3673 27.7557C43.6365 23.275 45.8839 19.1316 48.9475 15.6241C52.0111 12.1165 55.8146 9.33228 60.0839 7.47189C64.3532 5.61149 68.9821 4.72128 73.6369 4.86542C78.2917 5.00956 82.8566 6.18444 87.0026 8.30542C91.1487 10.4264 94.7726 13.4407 97.6133 17.131C100.454 20.8213 102.441 25.0959 103.43 29.6466C97.4671 30.9262 92.1221 34.2099 88.2854 38.9509C84.4487 43.6919 82.3518 49.6041 82.3438 55.7031H87.1875C87.1875 51.3921 88.4659 47.1779 90.8609 43.5934C93.256 40.009 96.6602 37.2152 100.643 35.5654C104.626 33.9157 109.009 33.484 113.237 34.3251C117.465 35.1661 121.349 37.2421 124.397 40.2904C127.445 43.3388 129.521 47.2226 130.362 51.4508C131.203 55.6789 130.772 60.0616 129.122 64.0444C127.472 68.0273 124.679 71.4315 121.094 73.8266C117.51 76.2216 113.295 77.5 108.984 77.5H94.4531V82.3438H108.984C116.05 82.3438 122.826 79.537 127.822 74.5409C132.818 69.5448 135.625 62.7687 135.625 55.7031C135.625 48.6376 132.818 41.8614 127.822 36.8654C122.826 31.8693 116.05 29.0625 108.984 29.0625C108.741 29.0625 108.499 29.0659 108.257 29.0728C106.583 20.8653 102.125 13.4883 95.637 8.19037C89.1488 2.89244 81.0294 -0.000925754 72.653 2.22189e-07C64.2766 0.000926198 56.1578 2.89609 49.6708 8.19545C43.1838 13.4948 38.7271 20.8728 37.0551 29.0806C36.8128 29.0741 36.5705 29.0625 36.3281 29.0625C29.2626 29.0625 22.4864 31.8693 17.4904 36.8654C12.4943 41.8614 9.6875 48.6376 9.6875 55.7031C9.6875 62.7687 12.4943 69.5448 17.4904 74.5409C22.4864 79.537 29.2626 82.3437 36.3281 82.3438V82.3438Z" fill="black"/>
</svg>
