<svg width="154" height="154" viewBox="0 0 154 154" fill="none" xmlns="http://www.w3.org/2000/svg">
<g clip-path="url(#clip0_418_34)">
<path d="M147.591 13.8898C146.78 12.9435 145.356 12.8328 144.41 13.6432C143.464 14.4532 143.353 15.8775 144.164 16.8241C146.181 19.1809 147.888 21.5479 149.099 23.6688C149.763 24.832 149.568 26.3035 148.624 27.2474L128.903 46.9686C127.542 48.3291 124.178 48.336 119.599 47.064L128.645 31.5819C129.705 29.7681 129.419 27.5515 127.934 26.0661C126.449 24.5808 124.232 24.2947 122.418 25.3548L106.936 34.4016C105.664 29.8216 105.672 26.4578 107.032 25.0976L126.753 5.37634C127.697 4.43243 129.169 4.23781 130.333 4.90198C132.388 6.07599 134.68 7.71745 136.958 9.64948C137.908 10.4553 139.332 10.338 140.138 9.38748C140.943 8.43696 140.826 7.01358 139.876 6.20774C137.353 4.06937 134.895 2.3118 132.57 0.983779C129.645 -0.686855 125.941 -0.192944 123.562 2.18577L103.841 21.907C99.667 26.0809 101.907 34.3152 103.985 39.852C101.312 42.5249 42.5295 101.307 39.8521 103.985C34.3249 101.908 26.0812 99.6667 21.9071 103.841L2.18553 123.562C-0.19258 125.941 -0.687092 129.645 0.983842 132.57C5.22089 139.99 14.0111 148.78 21.4312 153.017C24.3565 154.688 28.0599 154.192 30.4377 151.815L50.1589 132.093C54.3334 127.919 52.0919 119.673 50.0149 114.149C52.2705 111.893 76.5844 87.5791 77.549 86.6144C78.4301 85.7334 78.4301 84.3049 77.549 83.4242C76.6677 82.5431 75.2395 82.5431 74.3585 83.4242L56.4498 101.333L52.6676 97.5505L97.5497 52.6684L101.332 56.4507L81.8026 75.9797C80.9216 76.8607 80.9216 78.2892 81.8026 79.17C82.684 80.051 84.1122 80.051 84.9932 79.17L114.147 50.0157C117.558 51.298 121.689 52.5132 125.329 52.5132C128.262 52.5132 130.524 51.7291 132.092 50.1598L151.814 30.4385C154.192 28.0601 154.686 24.3564 153.016 21.432C151.648 19.0332 149.822 16.4959 147.591 13.8898V13.8898ZM45.5904 115.234L29.3055 124.749C29.2953 124.755 29.2869 124.76 29.2802 124.763C29.2646 124.752 29.2474 124.735 29.2366 124.72C29.2399 124.713 29.2438 124.705 29.2502 124.694L38.7659 108.409C41.872 109.705 44.3214 112.193 45.5904 115.234V115.234ZM46.9684 128.903L27.2471 148.624C26.3032 149.568 24.8317 149.763 23.6685 149.099C16.8585 145.21 8.79076 137.143 4.90204 130.333C4.23728 129.169 4.43219 127.697 5.3764 126.753L25.0976 107.032C25.7913 106.338 27.0053 105.996 28.6365 105.996C30.2034 105.996 32.1571 106.314 34.401 106.937L25.3548 122.418C24.2951 124.232 24.5812 126.449 26.0662 127.934C27.5528 129.42 29.769 129.705 31.5822 128.646L47.064 119.599C48.3361 124.178 48.3289 127.542 46.9684 128.903V128.903ZM53.2593 104.523L47.7884 109.994C46.7325 108.544 45.456 107.267 44.0061 106.211L49.4767 100.741L53.2593 104.523ZM104.523 53.2595L100.741 49.4773L106.212 44.0067C107.267 45.4565 108.544 46.7328 109.993 47.7886L104.523 53.2595ZM115.233 45.5907C112.072 44.269 109.661 41.7606 108.409 38.7667L124.694 29.2507C124.704 29.2447 124.713 29.2405 124.719 29.2375C124.735 29.248 124.752 29.2651 124.763 29.2808C124.759 29.2874 124.755 29.2958 124.749 29.3063L115.233 45.5907Z" fill="black"/>
</g>
<defs>
<clipPath id="clip0_418_34">
<rect width="154" height="154" fill="white"/>
</clipPath>
</defs>
</svg>
