<svg width="42" height="42" viewBox="0 0 42 42" fill="none" xmlns="http://www.w3.org/2000/svg">
<path d="M32.5099 26.302C31.667 25.4243 30.6503 24.9551 29.5727 24.9551C28.5038 24.9551 27.4784 25.4157 26.6008 26.2933L23.8548 29.0307C23.6288 28.909 23.4029 28.796 23.1856 28.6831C22.8728 28.5266 22.5773 28.3789 22.3253 28.2225C19.7531 26.5888 17.4155 24.4598 15.1736 21.7051C14.0873 20.3321 13.3574 19.1763 12.8273 18.0032C13.5399 17.3514 14.2003 16.6736 14.8433 16.0219C15.0867 15.7786 15.33 15.5266 15.5733 15.2832C17.3982 13.4584 17.3982 11.0947 15.5733 9.26984L13.2009 6.8975C12.9316 6.62811 12.6535 6.35003 12.3928 6.07196C11.8714 5.53318 11.3239 4.97703 10.7591 4.45564C9.91617 3.62141 8.90814 3.17822 7.84797 3.17822C6.7878 3.17822 5.7624 3.62141 4.89341 4.45564C4.88472 4.46433 4.88472 4.46433 4.87603 4.47302L1.92146 7.45365C0.809158 8.56596 0.174796 9.92158 0.0357576 11.4945C-0.1728 14.0319 0.574531 16.3955 1.14806 17.9424C2.55583 21.7398 4.65878 25.2592 7.79583 29.0307C11.602 33.5755 16.1816 37.1644 21.4129 39.6932C23.4116 40.6404 26.0794 41.7613 29.06 41.9525C29.2425 41.9612 29.4337 41.9699 29.6075 41.9699C31.6148 41.9699 33.3007 41.2486 34.6215 39.8148C34.6302 39.7974 34.6476 39.7887 34.6563 39.7714C35.1082 39.2239 35.6296 38.7286 36.177 38.1985C36.5507 37.8422 36.933 37.4685 37.3067 37.0775C38.167 36.1824 38.6189 35.1396 38.6189 34.0708C38.6189 32.9932 38.1583 31.9591 37.2806 31.0902L32.5099 26.302ZM35.6209 35.4525C35.6122 35.4525 35.6122 35.4612 35.6209 35.4525C35.282 35.8175 34.9344 36.1477 34.5607 36.5127C33.9959 37.0514 33.4223 37.6163 32.8836 38.2506C32.0059 39.1891 30.9718 39.6323 29.6162 39.6323C29.4858 39.6323 29.3468 39.6323 29.2164 39.6236C26.6355 39.4585 24.2371 38.4505 22.4383 37.5902C17.5198 35.2092 13.2009 31.8288 9.61202 27.5447C6.64877 23.9731 4.66747 20.671 3.3553 17.1255C2.54714 14.9617 2.25168 13.2759 2.38203 11.6856C2.46893 10.6689 2.85997 9.82599 3.58123 9.10473L6.54449 6.14148C6.97029 5.74174 7.42217 5.52449 7.86535 5.52449C8.41282 5.52449 8.856 5.85471 9.13408 6.13279C9.14277 6.14148 9.15145 6.15017 9.16014 6.15886C9.69023 6.65418 10.1942 7.16688 10.7243 7.71435C10.9937 7.99242 11.2718 8.2705 11.5499 8.55727L13.9222 10.9296C14.8433 11.8507 14.8433 12.7023 13.9222 13.6235C13.6702 13.8755 13.4269 14.1275 13.1749 14.3708C12.4449 15.1181 11.7497 15.8133 10.9937 16.4911C10.9763 16.5085 10.959 16.5172 10.9503 16.5346C10.2029 17.2819 10.342 18.0119 10.4984 18.5072C10.5071 18.5333 10.5158 18.5593 10.5245 18.5854C11.1414 20.0801 12.0104 21.4878 13.3313 23.165L13.34 23.1737C15.7384 26.1282 18.2672 28.4311 21.0566 30.1951C21.4129 30.421 21.7779 30.6035 22.1255 30.7773C22.4383 30.9337 22.7338 31.0815 22.9858 31.2379C23.0205 31.2553 23.0553 31.2813 23.09 31.2987C23.3855 31.4464 23.6636 31.516 23.9503 31.516C24.6716 31.516 25.1235 31.0641 25.2712 30.9164L28.2431 27.9444C28.5386 27.649 29.0079 27.2927 29.5553 27.2927C30.0941 27.2927 30.5373 27.6316 30.8067 27.927C30.8154 27.9357 30.8154 27.9357 30.824 27.9444L35.6122 32.7325C36.5072 33.6189 36.5072 34.5314 35.6209 35.4525Z" fill="black"/>
<path d="M22.2195 10.5909C24.4963 10.9732 26.5645 12.0508 28.2156 13.7019C29.8667 15.353 30.9355 17.4211 31.3266 19.6979C31.4221 20.2714 31.9175 20.6712 32.4823 20.6712C32.5518 20.6712 32.6127 20.6625 32.6822 20.6538C33.3252 20.5495 33.751 19.9412 33.6468 19.2982C33.1775 16.5435 31.874 14.0321 29.884 12.0421C27.894 10.0521 25.3827 8.74863 22.628 8.27938C21.9849 8.1751 21.3853 8.6009 21.2723 9.23527C21.1594 9.86963 21.5765 10.4866 22.2195 10.5909Z" fill="black"/>
<path d="M41.097 18.9593C40.3236 14.4231 38.1859 10.2954 34.9011 7.01065C31.6163 3.72587 27.4886 1.58816 22.9525 0.81476C22.3181 0.701791 21.7185 1.13629 21.6055 1.77065C21.5013 2.4137 21.9271 3.0133 22.5701 3.12627C26.6196 3.81277 30.3128 5.73324 33.25 8.66173C36.1872 11.5989 38.099 15.2921 38.7855 19.3416C38.8811 19.9151 39.3764 20.3149 39.9412 20.3149C40.0107 20.3149 40.0716 20.3062 40.1411 20.2975C40.7754 20.2019 41.2099 19.5936 41.097 18.9593Z" fill="black"/>
</svg>
