<svg width="140" height="175" viewBox="0 0 140 175" fill="none" xmlns="http://www.w3.org/2000/svg">
<path d="M77.1133 21.6598C76.8916 21.6598 76.666 21.6358 76.443 21.5917C76.2281 21.5503 76.0131 21.4822 75.8048 21.3968C75.5992 21.3113 75.4003 21.2045 75.216 21.0817C75.0278 20.9588 74.8542 20.8147 74.6967 20.6584C74.5391 20.5009 74.3963 20.326 74.2694 20.1391C74.1466 19.9535 74.0411 19.7559 73.9557 19.5476C73.8702 19.342 73.8048 19.127 73.7607 18.9081C73.7153 18.6891 73.6953 18.4635 73.6953 18.2418C73.6953 18.0202 73.7153 17.7946 73.7607 17.5756C73.8048 17.3566 73.8702 17.1403 73.9557 16.9361C74.0411 16.7278 74.1466 16.5288 74.2694 16.3446C74.3963 16.1563 74.5391 15.9828 74.6967 15.8252C74.8542 15.6677 75.0291 15.5248 75.216 15.402C75.4003 15.2751 75.5992 15.1723 75.8048 15.0869C76.0131 15.0014 76.2281 14.9333 76.443 14.8893C76.8836 14.8038 77.3389 14.8038 77.7795 14.8893C77.9985 14.9333 78.2134 15.0014 78.4191 15.0869C78.6273 15.1723 78.8249 15.2751 79.0105 15.402C79.1974 15.5248 79.3723 15.6677 79.5299 15.8252C79.6874 15.9828 79.8303 16.1563 79.9531 16.3446C80.076 16.5288 80.1828 16.7278 80.2682 16.9361C80.3537 17.1417 80.4178 17.3566 80.4632 17.5756C80.5072 17.7946 80.5312 18.0202 80.5312 18.2418C80.5312 18.4635 80.5072 18.6891 80.4632 18.9081C80.4178 19.127 80.3537 19.342 80.2682 19.5476C80.1828 19.7559 80.076 19.9535 79.9531 20.1391C79.8303 20.326 79.6874 20.5009 79.5299 20.6584C79.3723 20.8147 79.1974 20.9588 79.0105 21.0817C78.8249 21.2045 78.6273 21.3113 78.4191 21.3968C78.2134 21.4822 77.9985 21.5503 77.7795 21.5917C77.5606 21.6358 77.3363 21.6598 77.1133 21.6598Z" fill="black"/>
<path d="M49.5353 166.737C44.3697 166.737 40.168 162.535 40.168 157.371C40.168 152.205 44.3697 148.003 49.5353 148.003C54.701 148.003 58.904 152.205 58.904 157.371C58.904 162.535 54.701 166.737 49.5353 166.737V166.737ZM49.5353 154.839C48.1401 154.839 47.0039 155.974 47.0039 157.371C47.0039 158.766 48.1401 159.901 49.5353 159.901C50.9319 159.901 52.0681 158.766 52.0681 157.371C52.0681 155.974 50.9319 154.839 49.5353 154.839Z" fill="black"/>
<path d="M130.327 28.767H99.0717V10.6157C99.0717 4.76246 94.3079 0 88.4533 0H10.6184C4.76246 0 0 4.76246 0 10.6157V164.384C0 170.238 4.76379 175 10.6184 175H88.4533C94.3079 175 99.0717 170.238 99.0717 164.384V105.41H130.327C135.278 105.41 139.308 101.381 139.308 96.4308V37.7459C139.306 32.7938 135.278 28.767 130.327 28.767V28.767ZM92.2344 164.384C92.2344 166.468 90.5388 168.164 88.4533 168.164H10.6184C8.53291 168.164 6.83594 166.468 6.83594 164.384V146.576H92.2358V164.384H92.2344ZM92.2344 139.74H6.83594V21.66H63.0362C64.9241 21.66 66.4541 20.13 66.4541 18.2421C66.4541 16.3542 64.9241 14.8241 63.0362 14.8241H6.83594V10.6157C6.83594 8.53157 8.53291 6.83594 10.6184 6.83594H88.4533C90.5388 6.83594 92.2358 8.53157 92.2358 10.6157V28.767H62.0428C57.0921 28.767 53.064 32.7938 53.064 37.7459V96.4308C53.064 101.381 57.0921 105.41 62.0428 105.41H66.832V111.578C66.832 112.77 67.4528 113.876 68.4702 114.497C69.0163 114.829 69.6318 114.996 70.2499 114.996C70.7853 114.996 71.3234 114.87 71.8147 114.617L89.695 105.41H92.2358V139.74H92.2344ZM132.47 96.4308C132.47 97.6124 131.509 98.5737 130.327 98.5737H88.8659C88.3211 98.5737 87.7857 98.7032 87.3011 98.9529L73.6679 105.973V101.992C73.6679 100.104 72.1365 98.5737 70.2499 98.5737H62.0428C60.8612 98.5737 59.8999 97.6124 59.8999 96.4308V37.7459C59.8999 36.5643 60.8612 35.603 62.0428 35.603H130.327C131.509 35.603 132.47 36.5643 132.47 37.7459V96.4308Z" fill="black"/>
<path d="M27.4977 88.3839C26.4483 88.3839 25.4122 87.9019 24.742 86.9913C20.7913 81.6201 18.7031 75.2554 18.7031 68.5864C18.7031 61.916 20.7913 55.5527 24.742 50.1814C25.8608 48.6607 27.9997 48.3349 29.5205 49.4538C31.0412 50.5726 31.367 52.7115 30.2481 54.2322C27.1679 58.4206 25.5391 63.3833 25.5391 68.5864C25.5391 73.7881 27.1679 78.7508 30.2481 82.9405C31.367 84.4612 31.0412 86.6001 29.5205 87.719C28.9116 88.1676 28.2013 88.3839 27.4977 88.3839Z" fill="black"/>
<path d="M39.3149 81.6213C38.2522 81.6213 37.2054 81.1273 36.5365 80.1994C34.0919 76.8001 32.8008 72.784 32.8008 68.5863C32.8008 64.3886 34.0919 60.3738 36.5365 56.9745C37.6393 55.4418 39.7742 55.092 41.307 56.1948C42.8397 57.2963 43.1895 59.4325 42.0867 60.9653C40.4832 63.195 39.6367 65.8292 39.6367 68.5863C39.6367 71.3433 40.4832 73.9776 42.0867 76.2073C43.1895 77.74 42.8397 79.8749 41.307 80.9777C40.7035 81.4117 40.0066 81.6213 39.3149 81.6213Z" fill="black"/>
<path d="M109.967 94.4789C109.696 94.4789 109.419 94.4736 109.135 94.4629C107.847 94.4135 96.2108 93.5136 84.3854 77.317C77.6777 68.1218 71.9833 58.2377 75.707 48.2562C77.8272 42.5725 81.4655 40.0931 82.5189 39.4723C84.0049 38.4549 85.7873 38.0303 87.5644 38.2733C89.4643 38.5337 91.1239 39.5204 92.2374 41.0518L98.0974 49.08C100.374 52.1962 99.6408 56.6209 96.4631 58.944L94.5045 60.3726C95.2842 62.37 96.343 64.6852 98.2082 67.242C100.071 69.7934 101.957 71.5091 103.624 72.8616L105.578 71.4356C108.75 69.1205 113.187 69.7654 115.469 72.8749L121.333 80.9152C121.334 80.9165 121.336 80.9178 121.336 80.9192C123.469 83.8525 122.9 87.9046 119.982 90.5549C118.245 92.1317 115.659 94.4789 109.967 94.4789V94.4789ZM85.9636 45.3776C85.6725 45.5539 83.4802 46.9785 82.1117 50.6461C80.0155 56.2644 82.2746 62.824 89.9076 73.2875C99.8611 86.922 109.325 87.6269 109.419 87.6336C112.881 87.7605 113.934 86.8125 115.386 85.4934C115.65 85.2544 115.759 85.0141 115.78 84.9019L109.951 76.9111C109.931 76.883 109.768 76.8403 109.608 76.9578L106.326 79.3504C104.713 80.6508 102.47 80.6575 100.801 79.3437C98.7583 77.7535 95.654 75.3383 92.686 71.2714C89.7113 67.1939 88.3575 63.5022 87.4616 61.0576C86.9035 59.5582 87.0891 57.4527 88.7594 56.1055C88.8021 56.0708 88.8475 56.0361 88.8929 56.0027L92.431 53.4246C92.5979 53.3017 92.5966 53.1388 92.5765 53.1121L86.7139 45.0786C86.6992 45.0585 86.6592 45.0492 86.6365 45.0465C86.5844 45.0398 86.4816 45.0398 86.3668 45.124C86.2039 45.2415 86.1358 45.2949 85.9636 45.3776V45.3776ZM115.808 84.9406V84.942V84.9406ZM104.993 73.9444C104.999 73.9484 105.004 73.9524 105.011 73.9577C105.004 73.9524 104.999 73.9484 104.993 73.9444Z" fill="black"/>
</svg>
