<svg width="134" height="134" viewBox="0 0 134 134" fill="none" xmlns="http://www.w3.org/2000/svg">
<g clip-path="url(#clip0_378_100)">
<path d="M134 64.3828C134 62.2144 132.243 60.457 130.074 60.457C127.906 60.457 126.148 62.2144 126.148 64.3828C126.148 66.6544 124.984 68.6593 123.22 69.8329C120.741 49.8237 103.634 34.2852 82.9648 34.2852H82.4864C85.079 30.9574 86.6289 26.7812 86.6289 22.2461C86.6289 11.4226 77.8235 2.61719 67 2.61719C56.1765 2.61719 47.3711 11.4226 47.3711 22.2461C47.3711 26.7812 48.921 30.9574 51.5136 34.2852H47.8945C46.2015 34.2852 44.5034 34.3915 42.8207 34.6021C38.1915 28.0489 30.6395 24.0781 22.5078 24.0781C20.3394 24.0781 18.582 25.8355 18.582 28.0039V46.8068C14.8239 50.7377 11.8816 55.4005 9.9586 60.457H3.92578C1.7574 60.457 0 62.2144 0 64.3828V85.3203C0 87.4887 1.7574 89.2461 3.92578 89.2461H9.9586C12.0391 94.7187 15.3095 99.722 19.5226 103.845C23.7254 107.959 28.7829 111.115 34.2852 113.077V127.457C34.2852 129.625 36.0426 131.383 38.2109 131.383H53.9141C56.0824 131.383 57.8398 129.625 57.8398 127.457V115.418H76.1602V127.457C76.1602 129.625 77.9176 131.383 80.0859 131.383H95.7891C97.9574 131.383 99.7148 129.625 99.7148 127.457V111.807C104.133 109.794 108.22 106.968 111.652 103.537C118.5 96.6846 122.596 87.8148 123.387 78.2692C129.496 76.6039 134 71.0117 134 64.3828V64.3828ZM67 10.4688C73.4939 10.4688 78.7773 15.7522 78.7773 22.2461C78.7773 28.74 73.4939 34.0234 67 34.0234C60.5061 34.0234 55.2227 28.74 55.2227 22.2461C55.2227 15.7522 60.5061 10.4688 67 10.4688ZM106.099 97.9861C102.805 101.28 98.7641 103.882 94.413 105.509C92.8795 106.084 91.8633 107.549 91.8633 109.187V123.531H84.0117V111.492C84.0117 109.324 82.2543 107.566 80.0859 107.566H53.9141C51.7457 107.566 49.9883 109.324 49.9883 111.492V123.531H42.1367V110.199C42.1367 108.43 40.9529 106.878 39.2455 106.412C28.4343 103.457 19.7311 94.9456 16.5343 84.2009C16.0395 82.5355 14.509 81.3945 12.7721 81.3945H7.85156V68.3086H12.7721C14.509 68.3086 16.0395 67.1677 16.5343 65.5023C18.075 60.3282 20.9191 55.5611 24.759 51.7181C24.9134 51.5637 25.0698 51.4124 25.2283 51.2611C25.9981 50.5209 26.4336 49.4986 26.4336 48.4302V32.3887C31.0597 33.4867 35.0846 36.4944 37.4329 40.7739C38.2539 42.2696 39.9469 43.064 41.6225 42.7399C43.6835 42.3391 45.7936 42.1367 47.8945 42.1367H82.9648C101.004 42.1367 115.68 56.8124 115.68 74.8516C115.68 83.5895 112.277 91.805 106.099 97.9861V97.9861Z" fill="black"/>
<path d="M38.4727 63.5977C38.4727 65.766 36.7153 67.5234 34.5469 67.5234C32.3785 67.5234 30.6211 65.766 30.6211 63.5977C30.6211 61.4293 32.3785 59.6719 34.5469 59.6719C36.7153 59.6719 38.4727 61.4293 38.4727 63.5977Z" fill="black"/>
<path d="M82.7031 49.7266H51.2969C49.1285 49.7266 47.3711 51.484 47.3711 53.6523C47.3711 55.8207 49.1285 57.5781 51.2969 57.5781H82.7031C84.8715 57.5781 86.6289 55.8207 86.6289 53.6523C86.6289 51.484 84.8715 49.7266 82.7031 49.7266Z" fill="black"/>
</g>
<defs>
<clipPath id="clip0_378_100">
<rect width="134" height="134" fill="white"/>
</clipPath>
</defs>
</svg>
