<svg width="84" height="83" viewBox="0 0 84 83" fill="none" xmlns="http://www.w3.org/2000/svg">
<path fill-rule="evenodd" clip-rule="evenodd" d="M46.6667 4.61111C46.6667 2.06449 44.5774 0 42 0C39.4226 0 37.3333 2.06449 37.3333 4.61111V36.8889H4.66667C2.08936 36.8889 0 38.9533 0 41.5C0 44.0467 2.08936 46.1111 4.66667 46.1111H37.3333V78.3889C37.3333 80.9356 39.4226 83 42 83C44.5774 83 46.6667 80.9356 46.6667 78.3889V46.1111H79.3333C81.9107 46.1111 84 44.0467 84 41.5C84 38.9533 81.9107 36.8889 79.3333 36.8889H46.6667V4.61111Z" fill="black"/>
</svg>
