<svg width="58" height="58" viewBox="0 0 58 58" fill="none" xmlns="http://www.w3.org/2000/svg">
<path d="M52.3133 20.1885H31.3441L35.6941 15.8385C37.4787 14.0538 37.4787 11.1538 35.6941 9.36922C33.9095 7.58461 31.121 7.58461 29.3364 9.36922C23.871 13.6077 17.2903 18.9615 14.2787 21.5269C13.8326 20.0769 12.6056 19.0731 11.0441 19.0731H4.46334C2.56719 19.0731 1.11719 20.5231 1.11719 22.4192V46.4C1.11719 48.2961 2.56719 49.7461 4.46334 49.7461H11.0441C12.8287 49.7461 14.2787 48.2961 14.3903 46.5115H16.398C19.1864 48.7423 22.5326 49.9692 26.1018 49.9692H38.8172C41.8287 49.9692 43.3903 47.6269 43.3903 45.3961C43.3903 44.2808 42.9441 43.1654 42.2749 42.2731C43.5018 41.3808 44.171 39.9308 44.171 38.4808C44.171 37.2538 43.7249 36.25 43.0556 35.3577C44.2826 34.4654 44.9518 33.0154 44.9518 31.5654C44.9518 30.6731 44.7287 29.8923 44.3941 29.2231H52.5364C55.1018 29.2231 57.1095 27.2154 57.1095 24.65C56.8864 22.1961 54.8787 20.1885 52.3133 20.1885V20.1885ZM12.1595 46.2885C12.1595 46.9577 11.7133 47.4038 11.0441 47.4038H4.46334C3.79411 47.4038 3.34796 46.9577 3.34796 46.2885V22.4192C3.34796 21.75 3.79411 21.3038 4.46334 21.3038H11.0441C11.7133 21.3038 12.1595 21.75 12.1595 22.4192V46.2885ZM52.3133 27.1038H39.1518C38.4826 27.1038 38.0364 27.55 38.0364 28.2192C38.0364 28.8885 38.4826 29.3346 39.1518 29.3346H40.2672C42.0518 29.3346 42.6095 30.7846 42.6095 31.6769C42.6095 33.4615 41.3826 34.0192 39.598 34.0192C38.9287 34.0192 38.4826 34.4654 38.4826 35.1346C38.4826 35.8038 38.9287 36.25 39.598 36.25C41.3826 36.25 41.9403 37.7 41.9403 38.5923C41.9403 40.3769 40.7133 40.9346 38.9287 40.9346C38.2595 40.9346 37.8133 41.3808 37.8133 42.05C37.8133 42.7192 38.2595 43.1654 38.9287 43.1654C40.7133 43.1654 41.271 44.6154 41.271 45.5077C41.271 46.4 40.8249 47.85 38.9287 47.85H26.1018C22.9787 47.85 19.8556 46.7346 17.5133 44.7269C17.5133 44.7269 17.4018 44.7269 17.4018 44.6154C17.2903 44.6154 17.2903 44.5038 17.1787 44.5038C17.0672 44.5038 17.0672 44.5038 16.9556 44.5038H16.8441H14.3903V24.2038C16.2864 22.6423 24.3172 16.0615 30.6749 11.0423L30.7864 10.9308C31.6787 10.0385 33.2403 10.0385 34.021 10.9308C34.9133 11.8231 34.9133 13.2731 34.021 14.1654L27.8864 20.5231C27.4403 20.9692 27.4403 21.6385 27.8864 22.0846C28.1095 22.3077 28.4441 22.4192 28.6672 22.4192H52.3133C53.5403 22.4192 54.6556 23.4231 54.6556 24.7615C54.6556 26.1 53.6518 27.1038 52.3133 27.1038V27.1038Z" fill="black"/>
</svg>
