<svg width="183" height="183" viewBox="0 0 183 183" fill="none" xmlns="http://www.w3.org/2000/svg">
<path d="M54.3281 85.7812H48.6094C47.851 85.7812 47.1237 86.0825 46.5875 86.6187C46.0513 87.155 45.75 87.8823 45.75 88.6406C45.75 89.399 46.0513 90.1263 46.5875 90.6625C47.1237 91.1987 47.851 91.5 48.6094 91.5H54.3281C55.0865 91.5 55.8138 91.1987 56.35 90.6625C56.8862 90.1263 57.1875 89.399 57.1875 88.6406C57.1875 87.8823 56.8862 87.155 56.35 86.6187C55.8138 86.0825 55.0865 85.7812 54.3281 85.7812Z" fill="black"/>
<path d="M77.2031 91.5H82.9219C83.6802 91.5 84.4075 91.1987 84.9438 90.6625C85.48 90.1263 85.7812 89.399 85.7812 88.6406C85.7812 87.8823 85.48 87.155 84.9438 86.6187C84.4075 86.0825 83.6802 85.7812 82.9219 85.7812H77.2031C76.4448 85.7812 75.7175 86.0825 75.1812 86.6187C74.645 87.155 74.3438 87.8823 74.3438 88.6406C74.3438 89.399 74.645 90.1263 75.1812 90.6625C75.7175 91.1987 76.4448 91.5 77.2031 91.5Z" fill="black"/>
<path d="M65.9124 100.983C66.1523 101.702 66.6681 102.297 67.3464 102.636C68.0247 102.975 68.81 103.031 69.5294 102.791C70.2488 102.551 70.8435 102.035 71.1826 101.357C71.5217 100.678 71.5775 99.8932 71.3376 99.1738L68.4782 90.5956C68.3595 90.2394 68.1717 89.9101 67.9257 89.6264C67.6796 89.3428 67.3801 89.1103 67.0443 88.9424C66.7084 88.7745 66.3427 88.6744 65.9682 88.6478C65.5936 88.6212 65.2175 88.6686 64.8613 88.7874C64.505 88.9062 64.1757 89.0939 63.892 89.34C63.6084 89.586 63.376 89.8855 63.2081 90.2214C63.0401 90.5573 62.94 90.9229 62.9134 91.2975C62.8868 91.672 62.9343 92.0482 63.053 92.4044L65.9124 100.983Z" fill="black"/>
<path d="M51.4688 97.2188C53.0479 97.2188 54.3281 95.9386 54.3281 94.3594C54.3281 92.7802 53.0479 91.5 51.4688 91.5C49.8896 91.5 48.6094 92.7802 48.6094 94.3594C48.6094 95.9386 49.8896 97.2188 51.4688 97.2188Z" fill="black"/>
<path d="M80.0625 97.2188C81.6417 97.2188 82.9219 95.9386 82.9219 94.3594C82.9219 92.7802 81.6417 91.5 80.0625 91.5C78.4833 91.5 77.2031 92.7802 77.2031 94.3594C77.2031 95.9386 78.4833 97.2188 80.0625 97.2188Z" fill="black"/>
<path d="M62.9062 114.375H68.625C69.3834 114.375 70.1106 114.074 70.6469 113.538C71.1831 113.001 71.4844 112.274 71.4844 111.516C71.4844 110.757 71.1831 110.03 70.6469 109.494C70.1106 108.958 69.3834 108.656 68.625 108.656H62.9062C62.1479 108.656 61.4206 108.958 60.8844 109.494C60.3481 110.03 60.0469 110.757 60.0469 111.516C60.0469 112.274 60.3481 113.001 60.8844 113.538C61.4206 114.074 62.1479 114.375 62.9062 114.375Z" fill="black"/>
<path d="M105.377 135.045C99.4405 131.337 92.6693 129.174 85.6817 128.754C85.1523 127.637 84.3867 126.649 83.4379 125.856L79.3024 122.41C82.9917 120.42 86.1998 117.644 88.7007 114.28C91.2017 110.916 92.9348 107.044 93.778 102.938H94.3594C96.8768 102.938 99.3242 102.108 101.322 100.576C103.319 99.0442 104.755 96.8957 105.407 94.4641C106.059 92.0325 105.89 89.4538 104.926 87.128C103.963 84.8023 102.259 82.8595 100.078 81.6013V72.6687C100.078 71.0112 99.7517 69.3699 99.1174 67.8385C98.4831 66.3072 97.5533 64.9157 96.3813 63.7437C95.2093 62.5717 93.8178 61.6419 92.2865 61.0076C90.7551 60.3733 89.1138 60.0469 87.4563 60.0469H87.157C87.1585 59.202 86.993 58.3652 86.6702 57.5845C86.3473 56.8037 85.8734 56.0945 85.2757 55.4974L83.4421 53.6639C78.3748 48.5967 71.5021 45.75 64.3359 45.75C57.1698 45.75 50.2971 48.5967 45.2297 53.6639L37.6626 61.2312C37.5325 61.3613 37.356 61.4343 37.172 61.4343C36.9879 61.4343 36.8115 61.3613 36.6813 61.2312C35.7845 60.3344 34.6418 59.7237 33.3979 59.4763C32.154 59.2289 30.8647 59.3559 29.693 59.8413C28.5212 60.3266 27.5197 61.1485 26.8151 62.203C26.1105 63.2576 25.7344 64.4974 25.7344 65.7656V68.278C25.7281 70.5776 26.178 72.8555 27.0579 74.9799C27.9379 77.1044 29.2305 79.0333 30.861 80.6548C31.1378 80.9316 31.4248 81.1939 31.7164 81.4497C29.4808 82.6627 27.7133 84.5864 26.6936 86.9166C25.6739 89.2467 25.4601 91.8503 26.086 94.3156C26.7119 96.7809 28.1418 98.9672 30.1496 100.529C32.1573 102.09 34.6284 102.938 37.1719 102.938H37.7532C38.58 106.961 40.2612 110.76 42.6833 114.077C45.1053 117.395 48.2116 120.153 51.792 122.166C50.8753 122.97 50.1517 123.97 49.6751 125.092C49.1985 126.215 48.9811 127.43 49.0391 128.647C48.896 128.658 48.7537 128.672 48.6085 128.672H48.3776C39.0263 128.672 29.9433 131.798 22.5726 137.553C15.2018 143.308 9.96626 151.361 7.69818 160.433C6.38413 165.692 5.71936 171.092 5.71875 176.513V177.281H11.4375V176.513C11.4381 171.56 12.0455 166.626 13.2463 161.82C15.4469 152.956 20.9327 145.258 28.5938 140.284V154.406C28.5937 154.874 28.7083 155.334 28.9273 155.746C29.1463 156.159 29.4631 156.512 29.8501 156.774C30.237 157.036 30.6823 157.199 31.1469 157.249C31.6115 157.299 32.0812 157.235 32.5151 157.061L36.3197 155.539L26.2513 169.923L30.9362 173.202L49.4558 146.746L67.1468 156.855C67.493 157.053 67.794 157.321 68.0305 157.642C68.2669 157.963 68.4337 158.33 68.52 158.719C68.6062 159.108 68.6102 159.511 68.5315 159.902C68.4528 160.293 68.2932 160.663 68.063 160.988L59.7333 172.771L64.4031 176.073L72.7329 164.289C73.8004 162.782 74.3517 160.969 74.3047 159.123C74.2576 157.276 73.6146 155.494 72.4717 154.043L84.809 137.593C85.4948 136.679 85.9905 135.637 86.2667 134.528C86.7911 134.573 87.3135 134.632 87.8344 134.699L82.0646 159.702C80.7352 165.467 80.0635 171.365 80.0625 177.281H85.7812C85.7822 171.797 86.4046 166.331 87.6368 160.987L89.428 153.226L99.0162 157.061C99.45 157.235 99.9198 157.299 100.384 157.249C100.849 157.199 101.294 157.036 101.681 156.774C102.068 156.512 102.385 156.159 102.604 155.747C102.823 155.334 102.938 154.874 102.938 154.406V140.284C110.599 145.258 116.084 152.956 118.285 161.82C119.486 166.626 120.093 171.56 120.094 176.513V177.281H125.812V176.513C125.812 171.092 125.147 165.692 123.833 160.433C121.219 149.891 114.599 140.784 105.377 135.045V135.045ZM94.3594 97.2188V85.7812C95.8761 85.7812 97.3307 86.3838 98.4031 87.4562C99.4756 88.5287 100.078 89.9833 100.078 91.5C100.078 93.0167 99.4756 94.4713 98.4031 95.5438C97.3307 96.6162 95.8761 97.2188 94.3594 97.2188ZM31.4531 65.7656C31.4532 65.6284 31.4939 65.4943 31.5702 65.3802C31.6464 65.2661 31.7548 65.1772 31.8816 65.1247C32.0084 65.0722 32.1479 65.0585 32.2825 65.0853C32.4171 65.1121 32.5408 65.1782 32.6378 65.2752C33.8413 66.4758 35.4719 67.1501 37.172 67.1501C38.872 67.1501 40.5026 66.4758 41.7061 65.2752L49.2734 57.7079C51.2515 55.7299 53.5997 54.1608 56.1842 53.0903C58.7686 52.0197 61.5386 51.4688 64.3359 51.4688C67.1333 51.4688 69.9033 52.0197 72.4877 53.0903C75.0722 54.1608 77.4204 55.7299 79.3984 57.7079L81.232 59.5415C81.3658 59.6756 81.441 59.8574 81.441 60.0469C81.441 60.2364 81.3658 60.4181 81.232 60.5523L78.0407 63.7436C77.5044 64.2798 77.2031 65.0071 77.2031 65.7655C77.203 66.5239 77.5043 67.2512 78.0405 67.7875C78.5767 68.3237 79.304 68.625 80.0624 68.6251C80.8207 68.6251 81.5481 68.3239 82.0843 67.7876L84.1064 65.7656H87.4563C89.2871 65.7657 91.0429 66.493 92.3374 67.7876C93.632 69.0821 94.3593 70.8379 94.3594 72.6687V80.0625H90.5188C89.3918 80.0656 88.2754 79.8452 87.2342 79.4138C86.193 78.9825 85.2478 78.3489 84.4531 77.5497L76.3656 69.4623C75.8293 68.9263 75.102 68.6252 74.3438 68.6252C73.5855 68.6252 72.8582 68.9263 72.3219 69.4623C68.9691 72.8336 64.981 75.5063 60.5883 77.3258C56.1957 79.1453 51.4857 80.0755 46.7312 80.0625H43.2376C40.1122 80.0625 37.1147 78.8209 34.9047 76.6109C32.6947 74.4009 31.4532 71.4035 31.4531 68.278V65.7656ZM31.4531 91.5C31.4549 89.9838 32.0579 88.5302 33.13 87.4581C34.2021 86.3861 35.6557 85.783 37.1719 85.7812V97.2188C35.6557 97.217 34.2021 96.6139 33.13 95.5419C32.0579 94.4698 31.4549 93.0162 31.4531 91.5ZM42.8906 97.2188V85.7728C43.0064 85.7751 43.1215 85.7812 43.2376 85.7812H46.7312C56.8633 85.8102 66.6578 82.1405 74.2764 75.4607L80.4093 81.5934C82.6269 83.8225 85.5224 85.2515 88.6406 85.6559V97.2188C88.6358 101.769 87.2766 106.215 84.7361 109.99C82.1956 113.765 78.5889 116.698 74.3753 118.416C72.4842 117.241 70.2099 116.847 68.0337 117.319C65.8575 117.791 63.9503 119.091 62.7157 120.944L62.1132 121.847L61.6296 121.525C61.0954 121.169 60.5213 120.876 59.9189 120.654C59.7887 120.226 59.5599 119.835 59.2509 119.512C58.9418 119.188 58.5613 118.942 58.1397 118.793C53.6821 117.21 49.8235 114.287 47.0932 110.424C44.363 106.562 42.895 101.949 42.8906 97.2188V97.2188ZM48.6085 134.391C49.4138 134.39 50.2168 134.305 51.0042 134.136L51.0286 134.185L46.2498 141.353L45.4845 142.447L43.6965 134.698C45.2486 134.495 46.8122 134.392 48.3776 134.391H48.6085ZM34.3125 137.238C35.5491 136.716 36.8138 136.264 38.1008 135.882L40.8019 147.587L34.3125 150.183V137.238ZM80.2341 134.162L67.8521 150.671L52.6878 142.006L56.7072 135.977C56.9869 135.557 57.1507 135.071 57.182 134.568C57.2133 134.065 57.1111 133.563 56.8856 133.112L54.9981 129.337C54.7627 128.866 54.6896 128.331 54.79 127.814C54.8905 127.297 55.1589 126.828 55.5535 126.48C55.9481 126.131 56.4468 125.923 56.9719 125.888C57.4971 125.852 58.0193 125.991 58.4573 126.283L61.3202 128.192C61.9512 128.612 62.7234 128.765 63.467 128.616C64.2106 128.468 64.8647 128.03 65.2853 127.399L67.4739 124.116C67.6964 123.782 67.9867 123.499 68.3259 123.284C68.6651 123.07 69.0456 122.93 69.4427 122.872C69.8397 122.815 70.2445 122.841 70.6306 122.95C71.0167 123.059 71.3755 123.248 71.6837 123.505L79.777 130.25C80.3404 130.719 80.702 131.386 80.7871 132.114C80.8721 132.843 80.6742 133.576 80.2341 134.162ZM90.7292 147.587L93.4307 135.881C94.7176 136.263 95.9822 136.716 97.2188 137.238V150.183L90.7292 147.587Z" fill="black"/>
<path d="M144.398 5.71875H135.82C130.052 5.72022 124.385 7.23892 119.388 10.1224C114.392 13.006 110.242 17.1529 107.354 22.147C104.467 27.1412 102.944 32.807 102.938 38.5758C102.932 44.3446 104.443 50.0135 107.32 55.0137L103.084 67.721C102.941 68.1508 102.902 68.6085 102.97 69.0563C103.039 69.5042 103.212 69.9294 103.477 70.2969C103.742 70.6645 104.091 70.9638 104.494 71.1703C104.897 71.3767 105.344 71.4844 105.797 71.4844C105.954 71.4843 106.111 71.4713 106.267 71.4456L122.609 68.7227C126.772 70.5542 131.272 71.4948 135.82 71.4844H144.398C153.12 71.4844 161.483 68.0199 167.65 61.8532C173.817 55.6865 177.281 47.3226 177.281 38.6016C177.281 29.8805 173.817 21.5166 167.65 15.3499C161.483 9.18318 153.12 5.71875 144.398 5.71875V5.71875ZM163.607 57.8105C161.091 60.3407 158.097 62.3466 154.8 63.7121C151.503 65.0776 147.967 65.7756 144.398 65.7656H135.82C131.809 65.7755 127.846 64.8898 124.221 63.1733C123.694 62.9246 123.104 62.8425 122.53 62.938L110.011 65.0239L113.163 55.5679C113.297 55.165 113.34 54.7372 113.289 54.3157C113.237 53.8941 113.092 53.4894 112.864 53.1309C110.264 49.0223 108.814 44.291 108.666 39.4309C108.518 34.5708 109.677 29.76 112.022 25.5006C114.367 21.2412 117.812 17.6894 121.999 15.2157C126.185 12.742 130.958 11.4372 135.82 11.4375H144.398C149.771 11.4378 155.023 13.0311 159.49 16.0161C163.957 19.001 167.438 23.2434 169.495 28.207C171.551 33.1705 172.089 38.6323 171.041 43.9016C169.993 49.171 167.406 54.0113 163.607 57.8105Z" fill="black"/>
<path d="M140.112 15.625C138.408 15.6204 136.72 15.9537 135.146 16.6057C133.572 17.2577 132.143 18.2154 130.942 19.4234C130.924 19.4405 130.908 19.4579 130.891 19.4754L129.554 20.8817C128.081 22.371 127.258 24.3839 127.266 26.4792C127.274 28.5744 128.113 30.5808 129.598 32.0586C131.083 33.5364 133.094 34.3649 135.189 34.3624C137.284 34.36 139.293 33.5268 140.775 32.0455L142.134 30.6867C142.399 30.4212 142.61 30.106 142.754 29.759C142.897 29.4121 142.971 29.0403 142.971 28.6648C142.971 28.2893 142.897 27.9174 142.754 27.5705C142.61 27.2236 142.399 26.9084 142.134 26.6428C141.868 26.3773 141.553 26.1666 141.206 26.0229C140.859 25.8792 140.487 25.8052 140.112 25.8052C139.736 25.8052 139.365 25.8791 139.018 26.0228C138.671 26.1665 138.356 26.3771 138.09 26.6426L136.731 28.0015C136.502 28.2312 136.224 28.4071 135.918 28.5164C135.612 28.6258 135.286 28.6659 134.963 28.634C134.639 28.602 134.327 28.4987 134.049 28.3315C133.77 28.1643 133.532 27.9373 133.352 27.6671C133.072 27.2445 132.946 26.738 132.996 26.2332C133.046 25.7285 133.269 25.2565 133.626 24.8971C133.644 24.88 133.66 24.8625 133.677 24.8451L135.009 23.4436C136.373 22.0915 138.217 21.3357 140.137 21.342C142.058 21.3483 143.897 22.1162 145.252 23.4772C146.607 24.8382 147.366 26.6812 147.364 28.6015C147.361 30.5219 146.597 32.3628 145.238 33.7202L142.133 36.8253C140.581 38.3693 139.351 40.2058 138.513 42.2285C137.675 44.2512 137.247 46.4201 137.252 48.6094C137.252 49.3678 137.554 50.0951 138.09 50.6313C138.626 51.1676 139.353 51.4688 140.112 51.4688C140.87 51.4688 141.597 51.1676 142.134 50.6313C142.67 50.0951 142.971 49.3678 142.971 48.6094C142.967 47.1713 143.249 45.7467 143.799 44.4181C144.349 43.0894 145.158 41.8831 146.177 40.869L149.282 37.7643C151.096 35.9506 152.331 33.6397 152.832 31.124C153.332 28.6083 153.075 26.0007 152.094 23.6309C151.112 21.2612 149.45 19.2357 147.317 17.8107C145.184 16.3856 142.677 15.625 140.112 15.625V15.625Z" fill="black"/>
<path d="M140.109 60.0469C141.689 60.0469 142.969 58.7667 142.969 57.1875C142.969 55.6083 141.689 54.3281 140.109 54.3281C138.53 54.3281 137.25 55.6083 137.25 57.1875C137.25 58.7667 138.53 60.0469 140.109 60.0469Z" fill="black"/>
</svg>
