<svg width="240" height="240" viewBox="0 0 240 240" fill="none" xmlns="http://www.w3.org/2000/svg">
<path d="M71.25 112.5H63.75C62.7554 112.5 61.8016 112.895 61.0983 113.598C60.3951 114.302 60 115.255 60 116.25C60 117.245 60.3951 118.198 61.0983 118.902C61.8016 119.605 62.7554 120 63.75 120H71.25C72.2446 120 73.1984 119.605 73.9017 118.902C74.6049 118.198 75 117.245 75 116.25C75 115.255 74.6049 114.302 73.9017 113.598C73.1984 112.895 72.2446 112.5 71.25 112.5Z" fill="black"/>
<path d="M101.25 120H108.75C109.745 120 110.698 119.605 111.402 118.902C112.105 118.198 112.5 117.245 112.5 116.25C112.5 115.255 112.105 114.302 111.402 113.598C110.698 112.895 109.745 112.5 108.75 112.5H101.25C100.255 112.5 99.3016 112.895 98.5983 113.598C97.8951 114.302 97.5 115.255 97.5 116.25C97.5 117.245 97.8951 118.198 98.5983 118.902C99.3016 119.605 100.255 120 101.25 120Z" fill="black"/>
<path d="M86.4425 132.436C86.7571 133.38 87.4336 134.16 88.3232 134.604C89.2127 135.049 90.2426 135.122 91.1861 134.808C92.1296 134.493 92.9095 133.816 93.3542 132.927C93.799 132.037 93.8721 131.007 93.5575 130.064L89.8075 118.814C89.6518 118.347 89.4055 117.915 89.0828 117.543C88.7602 117.171 88.3674 116.866 87.9269 116.646C87.4864 116.426 87.0069 116.294 86.5156 116.259C86.0244 116.225 85.5311 116.287 85.064 116.443C84.5968 116.598 84.1649 116.845 83.7928 117.167C83.4208 117.49 83.116 117.883 82.8958 118.323C82.6756 118.764 82.5443 119.243 82.5094 119.734C82.4745 120.226 82.5368 120.719 82.6925 121.186L86.4425 132.436Z" fill="black"/>
<path d="M67.5 127.5C69.5711 127.5 71.25 125.821 71.25 123.75C71.25 121.679 69.5711 120 67.5 120C65.4289 120 63.75 121.679 63.75 123.75C63.75 125.821 65.4289 127.5 67.5 127.5Z" fill="black"/>
<path d="M105 127.5C107.071 127.5 108.75 125.821 108.75 123.75C108.75 121.679 107.071 120 105 120C102.929 120 101.25 121.679 101.25 123.75C101.25 125.821 102.929 127.5 105 127.5Z" fill="black"/>
<path d="M82.5 150H90C90.9946 150 91.9484 149.605 92.6517 148.902C93.3549 148.198 93.75 147.245 93.75 146.25C93.75 145.255 93.3549 144.302 92.6517 143.598C91.9484 142.895 90.9946 142.5 90 142.5H82.5C81.5054 142.5 80.5516 142.895 79.8483 143.598C79.1451 144.302 78.75 145.255 78.75 146.25C78.75 147.245 79.1451 148.198 79.8483 148.902C80.5516 149.605 81.5054 150 82.5 150Z" fill="black"/>
<path d="M138.2 177.109C130.414 172.245 121.533 169.408 112.369 168.858C111.675 167.393 110.671 166.097 109.427 165.058L104.003 160.538C108.842 157.927 113.049 154.288 116.329 149.875C119.609 145.463 121.882 140.385 122.988 135H123.75C127.052 135.001 130.261 133.913 132.881 131.903C135.501 129.894 137.384 127.076 138.239 123.887C139.094 120.698 138.872 117.316 137.608 114.266C136.345 111.216 134.11 108.668 131.25 107.018V95.3032C131.25 93.1294 130.822 90.9769 129.99 88.9685C129.158 86.9602 127.939 85.1354 126.402 83.5983C124.865 82.0612 123.04 80.8419 121.031 80.01C119.023 79.1781 116.871 78.75 114.697 78.75H114.304C114.306 77.642 114.089 76.5445 113.666 75.5206C113.242 74.4967 112.621 73.5665 111.837 72.7835L109.432 70.3789C102.787 63.7334 93.7733 60 84.375 60C74.9767 60 65.9634 63.7334 59.3177 70.3789L49.3936 80.3032C49.2229 80.4738 48.9914 80.5696 48.7501 80.5696C48.5088 80.5696 48.2773 80.4738 48.1066 80.3032C46.9304 79.1271 45.4319 78.3262 43.8006 78.0017C42.1692 77.6772 40.4783 77.8438 38.9416 78.4803C37.4049 79.1169 36.0915 80.1948 35.1674 81.5778C34.2433 82.9607 33.75 84.5867 33.75 86.25V89.545C33.7418 92.5607 34.3317 95.5482 35.4858 98.3344C36.6399 101.121 38.3351 103.65 40.4734 105.777C40.8364 106.14 41.2129 106.484 41.5953 106.819C38.6633 108.41 36.3454 110.933 35.008 113.989C33.6707 117.045 33.3903 120.459 34.2111 123.693C35.032 126.926 36.9073 129.793 39.5404 131.841C42.1736 133.889 45.4143 135 48.75 135H49.5124C50.5967 140.277 52.8016 145.259 55.978 149.61C59.1545 153.96 63.2283 157.578 67.9239 160.218C66.7217 161.272 65.7728 162.584 65.1477 164.056C64.5226 165.527 64.2375 167.121 64.3136 168.718C64.126 168.732 63.9393 168.75 63.7489 168.75H63.4461C51.182 168.75 39.27 172.85 29.6034 180.397C19.9368 187.944 13.0705 198.506 10.096 210.404C8.37262 217.301 7.5008 224.383 7.5 231.492V232.5H15V231.492C15.0007 224.996 15.7974 218.525 17.3721 212.223C20.2582 200.598 27.4528 190.502 37.5 183.98V202.5C37.5 203.113 37.6502 203.716 37.9374 204.258C38.2246 204.799 38.6402 205.262 39.1476 205.605C39.6551 205.949 40.239 206.163 40.8483 206.228C41.4577 206.294 42.0738 206.209 42.6427 205.982L47.6324 203.986L34.4279 222.849L40.5721 227.151L64.8601 192.453L88.0614 205.712C88.5154 205.971 88.9101 206.322 89.2203 206.743C89.5304 207.164 89.7491 207.645 89.8622 208.156C89.9754 208.666 89.9805 209.195 89.8773 209.707C89.7741 210.22 89.5649 210.705 89.263 211.132L78.3387 226.585L84.4631 230.915L95.3874 215.462C96.7874 213.484 97.5105 211.107 97.4487 208.686C97.387 206.264 96.5438 203.927 95.0449 202.023L111.225 180.45C112.124 179.251 112.774 177.884 113.137 176.43C113.824 176.489 114.51 176.566 115.193 176.655L107.626 209.445C105.882 217.006 105.001 224.74 105 232.5H112.5C112.501 225.308 113.318 218.139 114.933 211.131L117.283 200.952L129.857 205.982C130.426 206.209 131.042 206.294 131.652 206.229C132.261 206.163 132.845 205.949 133.352 205.605C133.86 205.262 134.275 204.799 134.563 204.258C134.85 203.716 135 203.113 135 202.5V183.98C145.047 190.502 152.242 200.598 155.128 212.223C156.703 218.525 157.499 224.996 157.5 231.492V232.5H165V231.492C164.999 224.383 164.127 217.301 162.404 210.404C158.976 196.579 150.293 184.635 138.2 177.109V177.109ZM123.75 127.5V112.5C125.739 112.5 127.647 113.29 129.053 114.697C130.46 116.103 131.25 118.011 131.25 120C131.25 121.989 130.46 123.897 129.053 125.303C127.647 126.71 125.739 127.5 123.75 127.5ZM41.25 86.25C41.2501 86.07 41.3035 85.8941 41.4035 85.7445C41.5035 85.5949 41.6457 85.4783 41.812 85.4094C41.9783 85.3406 42.1612 85.3226 42.3378 85.3577C42.5143 85.3929 42.6764 85.4796 42.8036 85.6068C44.3821 87.1814 46.5206 88.0657 48.7501 88.0657C50.9796 88.0657 53.1182 87.1814 54.6966 85.6068L64.6209 75.6825C67.215 73.0883 70.2947 71.0305 73.6841 69.6266C77.0736 68.2226 80.7063 67.5 84.375 67.5C88.0437 67.5 91.6764 68.2226 95.0659 69.6266C98.4553 71.0305 101.535 73.0883 104.129 75.6825L106.534 78.0872C106.709 78.2631 106.808 78.5015 106.808 78.75C106.808 78.9985 106.709 79.2369 106.534 79.4128L102.348 83.5982C101.645 84.3014 101.25 85.2553 101.25 86.2498C101.25 87.2444 101.645 88.1983 102.348 88.9016C103.051 89.6049 104.005 90 105 90.0001C105.994 90.0001 106.948 89.6051 107.652 88.9018L110.303 86.25H114.697C117.098 86.2501 119.401 87.2039 121.098 88.9017C122.796 90.5995 123.75 92.9022 123.75 95.3032V105H118.713C117.235 105.004 115.771 104.715 114.406 104.149C113.04 103.584 111.8 102.753 110.758 101.705L100.152 91.0982C99.4482 90.3951 98.4945 90.0002 97.5 90.0002C96.5055 90.0002 95.5518 90.3951 94.8484 91.0982C90.4513 95.5194 85.221 99.0246 79.4601 101.411C73.6992 103.797 67.5223 105.017 61.2868 105H56.705C52.6061 105 48.6751 103.372 45.7767 100.473C42.8783 97.5749 41.25 93.6439 41.25 89.545V86.25ZM41.25 120C41.2523 118.012 42.0432 116.105 43.4492 114.699C44.8552 113.293 46.7616 112.502 48.75 112.5V127.5C46.7616 127.498 44.8552 126.707 43.4492 125.301C42.0432 123.895 41.2523 121.988 41.25 120ZM56.25 127.5V112.489C56.4018 112.492 56.5528 112.5 56.705 112.5H61.2868C74.5749 112.538 87.4201 107.725 97.4117 98.9648L105.455 107.008C108.363 109.931 112.161 111.805 116.25 112.336V127.5C116.244 133.468 114.461 139.298 111.129 144.249C107.798 149.2 103.067 153.047 97.5414 155.3C95.0613 153.758 92.0786 153.242 89.2245 153.861C86.3705 154.479 83.8692 156.184 82.2501 158.615L81.46 159.8L80.8257 159.377C80.1252 158.91 79.3721 158.526 78.5821 158.235C78.4114 157.674 78.1113 157.161 77.706 156.737C77.3008 156.312 76.8016 155.989 76.2488 155.793C70.4028 153.718 65.3423 149.885 61.7616 144.819C58.181 139.753 56.2557 133.703 56.25 127.5V127.5ZM63.7489 176.25C64.805 176.249 65.8581 176.138 66.8908 175.916L66.9228 175.98L60.6555 185.381L59.6519 186.815L57.3069 176.654C59.3424 176.387 61.3931 176.252 63.446 176.25H63.7489ZM45 179.985C46.6218 179.3 48.2804 178.706 49.9683 178.206L53.5107 193.557L45 196.961V179.985ZM105.225 175.95L88.9863 197.602L69.0987 186.237L74.3701 178.33C74.7369 177.78 74.9517 177.143 74.9928 176.483C75.0339 175.823 74.8998 175.164 74.604 174.573L72.1287 169.622C71.82 169.005 71.7241 168.302 71.8558 167.625C71.9875 166.947 72.3395 166.332 72.857 165.875C73.3746 165.418 74.0286 165.145 74.7173 165.099C75.4061 165.052 76.0909 165.234 76.6653 165.617L80.4199 168.12C81.2474 168.672 82.2602 168.872 83.2354 168.677C84.2106 168.482 85.0684 167.908 85.6201 167.08L88.4903 162.775C88.7822 162.337 89.1629 161.966 89.6078 161.685C90.0526 161.404 90.5516 161.219 91.0724 161.144C91.5931 161.068 92.1239 161.103 92.6302 161.246C93.1366 161.389 93.6072 161.637 94.0114 161.974L104.626 170.819C105.364 171.434 105.839 172.31 105.95 173.265C106.062 174.22 105.802 175.181 105.225 175.95ZM118.989 193.557L122.532 178.204C124.22 178.705 125.878 179.3 127.5 179.985V196.961L118.989 193.557Z" fill="black"/>
<path d="M189.375 7.5H178.125C170.559 7.50193 163.127 9.49366 156.575 13.2753C150.022 17.057 144.579 22.4956 140.792 29.0453C137.005 35.595 135.008 43.0256 135 50.5912C134.992 58.1568 136.974 65.5915 140.747 72.1491L135.192 88.8144C135.005 89.3781 134.953 89.9783 135.043 90.5657C135.133 91.153 135.36 91.7107 135.708 92.1927C136.055 92.6747 136.512 93.0673 137.041 93.338C137.57 93.6088 138.156 93.75 138.75 93.75C138.956 93.7499 139.163 93.7329 139.366 93.6992L160.798 90.1282C166.258 92.53 172.16 93.7637 178.125 93.75H189.375C200.812 93.75 211.781 89.2065 219.869 81.119C227.956 73.0315 232.5 62.0625 232.5 50.625C232.5 39.1875 227.956 28.2185 219.869 20.131C211.781 12.0435 200.812 7.5 189.375 7.5V7.5ZM214.567 75.8171C211.266 79.1354 207.34 81.7661 203.016 83.5569C198.692 85.3477 194.055 86.2631 189.375 86.25H178.125C172.864 86.2629 167.667 85.1014 162.913 82.8502C162.222 82.524 161.448 82.4164 160.695 82.5417L144.277 85.2773L148.411 72.876C148.587 72.3476 148.643 71.7865 148.575 71.2337C148.507 70.6808 148.317 70.15 148.019 69.6799C144.608 64.2915 142.707 58.0866 142.512 51.7127C142.318 45.3388 143.838 39.0296 146.914 33.4435C149.99 27.8574 154.508 23.1992 159.998 19.955C165.488 16.7108 171.748 14.9996 178.125 15H189.375C196.421 15.0004 203.309 17.09 209.167 21.0047C215.025 24.9193 219.591 30.4832 222.288 36.9928C224.984 43.5023 225.69 50.6653 224.316 57.5759C222.941 64.4865 219.549 70.8345 214.567 75.8171Z" fill="black"/>
<path d="M183.75 20.4918C181.515 20.4857 179.302 20.9228 177.238 21.7779C175.173 22.6329 173.299 23.8889 171.723 25.4732C171.701 25.4956 171.679 25.5185 171.657 25.5414L169.904 27.3857C167.971 29.3389 166.892 31.9788 166.902 34.7267C166.913 37.4745 168.013 40.1059 169.961 42.044C171.909 43.9821 174.546 45.0686 177.294 45.0654C180.042 45.0622 182.676 43.9694 184.619 42.0268L186.401 40.2447C186.75 39.8965 187.026 39.4831 187.214 39.0281C187.403 38.5732 187.5 38.0855 187.5 37.5931C187.5 37.1006 187.403 36.6129 187.215 36.1579C187.026 35.703 186.75 35.2895 186.402 34.9413C186.053 34.5931 185.64 34.3168 185.185 34.1283C184.73 33.9398 184.242 33.8428 183.75 33.8428C183.258 33.8428 182.77 33.9398 182.315 34.1282C181.86 34.3166 181.446 34.5929 181.098 34.9411L179.316 36.7231C179.015 37.0244 178.651 37.255 178.25 37.3985C177.849 37.5419 177.421 37.5946 176.997 37.5526C176.573 37.5107 176.163 37.3752 175.798 37.1559C175.433 36.9366 175.121 36.639 174.885 36.2846C174.517 35.7304 174.352 35.0661 174.417 34.4041C174.483 33.7422 174.775 33.1232 175.244 32.6518C175.267 32.6294 175.289 32.6065 175.311 32.5836L177.058 30.7457C178.846 28.9724 181.265 27.9811 183.783 27.9894C186.302 27.9976 188.714 29.0047 190.491 30.7897C192.268 32.5746 193.264 34.9916 193.26 37.5101C193.257 40.0286 192.255 42.4429 190.473 44.2232L186.401 48.2954C184.365 50.3203 182.751 52.7288 181.653 55.3815C180.554 58.0343 179.992 60.8787 180 63.75C180 64.7445 180.395 65.6984 181.098 66.4016C181.801 67.1049 182.755 67.5 183.75 67.5C184.744 67.5 185.698 67.1049 186.401 66.4016C187.105 65.6984 187.5 64.7445 187.5 63.75C187.495 61.8639 187.864 59.9956 188.585 58.2531C189.307 56.5106 190.367 54.9286 191.705 53.5986L195.776 49.5268C198.155 47.1482 199.775 44.1176 200.431 40.8183C201.088 37.519 200.751 34.0991 199.464 30.9913C198.176 27.8834 195.996 25.227 193.199 23.3581C190.402 21.4892 187.114 20.4917 183.75 20.4918V20.4918Z" fill="black"/>
<path d="M183.75 78.75C185.821 78.75 187.5 77.0711 187.5 75C187.5 72.9289 185.821 71.25 183.75 71.25C181.679 71.25 180 72.9289 180 75C180 77.0711 181.679 78.75 183.75 78.75Z" fill="black"/>
</svg>
