<svg width="139" height="138" viewBox="0 0 139 138" fill="none" xmlns="http://www.w3.org/2000/svg">
<path d="M139.001 115.243V98.432L132.515 96.7865C132.47 96.6779 132.425 96.5692 132.378 96.4616L135.792 90.7482L123.818 78.8605L118.064 82.2503C117.953 82.2036 117.844 82.159 117.736 82.1145L116.079 75.6772H99.1462L97.4888 82.1167C97.3794 82.1612 97.2699 82.2058 97.1615 82.2525L91.4067 78.8627L79.4329 90.7503L82.8473 96.4638C82.8002 96.5735 82.7553 96.6822 82.7104 96.7887L76.2266 98.4342V115.245L82.7126 116.891C82.7575 116.999 82.8024 117.108 82.8495 117.215L79.4351 122.929L91.4089 134.817L97.1637 131.427C97.2743 131.473 97.3837 131.518 97.491 131.563L99.1484 138H116.081L117.738 131.56C117.848 131.516 117.957 131.471 118.066 131.425L123.821 134.814L135.794 122.927L132.38 117.213C132.427 117.104 132.472 116.995 132.517 116.888L139.001 115.243ZM130.161 122.226L123.112 129.224L118.321 126.401L117.243 126.913C116.547 127.24 115.837 127.536 115.106 127.792L113.976 128.19L112.6 133.548H102.63L101.253 128.19L100.124 127.792C99.3925 127.538 98.6799 127.242 97.9869 126.913L96.9086 126.401L92.1172 129.224L85.0684 122.226L87.9113 117.469L87.3957 116.398C87.0662 115.708 86.7685 115.003 86.5101 114.277L86.1095 113.155L80.7104 111.789V101.89L86.1073 100.524L86.5079 99.4025C86.7641 98.6765 87.0619 97.969 87.3935 97.281L87.9091 96.2105L85.0662 91.4535L92.115 84.4555L96.9064 87.278L97.9847 86.7661C98.6799 86.4389 99.3903 86.1433 100.122 85.8868L101.251 85.4891L102.627 80.1289H112.598L113.974 85.4869L115.104 85.8847C115.835 86.139 116.547 86.4346 117.24 86.7639L118.319 87.2758L123.11 84.4533L130.159 91.4513L127.316 96.2084L127.832 97.2789C128.161 97.969 128.459 98.6744 128.717 99.4003L129.118 100.522L134.517 101.888V111.787L129.12 113.153L128.719 114.275C128.463 115.001 128.165 115.708 127.834 116.396L127.318 117.467L130.161 122.226Z" fill="black"/>
<path d="M107.615 89.0322C97.7257 89.0322 89.6797 97.0204 89.6797 106.839C89.6797 116.657 97.7257 124.645 107.615 124.645C117.505 124.645 125.551 116.657 125.551 106.839C125.551 97.0204 117.505 89.0322 107.615 89.0322ZM107.615 120.194C100.196 120.194 94.1636 114.204 94.1636 106.839C94.1636 99.4733 100.196 93.4838 107.615 93.4838C115.034 93.4838 121.067 99.4733 121.067 106.839C121.067 114.204 115.034 120.194 107.615 120.194Z" fill="black"/>
<path d="M107.612 97.9355C102.666 97.9355 98.6445 101.929 98.6445 106.839C98.6445 111.749 102.666 115.742 107.612 115.742C112.558 115.742 116.58 111.749 116.58 106.839C116.58 101.929 112.558 97.9355 107.612 97.9355ZM107.612 111.29C105.139 111.29 103.128 109.294 103.128 106.839C103.128 104.384 105.139 102.387 107.612 102.387C110.085 102.387 112.096 104.384 112.096 106.839C112.096 109.294 110.085 111.29 107.612 111.29Z" fill="black"/>
<path d="M56.7783 37.6876C57.5293 39.8732 58.8364 41.8002 60.5331 43.3141V45.2019L49.873 49.1699C45.5216 50.7882 42.5977 54.9757 42.5977 59.5892V71.2258H96.4041V59.5892C96.4041 54.9757 93.4802 50.7882 89.131 49.1677L78.4686 45.1997V43.3141C80.1654 41.8023 81.4725 39.8754 82.2234 37.6876C86.4479 36.9682 89.6783 33.3295 89.6783 28.9355V20.0323C89.6783 8.988 80.6274 0 69.5009 0C58.3744 0 49.3235 8.988 49.3235 20.0323V28.9355C49.3235 33.3295 52.5539 36.9682 56.7783 37.6876ZM73.9848 46.1257L69.5009 53.5443L65.017 46.1257V45.9627C66.4226 46.4594 67.9267 46.7419 69.5009 46.7419C71.0751 46.7419 72.5792 46.4572 73.9848 45.9627V46.1257ZM61.8128 49.4775L66.3328 56.9537L61.8424 59.1817L58.9415 50.5458L61.8128 49.4775ZM91.9202 59.5892V66.7742H47.0815V59.5892C47.0815 56.82 48.8352 54.3095 51.4461 53.3368L54.7422 52.1108L59.2239 65.4613L69.5009 60.3598L79.7779 65.4613L84.2596 52.1108L87.5579 53.3389C90.1665 54.3095 91.9202 56.82 91.9202 59.5892ZM80.0603 50.5458L77.1594 59.1839L72.6689 56.9559L77.1889 49.4775L80.0603 50.5458ZM69.5009 42.2903C64.555 42.2903 60.5331 38.2974 60.5331 33.3871V24.3328C63.815 23.9894 66.9119 22.8015 69.5009 20.78C72.0898 22.8037 75.1867 23.9894 78.4686 24.3328V33.3871C78.4686 38.2974 74.4467 42.2903 69.5009 42.2903ZM82.9525 32.7687V25.1044C84.2869 25.8772 85.1944 27.2977 85.1944 28.9377C85.1944 30.5777 84.2869 31.996 82.9525 32.7687ZM69.5009 4.45161C78.1523 4.45161 85.1944 11.441 85.1944 20.0323V21.2701C83.8698 20.5039 82.3515 20.0323 80.7106 20.0323H80.3252C76.8342 20.0323 73.5523 18.6835 71.086 16.2327L69.5009 14.6569L67.9158 16.2327C65.4472 18.6835 62.1675 20.0323 58.6765 20.0323H58.2912C56.6503 20.0323 55.1319 20.5039 53.8073 21.2701V20.0323C53.8073 11.441 60.8495 4.45161 69.5009 4.45161ZM56.0493 25.1023V32.7665C54.7148 31.9938 53.8073 30.5733 53.8073 28.9333C53.8073 27.2933 54.7148 25.875 56.0493 25.1023Z" fill="black"/>
<path d="M0 138H44.8387V80.1289H0V138ZM4.48387 84.5805H40.3548V133.548H4.48387V84.5805Z" fill="black"/>
<path d="M8.96875 89.0322H35.872V93.4838H8.96875V89.0322Z" fill="black"/>
<path d="M8.96875 97.9355H13.4526V102.387H8.96875V97.9355Z" fill="black"/>
<path d="M17.9375 97.9355H35.873V102.387H17.9375V97.9355Z" fill="black"/>
<path d="M8.96875 106.839H35.872V111.29H8.96875V106.839Z" fill="black"/>
<path d="M8.96875 115.742H35.872V120.194H8.96875V115.742Z" fill="black"/>
<path d="M31.3867 124.645H35.8706V129.097H31.3867V124.645Z" fill="black"/>
<path d="M8.96875 124.645H26.9042V129.097H8.96875V124.645Z" fill="black"/>
<path d="M59.8754 99.5092L56.7052 96.3618L46.1523 106.839L56.7052 117.316L59.8754 114.168L54.7348 109.065H71.7419V104.613H54.7348L59.8754 99.5092Z" fill="black"/>
<path d="M24.6636 35.6131C24.6636 34.3872 25.6685 33.3873 26.9055 33.3873H37.1869L32.0462 38.491L35.2164 41.6385L45.7693 31.1615L35.2164 20.6846L32.0462 23.832L37.1869 28.9357H26.9055C23.1978 28.9357 20.1797 31.9321 20.1797 35.6131V75.6776H24.6636V35.6131Z" fill="black"/>
<path d="M107.612 35.613V63.6268L102.471 58.5231L99.3008 61.6706L109.854 72.1475L120.407 61.6706L117.236 58.5231L112.096 63.6268V35.613C112.096 31.9319 109.078 28.9355 105.37 28.9355H94.1602V33.3872H105.37C106.607 33.3872 107.612 34.387 107.612 35.613Z" fill="black"/>
</svg>
