<svg width="184" height="184" viewBox="0 0 184 184" fill="none" xmlns="http://www.w3.org/2000/svg">
<path d="M165.438 99.4319V41.8275C175.387 40.394 183.062 31.8371 183.062 21.5C183.062 10.1642 173.839 0.9375 162.5 0.9375C151.161 0.9375 141.938 10.1642 141.938 21.5H0.9375V139H89.2123C90.7398 163.546 111.141 183.062 136.062 183.062C161.977 183.062 183.062 161.977 183.062 136.062C183.062 121.26 176.168 108.053 165.438 99.4319ZM162.5 6.8125C170.599 6.8125 177.188 13.4013 177.188 21.5C177.188 29.5987 170.599 36.1875 162.5 36.1875C154.401 36.1875 147.812 29.5987 147.812 21.5C147.812 13.4013 154.401 6.8125 162.5 6.8125ZM6.8125 27.375H142.804C143.506 29.7191 144.622 31.8782 146.056 33.7934L128.09 51.7592C126.939 51.2069 125.67 50.875 124.312 50.875C122.955 50.875 121.686 51.2069 120.538 51.7592L114.619 45.8401C115.168 44.6886 115.5 43.4196 115.5 42.0625C115.5 37.2039 111.546 33.25 106.688 33.25C101.829 33.25 97.875 37.2039 97.875 42.0625C97.875 43.4196 98.2069 44.6886 98.7592 45.8372L84.0276 60.5687C82.8761 60.0194 81.6071 59.6875 80.25 59.6875C75.3914 59.6875 71.4375 63.6414 71.4375 68.5C71.4375 73.3586 75.3914 77.3125 80.25 77.3125C85.1086 77.3125 89.0625 73.3586 89.0625 68.5C89.0625 67.1429 88.7306 65.8739 88.1783 64.7253L102.91 49.9938C104.061 50.5431 105.33 50.875 106.688 50.875C108.045 50.875 109.314 50.5431 110.462 49.9908L116.381 55.9099C115.832 57.0614 115.5 58.3304 115.5 59.6875C115.5 64.5461 119.454 68.5 124.312 68.5C129.171 68.5 133.125 64.5461 133.125 59.6875C133.125 58.3304 132.793 57.0614 132.241 55.9128L150.21 37.9471C152.897 39.9622 156.087 41.3281 159.562 41.8304V95.4251C152.639 91.4037 144.628 89.0625 136.062 89.0625C122.021 89.0625 109.431 95.2841 100.812 105.081V92H83.1875V127.25H89.9202C89.556 129.168 89.3357 131.133 89.2123 133.125H6.8125V27.375ZM124.312 56.75C125.931 56.75 127.25 58.066 127.25 59.6875C127.25 61.309 125.931 62.625 124.312 62.625C122.694 62.625 121.375 61.309 121.375 59.6875C121.375 58.066 122.694 56.75 124.312 56.75ZM103.75 42.0625C103.75 40.441 105.069 39.125 106.688 39.125C108.306 39.125 109.625 40.441 109.625 42.0625C109.625 43.684 108.306 45 106.688 45C105.069 45 103.75 43.684 103.75 42.0625ZM83.1875 68.5C83.1875 70.1215 81.8686 71.4375 80.25 71.4375C78.6314 71.4375 77.3125 70.1215 77.3125 68.5C77.3125 66.8785 78.6314 65.5625 80.25 65.5625C81.8686 65.5625 83.1875 66.8785 83.1875 68.5ZM136.062 159.562C123.105 159.562 112.562 149.02 112.562 136.062C112.562 123.105 123.105 112.562 136.062 112.562C149.02 112.562 159.562 123.105 159.562 136.062C159.562 149.02 149.02 159.562 136.062 159.562ZM94.9375 113.359C93.5304 115.897 92.3672 118.578 91.4448 121.375H89.0625V97.875H94.9375V113.359ZM133.125 95.0873V106.837C118.302 108.318 106.688 120.858 106.688 136.062C106.688 140.36 107.639 144.434 109.305 148.118L99.1146 154.002C96.465 148.573 94.9375 142.499 94.9375 136.062C94.9375 114.378 111.819 96.6031 133.125 95.0873ZM136.062 177.188C121.921 177.188 109.425 170.011 102.023 159.107L112.254 153.2C117.594 160.596 126.263 165.438 136.062 165.438C145.862 165.438 154.531 160.596 159.871 153.2L170.102 159.107C162.7 170.011 150.204 177.188 136.062 177.188V177.188ZM173.01 154.002L162.82 148.118C164.486 144.434 165.438 140.36 165.438 136.062C165.438 120.858 153.823 108.315 139 106.837V95.0873C160.306 96.6031 177.188 114.378 177.188 136.062C177.188 142.499 175.66 148.573 173.01 154.002Z" fill="black"/>
<path d="M136.062 118.438C126.342 118.438 118.438 126.342 118.438 136.062C118.438 145.783 126.342 153.688 136.062 153.688C145.783 153.688 153.688 145.783 153.688 136.062C153.688 126.342 145.783 118.438 136.062 118.438ZM136.062 147.812C129.582 147.812 124.312 142.543 124.312 136.062C124.312 129.582 129.582 124.312 136.062 124.312C142.543 124.312 147.812 129.582 147.812 136.062C147.812 142.543 142.543 147.812 136.062 147.812Z" fill="black"/>
<path d="M12.6875 33.25H18.5625V39.125H12.6875V33.25Z" fill="black"/>
<path d="M24.4375 33.25H65.5625V39.125H24.4375V33.25Z" fill="black"/>
<path d="M12.6875 45H18.5625V50.875H12.6875V45Z" fill="black"/>
<path d="M24.4375 45H65.5625V50.875H24.4375V45Z" fill="black"/>
<path d="M12.6875 56.75H18.5625V62.625H12.6875V56.75Z" fill="black"/>
<path d="M24.4375 56.75H65.5625V62.625H24.4375V56.75Z" fill="black"/>
<path d="M12.6875 68.5H18.5625V74.375H12.6875V68.5Z" fill="black"/>
<path d="M24.4375 68.5H65.5625V74.375H24.4375V68.5Z" fill="black"/>
<path d="M12.6875 127.25H30.3125V97.875H12.6875V127.25ZM18.5625 103.75H24.4375V121.375H18.5625V103.75Z" fill="black"/>
<path d="M36.1875 127.25H53.8125V103.75H36.1875V127.25ZM42.0625 109.625H47.9375V121.375H42.0625V109.625Z" fill="black"/>
<path d="M59.6875 127.25H77.3125V80.25H59.6875V127.25ZM65.5625 86.125H71.4375V121.375H65.5625V86.125Z" fill="black"/>
</svg>
