<svg width="231" height="231" viewBox="0 0 231 231" fill="none" xmlns="http://www.w3.org/2000/svg">
<g clip-path="url(#clip0_493_50)">
<path d="M93.2734 101.002C93.2734 104.74 90.2421 107.77 86.5058 107.77C82.7678 107.77 79.7383 104.74 79.7383 101.002C79.7383 97.2644 82.7678 94.2349 86.5058 94.2349C90.2421 94.2349 93.2734 97.2644 93.2734 101.002Z" fill="black"/>
<path d="M191.612 50.743H173.01V39.3879C173.01 17.6348 155.411 0.000366211 133.622 0.000366211H39.3876C17.6344 0.000366211 0 17.5978 0 39.3879V166.243C0 171.9 6.63362 175.162 11.0995 171.442L52.7112 136.765H57.9913V155.369C57.9913 177.122 75.5888 194.756 97.3789 194.756H178.29L219.9 229.431C221.141 230.466 222.679 231 224.234 231C227.954 231 231 227.981 231 224.232V90.1288C231 68.3757 213.402 50.743 191.612 50.743V50.743ZM50.2597 123.23C48.6771 123.23 47.1438 123.785 45.9278 124.798L13.5351 151.793V39.3879C13.5351 25.1091 25.0858 13.5355 39.3876 13.5355H133.622C147.899 13.5355 159.475 25.0862 159.475 39.3879V97.3793C159.475 111.633 147.877 123.23 133.622 123.23H50.2597ZM217.464 209.784L185.072 182.79C183.856 181.776 182.322 181.221 180.74 181.221H97.3771C90.4721 181.221 83.9795 178.532 79.0977 173.648C74.2141 168.767 71.5247 162.274 71.5247 155.369V136.765H133.621C142.087 136.765 149.939 134.079 156.368 129.516H187.987C191.725 129.516 194.754 126.487 194.754 122.749C194.754 119.013 191.725 115.981 187.987 115.981H168.331C170.844 111.311 172.442 106.077 172.883 100.522H187.987C191.725 100.522 194.754 97.4921 194.754 93.754C194.754 90.016 191.725 86.9865 187.987 86.9865H173.008V64.2781H191.612C198.519 64.2781 205.01 66.9658 209.893 71.8493C214.775 76.7312 217.464 83.2238 217.464 90.1288V209.784Z" fill="black"/>
<path d="M75.1504 53.8783C75.1504 50.847 76.3312 47.9989 78.4742 45.8541C80.6173 43.711 83.4671 42.5302 86.5054 42.5302C92.7654 42.5302 97.8605 47.6253 97.8605 53.8853C97.8605 60.1471 92.7654 65.2404 86.5054 65.2404C82.7674 65.2404 79.7379 68.2699 79.7379 72.0079V79.2566C79.7379 82.9929 82.7674 86.0242 86.5054 86.0242C90.2417 86.0242 93.273 82.9929 93.273 79.2566V77.8397C103.719 74.8841 111.394 65.265 111.394 53.8853C111.394 40.1598 100.229 28.9951 86.4984 28.9951C79.8524 28.9951 73.603 31.5841 68.9027 36.2826C64.2042 40.9829 61.6152 47.2323 61.6152 53.8765V53.8835C61.6152 57.6216 64.6448 60.6476 68.3828 60.6476C72.1208 60.6476 75.1504 57.6163 75.1504 53.8783Z" fill="black"/>
<path d="M187.988 144.976H101.002C97.2639 144.976 94.2344 148.007 94.2344 151.744C94.2344 155.482 97.2639 158.511 101.002 158.511H187.988C191.724 158.511 194.756 155.482 194.756 151.744C194.756 148.007 191.724 144.976 187.988 144.976Z" fill="black"/>
</g>
<defs>
<clipPath id="clip0_493_50">
<rect width="231" height="231" fill="white"/>
</clipPath>
</defs>
</svg>
