<svg width="211" height="211" viewBox="0 0 211 211" fill="none" xmlns="http://www.w3.org/2000/svg">
<path d="M105.5 0C47.1902 0 0 47.1849 0 105.5C0 163.809 47.1849 211 105.5 211C163.81 211 211 163.815 211 105.5C211 47.1902 163.815 0 105.5 0ZM105.5 196.279C55.4444 196.279 14.721 155.556 14.721 105.5C14.721 55.444 55.4444 14.721 105.5 14.721C155.556 14.721 196.279 55.444 196.279 105.5C196.279 155.556 155.556 196.279 105.5 196.279Z" fill="black"/>
<path d="M102.378 133.492C96.5458 133.492 91.8242 138.353 91.8242 144.185C91.8242 149.879 96.4069 154.878 102.378 154.878C108.35 154.878 113.071 149.879 113.071 144.185C113.071 138.353 108.211 133.492 102.378 133.492Z" fill="black"/>
<path d="M104.184 52.5312C85.436 52.5312 76.8262 63.6413 76.8262 71.14C76.8262 76.556 81.4088 79.0558 85.1582 79.0558C92.6574 79.0558 89.6024 68.3624 103.767 68.3624C110.71 68.3624 116.265 71.4178 116.265 77.8059C116.265 85.3047 108.489 89.6096 103.906 93.4978C99.8783 96.969 94.6017 102.663 94.6017 114.606C94.6017 121.827 96.546 123.91 102.239 123.91C109.044 123.91 110.432 120.855 110.432 118.216C110.432 110.995 110.571 106.829 118.209 100.858C121.959 97.9416 133.762 88.4981 133.762 75.4445C133.762 62.391 121.959 52.5312 104.184 52.5312Z" fill="black"/>
</svg>
