<svg width="176" height="176" viewBox="0 0 176 176" fill="none" xmlns="http://www.w3.org/2000/svg">
<path d="M88 134.75C76.6274 134.75 67.375 144.002 67.375 155.375C67.375 166.748 76.6274 176 88 176C99.3726 176 108.625 166.748 108.625 155.375C108.625 144.002 99.3726 134.75 88 134.75ZM88 165.688C82.3137 165.688 77.6875 161.061 77.6875 155.375C77.6875 149.689 82.3137 145.062 88 145.062C93.6863 145.062 98.3125 149.689 98.3125 155.375C98.3125 161.061 93.6863 165.688 88 165.688Z" fill="black"/>
<path d="M88 0C58.431 0 34.375 24.056 34.375 53.625V58.7812H75.625V53.625C75.625 46.8012 81.1762 41.25 88 41.25C94.8238 41.25 100.375 46.8012 100.375 53.625C100.375 57.2612 98.779 60.7028 95.9956 63.0682L67.375 87.4012V124.438H108.625V106.474L122.711 94.4986C134.731 84.2844 141.625 69.387 141.625 53.625C141.625 24.056 117.569 0 88 0V0ZM116.032 86.6412L98.3125 101.706V114.125H77.6875V92.1693L102.674 70.9256C107.767 66.5981 110.688 60.2924 110.688 53.625C110.688 41.1149 100.51 30.9375 88 30.9375C77.263 30.9375 68.2443 38.4347 65.9034 48.4688H44.9924C47.5502 27.0081 65.8622 10.3125 88 10.3125C111.883 10.3125 131.312 29.7423 131.312 53.625C131.312 66.3554 125.743 78.3887 116.032 86.6412Z" fill="black"/>
</svg>
