<svg width="242" height="242" viewBox="0 0 242 242" fill="none" xmlns="http://www.w3.org/2000/svg">
<path d="M115.337 167.428C111.731 167.428 108.815 164.512 108.815 160.906C108.815 152.375 110.025 145.006 112.433 138.811C114.2 134.141 117.067 129.434 121.012 124.678C123.916 121.218 129.119 116.16 136.645 109.529C144.171 102.886 149.06 97.5986 151.323 93.654C153.585 89.7094 154.698 85.4018 154.698 80.7312C154.698 72.2733 151.395 64.856 144.801 58.4551C138.206 52.0542 130.111 48.8598 120.528 48.8598C111.272 48.8598 103.54 51.7638 97.3444 57.5597C92.819 61.7947 89.4189 67.7721 87.1683 75.4919C85.6195 80.7917 80.4528 84.1797 74.9715 83.5263C68.0261 82.7035 63.4523 75.8307 65.4367 69.1152C68.4859 58.7939 73.5921 50.4812 80.7432 44.165C90.6773 35.3683 103.818 30.976 120.165 30.976C137.468 30.976 151.274 35.6829 161.583 45.1088C171.893 54.5347 177.035 65.9208 177.035 79.2792C177.035 87.0111 175.22 94.138 171.602 100.648C167.984 107.17 160.894 115.095 150.355 124.436C143.276 130.716 138.642 135.351 136.464 138.327C134.286 141.304 132.676 144.728 131.636 148.588C130.861 151.456 130.329 155.666 130.039 161.196C129.857 164.681 126.965 167.416 123.48 167.416H115.337V167.428ZM107.605 198.646C107.605 191.809 113.147 186.267 119.984 186.267C126.82 186.267 132.362 191.809 132.362 198.646C132.362 205.482 126.82 211.024 119.984 211.024C113.147 211.024 107.605 205.482 107.605 198.646V198.646Z" fill="black"/>
</svg>
