<svg width="168" height="168" viewBox="0 0 168 168" fill="none" xmlns="http://www.w3.org/2000/svg">
<g clip-path="url(#clip0_432_235)">
<path d="M28 63.7C29.4 51.1 35 39.2 44.1 30.1C55.3 19.6 69.3 14 84 14C98 14 112.7 19.6 123.9 30.1L112 42H147V7.00001L133.7 20.3C106.4 -6.99999 61.6 -6.99999 34.3 20.3C23.1 31.5 16.1 46.2 14 62.3V70H28C28 67.9 28 65.8 28 63.7V63.7Z" fill="black"/>
<path d="M140 70C140 84.7 134.4 99.4 123.9 109.9C112.7 120.4 98.7 126 84 126C69.3 126 55.3 120.4 44.1 109.9L56 98H21V133L34.3 119.7C47.6 133 65.1 140 84 140C102.9 140 120.4 133 133.7 119.7C147 106.4 154 88.2 154 70H140Z" fill="black"/>
</g>
<defs>
<clipPath id="clip0_432_235">
<rect width="168" height="168" fill="white"/>
</clipPath>
</defs>
</svg>
