<svg width="169" height="169" viewBox="0 0 169 169" fill="none" xmlns="http://www.w3.org/2000/svg">
<g clip-path="url(#clip0_432_239)">
<path d="M162.997 23.3131C159.366 22.982 156.155 25.6573 155.824 29.2882L154.949 38.8832C140.109 15.5777 114.348 0 84.4998 0C52.3895 0 24.0915 18.3266 10.0441 45.8327C8.38576 49.0796 9.67373 53.0561 12.9207 54.7144C16.1683 56.3727 20.1441 55.0851 21.8024 51.8378C33.6909 28.5593 57.5644 13.2031 84.4998 13.2031C109.05 13.2031 131.206 25.9874 143.898 46.0155L134.486 39.2928C131.518 37.1741 127.395 37.8613 125.277 40.828C123.158 43.7951 123.845 47.9178 126.812 50.0369L155.355 70.4228C159.539 73.4051 165.309 70.675 165.766 65.6502L168.972 30.487C169.303 26.8558 166.628 23.6442 162.997 23.3131Z" fill="black"/>
<path d="M156.079 114.286C152.831 112.628 148.855 113.915 147.197 117.162C135.309 140.441 111.435 155.797 84.4996 155.797C59.9494 155.797 37.7939 143.013 25.1011 122.984L34.5139 129.707C37.481 131.826 41.6037 131.139 43.7228 128.172C45.8416 125.205 45.1543 121.082 42.1876 118.963L13.6441 98.5772C9.51183 95.625 3.69519 98.2732 3.23309 103.35L0.0276961 138.513C-0.303372 142.144 2.37191 145.356 6.00244 145.687C9.63792 146.017 12.8453 143.339 13.176 139.712L14.0507 130.116C28.8904 153.422 54.651 169 84.4996 169C116.61 169 144.908 150.673 158.955 123.167C160.614 119.92 159.326 115.944 156.079 114.286Z" fill="black"/>
</g>
<defs>
<clipPath id="clip0_432_239">
<rect width="169" height="169" fill="white"/>
</clipPath>
</defs>
</svg>
