<svg width="161" height="161" viewBox="0 0 161 161" fill="none" xmlns="http://www.w3.org/2000/svg">
<g clip-path="url(#clip0_432_308)">
<path d="M80.0694 20.2055V1.23848C80.0694 0.184756 81.3865 -0.375035 82.2756 0.283543L121.263 28.9317C121.922 29.4256 121.922 30.3806 121.263 30.8745L82.2756 59.5227C81.3865 60.1812 80.0694 59.5885 80.0694 58.5677V39.6336C51.1578 40.0946 28.0087 64.6596 29.9845 94.098C31.6638 119.387 52.2773 139.902 77.5668 141.516C104.371 143.228 127.158 124.063 131.241 98.741C131.998 94.0322 136.081 90.6076 140.856 90.6076C146.75 90.6076 151.328 95.8433 150.406 101.639C144.676 137.762 111.385 164.862 72.7921 160.549C40.5217 156.926 14.6067 131.11 10.9516 98.8398C6.11101 56.6249 38.9082 20.6665 80.0694 20.2055Z" fill="black"/>
</g>
<defs>
<clipPath id="clip0_432_308">
<rect width="161" height="161" fill="white"/>
</clipPath>
</defs>
</svg>
