<svg width="102" height="102" viewBox="0 0 102 102" fill="none" xmlns="http://www.w3.org/2000/svg">
<g clip-path="url(#clip0_432_261)">
<path d="M100.519 30.4527C98.9697 29.3967 96.8596 29.7958 95.8037 31.3439L88.883 41.4912C87.0851 33.1147 82.9206 25.4177 76.7238 19.2214C68.2329 10.7304 56.9436 6.0542 44.9351 6.0542C32.927 6.0542 21.6374 10.7304 13.1464 19.2214C-4.38213 36.7499 -4.38213 65.2708 13.1464 82.7988C21.9106 91.5631 33.4229 95.9452 44.9351 95.9452C56.4473 95.9452 67.9596 91.5631 76.7238 82.7988C78.049 81.4737 78.049 79.3252 76.7238 78C75.3987 76.6749 73.2502 76.6749 71.9255 78C57.0427 92.8823 32.8279 92.8823 17.9456 78C3.06333 63.1177 3.06333 38.902 17.9456 24.0197C25.1549 16.8109 34.7399 12.8405 44.9356 12.8405C55.1313 12.8405 64.7167 16.8109 71.9255 24.0202C77.4898 29.584 81.1164 36.5753 82.4849 44.165L70.4402 35.95C68.892 34.8941 66.781 35.2931 65.7251 36.8413C64.6691 38.3895 65.0682 40.5004 66.6164 41.5564L84.5837 53.811C84.5846 53.8115 84.5855 53.8124 84.5864 53.8133C84.8705 54.0069 85.1737 54.1494 85.4854 54.2467C85.4949 54.2499 85.5039 54.2549 85.5134 54.2576C85.5664 54.2739 85.6202 54.2802 85.6736 54.2938C85.945 54.3616 86.2201 54.4033 86.4952 54.4033C87.5792 54.4033 88.6446 53.8848 89.3015 52.922L101.41 35.1682C102.466 33.6196 102.067 31.5086 100.519 30.4527Z" fill="black"/>
</g>
<defs>
<clipPath id="clip0_432_261">
<rect width="102" height="102" fill="white"/>
</clipPath>
</defs>
</svg>
