<svg width="107" height="107" viewBox="0 0 107 107" fill="none" xmlns="http://www.w3.org/2000/svg">
<g clip-path="url(#clip0_502_1656)">
<path d="M2.23363 98.0789C2.05083 98.0789 1.86358 98.0566 1.68079 98.0075C0.6955 97.7534 0.00891667 96.8707 0.00445833 95.8542L0 93.9415C0 93.9415 0 93.9415 0 93.9371C0 59.4519 27.9716 31.3822 62.4167 31.2083V11.1458C62.4167 10.2542 62.9472 9.45167 63.7631 9.09946C64.5923 8.73834 65.5286 8.91221 66.1795 9.52746L106.305 47.4233C106.746 47.8424 107 48.4264 107 49.0417C107 49.6569 106.746 50.241 106.305 50.66L66.1795 88.5559C65.5286 89.1711 64.5968 89.345 63.7631 88.9839C62.9472 88.6317 62.4167 87.8292 62.4167 86.9375V66.875H55.163C33.977 66.875 14.4405 78.3909 4.18192 96.9286C3.78513 97.6464 3.03167 98.0789 2.23363 98.0789V98.0789ZM62.7288 35.6667C32.6796 35.6667 7.86896 58.5335 4.77933 87.7757C16.5137 71.962 35.154 62.4167 55.163 62.4167H64.6458C65.8763 62.4167 66.875 63.4153 66.875 64.6458V81.7658L101.521 49.0417L66.875 16.3175V33.4375C66.875 34.668 65.8763 35.6667 64.6458 35.6667H62.7288Z" fill="black"/>
</g>
<defs>
<clipPath id="clip0_502_1656">
<rect width="107" height="107" fill="white"/>
</clipPath>
</defs>
</svg>
