<svg width="104" height="104" viewBox="0 0 104 104" fill="none" xmlns="http://www.w3.org/2000/svg">
<g clip-path="url(#clip0_502_1652)">
<path d="M101.833 95.3333C101.058 95.3333 100.325 94.9173 99.9353 94.2153C89.9643 76.193 70.9757 65 50.3837 65H43.3333V84.5C43.3333 85.3667 42.8177 86.1467 42.0247 86.489C41.2187 86.84 40.3043 86.671 39.676 86.073L0.676 49.2397C0.247 48.8323 0 48.2647 0 47.6667C0 47.0687 0.247 46.501 0.676 46.0937L39.676 9.26033C40.3087 8.66667 41.2273 8.49767 42.0247 8.84433C42.8177 9.18667 43.3333 9.96667 43.3333 10.8333V30.3333C76.8127 30.5023 104 57.785 104 91.3033V93.1667C104 94.1547 103.333 95.017 102.375 95.264C102.193 95.3117 102.011 95.3333 101.833 95.3333ZM41.1667 60.6667H50.3837C69.8317 60.6667 87.9537 69.94 99.3547 85.3147C96.3517 56.888 72.2367 34.6667 43.03 34.6667H41.1667C39.9707 34.6667 39 33.696 39 32.5V15.86L5.32567 47.6667L39 79.4733V62.8333C39 61.6373 39.9707 60.6667 41.1667 60.6667V60.6667Z" fill="black"/>
</g>
<defs>
<clipPath id="clip0_502_1652">
<rect width="104" height="104" fill="white"/>
</clipPath>
</defs>
</svg>
