<svg width="210" height="228" viewBox="0 0 210 228" fill="none" xmlns="http://www.w3.org/2000/svg">
<path d="M3.67188 80.7812C2.69803 80.7812 1.76408 81.1681 1.07547 81.8567C0.386857 82.5453 0 83.4793 0 84.4531V99.1406C0 100.114 0.386857 101.048 1.07547 101.737C1.76408 102.426 2.69803 102.812 3.67188 102.812H11.6779C12.8294 107.803 14.7389 112.587 17.34 116.998L8.41915 125.919C8.07816 126.26 7.80768 126.665 7.62314 127.11C7.4386 127.556 7.34362 128.033 7.34362 128.516C7.34362 128.998 7.4386 129.475 7.62314 129.921C7.80768 130.366 8.07816 130.771 8.41915 131.112L19.4348 142.128C19.7757 142.469 20.1805 142.739 20.626 142.924C21.0715 143.108 21.549 143.203 22.0312 143.203C22.5135 143.203 22.991 143.108 23.4365 142.924C23.882 142.739 24.2868 142.469 24.6277 142.128L33.5485 133.207C37.9601 135.808 42.7443 137.717 47.7344 138.869V150.547C47.7344 151.521 48.1212 152.455 48.8098 153.143C49.4984 153.832 50.4324 154.219 51.4062 154.219H64.2808C66.6326 163.341 71.1444 171.763 77.4355 178.775C83.7266 185.786 91.6122 191.182 100.427 194.505C109.241 197.828 118.726 198.982 128.08 197.87C137.435 196.757 146.384 193.41 154.173 188.112L190.492 224.43C191.515 225.453 192.729 226.264 194.066 226.818C195.402 227.372 196.835 227.657 198.281 227.657C199.728 227.657 201.16 227.372 202.497 226.818C203.833 226.264 205.048 225.453 206.071 224.43C207.094 223.407 207.905 222.193 208.459 220.856C209.012 219.52 209.297 218.087 209.297 216.641C209.297 215.194 209.012 213.762 208.459 212.425C207.905 211.089 207.094 209.874 206.071 208.851L169.752 172.532C177.804 160.706 181.255 146.345 179.456 132.152C177.658 117.959 170.733 104.912 159.986 95.4688H165.234C166.208 95.4688 167.142 95.0819 167.831 94.3933C168.519 93.7047 168.906 92.7707 168.906 91.7969V77.7795C169.63 75.8609 179.922 48.5257 179.922 47.7344C179.922 39.6599 177.645 33.2892 173.155 28.7985C168.664 24.3078 162.293 22.0312 154.219 22.0312C146.144 22.0312 139.774 24.3083 135.283 28.7985C130.792 33.2888 128.516 39.6599 128.516 47.7344C128.516 48.1745 139.531 77.7749 139.531 77.7749V83.722C133.607 81.7696 127.409 80.7768 121.172 80.7812H105.822C104.671 75.7911 102.761 71.007 100.16 66.5954L109.081 57.6746C109.422 57.3336 109.692 56.9288 109.877 56.4833C110.061 56.0378 110.156 55.5603 110.156 55.0781C110.156 54.5959 110.061 54.1184 109.877 53.6729C109.692 53.2274 109.422 52.8226 109.081 52.4817L98.0652 41.466C97.7243 41.125 97.3195 40.8546 96.874 40.67C96.4285 40.4855 95.951 40.3905 95.4688 40.3905C94.9865 40.3905 94.509 40.4855 94.0635 40.67C93.618 40.8546 93.2132 41.125 92.8723 41.466L83.9515 50.3868C79.5399 47.7858 74.7557 45.8763 69.7656 44.7248V33.0469C69.7656 32.073 69.3788 31.1391 68.6902 30.4505C68.0016 29.7619 67.0676 29.375 66.0938 29.375H51.4062C50.4324 29.375 49.4984 29.7619 48.8098 30.4505C48.1212 31.1391 47.7344 32.073 47.7344 33.0469V44.7248C42.7443 45.8763 37.9601 47.7858 33.5485 50.3868L24.6277 41.466C24.2868 41.125 23.882 40.8546 23.4365 40.67C22.991 40.4855 22.5135 40.3905 22.0312 40.3905C21.549 40.3905 21.0715 40.4855 20.626 40.67C20.1805 40.8546 19.7757 41.125 19.4348 41.466L8.41915 52.4817C8.07816 52.8226 7.80768 53.2274 7.62314 53.6729C7.4386 54.1184 7.34362 54.5959 7.34362 55.0781C7.34362 55.5603 7.4386 56.0378 7.62314 56.4833C7.80768 56.9288 8.07816 57.3336 8.41915 57.6746L17.34 66.5954C14.7389 71.007 12.8294 75.7911 11.6779 80.7812H3.67188ZM200.878 214.045C201.227 214.384 201.505 214.789 201.696 215.236C201.887 215.684 201.988 216.165 201.991 216.652C201.995 217.139 201.901 217.621 201.717 218.071C201.532 218.522 201.26 218.931 200.916 219.275C200.572 219.619 200.162 219.892 199.712 220.076C199.262 220.261 198.779 220.354 198.292 220.35C197.806 220.347 197.325 220.246 196.877 220.055C196.429 219.864 196.024 219.586 195.685 219.237L160.015 183.567C161.851 181.945 163.585 180.211 165.207 178.375L200.878 214.045ZM135.865 47.0845C136.083 35.3322 142.255 29.375 154.219 29.375C166.198 29.375 172.37 35.3464 172.573 47.1271C171.54 49.9623 166.522 63.2953 162.696 73.4375H145.747L135.865 47.0845ZM146.875 80.7812H161.562V88.125H149.587C148.697 87.6311 147.793 87.1595 146.875 86.71V80.7812ZM172.578 139.531C172.578 149.697 169.564 159.634 163.917 168.087C158.27 176.54 150.244 183.129 140.852 187.021C131.461 190.913 121.127 191.933 111.156 189.952C101.185 187.972 92.0254 183.079 84.8347 175.893C77.644 168.708 72.7452 159.551 70.7577 149.582C68.7702 139.612 69.7832 129.277 73.6686 119.883C77.554 110.49 84.1373 102.459 92.5864 96.8057C101.035 91.1529 110.971 88.132 121.137 88.125H121.172C134.801 88.1404 147.867 93.5614 157.505 103.199C167.142 112.836 172.563 125.902 172.578 139.531V139.531ZM58.75 110.156C55.1189 110.156 51.5693 109.079 48.5501 107.062C45.5309 105.045 43.1777 102.177 41.7881 98.8227C40.3986 95.468 40.035 91.7765 40.7434 88.2151C41.4518 84.6538 43.2004 81.3824 45.768 78.8148C48.3356 76.2472 51.6069 74.4987 55.1683 73.7903C58.7296 73.0819 62.4211 73.4454 65.7758 74.835C69.1306 76.2246 71.9979 78.5778 74.0153 81.597C76.0326 84.6161 77.1094 88.1657 77.1094 91.7969C77.1039 96.6644 75.1679 101.331 71.726 104.773C68.2841 108.215 63.6175 110.151 58.75 110.156V110.156ZM18.3093 85.0576C19.3183 79.0196 21.6142 73.2693 25.0413 68.1968C25.5354 67.4897 25.7648 66.6313 25.6893 65.7719C25.6138 64.9126 25.2381 64.1073 24.6282 63.4973L16.2081 55.0781L22.0312 49.255L30.4504 57.6746C31.0604 58.2845 31.8657 58.6602 32.7251 58.7357C33.5844 58.8113 34.4429 58.5818 35.1499 58.0877C40.2225 54.6606 45.9728 52.3647 52.0107 51.3558C52.8679 51.2127 53.6465 50.7703 54.2081 50.1072C54.7698 49.4441 55.078 48.6034 55.0781 47.7344V36.7188H62.4219V47.7344C62.4219 48.6034 62.7301 49.4443 63.2917 50.1075C63.8534 50.7707 64.6321 51.2132 65.4893 51.3562C71.5272 52.3652 77.2775 54.6611 82.3501 58.0881C83.0571 58.5823 83.9156 58.8117 84.7749 58.7362C85.6343 58.6606 86.4396 58.285 87.0496 57.6751L95.4688 49.255L101.292 55.0781L92.8723 63.4973C92.2624 64.1073 91.8867 64.9126 91.8111 65.7719C91.7356 66.6313 91.965 67.4897 92.4592 68.1968C95.8847 73.2671 98.1801 79.0147 99.1897 85.0498C93.849 87.2148 88.8556 90.1531 84.3696 93.7705C84.4196 93.1174 84.4531 92.4601 84.4531 91.7946C84.4555 86.3344 82.7196 81.0152 79.4971 76.6074C76.2745 72.1995 71.7325 68.9319 66.5289 67.2778C61.3253 65.6237 55.7302 65.6689 50.554 67.4069C45.3778 69.1449 40.8892 72.4855 37.7383 76.9448C34.5874 81.4042 32.9378 86.7507 33.0284 92.2102C33.119 97.6696 34.945 102.959 38.2421 107.311C41.5392 111.663 46.1362 114.853 51.3672 116.418C56.5982 117.984 62.1917 117.843 67.3376 116.017C64.0875 123.43 62.4136 131.437 62.4219 139.531C62.4223 141.986 62.5756 144.439 62.8809 146.875H55.0781V135.859C55.0781 134.99 54.7699 134.149 54.2083 133.486C53.6466 132.823 52.8679 132.381 52.0107 132.238C45.9728 131.229 40.2225 128.933 35.1499 125.506C34.4429 125.011 33.5844 124.782 32.7251 124.858C31.8657 124.933 31.0604 125.309 30.4504 125.919L22.0312 134.339L16.2081 128.516L24.6277 120.096C25.2376 119.486 25.6133 118.681 25.6888 117.822C25.7644 116.963 25.535 116.104 25.0408 115.397C21.6138 110.324 19.3179 104.574 18.3089 98.5361C18.1658 97.679 17.7234 96.9004 17.0603 96.3388C16.3973 95.7771 15.5565 95.4688 14.6875 95.4688H7.34375V88.125H14.6875C15.5566 88.125 16.3975 87.8168 17.0606 87.2551C17.7238 86.6935 18.1663 85.9148 18.3093 85.0576Z" fill="black"/>
<path d="M114.216 20.3889C113.78 21.2598 113.709 22.2682 114.016 23.192C114.324 24.1159 114.987 24.8796 115.858 25.3151L123.201 28.987C123.633 29.2071 124.104 29.3396 124.587 29.3768C125.07 29.414 125.556 29.3552 126.017 29.2038C126.477 29.0524 126.903 28.8113 127.269 28.4945C127.636 28.1778 127.937 27.7915 128.153 27.3581C128.37 26.9246 128.499 26.4526 128.532 25.9691C128.566 25.4857 128.503 25.0004 128.348 24.5413C128.193 24.0821 127.949 23.6582 127.629 23.2939C127.31 22.9297 126.921 22.6323 126.486 22.4189L119.142 18.7471C118.271 18.3116 117.263 18.2398 116.339 18.5477C115.415 18.8556 114.651 19.5179 114.216 20.3889V20.3889Z" fill="black"/>
<path d="M150.547 3.67188V11.0156C150.547 11.9895 150.934 12.9234 151.622 13.612C152.311 14.3006 153.245 14.6875 154.219 14.6875C155.193 14.6875 156.127 14.3006 156.815 13.612C157.504 12.9234 157.891 11.9895 157.891 11.0156V3.67188C157.891 2.69803 157.504 1.76408 156.815 1.07547C156.127 0.386857 155.193 0 154.219 0C153.245 0 152.311 0.386857 151.622 1.07547C150.934 1.76408 150.547 2.69803 150.547 3.67188V3.67188Z" fill="black"/>
<path d="M130.545 4.05957C129.674 4.49514 129.012 5.25885 128.704 6.1827C128.396 7.10655 128.468 8.11486 128.903 8.98585L132.575 16.3296C132.789 16.7647 133.086 17.1533 133.45 17.4729C133.814 17.7925 134.238 18.0369 134.698 18.1919C135.157 18.3469 135.642 18.4095 136.125 18.3761C136.609 18.3426 137.081 18.2138 137.514 17.9971C137.948 17.7803 138.334 17.4799 138.651 17.1132C138.968 16.7465 139.209 16.3207 139.36 15.8603C139.511 15.4 139.57 14.9142 139.533 14.431C139.496 13.9479 139.363 13.4768 139.143 13.0451L135.471 5.70136C135.036 4.8304 134.272 4.16813 133.348 3.86024C132.424 3.55235 131.416 3.62405 130.545 4.05957V4.05957Z" fill="black"/>
<path d="M172.967 5.70172L169.295 13.0455C169.075 13.4772 168.943 13.9482 168.905 14.4314C168.868 14.9146 168.927 15.4003 169.078 15.8607C169.23 16.321 169.471 16.7468 169.788 17.1136C170.104 17.4803 170.491 17.7807 170.924 17.9975C171.358 18.2142 171.83 18.343 172.313 18.3764C172.796 18.4099 173.282 18.3473 173.741 18.1923C174.2 18.0373 174.624 17.7929 174.988 17.4733C175.352 17.1536 175.65 16.7651 175.863 16.33L179.535 8.98621C179.755 8.55448 179.888 8.08345 179.925 7.60027C179.962 7.1171 179.903 6.63134 179.752 6.171C179.6 5.71065 179.359 5.28484 179.043 4.91811C178.726 4.55137 178.34 4.25097 177.906 4.03423C177.473 3.81748 177.001 3.68867 176.517 3.65524C176.034 3.6218 175.549 3.68439 175.089 3.8394C174.63 3.99441 174.206 4.23878 173.842 4.55841C173.478 4.87804 173.18 5.26661 172.967 5.70172V5.70172Z" fill="black"/>
<path d="M189.297 18.7473L181.954 22.4192C181.519 22.6326 181.13 22.9299 180.81 23.2942C180.491 23.6584 180.246 24.0824 180.091 24.5415C179.936 25.0007 179.874 25.4859 179.907 25.9694C179.941 26.4529 180.069 26.9249 180.286 27.3583C180.503 27.7918 180.803 28.178 181.17 28.4948C181.537 28.8116 181.963 29.0526 182.423 29.2041C182.883 29.3555 183.369 29.4143 183.852 29.3771C184.335 29.3399 184.806 29.2074 185.238 28.9873L192.582 25.3154C193.017 25.102 193.406 24.8047 193.725 24.4404C194.045 24.0761 194.289 23.6522 194.444 23.1931C194.599 22.7339 194.662 22.2486 194.628 21.7652C194.595 21.2817 194.466 20.8097 194.249 20.3763C194.033 19.9428 193.732 19.5566 193.366 19.2398C192.999 18.923 192.573 18.682 192.113 18.5305C191.652 18.3791 191.167 18.3203 190.683 18.3575C190.2 18.3947 189.729 18.5272 189.297 18.7473Z" fill="black"/>
<path d="M77.1094 139.531C77.1094 148.246 79.6936 156.765 84.5352 164.011C89.3769 171.257 96.2585 176.905 104.31 180.24C112.361 183.575 121.221 184.447 129.768 182.747C138.315 181.047 146.167 176.85 152.329 170.688C158.491 164.526 162.688 156.675 164.388 148.127C166.088 139.58 165.215 130.721 161.88 122.669C158.545 114.618 152.898 107.736 145.652 102.895C138.406 98.053 129.887 95.4687 121.172 95.4688C109.49 95.4819 98.29 100.128 90.0295 108.389C81.769 116.649 77.1225 127.849 77.1094 139.531V139.531ZM157.891 139.531C157.891 146.794 155.737 153.893 151.702 159.931C147.668 165.969 141.933 170.676 135.224 173.455C128.514 176.234 121.131 176.961 114.008 175.544C106.886 174.128 100.343 170.631 95.2078 165.495C90.0726 160.36 86.5755 153.817 85.1587 146.695C83.7419 139.572 84.469 132.189 87.2482 125.48C90.0273 118.77 94.7337 113.035 100.772 109.001C106.81 104.966 113.91 102.813 121.172 102.812C130.907 102.824 140.24 106.696 147.124 113.579C154.007 120.463 157.88 129.796 157.891 139.531Z" fill="black"/>
<path d="M99.1406 139.531C99.1406 138.557 98.7538 137.623 98.0652 136.935C97.3766 136.246 96.4426 135.859 95.4688 135.859C94.4949 135.859 93.5609 136.246 92.8723 136.935C92.1837 137.623 91.7969 138.557 91.7969 139.531C91.8056 147.319 94.9033 154.786 100.41 160.293C105.917 165.8 113.384 168.898 121.172 168.906C122.146 168.906 123.08 168.519 123.768 167.831C124.457 167.142 124.844 166.208 124.844 165.234C124.844 164.261 124.457 163.327 123.768 162.638C123.08 161.949 122.146 161.562 121.172 161.562C115.331 161.556 109.731 159.233 105.601 155.103C101.47 150.972 99.1471 145.372 99.1406 139.531Z" fill="black"/>
</svg>
