<svg width="60" height="60" viewBox="0 0 60 60" fill="none" xmlns="http://www.w3.org/2000/svg">
<path fill-rule="evenodd" clip-rule="evenodd" d="M30 0C46.5686 0 60 13.4314 60 30C60 46.5686 46.5686 60 30 60C13.4314 60 0 46.5686 0 30C0 13.4314 13.4314 0 30 0ZM46.9347 28.446L39.872 21.3837C39.6685 21.1774 39.4262 21.0134 39.159 20.9012C38.8919 20.7889 38.6052 20.7306 38.3154 20.7296C38.0257 20.7286 37.7386 20.7849 37.4707 20.8954C37.2028 21.0058 36.9593 21.1681 36.7544 21.373C36.5495 21.5779 36.3871 21.8212 36.2767 22.0891C36.1662 22.357 36.1098 22.6441 36.1108 22.9339C36.1117 23.2236 36.1699 23.5103 36.2822 23.7775C36.3944 24.0447 36.5583 24.287 36.7645 24.4905L40.0761 27.8023H22.5918L16.1726 21.3837C15.7606 20.9716 15.2018 20.7401 14.6191 20.7401C14.0364 20.74 13.4775 20.9714 13.0655 21.3834C12.6534 21.7954 12.4219 22.3542 12.4218 22.9369C12.4218 23.5196 12.6532 24.0785 13.0652 24.4905L18.5742 30L13.0654 35.509C12.8591 35.7125 12.6952 35.9548 12.5829 36.222C12.4707 36.4892 12.4125 36.7759 12.4115 37.0656C12.4106 37.3554 12.4669 37.6425 12.5774 37.9104C12.6879 38.1783 12.8502 38.4217 13.0551 38.6266C13.26 38.8314 13.5034 38.9938 13.7713 39.1042C14.0392 39.2146 14.3263 39.271 14.6161 39.27C14.9059 39.269 15.1926 39.2107 15.4597 39.0985C15.7269 38.9862 15.9692 38.8222 16.1727 38.616L22.5919 32.1973H40.0763L36.7646 35.509C36.5598 35.7128 36.3971 35.9551 36.286 36.2219C36.1749 36.4887 36.1175 36.7748 36.1172 37.0638C36.1168 37.3529 36.1735 37.6391 36.2839 37.9062C36.3944 38.1733 36.5564 38.4159 36.7608 38.6203C36.9652 38.8246 37.2079 38.9866 37.475 39.097C37.7421 39.2074 38.0283 39.2641 38.3174 39.2637C38.6064 39.2633 38.8925 39.2059 39.1593 39.0947C39.4261 38.9836 39.6683 38.8209 39.8721 38.616L46.9348 31.5539C47.3467 31.1417 47.5781 30.5829 47.5781 30.0001C47.5781 29.4174 47.3466 28.8581 46.9347 28.446Z" fill="#EF0548"/>
</svg>
