<svg width="157" height="157" viewBox="0 0 157 157" fill="none" xmlns="http://www.w3.org/2000/svg">
<g clip-path="url(#clip0_372_458)">
<path d="M17.5218 14.1089C12.3018 12.8039 6.29884 14.8919 1.07884 15.4139C-0.22616 15.4139 -0.48716 17.5019 1.07884 17.7629C6.29884 18.0239 12.5628 17.7629 17.5218 16.4579C18.5663 15.9359 18.5663 14.3699 17.5218 14.1089Z" fill="black"/>
<path d="M48.8418 21.1554C45.1878 17.5014 39.4458 16.7184 34.7478 16.9794C33.7038 16.9794 33.7038 18.5454 34.7478 18.5454C37.3578 18.8064 39.7068 19.3284 42.0558 20.1114C44.1438 20.8944 45.9708 21.9384 48.0588 22.7214C48.8418 23.2434 49.6248 21.9384 48.8418 21.1554Z" fill="black"/>
<path d="M76.2476 41.5132C75.2036 39.1642 73.1156 37.0762 71.0276 35.5102C69.2006 33.6832 66.8516 32.1172 64.7636 30.8122C63.9806 30.2902 63.1976 31.3342 63.9806 31.8562C66.0686 33.4222 67.8956 35.2492 69.4616 37.0762C71.2886 38.9032 72.5936 41.2522 74.4206 43.0792C75.2031 44.1232 76.7691 42.8182 76.2476 41.5132Z" fill="black"/>
<path d="M81.4674 57.6955C80.6844 56.3905 78.8569 57.4345 79.6404 58.7395C80.1624 60.0445 80.9454 61.6105 81.4674 62.9155C81.9894 64.7425 81.7279 66.5695 82.5109 68.1355C82.7719 68.9185 84.0769 68.9185 84.3379 68.1355C85.6434 65.2645 83.0334 60.5665 81.4674 57.6955Z" fill="black"/>
<path d="M88.5148 90.3202C88.5148 87.7102 88.5148 85.1002 87.9928 82.7512C87.7318 81.4462 86.1658 81.4462 86.1658 82.7512C85.9048 85.1002 85.9048 87.1882 85.9048 89.5372C85.9048 91.8862 85.3828 94.2352 86.1658 96.5842C86.4268 97.6278 88.2538 97.6278 88.5148 96.5842C89.0372 94.4962 88.7762 92.4082 88.5148 90.3202Z" fill="black"/>
<path d="M82.252 113.288C81.208 115.898 80.164 118.508 78.598 121.118C77.293 123.467 75.466 125.816 75.205 128.426C74.944 129.731 76.771 129.992 77.554 129.47C79.642 127.643 80.6864 124.511 81.73 121.901C83.0354 119.291 83.818 116.681 84.34 114.071C84.601 112.505 82.5126 111.983 82.252 113.288Z" fill="black"/>
<path d="M70.5031 133.386C68.9371 135.212 67.3711 137.301 65.8051 138.867C65.0221 139.65 63.9781 140.433 62.9341 140.955C61.8901 141.477 61.3681 141.477 60.5851 142.521C60.0631 143.304 60.5851 144.348 61.3681 144.609C63.7171 145.131 65.8051 142.782 67.3711 141.216C69.1981 139.128 70.5031 136.779 71.8081 134.169C72.0695 133.386 71.0251 132.603 70.5031 133.386Z" fill="black"/>
<path d="M50.4076 139.91C49.1026 140.954 47.5366 141.737 45.9706 141.737C44.6656 141.737 43.0996 141.476 42.0556 142.52C41.5336 143.042 41.5336 143.825 42.0556 144.347C44.6656 146.957 49.8856 143.303 51.4516 141.215C51.974 140.432 51.191 139.388 50.4076 139.91Z" fill="black"/>
<path d="M33.7058 134.429C31.6178 134.168 29.2688 133.646 27.1808 132.863C24.8318 131.819 23.7878 129.992 22.4828 127.904C21.6998 126.86 20.1338 127.121 19.8728 128.687C19.6118 135.734 28.4858 137.039 33.7058 136.256C34.4888 135.995 34.4888 134.429 33.7058 134.429Z" fill="black"/>
<path d="M20.6549 117.204C18.5669 113.289 19.0889 109.374 18.3059 105.198C18.0449 104.154 16.4789 104.154 16.2179 105.198C15.4349 109.635 16.7399 114.333 19.3499 117.987C19.8719 118.77 20.9163 118.248 20.6549 117.204Z" fill="black"/>
<path d="M21.6978 72.3111C16.9998 76.7481 15.9558 83.2735 16.2168 89.2761C16.2168 90.3201 18.0438 90.3201 18.0438 89.2761C18.3048 83.7951 19.8708 78.3141 23.2638 73.8775C24.3082 72.8331 22.7422 71.2671 21.6978 72.3111Z" fill="black"/>
<path d="M36.8372 53.5192C32.1392 55.8682 28.4852 60.3052 25.6142 64.7422C24.8312 65.7862 26.6582 66.8302 27.1802 65.7862C30.3122 61.8712 34.2272 58.7392 37.8812 55.3462C38.9252 54.3022 37.8808 52.9972 36.8372 53.5192Z" fill="black"/>
<path d="M52.2342 38.3818C48.5802 38.3818 44.4042 41.5138 42.0552 44.1238C41.0112 45.1678 42.5772 46.7338 43.6212 45.6898C44.9262 44.3848 46.4922 43.3408 48.0582 42.5578C49.6242 41.7748 51.4512 41.2528 53.0172 40.2088C53.8002 39.6868 53.0172 38.3818 52.2342 38.3818Z" fill="black"/>
<path d="M87.21 27.4199C85.122 27.4199 83.034 28.2029 80.946 28.4639C78.336 28.9859 75.726 29.2469 73.377 30.2909C72.072 30.8129 72.594 32.6399 73.899 32.3789C76.248 31.8569 78.858 31.5959 81.207 31.3349C83.295 31.0739 85.905 31.0739 87.732 29.7689C89.037 29.2469 88.5146 27.4199 87.21 27.4199Z" fill="black"/>
<path d="M110.436 24.8098C107.043 24.0268 102.867 24.8098 99.2131 25.0708C97.9081 25.0708 97.9081 26.8978 99.2131 26.8978C102.867 27.1588 106.782 27.9418 110.436 27.1588C111.741 26.8978 111.741 25.0708 110.436 24.8098Z" fill="black"/>
<path d="M134.71 26.1143C132.883 25.5923 131.056 25.8533 129.229 25.8533C127.402 25.8533 125.314 25.8533 123.487 26.1143C122.182 26.1143 122.182 28.2023 123.487 28.2023C125.314 28.2023 127.402 28.2023 129.229 28.4633C131.056 28.4633 132.883 28.7243 134.71 28.2023C135.754 28.2023 135.754 26.6363 134.71 26.1143Z" fill="black"/>
<path d="M156.373 26.8975C152.98 23.5045 149.587 20.3725 145.934 17.5015C143.324 15.4135 139.408 11.4985 136.015 11.7595C134.71 11.7595 133.666 13.3255 134.449 14.6305C136.015 17.2405 139.669 18.8065 142.018 20.3725C144.889 22.4605 147.76 25.0705 150.631 27.6805C145.411 29.7685 140.191 32.6395 135.232 35.2495C133.666 36.0325 134.71 38.9035 136.538 38.3815C143.063 36.2935 148.805 32.1175 155.591 30.8125C157.156 30.5515 157.418 28.2025 156.373 26.8975Z" fill="black"/>
</g>
<defs>
<clipPath id="clip0_372_458">
<rect width="157" height="157" fill="white"/>
</clipPath>
</defs>
</svg>
