<svg width="127" height="127" viewBox="0 0 127 127" fill="none" xmlns="http://www.w3.org/2000/svg">
<path d="M51.5938 15.8752V51.5939H43.6562V15.8752C43.6562 14.8226 44.0744 13.8131 44.8187 13.0688C45.563 12.3246 46.5724 11.9064 47.625 11.9064C48.6776 11.9064 49.687 12.3246 50.4313 13.0688C51.1756 13.8131 51.5938 14.8226 51.5938 15.8752V15.8752Z" fill="#57A4FF"/>
<path d="M55.5625 115.094C55.5622 116.487 55.1952 117.856 54.4983 119.062C53.8014 120.269 52.7993 121.27 51.5926 121.967C50.3859 122.663 49.0171 123.03 47.6239 123.03C46.2306 123.029 44.862 122.663 43.6555 121.966C42.449 121.269 41.4471 120.267 40.7506 119.06C40.0541 117.854 39.6874 116.485 39.6875 115.092C39.6876 113.698 40.0544 112.33 40.751 111.123C41.4477 109.917 42.4497 108.915 43.6562 108.218V15.8752C43.6562 14.8226 44.0744 13.8131 44.8187 13.0688C45.563 12.3246 46.5724 11.9064 47.625 11.9064C48.6776 11.9064 49.687 12.3246 50.4313 13.0688C51.1756 13.8131 51.5938 14.8226 51.5938 15.8752V108.218C52.8007 108.915 53.8028 109.917 54.4995 111.124C55.1962 112.331 55.5628 113.7 55.5625 115.094Z" fill="#57A4FF"/>
<path d="M83.3438 75.4064V111.125C83.3438 112.178 82.9256 113.187 82.1813 113.932C81.437 114.676 80.4276 115.094 79.375 115.094C78.3224 115.094 77.313 114.676 76.5687 113.932C75.8244 113.187 75.4062 112.178 75.4062 111.125V75.4064H83.3438Z" fill="#57A4FF"/>
<path d="M83.3438 18.7823V111.125C83.3438 112.178 82.9256 113.187 82.1813 113.931C81.4371 114.676 80.4276 115.094 79.375 115.094C78.3224 115.094 77.313 114.676 76.5687 113.931C75.8244 113.187 75.4063 112.178 75.4063 111.125V18.7823C73.893 17.9086 72.7104 16.5601 72.0417 14.9458C71.373 13.3314 71.2557 11.5416 71.708 9.85383C72.1602 8.16605 73.1567 6.67466 74.543 5.61096C75.9292 4.54726 77.6277 3.9707 79.375 3.9707C81.1223 3.9707 82.8208 4.54726 84.2071 5.61096C85.5933 6.67466 86.5898 8.16605 87.042 9.85383C87.4943 11.5416 87.377 13.3314 86.7083 14.9458C86.0396 16.5601 84.857 17.9086 83.3438 18.7823V18.7823Z" fill="#57A4FF"/>
<path d="M51.5938 1.98438H43.6562C40.4995 1.98772 37.4731 3.2432 35.241 5.47533C33.0088 7.70746 31.7533 10.7339 31.75 13.8906V41.6719C31.7539 44.4843 32.7518 47.2048 34.5674 49.3526C36.383 51.5004 38.8994 52.9374 41.6719 53.4095V107.154C40.0528 108.368 38.8439 110.049 38.2071 111.97C37.5703 113.891 37.5361 115.961 38.1091 117.902C38.6821 119.844 39.8349 121.563 41.413 122.831C42.991 124.098 44.9188 124.853 46.9379 124.993C47.1711 125.008 47.4042 125.016 47.6349 125.016C50.1476 125.023 52.5674 124.067 54.3967 122.344C55.4566 121.355 56.2866 120.145 56.8284 118.8C57.3702 117.455 57.6106 116.007 57.5325 114.559C57.4545 113.111 57.06 111.698 56.3768 110.419C55.6935 109.14 54.7382 108.026 53.5781 107.156V53.4095C56.3506 52.9374 58.867 51.5004 60.6826 49.3526C62.4982 47.2048 63.4961 44.4843 63.5 41.6719V13.8906C63.4967 10.7339 62.2412 7.70746 60.009 5.47533C57.7769 3.2432 54.7505 1.98772 51.5938 1.98438V1.98438ZM51.688 119.444C51.0745 120.016 50.3473 120.451 49.5539 120.722C48.7606 120.993 47.9189 121.093 47.0842 121.016C46.2494 120.939 45.4403 120.687 44.7098 120.275C43.9794 119.864 43.344 119.303 42.8454 118.629C42.3467 117.955 41.996 117.184 41.8162 116.365C41.6365 115.546 41.6316 114.698 41.8021 113.878C41.9725 113.057 42.3144 112.281 42.8053 111.602C43.2963 110.922 43.9252 110.354 44.6509 109.934C44.9518 109.76 45.2016 109.51 45.3753 109.208C45.549 108.907 45.6405 108.566 45.6406 108.218V15.875C45.6406 15.3487 45.8497 14.844 46.2218 14.4718C46.594 14.0997 47.0987 13.8906 47.625 13.8906C48.1513 13.8906 48.656 14.0997 49.0282 14.4718C49.4003 14.844 49.6094 15.3487 49.6094 15.875V108.218C49.6095 108.566 49.701 108.907 49.8747 109.208C50.0484 109.51 50.2982 109.76 50.5991 109.934C51.5032 110.459 52.254 111.212 52.7767 112.117C53.2994 113.022 53.5757 114.048 53.5781 115.094C53.5814 115.91 53.415 116.719 53.0897 117.467C52.7643 118.216 52.287 118.89 51.688 119.444V119.444ZM59.5312 41.6719C59.5291 43.4312 58.9436 45.1402 57.8664 46.5312C56.7891 47.9222 55.281 48.9166 53.5781 49.3588V15.875C53.5781 14.2961 52.9509 12.7819 51.8345 11.6655C50.7181 10.5491 49.2039 9.92188 47.625 9.92188C46.0461 9.92188 44.5319 10.5491 43.4155 11.6655C42.2991 12.7819 41.6719 14.2961 41.6719 15.875V49.3588C39.969 48.9166 38.4609 47.9222 37.3836 46.5312C36.3064 45.1402 35.7209 43.4312 35.7188 41.6719V13.8906C35.7215 11.7863 36.5587 9.76898 38.0466 8.28101C39.5346 6.79304 41.5519 5.95588 43.6562 5.95312H51.5938C53.6981 5.95588 55.7154 6.79304 57.2034 8.28101C58.6913 9.76898 59.5285 11.7863 59.5312 13.8906V41.6719Z" fill="#004FAC"/>
<path d="M85.3281 73.5903V19.846C86.9949 18.5968 88.2263 16.8548 88.848 14.8669C89.4696 12.8789 89.45 10.7457 88.7919 8.76951C88.1337 6.79332 86.8705 5.07431 85.181 3.856C83.4916 2.6377 81.4616 1.98188 79.3787 1.98145C77.2958 1.98101 75.2656 2.63599 73.5756 3.85359C71.8857 5.07118 70.6217 6.78967 69.9627 8.76559C69.3038 10.7415 69.2833 12.8747 69.9041 14.8629C70.5249 16.8511 71.7556 18.5936 73.4219 19.8435V73.5903C70.6494 74.0624 68.133 75.4993 66.3174 77.6471C64.5018 79.795 63.5039 82.5155 63.5 85.3279V113.109C63.5033 116.266 64.7588 119.292 66.991 121.524C69.2231 123.757 72.2495 125.012 75.4062 125.015H83.3438C86.5005 125.012 89.5269 123.757 91.759 121.524C93.9912 119.292 95.2467 116.266 95.25 113.109V85.3279C95.2461 82.5155 94.2482 79.795 92.4326 77.6471C90.617 75.4993 88.1006 74.0624 85.3281 73.5903V73.5903ZM75.312 7.55524C76.4105 6.52107 77.8638 5.94756 79.3725 5.95286C79.5114 5.95286 79.6528 5.95782 79.7942 5.96774C81.0658 6.05758 82.275 6.55323 83.2438 7.38176C84.2127 8.21028 84.8899 9.32793 85.176 10.5702C85.4621 11.8125 85.3418 13.1138 84.8329 14.2826C84.324 15.4514 83.4533 16.426 82.3491 17.0629C82.0478 17.2374 81.7978 17.4881 81.624 17.7898C81.4503 18.0916 81.359 18.4337 81.3594 18.7818V111.125C81.3594 111.651 81.1503 112.156 80.7782 112.528C80.406 112.9 79.9013 113.109 79.375 113.109C78.8487 113.109 78.344 112.9 77.9718 112.528C77.5997 112.156 77.3906 111.651 77.3906 111.125V18.7818C77.391 18.4337 77.2997 18.0916 77.126 17.7898C76.9522 17.4881 76.7022 17.2374 76.4009 17.0629C75.4967 16.539 74.7457 15.787 74.223 14.8821C73.7002 13.9772 73.424 12.951 73.4219 11.906C73.4186 11.0895 73.585 10.2812 73.9103 9.53225C74.2357 8.78334 74.713 8.11013 75.312 7.55524V7.55524ZM91.2812 113.109C91.2785 115.213 90.4413 117.231 88.9534 118.719C87.4654 120.207 85.4481 121.044 83.3438 121.047H75.4062C73.3019 121.044 71.2846 120.207 69.7966 118.719C68.3087 117.231 67.4715 115.213 67.4688 113.109V85.3279C67.4709 83.5685 68.0564 81.8595 69.1336 80.4686C70.2109 79.0776 71.719 78.0831 73.4219 77.6409V111.125C73.4219 112.704 74.0491 114.218 75.1655 115.334C76.2819 116.451 77.7961 117.078 79.375 117.078C80.9539 117.078 82.4681 116.451 83.5845 115.334C84.7009 114.218 85.3281 112.704 85.3281 111.125V77.6409C87.031 78.0831 88.5391 79.0776 89.6164 80.4686C90.6936 81.8595 91.2791 83.5685 91.2812 85.3279V113.109Z" fill="#004FAC"/>
</svg>
