<svg width="205" height="197" viewBox="0 0 205 197" fill="none" xmlns="http://www.w3.org/2000/svg">
<path d="M187.265 56.2364L203.278 45.5612C204.836 44.5225 205.257 42.4174 204.218 40.8594L204.218 40.8593C203.18 39.3013 201.074 38.8803 199.516 39.919L183.874 50.3467L166.921 39.0449V23.9062C166.921 22.0336 165.403 20.5156 163.531 20.5156H163.531C161.658 20.5156 160.14 22.0336 160.14 23.9062V39.0449L141.306 51.6008C140.363 52.2295 139.796 53.2882 139.796 54.4219V72.9511L122.843 84.2532L105.89 72.9511V54.4219C105.89 53.2882 105.323 52.2295 104.38 51.6008L85.5464 39.0449V20.5156C85.5464 19.382 84.9797 18.3232 84.0365 17.6945L65.2026 5.13861V3.56242C65.2026 1.68987 63.6846 0.171875 61.8121 0.171875H61.8119C59.9394 0.171875 58.4214 1.68987 58.4214 3.56242V5.13861L41.4682 16.4404L24.5151 5.13861V3.56242C24.5151 1.68987 22.9971 0.171875 21.1246 0.171875H21.1244C19.2519 0.171875 17.7339 1.68987 17.7339 3.56242V5.13861L1.72111 15.8138C0.163054 16.8525 -0.257962 18.9576 0.780738 20.5156L0.780764 20.5157C1.81946 22.0737 3.92452 22.4947 5.48257 21.456L21.1245 11.0283L38.0776 22.3301V39.0449L22.0649 49.72C20.5068 50.7587 20.0858 52.8638 21.1245 54.4219L21.1245 54.4219C22.1632 55.9799 24.2683 56.4009 25.8263 55.3622L41.4682 44.9343L58.4214 56.2364V72.9511L39.5875 85.507C38.6442 86.1357 38.0776 87.1945 38.0776 88.3281V106.857L19.2438 119.413C18.3005 120.042 17.7339 121.101 17.7339 122.234V140.764L1.72111 151.439C0.163054 152.477 -0.257962 154.583 0.780738 156.141L0.780764 156.141C1.81946 157.699 3.92452 158.12 5.48257 157.081L21.1245 146.653L38.0776 157.955V173.094C38.0776 174.966 39.5956 176.484 41.4682 176.484H41.4683C43.3409 176.484 44.8589 174.966 44.8589 173.094V157.955L63.6927 145.399C64.636 144.771 65.2026 143.712 65.2026 142.578V124.049L82.1557 112.747L99.1089 124.049V142.578C99.1089 143.712 99.6755 144.771 100.619 145.399L119.453 157.955V176.484C119.453 177.618 120.019 178.677 120.963 179.305L139.796 191.861V193.438C139.796 195.31 141.314 196.828 143.187 196.828H143.187C145.06 196.828 146.578 195.31 146.578 193.438V191.861L165.411 179.305C166.355 178.677 166.921 177.618 166.921 176.484V156.141C166.921 155.007 166.355 153.948 165.411 153.32L146.578 140.764V124.049L163.531 112.747L179.173 123.175C180.731 124.213 182.836 123.792 183.874 122.234L183.874 122.234C184.913 120.676 184.492 118.571 182.934 117.533L166.921 106.857V90.1426L183.874 78.8408L199.516 89.2685C201.074 90.3072 203.18 89.8862 204.218 88.3282L204.218 88.3281C205.257 86.7701 204.836 84.665 203.278 83.6263L187.265 72.9511V56.2364ZM146.578 56.2364L163.531 44.9346L180.484 56.2364V72.9511L163.531 84.2529L146.578 72.9511V56.2364ZM160.14 106.857L143.187 118.159L126.234 106.857V90.1426L143.187 78.8408L160.14 90.1426V106.857ZM99.1089 72.9511L82.1557 84.2529L65.2026 72.9511V56.2364L82.1557 44.9346L99.1089 56.2364V72.9511ZM44.8589 22.3301L61.812 11.0283L78.7651 22.3301V39.0449L61.812 50.3467L44.8589 39.0449V22.3301ZM44.8589 90.1426L61.812 78.8408L78.7651 90.1426V106.857L61.812 118.159L44.8589 106.857V90.1426ZM58.4214 140.764L41.4682 152.065L24.5151 140.764V124.049L41.4682 112.747L58.4214 124.049V140.764ZM85.5464 90.1426L102.499 78.8408L119.453 90.1426V106.857L102.499 118.159L85.5464 106.857V90.1426ZM105.89 124.049L122.843 112.747L139.796 124.049V140.764L122.843 152.065L105.89 140.764V124.049ZM160.14 174.67L143.187 185.972L126.234 174.67V157.955L143.187 146.653L160.14 157.955V174.67Z" fill="black"/>
</svg>
