<svg width="203" height="203" viewBox="0 0 203 203" fill="none" xmlns="http://www.w3.org/2000/svg">
<g clip-path="url(#clip0_469_157)">
<path d="M93.1738 23.7891H99.1211V29.7363C99.1211 33.0208 101.784 35.6836 105.068 35.6836C108.353 35.6836 111.016 33.0208 111.016 29.7363V23.7891H116.963C120.247 23.7891 122.91 21.1263 122.91 17.8418C122.91 14.5573 120.247 11.8945 116.963 11.8945H111.016V5.94727C111.016 2.66279 108.353 0 105.068 0C101.784 0 99.1211 2.66279 99.1211 5.94727V11.8945H93.1738C89.8894 11.8945 87.2266 14.5573 87.2266 17.8418C87.2266 21.1263 89.8894 23.7891 93.1738 23.7891Z" fill="black"/>
<path d="M173.264 179.211H167.316V173.264C167.316 169.979 164.654 167.316 161.369 167.316C158.085 167.316 155.422 169.979 155.422 173.264V179.211H149.475C146.19 179.211 143.527 181.874 143.527 185.158C143.527 188.443 146.19 191.105 149.475 191.105H155.422V197.053C155.422 200.337 158.085 203 161.369 203C164.654 203 167.316 200.337 167.316 197.053V191.105H173.264C176.548 191.105 179.211 188.443 179.211 185.158C179.211 181.874 176.548 179.211 173.264 179.211Z" fill="black"/>
<path d="M199.091 57.4546C196.005 56.3281 192.591 57.9161 191.465 61.0015L183.772 82.0723H173.827C171.372 75.15 164.761 70.1777 157.008 70.1777C153.94 70.1777 151.051 70.9564 148.527 72.3259L139.867 64.4914L159.961 35.0853C161.424 35.4739 162.958 35.6836 164.541 35.6836C174.379 35.6836 182.383 27.6798 182.383 17.8418C182.383 8.00383 174.379 0 164.541 0C154.703 0 146.699 8.00383 146.699 17.8418C146.699 21.7753 147.981 25.4135 150.146 28.3665L127.413 61.6343L112.434 76.9469L92.8646 71.211C91.1593 70.7114 89.3184 71.0004 87.8479 72.0004L77.3145 79.1625V53.1289C77.3145 51.003 76.1797 49.0384 74.3373 47.9766L55.2065 36.948C55.4012 35.8945 55.5078 34.8105 55.5078 33.7012C55.5078 23.8632 47.504 15.8594 37.666 15.8594C27.828 15.8594 19.8242 23.8632 19.8242 33.7012C19.8242 43.5391 27.828 51.543 37.666 51.543C42.0884 51.543 46.1369 49.9221 49.2576 47.2479L65.4199 56.5652V84.3679L42.9028 84.0551C42.8754 84.0547 42.8477 84.0547 42.8199 84.0547C40.962 84.0547 39.2087 84.9238 38.0831 86.4062L23.2736 105.917C21.56 105.368 19.7354 105.068 17.8418 105.068C8.00383 105.068 0 113.072 0 122.91C0 132.748 8.00343 140.752 17.8418 140.752C18.787 140.752 19.7148 140.677 20.6208 140.534L38.3095 173.205C35.4469 176.371 33.7012 180.565 33.7012 185.158C33.7012 194.996 41.705 203 51.543 203C59.2962 203 65.9068 198.028 68.3618 191.105H90.2319C92.6869 198.028 99.2975 203 107.051 203C116.889 203 124.893 194.996 124.893 185.158C124.893 175.32 116.889 167.316 107.051 167.316C99.2975 167.316 92.6869 172.289 90.2319 179.211H68.3618C68.0819 178.422 67.7469 177.658 67.3635 176.924L89.1955 153.533C91.4364 151.132 91.3068 147.368 88.9057 145.127C86.5046 142.885 82.7411 143.015 80.4998 145.417L58.6698 168.806C56.4855 167.85 54.0757 167.316 51.543 167.316C50.5977 167.316 49.67 167.392 48.7644 167.534L31.0757 134.863C33.9379 131.697 35.6836 127.504 35.6836 122.91C35.6836 119.294 34.5992 115.928 32.7433 113.115L45.7412 95.9905L69.3479 96.3183L90.002 111.809C91.0681 112.608 92.3218 112.998 93.5675 112.998C95.2213 112.998 96.8619 112.311 98.032 110.983L118.546 87.7075L132.281 73.6676L140.545 81.1449C139.658 83.2617 139.166 85.5839 139.166 88.0195C139.166 95.8509 144.24 102.515 151.271 104.91L151.457 119.813C151.477 121.344 152.085 122.809 153.158 123.902L172.982 144.123C175.281 146.468 179.047 146.506 181.392 144.206C183.737 141.907 183.774 138.141 181.475 135.796L163.321 117.279L163.165 104.766C168.128 102.936 172.057 98.9581 173.827 93.9672H187.932C190.43 93.9672 192.662 92.4058 193.519 90.0594L202.638 65.0809C203.764 61.9951 202.176 58.581 199.091 57.4546V57.4546ZM37.666 39.6484C34.3867 39.6484 31.7188 36.9805 31.7188 33.7012C31.7188 30.4218 34.3867 27.7539 37.666 27.7539C40.9453 27.7539 43.6133 30.4218 43.6133 33.7012C43.6133 36.9805 40.9457 39.6484 37.666 39.6484ZM11.8945 122.91C11.8945 119.631 14.5621 116.963 17.8418 116.963C21.1215 116.963 23.7891 119.631 23.7891 122.91C23.7891 126.189 21.1211 128.857 17.8418 128.857C14.5625 128.857 11.8945 126.189 11.8945 122.91ZM107.051 179.211C110.331 179.211 112.998 181.879 112.998 185.158C112.998 188.438 110.331 191.105 107.051 191.105C103.771 191.105 101.104 188.438 101.104 185.158C101.104 181.879 103.771 179.211 107.051 179.211ZM57.4902 185.158C57.4902 188.438 54.8223 191.105 51.543 191.105C48.2636 191.105 45.5957 188.438 45.5957 185.158C45.5957 181.879 48.2636 179.211 51.543 179.211C54.8223 179.211 57.4902 181.879 57.4902 185.158ZM164.541 11.8945C167.821 11.8945 170.488 14.5625 170.488 17.8418C170.488 21.1211 167.821 23.7891 164.541 23.7891C161.262 23.7891 158.594 21.1211 158.594 17.8418C158.594 14.5625 161.262 11.8945 164.541 11.8945ZM92.7421 98.9958L81.5953 90.6355L92.2135 83.4152L103.547 86.7369L92.7421 98.9958ZM157.008 82.0723C160.288 82.0723 162.955 84.7402 162.955 88.0195C162.955 91.2989 160.288 93.9668 157.008 93.9668C153.728 93.9668 151.061 91.2989 151.061 88.0195C151.061 84.7402 153.728 82.0723 157.008 82.0723Z" fill="black"/>
<path d="M15.1582 78.5281C18.4428 78.5281 21.1055 75.8654 21.1055 72.5808C21.1055 69.2962 18.4428 66.6335 15.1582 66.6335C11.8736 66.6335 9.21094 69.2962 9.21094 72.5808C9.21094 75.8654 11.8736 78.5281 15.1582 78.5281Z" fill="black"/>
</g>
<defs>
<clipPath id="clip0_469_157">
<rect width="203" height="203" fill="white"/>
</clipPath>
</defs>
</svg>
