<svg width="119" height="161" viewBox="0 0 119 161" fill="none" xmlns="http://www.w3.org/2000/svg">
<g id="Sertified">
<path id="Vector" d="M115.203 50.5036L107.644 41.3329C106.606 40.0739 105.975 38.5507 105.82 36.9281L104.68 25.0981C104.088 18.9516 99.197 14.0604 93.0505 13.4683L81.2204 12.3296C79.5978 12.1736 78.0747 11.5423 76.8157 10.5056L67.645 2.94522C62.8803 -0.98174 55.9636 -0.98174 51.1989 2.94522L42.0282 10.5056C40.7704 11.5423 39.2473 12.1736 37.6234 12.3296L25.7934 13.4683C19.6469 14.0604 14.7569 18.9516 14.1636 25.0981L13.025 36.9281C12.869 38.5507 12.2376 40.0739 11.2009 41.3329L3.64053 50.5036C-0.286428 55.2683 -0.286428 62.185 3.64053 66.9497L11.2009 76.1204C12.2376 77.3794 12.869 78.9025 13.025 80.5251L14.1636 92.3552C14.7557 98.5017 19.6469 103.392 25.7934 103.985L33.0246 104.681L15.844 145.736C15.3784 146.854 15.5885 148.111 16.393 149.018C17.1976 149.923 18.4198 150.282 19.5818 149.951L34.4875 145.743C34.5526 145.725 34.6153 145.753 34.6447 145.806L42.1093 159.379C42.6645 160.39 43.7024 160.999 44.8448 160.999C44.8988 160.999 44.9529 160.998 45.0081 160.995C46.2156 160.934 47.2597 160.204 47.7375 159.079L65.8762 115.731C66.4916 115.378 67.0836 114.971 67.6462 114.508L76.8169 106.949C77.9777 105.991 79.3669 105.385 80.8495 105.174L97.2784 144.43L85.6523 141.148C83.4413 140.525 81.1259 141.494 80.0167 143.505L74.1956 154.09L66.483 135.659C65.9732 134.441 64.5754 133.869 63.3581 134.377C62.1421 134.886 61.5684 136.285 62.0782 137.501L71.1125 159.091C71.5855 160.204 72.6283 160.934 73.837 160.995C73.8922 160.998 73.9463 161 74.0003 161C75.1427 161 76.1806 160.39 76.7358 159.379L84.1991 145.808C84.2299 145.753 84.2937 145.727 84.3564 145.743L99.2597 149.951C100.424 150.281 101.648 149.923 102.451 149.018C103.255 148.111 103.465 146.855 102.999 145.733L85.8193 104.68L93.0505 103.984C99.197 103.392 104.088 98.5017 104.68 92.3552L105.82 80.5239C105.975 78.9013 106.606 77.3794 107.644 76.1204L115.203 66.9497C119.132 62.185 119.132 55.2683 115.203 50.5036V50.5036ZM44.6495 154.09L38.8272 143.503C37.7192 141.493 35.4014 140.524 33.1916 141.148L21.5667 144.429L37.9944 105.174C39.4782 105.385 40.8674 105.991 42.0282 106.948L51.1989 114.508C53.5819 116.472 56.5016 117.454 59.4226 117.454C59.6105 117.454 59.7972 117.449 59.9851 117.44L44.6495 154.09ZM111.52 63.9132L103.96 73.0839C102.315 75.0787 101.315 77.4936 101.067 80.067L99.9279 91.897C99.5545 95.7736 96.4701 98.8579 92.5935 99.2313L82.2019 100.232C82.1613 100.235 82.1196 100.239 82.0791 100.245L80.7635 100.371C78.1889 100.619 75.774 101.619 73.7792 103.264L64.6086 110.823C61.6041 113.301 57.241 113.301 54.2366 110.823L45.0659 103.264C43.0711 101.619 40.6562 100.618 38.0816 100.371L36.7599 100.243C36.7231 100.239 36.6874 100.236 36.6506 100.234L26.2516 99.2313C22.375 98.8579 19.2907 95.7736 18.9172 91.897L17.7786 80.0682C17.5305 77.4936 16.5306 75.0787 14.8846 73.0839L7.32552 63.9132C4.84798 60.9075 4.84798 56.5445 7.32552 53.54L14.8846 44.3693C16.5306 42.3745 17.5305 39.9596 17.7786 37.3851L18.9172 25.555C19.2907 21.6784 22.375 18.5941 26.2516 18.2207L38.0816 17.082C40.6562 16.8339 43.0711 15.8341 45.0659 14.1893L54.2366 6.6302C55.7388 5.39205 57.5813 4.77174 59.4226 4.77174C61.2638 4.77174 63.1063 5.39082 64.6086 6.6302L73.7792 14.1893C75.774 15.8341 78.1889 16.8351 80.7635 17.082L92.5935 18.2207C96.4701 18.5941 99.5545 21.6784 99.9279 25.555L101.067 37.3851C101.315 39.9596 102.315 42.3745 103.96 44.3693L111.52 53.54C113.996 56.5457 113.996 60.9075 111.52 63.9132V63.9132Z" fill="black"/>
<path id="Vector_2" d="M59.4207 21.4316C57.8263 21.4316 56.2221 21.5324 54.6499 21.7338C53.3429 21.9009 52.418 23.0973 52.5851 24.4042C52.7521 25.7124 53.9497 26.6361 55.2554 26.4702C56.6263 26.2946 58.0278 26.2061 59.4207 26.2061C77.353 26.2061 91.9419 40.795 91.9419 58.7273C91.9419 76.6597 77.3518 91.2473 59.4207 91.2473C41.4883 91.2473 26.8995 76.6585 26.8995 58.7261C26.8995 45.9355 34.4414 34.2849 46.113 29.0436C47.3155 28.5043 47.8535 27.0905 47.3131 25.888C46.7726 24.6843 45.3588 24.1475 44.1575 24.6879C30.7724 30.6981 22.125 44.0587 22.125 58.7261C22.125 79.292 38.856 96.0218 59.4207 96.0218C79.9854 96.0218 96.7164 79.292 96.7164 58.7261C96.7164 38.1615 79.9854 21.4316 59.4207 21.4316V21.4316Z" fill="black"/>
<path id="Vector_3" d="M35.7127 55.9618C32.8666 58.8079 32.8666 63.4399 35.7127 66.2859L46.1399 76.7144C47.5193 78.0926 49.352 78.8517 51.3026 78.8517C53.2519 78.8517 55.0858 78.0926 56.4652 76.7144L79.2274 53.9511C82.0734 51.1038 82.0734 46.473 79.2274 43.6257C76.3813 40.7797 71.7493 40.7797 68.9021 43.6257L51.3026 61.2264L46.0367 55.9618C43.1907 53.1158 38.5587 53.1158 35.7127 55.9618ZM51.3026 66.991C51.9352 66.991 52.542 66.7392 52.9903 66.2908L72.2787 47.0024C73.2638 46.0173 74.8656 46.0185 75.8507 47.0024C76.8358 47.9875 76.8358 49.5905 75.8507 50.5744L53.0886 73.3377C52.612 73.8143 51.9769 74.0772 51.3026 74.0772C50.627 74.0772 49.9932 73.8143 49.5166 73.3377L39.0881 62.9105C38.1042 61.9254 38.1042 60.3224 39.0881 59.3385C39.5807 58.8459 40.228 58.599 40.8753 58.599C41.5214 58.599 42.1687 58.8459 42.6601 59.3373L49.6136 66.2908C50.062 66.7392 50.6688 66.991 51.3026 66.991Z" fill="black"/>
</g>
</svg>
