<svg width="167" height="167" viewBox="0 0 167 167" fill="none" xmlns="http://www.w3.org/2000/svg">
<g clip-path="url(#clip0_470_179)">
<path d="M88.4348 39.5951C65.4451 40.785 43.951 50.3552 27.46 66.8465C9.80507 84.5011 0.0820312 107.893 0.0820312 132.712V167L12.5029 138.367C27.0107 109.459 56.4312 90.2919 88.4348 88.5089V128.024L166.92 63.9149L88.4348 0V39.5951ZM98.2155 49.2493V20.5787L151.445 63.9263L98.2155 107.405V78.5915H93.3251C74.7815 78.5915 56.5717 83.8056 40.6649 93.6698C28.619 101.14 18.3557 110.989 10.4773 122.557C15.5007 81.3054 50.7391 49.2493 93.3251 49.2493H98.2155Z" fill="black"/>
</g>
<defs>
<clipPath id="clip0_470_179">
<rect width="167" height="167" fill="white"/>
</clipPath>
</defs>
</svg>
