<svg width="64" height="56" viewBox="0 0 64 56" fill="none" xmlns="http://www.w3.org/2000/svg">
<path d="M20.5228 36.8929H20.5256C20.528 36.8929 20.5304 36.8924 20.5328 36.8924H53.8775C54.6985 36.8924 55.4202 36.3479 55.6458 35.5586L63.0024 9.81043C63.161 9.25533 63.0498 8.65857 62.7026 8.19782C62.3549 7.73707 61.8113 7.46599 61.2342 7.46599H16.2812L14.9665 1.54957C14.7793 0.708058 14.0331 0.109375 13.1709 0.109375H2.13603C1.12018 0.109375 0.296875 0.932684 0.296875 1.94853C0.296875 2.96437 1.12018 3.78768 2.13603 3.78768H11.6958C11.9286 4.8361 17.9872 32.1006 18.3359 33.6691C16.3813 34.5188 15.0101 36.4676 15.0101 38.7316C15.0101 41.7739 17.4853 44.2491 20.5276 44.2491H53.8775C54.8934 44.2491 55.7167 43.4258 55.7167 42.4099C55.7167 41.3941 54.8934 40.5708 53.8775 40.5708H20.5276C19.5136 40.5708 18.6884 39.7455 18.6884 38.7316C18.6884 37.7191 19.5108 36.8953 20.5228 36.8929ZM58.7958 11.1443L52.49 33.2141H22.0027L17.0983 11.1443H58.7958Z" fill="black"/>
<path d="M18.6875 49.7665C18.6875 52.8088 21.1627 55.2839 24.205 55.2839C27.2472 55.2839 29.7224 52.8088 29.7224 49.7665C29.7224 46.7242 27.2472 44.249 24.205 44.249C21.1627 44.249 18.6875 46.7242 18.6875 49.7665ZM24.205 47.9273C25.2189 47.9273 26.0441 48.7526 26.0441 49.7665C26.0441 50.7804 25.2189 51.6056 24.205 51.6056C23.191 51.6056 22.3658 50.7804 22.3658 49.7665C22.3658 48.7526 23.191 47.9273 24.205 47.9273Z" fill="black"/>
<path d="M44.6836 49.7665C44.6836 52.8088 47.1588 55.2839 50.2011 55.2839C53.2433 55.2839 55.7185 52.8088 55.7185 49.7665C55.7185 46.7242 53.2433 44.249 50.2011 44.249C47.1588 44.249 44.6836 46.7242 44.6836 49.7665ZM50.2011 47.9273C51.215 47.9273 52.0402 48.7526 52.0402 49.7665C52.0402 50.7804 51.215 51.6056 50.2011 51.6056C49.1871 51.6056 48.3619 50.7804 48.3619 49.7665C48.3619 48.7526 49.1871 47.9273 50.2011 47.9273Z" fill="black"/>
</svg>
