<svg width="206" height="206" viewBox="0 0 206 206" fill="none" xmlns="http://www.w3.org/2000/svg">
<g clip-path="url(#clip0_499_499)">
<path d="M142.26 0H63.7406C54.6879 0 47.3242 7.3645 47.3242 16.4164V189.584C47.3242 198.636 54.6879 206 63.7406 206H142.26C151.312 206 158.676 198.636 158.676 189.584V16.4164C158.676 7.3645 151.312 0 142.26 0V0ZM52.8919 29.4073H153.108V165.349H52.8919V29.4073ZM63.7406 5.56763H142.26C148.242 5.56763 153.108 10.4348 153.108 16.4164V23.8401H52.8919V16.4164C52.8919 10.4348 57.7582 5.56763 63.7406 5.56763ZM142.26 200.432H63.7406C57.7582 200.432 52.8919 195.566 52.8919 189.584V170.917H153.108V189.584C153.108 195.566 148.242 200.432 142.26 200.432ZM103 176.27C97.3726 176.27 92.7931 180.849 92.7931 186.477C92.7931 192.105 97.373 196.684 103 196.684C108.627 196.684 113.207 192.104 113.207 186.477C113.207 180.849 108.628 176.27 103 176.27ZM103 191.117C100.441 191.117 98.3603 189.036 98.3603 186.477C98.3603 183.918 100.441 181.837 103 181.837C105.559 181.837 107.64 183.918 107.64 186.477C107.64 189.036 105.559 191.117 103 191.117V191.117ZM83.5134 14.3279C83.5134 12.7901 84.7603 11.544 86.2972 11.544H119.703C121.24 11.544 122.486 12.7901 122.486 14.3279C122.486 15.8656 121.24 17.1117 119.703 17.1117H86.2972C84.7603 17.1113 83.5134 15.8656 83.5134 14.3279V14.3279Z" fill="black"/>
</g>
<defs>
<clipPath id="clip0_499_499">
<rect width="206" height="206" fill="white"/>
</clipPath>
</defs>
</svg>
