<svg width="193" height="193" viewBox="0 0 193 193" fill="none" xmlns="http://www.w3.org/2000/svg">
<g clip-path="url(#clip0_372_449)">
<path d="M35.9361 0C16.1212 0 0 16.1212 0 35.9361C0 48.8543 6.77875 59.4591 13.9556 70.687C23.6188 85.8047 33.611 101.437 30.3312 126.035C29.9659 128.774 31.6339 131.375 34.2752 132.187C38.1066 133.364 40.4459 130.406 40.9933 129.311C57.0311 97.2351 71.8721 63.7228 71.8721 35.9364C71.8725 16.1212 55.7514 0 35.9361 0V0ZM41.005 103.251C38.004 87.3125 30.1815 75.0744 23.4838 64.5966C16.9508 54.3759 11.3086 45.5488 11.3086 35.9361C11.3086 22.3567 22.3567 11.3086 35.9361 11.3086C49.5154 11.3086 60.5636 22.3567 60.5636 35.9361C60.5639 55.6266 52.0169 79.2714 41.005 103.251Z" fill="black"/>
<path d="M157.063 121.128C143.993 121.128 128.871 124.336 110.833 130.935C94.4068 136.945 77.7835 144.959 63.6889 152.006C61.2172 153.242 60.0011 156.083 60.8127 158.724C61.6243 161.365 64.2249 163.032 66.965 162.669C91.5623 159.388 107.195 169.381 122.313 179.044C133.54 186.222 144.145 193 157.063 193C176.878 193 192.999 176.879 192.999 157.064C192.999 137.249 176.878 121.128 157.063 121.128V121.128ZM157.063 181.692C147.451 181.692 138.624 176.05 128.403 169.517C117.924 162.819 105.689 154.996 89.7488 151.995C113.728 140.984 137.373 132.437 157.063 132.437C170.643 132.437 181.691 143.485 181.691 157.064C181.691 170.644 170.643 181.692 157.063 181.692V181.692Z" fill="black"/>
<path d="M80.2138 119.985C83.3889 118.858 158.242 92.1258 181.112 69.2583C196.861 53.51 197.062 27.8157 181.112 11.8657C165.288 -3.95542 139.542 -3.95504 123.721 11.8657C100.85 34.7332 74.1208 109.59 72.9937 112.765C72.2643 114.821 72.7822 117.112 74.3243 118.655C75.9516 120.281 78.2755 120.672 80.2138 119.985V119.985ZM131.717 19.8624C143.129 8.45049 161.7 8.4486 173.117 19.8624C184.533 31.2791 184.563 49.8151 173.117 61.2616C157.086 77.29 109.927 96.5938 87.9467 105.032C96.3806 83.0529 115.678 35.8991 131.717 19.8624V19.8624Z" fill="black"/>
</g>
<defs>
<clipPath id="clip0_372_449">
<rect width="193" height="193" fill="white"/>
</clipPath>
</defs>
</svg>
