<svg width="228" height="229" viewBox="0 0 228 229" fill="none" xmlns="http://www.w3.org/2000/svg">
<path d="M185.296 147.889C178.307 141.389 174.845 134.592 175.284 128.233C175.652 122.914 178.696 118.109 184.089 114.338C196.619 105.572 195.997 93.8925 191.657 86.5529C186.471 77.7833 176.428 74.2503 168.296 78.3334C166.414 79.2785 164.874 80.7934 163.244 82.3973C160.872 84.7307 158.42 87.1437 154.632 88.1813C152.146 88.8621 149.228 88.3956 147.017 86.963C145.374 85.8985 144.332 84.4538 144.084 82.8951C143.085 76.6257 147.765 70.775 152.72 64.5808C157.838 58.1813 163.131 51.5649 161.934 43.8446C159.985 31.2634 148.937 24.7163 139.525 24.9494C130.078 25.1806 123.315 31.5765 122.295 41.2429C121.084 52.701 117.834 60.4315 113.142 63.0109C110.13 64.6663 106.238 64.3183 101.573 61.9755C94.9066 58.6277 88.6606 57.9671 83.5097 60.0648C79.2048 61.8181 76.011 65.3801 74.2734 70.3658C71.0943 79.49 76.8108 85.9213 80.5933 90.1775C81.4198 91.1074 82.2005 91.9858 82.8012 92.7775C86.0685 97.0842 84.1104 102.715 80.3301 105.67C74.4662 110.256 68.1913 106.601 64.2743 101.653C53.8362 88.4685 41.9191 82.2085 32.4005 84.9082C25.9052 86.7505 21.5923 92.6504 20.5667 101.094C18.9988 114.01 29.8057 119.202 39.3398 123.784C45.5034 126.746 51.8759 129.808 54.2556 134.594C56.0071 138.117 53.7983 141.465 49.4102 147.568C43.9016 155.228 36.358 165.719 39.9611 181.571C43.3771 196.597 53.8121 206.279 68.5925 208.133C70.2491 208.34 71.907 208.441 73.5533 208.441C86.8241 208.441 99.3433 201.876 104.495 191.764C111.139 178.721 118.254 171.603 125.643 170.61C135.774 169.248 145.382 179.834 150.543 185.521C151.079 186.111 151.575 186.658 152.029 187.146C158.397 193.999 168.561 196.653 178.562 194.071C188.143 191.596 195.378 184.964 197.443 176.761C200.406 164.99 192.473 154.563 185.296 147.889ZM190.967 175.117C189.501 180.938 184.11 185.712 176.897 187.574C170.918 189.118 162.528 188.613 156.912 182.57C156.474 182.098 155.996 181.571 155.479 181.002C149.495 174.407 138.363 162.132 124.756 163.961C115.066 165.264 106.248 173.59 98.5475 188.709C94.065 197.508 81.5436 202.997 69.4195 201.476C57.5906 199.993 49.2267 192.193 46.4729 180.078C43.5423 167.187 49.5362 158.851 54.8248 151.496C59.2717 145.312 63.8704 138.917 60.2313 131.597C56.8269 124.75 49.4026 121.182 42.2224 117.732C32.2941 112.962 26.2574 109.646 27.197 101.908C27.5987 98.5995 29.0446 92.8316 34.2161 91.3654C35.0604 91.1257 35.9555 91.009 36.892 91.009C43.3129 91.009 51.6746 96.5189 59.0463 105.83C67.4859 116.489 77.8782 116.09 84.4333 110.966C87.6462 108.454 89.9636 104.785 90.7923 100.899C91.7213 96.5412 90.7705 92.2135 88.1147 88.7127C87.3567 87.7135 86.4919 86.7407 85.5768 85.7111C81.4229 81.0371 78.8308 77.5986 80.5786 72.5833C81.679 69.4252 83.5101 67.3056 86.0204 66.2831C89.2939 64.9494 93.7568 65.5514 98.5858 67.9769C105.326 71.3623 111.302 71.6714 116.349 68.897C123.213 65.1243 127.447 56.0591 128.938 41.9513C129.602 35.6538 133.622 31.8051 139.689 31.6566C146.267 31.4902 153.971 36.0751 155.335 44.8765C156.078 49.6712 151.918 54.8729 147.513 60.3792C142.127 67.1133 136.022 74.7454 137.489 83.9551C138.041 87.4192 140.139 90.4892 143.398 92.6008C147.21 95.0706 152.067 95.8381 156.391 94.6538C161.854 93.1572 165.217 89.8483 167.919 87.1898C169.164 85.9651 170.341 84.8081 171.285 84.334C175.505 82.2144 182.068 83.4725 185.915 89.9794C188.93 95.0769 189.03 102.706 180.272 108.832C173.264 113.734 169.126 120.459 168.621 127.769C168.214 133.665 169.989 142.795 180.759 152.812C189.146 160.612 192.676 168.326 190.967 175.117Z" fill="black"/>
<path d="M46.7797 31.6941C46.0663 26.8225 44.2223 21.5313 41.5869 16.7948C35.4603 5.78305 26.5068 -0.324389 17.0234 0.0132975C10.3147 0.2584 4.43521 4.28202 1.67827 10.5138C-1.7177 18.1907 0.105421 27.3816 6.55491 35.1001C14.2357 44.2923 24.9629 50.2768 33.5962 50.2768C33.931 50.2768 34.2632 50.2678 34.5919 50.2495C39.0829 50.0008 42.6512 48.0691 44.9112 44.664C47.4624 40.8206 47.3354 35.4897 46.7797 31.6941ZM39.3536 40.9423C38.276 42.5659 36.598 43.4193 34.2236 43.5508C27.6374 43.9171 18.1558 38.5481 11.6711 30.7871C6.90092 25.0782 5.44696 18.5176 7.78264 13.2377C9.52114 9.30796 13.0663 6.87035 17.2665 6.71694C17.4455 6.71023 17.6219 6.7071 17.7991 6.7071C27.2843 6.7071 33.4991 16.0094 35.7564 20.0661C39.5994 26.9746 41.9623 37.0117 39.3536 40.9423Z" fill="black"/>
<path d="M99.2521 23.5057C98.7164 20.3543 94.8587 11.5114 88.4902 8.32638C85.3534 6.75826 82.0563 6.78107 78.9556 8.39347C74.0705 10.9344 71.2508 15.4934 71.4129 20.5882C71.5968 26.3857 75.4893 31.5154 81.8252 34.3113C84.8899 35.6638 87.4331 36.1746 89.5269 36.1746C92.4028 36.1746 94.4312 35.2107 95.7961 34.1404C98.704 31.8594 99.9963 27.8836 99.2521 23.5057ZM91.6849 28.8528C90.4171 29.8475 87.735 29.5917 84.5122 28.1694C80.5904 26.4385 78.1892 23.5241 78.089 20.374C78.0102 17.8885 79.4455 15.6933 82.0274 14.3502C83.2217 13.7285 84.2972 13.7227 85.5133 14.3314C89.3248 16.2372 92.3573 22.8049 92.6682 24.6337C92.9866 26.5105 92.6107 28.1269 91.6849 28.8528Z" fill="black"/>
<path d="M207.404 34.7888C206.918 31.8534 205.354 29.5942 202.881 28.256C200.491 26.9621 197.325 26.6145 193.471 27.2242C188.156 28.0641 183.673 32.3539 181.172 38.9922C179.007 44.7405 178.441 52.5042 182.058 56.8941C183.643 58.8169 185.824 59.8282 188.318 59.8282C188.882 59.8282 189.461 59.7763 190.053 59.6721C194.437 58.8996 199.075 55.3636 202.778 49.9695C206.38 44.7235 208.11 39.0481 207.404 34.7888ZM188.899 53.0646C187.742 53.269 187.405 52.8606 187.203 52.6173C185.876 51.0054 185.581 46.246 187.419 41.3668C189.023 37.1088 191.674 34.2995 194.51 33.8513C200.324 32.9335 200.682 35.0809 200.815 35.8895C201.745 41.5027 194.395 52.0967 188.899 53.0646Z" fill="black"/>
<path d="M225.182 206.523C221.12 201.158 213.559 198.04 207.207 199.106C202.334 199.925 198.781 203.02 197.202 207.823C194.477 216.116 200.664 224.881 208.153 227.863C210.077 228.629 211.98 229 213.811 229C219.253 229 224.051 225.718 226.817 219.756C228.841 215.393 228.246 210.57 225.182 206.523ZM220.763 216.923C219.484 219.68 216.464 223.957 210.615 221.627C205.091 219.427 202.327 213.635 203.545 209.927C204.342 207.504 205.9 206.129 208.308 205.725C208.786 205.644 209.282 205.606 209.787 205.606C213.428 205.606 217.616 207.614 219.865 210.585C221.444 212.67 221.746 214.802 220.763 216.923Z" fill="black"/>
</svg>
