<svg width="181" height="181" viewBox="0 0 181 181" fill="none" xmlns="http://www.w3.org/2000/svg">
<path d="M169.686 90.4999C169.689 88.7733 169.304 87.0682 168.56 85.51C167.817 83.9518 166.733 82.5803 165.389 81.4963L155.189 73.0006L159.86 60.8485C160.465 59.2371 160.706 57.5114 160.565 55.7958C160.424 54.0802 159.904 52.4172 159.043 50.9265C158.182 49.4359 157.001 48.1547 155.585 47.175C154.17 46.1954 152.555 45.5418 150.856 45.2612L137.773 43.0021L135.741 30.1427C135.46 28.4439 134.806 26.8285 133.826 25.4127C132.847 23.9969 131.565 22.816 130.074 21.9549C128.583 21.0939 126.92 20.5741 125.204 20.433C123.488 20.2919 121.762 20.533 120.15 21.139L107.691 25.7293L99.5025 15.6099C98.3823 14.3222 96.9989 13.2897 95.4457 12.5822C93.8925 11.8747 92.2056 11.5085 90.4989 11.5085C88.7921 11.5085 87.1052 11.8747 85.552 12.5822C83.9988 13.2897 82.6154 14.3222 81.4952 15.6099L72.9996 25.8066L60.8505 21.139C59.2387 20.5326 57.5125 20.2911 55.7962 20.4319C54.0799 20.5728 52.4161 21.0925 50.9248 21.9536C49.4334 22.8147 48.1516 23.9958 47.1715 25.4118C46.1915 26.8278 45.5377 28.4436 45.2571 30.1427L43.0007 43.2283L30.1471 45.2556C28.448 45.5363 26.8323 46.1902 25.4161 47.1701C24 48.1501 22.8186 49.4317 21.9571 50.9229C21.0956 52.414 20.5753 54.0776 20.4336 55.7939C20.292 57.5102 20.5325 59.2366 21.138 60.8488L25.7282 73.3103L15.6035 81.4963C14.2735 82.59 13.2024 83.9647 12.4672 85.5218C11.732 87.0788 11.351 88.7794 11.3516 90.5013C11.3521 92.2231 11.7342 93.9235 12.4704 95.4801C13.2065 97.0367 14.2785 98.4107 15.6091 99.5036L25.8086 107.999L21.138 120.151C20.5324 121.763 20.2916 123.488 20.4329 125.204C20.5742 126.92 21.0941 128.583 21.9551 130.073C22.8161 131.564 23.9969 132.845 25.4125 133.825C26.828 134.805 28.4431 135.458 30.1416 135.739L43.2245 137.998L45.2572 150.857C45.5384 152.556 46.1925 154.171 47.1725 155.586C48.1525 157.002 49.434 158.182 50.9249 159.043C52.4157 159.904 54.0788 160.424 55.7946 160.565C57.5103 160.707 59.2361 160.466 60.8478 159.861L73.3065 155.271L81.4953 165.39C82.5878 166.721 83.962 167.794 85.5189 168.53C87.0758 169.267 88.7766 169.649 90.4989 169.649C92.2212 169.649 93.922 169.267 95.4789 168.53C97.0358 167.794 98.41 166.721 99.5025 165.39L107.998 155.193L120.148 159.861C121.76 160.467 123.486 160.708 125.202 160.567C126.918 160.426 128.582 159.907 130.073 159.046C131.564 158.185 132.846 157.004 133.826 155.588C134.806 154.172 135.46 152.556 135.741 150.857L137.998 137.772L150.851 135.744C152.55 135.464 154.166 134.81 155.582 133.83C156.998 132.85 158.18 131.568 159.041 130.077C159.903 128.586 160.423 126.922 160.565 125.206C160.706 123.49 160.466 121.763 159.86 120.151L155.27 107.69L165.395 99.5036C166.737 98.4185 167.819 97.0465 168.562 95.4885C169.304 93.9305 169.689 92.2259 169.686 90.4999Z" fill="#1976D2"/>
<path d="M79.8636 117.174C76.2101 117.183 72.6531 116.002 69.7304 113.81L55.9958 103.508C54.796 102.608 54.0029 101.268 53.7911 99.7831C53.5792 98.2982 53.966 96.7899 54.8662 95.5901C55.7664 94.3903 57.1064 93.5972 58.5914 93.3854C60.0763 93.1736 61.5846 93.5603 62.7844 94.4605L76.5162 104.762C77.7066 105.642 79.1929 106.024 80.6601 105.828C82.1274 105.631 83.4603 104.87 84.3765 103.707L117.143 61.5725C117.599 60.986 118.167 60.4952 118.813 60.128C119.459 59.7607 120.171 59.5243 120.908 59.4323C121.645 59.3402 122.393 59.3943 123.11 59.5914C123.826 59.7885 124.497 60.1248 125.083 60.581C125.67 61.0373 126.161 61.6046 126.528 62.2506C126.895 62.8965 127.132 63.6085 127.224 64.3458C127.316 65.0832 127.262 65.8314 127.065 66.5478C126.867 67.2643 126.531 67.9349 126.075 68.5213L93.3056 110.656C91.7087 112.694 89.6678 114.34 87.3384 115.469C85.009 116.599 82.4524 117.182 79.8636 117.174V117.174Z" fill="#F5F5F5"/>
</svg>
