<svg width="251" height="279" viewBox="0 0 251 279" fill="none" xmlns="http://www.w3.org/2000/svg">
<path d="M185.441 215.789C182.433 215.789 179.992 218.23 179.992 221.238C179.992 224.246 182.433 226.688 185.441 226.688C188.449 226.688 190.891 224.246 190.891 221.238C190.891 218.23 188.449 215.789 185.441 215.789Z" fill="black"/>
<path d="M198.858 198.168L172.958 189.536L163.66 170.94C172.037 162.414 177.853 151.133 179.814 139.366L180.974 132.416H190.891C199.905 132.416 207.238 125.082 207.238 116.068V81.7383C207.238 36.6678 170.57 0 125.5 0C80.314 0 43.7617 36.5626 43.7617 81.7383V116.068C43.7617 123.172 48.3178 129.229 54.6602 131.479V137.865C54.6602 146.879 61.9937 154.213 71.0078 154.213H75.7933C78.1556 159.344 81.2131 164.097 84.9338 168.367C85.7054 169.254 86.5103 170.114 87.3348 170.95L78.0417 189.536L52.141 198.168C22.0259 208.21 0.167969 239.913 0.167969 273.551C0.167969 276.56 2.60758 279 5.61719 279H245.383C248.392 279 250.832 276.56 250.832 273.551C250.832 239.913 228.975 208.21 198.858 198.168ZM196.34 116.068C196.34 119.073 193.895 121.518 190.891 121.518H182.574C183.959 110.788 184.882 99.3703 185.253 88.1248C185.264 87.8076 185.273 87.4992 185.283 87.1875H196.34V116.068ZM60.1094 121.518C57.1047 121.518 54.6602 119.073 54.6602 116.068V87.1875H65.721C65.739 87.7559 65.758 88.3269 65.7793 88.9018C65.7798 88.9214 65.7809 88.9405 65.7815 88.9601C65.7815 88.9618 65.7815 88.9634 65.7815 88.965C66.1629 99.9027 67.074 111.024 68.4276 121.517H60.1094V121.518ZM71.0078 143.314C68.0031 143.314 65.5586 140.87 65.5586 137.865V132.416H70.0259L71.1855 139.369C71.4067 140.69 71.6786 142.007 71.993 143.314H71.0078ZM65.5679 76.2891H54.8672C57.6273 39.7679 88.1058 10.8984 125.5 10.8984C162.728 10.8984 193.341 39.764 196.132 76.2891H185.433C185.04 46.1947 160.534 21.7969 130.378 21.7969H120.623C90.4681 21.7969 65.9597 46.1947 65.5679 76.2891ZM120.623 32.6953H130.377C154.794 32.6953 174.557 52.6672 174.543 77.0574C174.543 78.7723 174.529 80.2654 174.5 81.6238C174.5 81.6413 174.5 81.6593 174.5 81.6773L167.684 80.7035C149.168 78.0595 131.684 69.3179 118.455 56.0883C117.432 55.0665 116.047 54.4922 114.602 54.4922C99.9671 54.4922 85.9583 61.1599 76.6979 72.4245C78.98 50.2358 97.7379 32.6953 120.623 32.6953ZM83.2903 143.314C80.5625 134.24 77.4412 107.539 76.7513 90.4282L84.0854 80.649C90.8212 71.6709 101.301 66.0925 112.448 65.4522C127.116 79.4109 146.091 88.6288 166.143 91.4918L174.165 92.6384C173.629 104.019 172.533 115.44 170.963 125.943C170.963 125.946 170.962 125.95 170.962 125.954C170.463 129.331 170.069 131.504 169.064 137.574C166.178 154.883 153.263 170.536 136.213 174.799C129.196 176.551 121.803 176.55 114.79 174.799C104.144 172.138 94.3822 164.771 88.0824 154.213H99.1912C101.441 160.555 107.497 165.111 114.602 165.111H125.5C134.532 165.111 141.848 157.796 141.848 148.764C141.848 139.75 134.514 132.416 125.5 132.416H114.602C107.339 132.416 101.372 137.107 99.1819 143.314H83.2903ZM114.143 185.827C117.881 186.614 121.692 187.017 125.5 187.017C128.481 187.017 131.463 186.768 134.411 186.284L124.782 196.467L114.143 185.827ZM117.291 204.389L100.007 222.667C95.2487 213.559 91.1601 204.08 87.8067 194.376L94.2972 181.395L117.291 204.389ZM155.779 179.548L163.192 194.375C159.833 204.096 155.744 213.578 150.99 222.675L132.491 204.176L155.779 179.548ZM109.152 148.764C109.152 145.755 111.593 143.314 114.602 143.314H125.5C128.505 143.314 130.949 145.759 130.949 148.764C130.949 151.773 128.509 154.213 125.5 154.213H114.602C111.597 154.213 109.152 151.768 109.152 148.764ZM11.2844 268.102C13.4439 241.107 31.4094 216.57 55.5876 208.507L78.5256 200.863C82.728 212.484 87.9342 223.778 94.0357 234.507C94.046 234.525 94.0558 234.544 94.0662 234.562C94.0662 234.562 94.0667 234.562 94.0667 234.563C98.5247 242.404 103.542 250.066 108.982 257.34L115.686 268.102H11.2844ZM125.5 263.244L118.11 251.38C118.027 251.247 117.939 251.117 117.845 250.992C113.432 245.106 109.316 238.95 105.567 232.649L125 212.098L145.477 232.575C141.703 238.922 137.573 245.103 133.156 250.991C132.889 251.347 133.268 250.786 125.5 263.244ZM135.314 268.102L142.017 257.34C147.481 250.039 152.535 242.315 157.037 234.382C157.065 234.334 157.09 234.285 157.117 234.237C157.121 234.231 157.124 234.225 157.127 234.219C163.151 223.593 168.303 212.397 172.474 200.863L195.412 208.507C219.591 216.57 237.556 241.107 239.716 268.102H135.314Z" fill="black"/>
<path d="M223.339 246.049C219.697 238.76 214.363 232.284 207.913 227.322C205.527 225.486 202.106 225.932 200.271 228.318C198.436 230.703 198.882 234.124 201.267 235.96C206.419 239.923 210.679 245.096 213.589 250.92C214.936 253.616 218.211 254.702 220.899 253.359C223.591 252.014 224.683 248.741 223.339 246.049Z" fill="black"/>
</svg>
