<svg width="71" height="71" viewBox="0 0 71 71" fill="none" xmlns="http://www.w3.org/2000/svg">
<path d="M63.5291 5.51194H51.8032C51.2365 5.51194 50.7773 5.97111 50.7773 6.53779C50.7773 7.10446 51.2365 7.56363 51.8032 7.56363H63.5291C64.0958 7.56363 64.5549 7.10446 64.5549 6.53779C64.5549 5.97111 64.0956 5.51194 63.5291 5.51194Z" fill="black"/>
<path d="M63.5291 10.0265H51.8032C51.2365 10.0265 50.7773 10.4856 50.7773 11.0523C50.7773 11.619 51.2365 12.0781 51.8032 12.0781H63.5291C64.0958 12.0781 64.5549 11.619 64.5549 11.0523C64.5549 10.4856 64.0956 10.0265 63.5291 10.0265Z" fill="black"/>
<path d="M64.3846 0.112061H57.6674C57.1007 0.112061 56.6415 0.571227 56.6415 1.1379C56.6415 1.70458 57.1007 2.16374 57.6674 2.16374H64.3846C66.461 2.16374 68.1501 3.8531 68.1501 5.9294V11.6856C68.1501 13.762 66.4609 15.4511 64.3846 15.4511H56.654C55.8638 15.4511 55.1145 15.8327 54.65 16.4718L51.9722 20.1536V17.7575C51.9722 16.6024 51.1955 15.6128 50.0835 15.3511C48.3767 14.9495 47.1845 13.4424 47.1845 11.6856V5.9294C47.1845 3.85296 48.8737 2.16374 50.95 2.16374H52.9304C53.4971 2.16374 53.9563 1.70458 53.9563 1.1379C53.9563 0.571227 53.4971 0.112061 52.9304 0.112061H50.95C47.7424 0.112061 45.1328 2.72166 45.1328 5.9294V11.6856C45.1328 14.3992 46.9755 16.7277 49.6138 17.3482C49.7915 17.3901 49.9205 17.562 49.9205 17.7573V21.9666C49.9205 22.602 50.3264 23.1607 50.9307 23.3572C51.5361 23.5538 52.1924 23.3394 52.565 22.8265L56.3094 17.6781C56.3893 17.5682 56.5181 17.5027 56.6541 17.5027H64.3847C67.5923 17.5027 70.2019 14.8931 70.2019 11.6855V5.9294C70.2018 2.72166 67.5922 0.112061 64.3846 0.112061V0.112061Z" fill="black"/>
<path d="M57.9504 64.1527V49.8946C57.9504 48.2824 56.6389 46.9708 55.0266 46.9708H48.7734C47.5972 45.0749 45.7344 43.6705 43.5739 43.0774C41.5392 42.5188 36.228 41.0609 34.2411 40.5154C33.7555 40.3822 33.3274 40.1279 32.9831 39.7921C37.3053 39.5422 40.7397 35.9644 40.7394 31.5645L40.739 26.8094C41.5591 26.6207 42.3122 26.207 42.922 25.5972C43.7792 24.7399 44.2512 23.6003 44.2511 22.3881L44.2508 19.2518C44.2504 8.69794 35.6638 0.112061 25.1101 0.112061C14.5308 0.112061 5.96849 8.67427 5.96958 19.2547C5.97013 31.2176 5.96999 28.7559 5.96999 29.1003C5.96999 30.5968 7.18759 31.8145 8.68423 31.8145H9.48985C9.61815 36.0964 13.0259 39.5682 17.2824 39.7953C16.9373 40.1365 16.5063 40.3955 16.0164 40.5307C14.1139 41.0565 8.30412 42.6623 6.68644 43.1094C2.84501 44.171 0.164553 47.6962 0.167972 51.6818L0.180692 66.5956C0.182334 68.5139 1.74366 70.0737 3.66199 70.0736H3.66472C41.0074 70.0733 -40.6262 70.0635 57.6569 70.0736C59.2933 70.0736 60.6246 68.7423 60.6246 67.1059C60.6246 65.5685 59.4495 64.3007 57.9504 64.1527V64.1527ZM46.2005 46.9708H38.7515C39.4791 46.1794 40.1384 45.3293 40.7195 44.4213L43.0309 45.0559C44.25 45.3905 45.3454 46.0617 46.2005 46.9708ZM11.5348 29.7628L11.5344 26.9263H13.6987C13.8381 27.7167 14.0678 28.4885 14.3856 29.2366C14.2766 29.4012 14.1845 29.5775 14.1098 29.763H11.5348V29.7628ZM36.7023 18.8611L38.6782 18.8596C38.695 19.3575 38.6835 19.1358 38.6875 24.8746H36.6924L36.7023 18.8611ZM28.9879 16.8155C24.0706 16.3786 20.2218 12.3585 20.2177 7.64542C20.2174 7.26942 20.3007 6.90107 20.4584 6.56378C21.9295 6.02856 23.4983 5.74885 25.1103 5.74885C31.7364 5.74885 37.2683 10.5207 38.4519 16.8081C36.097 16.81 29.8391 16.8148 28.9879 16.8155V16.8155ZM18.1661 7.65308C18.1683 9.2378 18.517 10.7826 19.175 12.2015C19.1466 14.7325 17.0904 16.7855 14.5568 16.8066C14.5567 16.8066 14.5567 16.8066 14.5565 16.8066H11.7663C12.506 12.8422 14.9527 9.5725 18.1661 7.65308V7.65308ZM11.5341 24.8746L11.5335 19.3267C11.5335 19.17 11.537 19.0139 11.5422 18.8581H13.5021L13.5358 24.8745H11.5341V24.8746ZM16.8438 29.9638H20.9463C21.4405 29.9638 21.8426 30.3657 21.8426 30.8599C21.8426 31.3541 21.4406 31.7562 20.9463 31.7562H16.8438C16.3496 31.7562 15.9476 31.3542 15.9476 30.8599C15.9475 30.3657 16.3496 29.9638 16.8438 29.9638V29.9638ZM23.8942 30.8599C23.8942 29.2344 22.5718 27.9121 20.9462 27.9121H16.8436C16.5885 27.9121 16.3422 27.948 16.106 28.0092C15.7632 27.0672 15.5895 26.0825 15.5885 25.0679L15.5534 18.7792C17.9124 18.4121 19.867 16.8111 20.7385 14.6601C20.9225 14.8806 21.113 15.0969 21.3152 15.3053C23.3053 17.3569 25.9839 18.6204 28.8575 18.8635C28.8862 18.8659 28.915 18.867 28.9439 18.867H28.9446L34.6504 18.8626L34.6402 25.0563C34.6431 28.418 32.7437 31.002 30.5449 32.6982C30.5294 32.7075 27.6483 34.9662 25.1231 35.0387C24.199 35.0132 22.791 34.5765 21.3491 33.7767C22.7843 33.5795 23.8942 32.3483 23.8942 30.8599V30.8599ZM32.497 37.7559H32.1023C32.102 37.7406 32.1003 37.7255 32.1003 37.7102L32.0972 34.0741C34.3766 32.2222 36.0148 29.7805 36.5265 26.9263H38.6875L38.6879 31.5646C38.6882 34.9863 35.9192 37.7559 32.497 37.7559V37.7559ZM25.1101 2.16374C34.5327 2.16374 42.1987 9.82937 42.1993 19.2519L42.1995 22.3884C42.1995 23.0525 41.9409 23.6769 41.4715 24.1465C41.2564 24.3616 41.0079 24.5299 40.7391 24.6519L40.7387 19.3248C40.7387 18.7889 40.7115 18.2592 40.6586 17.7371C40.6579 17.7304 40.6572 17.7238 40.6565 17.7171C39.8487 9.85248 33.1847 3.69731 25.1104 3.69731C16.4725 3.69731 9.48124 10.6879 9.48206 19.3271L9.48274 24.6504C8.62268 24.2587 8.02194 23.3932 8.02181 22.388L8.0214 19.2544C8.02017 9.80926 15.6638 2.16374 25.1101 2.16374V2.16374ZM8.02153 29.1003V26.1814C8.46155 26.4708 8.9545 26.6853 9.48274 26.808L9.48315 29.763H8.68409C8.31875 29.7628 8.02153 29.4656 8.02153 29.1003V29.1003ZM17.726 37.7559C14.3962 37.7559 11.673 35.1128 11.5414 31.8146H14.0576C14.4555 32.9723 15.5527 33.8079 16.8438 33.8079H17.8117C17.9223 33.9027 18.0343 33.9964 18.1482 34.0882L18.1514 37.7224C18.1514 37.7336 18.1501 37.7447 18.15 37.7559H17.726ZM16.5628 42.5084C18.7081 41.9156 20.205 39.9467 20.2031 37.7205L20.2011 35.4856C21.8945 36.4538 23.6828 37.0613 25.103 37.0905C25.1101 37.0906 25.1171 37.0907 25.1241 37.0907C25.1317 37.0907 25.1393 37.0906 25.1469 37.0905C26.3704 37.0633 28.1844 36.5469 30.0467 35.4809L30.0487 37.712C30.0506 39.9379 31.5512 41.9044 33.6981 42.4938L38.6325 43.8484C37.828 45.0041 36.8784 46.0489 35.7991 46.9708H27.9651C26.3529 46.9708 25.0413 48.2824 25.0413 49.8946V50.9189C19.6842 50.8977 14.6548 48.2349 11.6013 43.8796L16.5628 42.5084ZM3.66308 68.0219C3.66267 68.0219 3.6624 68.0219 3.66199 68.0219C2.87441 68.0219 2.23319 67.3814 2.23251 66.5938L2.21965 51.68C2.21692 48.6146 4.27845 45.9035 7.23287 45.087L9.51447 44.4564C11.09 46.9043 13.2309 48.9616 15.7457 50.4367C18.5549 52.0844 21.7679 52.9595 25.0412 52.9708V55.4979C25.0412 56.0646 25.5005 56.5237 26.067 56.5237C26.6336 56.5237 27.0929 56.0646 27.0929 55.4979V49.8947C27.0929 49.4138 27.4841 49.0226 27.965 49.0226H55.0266C55.5076 49.0226 55.8988 49.4138 55.8988 49.8947V64.1383H27.093V60.2884C27.093 59.7217 26.6337 59.2626 26.0672 59.2626C25.5006 59.2626 25.0413 59.7217 25.0413 60.2884V64.153C23.5422 64.301 22.3672 65.5688 22.3672 67.106C22.3672 67.4195 22.4164 67.7218 22.507 68.0058L10.3334 68.0163V62.2817C10.3334 61.715 9.87407 61.2559 9.30753 61.2559C8.74099 61.2559 8.28169 61.715 8.28169 62.2817V68.0179L3.66308 68.0219ZM57.6569 68.0219H25.3349C25.3035 68.0219 25.2726 68.0203 25.2421 68.0172C25.2232 68.0142 25.2046 68.0105 25.1854 68.0086C24.7512 67.937 24.4187 67.56 24.4187 67.1059C24.4187 66.6008 24.8296 66.1899 25.3347 66.1899H57.6568C58.1619 66.1899 58.5728 66.6008 58.5728 67.1059C58.5728 67.611 58.162 68.0219 57.6569 68.0219Z" fill="black"/>
</svg>
