<svg width="153" height="153" viewBox="0 0 153 153" fill="none" xmlns="http://www.w3.org/2000/svg">
<g clip-path="url(#clip0_378_88)">
<path d="M39.3414 48.1473C38.1267 48.1473 37.012 47.3864 36.5647 46.2584C36.1063 45.1016 36.4329 43.7339 37.3709 42.913C38.3218 42.0808 39.7406 41.9397 40.8346 42.5732C41.9295 43.207 42.5227 44.5004 42.2726 45.7447C41.9956 47.1247 40.7486 48.1473 39.3414 48.1473Z" fill="black"/>
<path d="M93.9548 109.509C92.7063 109.509 91.566 108.705 91.1423 107.532C90.7308 106.392 91.067 105.071 91.9835 104.274C92.9558 103.429 94.3813 103.304 95.4884 103.959C96.5227 104.572 97.097 105.802 96.9055 106.988C96.6745 108.419 95.4065 109.509 93.9548 109.509V109.509Z" fill="black"/>
<path d="M152.527 22.2144C152.121 21.1192 151.114 20.3611 149.948 20.2741L133.657 19.0555L132.439 2.76549C132.352 1.60067 131.594 0.593318 130.499 0.186912C129.403 -0.219792 128.172 0.0494516 127.346 0.875411L114.324 13.8968C112.167 16.0535 110.918 18.9198 110.807 21.9682C110.804 22.0222 110.804 22.0763 110.805 22.1304L110.983 32.1077C99.3029 22.6626 84.4451 16.9992 68.289 16.9992C30.7916 16.9992 0.285156 47.5042 0.285156 84.9998C0.285156 122.496 30.7916 153 68.289 153C105.787 153 136.293 122.496 136.293 84.9998C136.293 68.5852 130.446 53.5106 120.726 41.7484L130.588 41.9077C130.604 41.908 130.62 41.908 130.636 41.908C130.672 41.908 130.709 41.9074 130.745 41.9059C133.793 41.7945 136.66 40.5454 138.817 38.3884L151.839 25.367C152.664 24.5411 152.933 23.3093 152.527 22.2144V22.2144ZM118.55 18.1228L126.965 9.70815L127.787 20.7008L116.95 31.5554L116.782 22.1131C116.855 20.6058 117.481 19.1914 118.55 18.1228V18.1228ZM68.289 147.023C34.087 147.023 6.26171 119.199 6.26171 84.9992C6.26171 50.799 34.0867 22.9752 68.289 22.9752C84.1771 22.9752 98.6885 28.9801 109.674 38.8388L102.753 45.7596C93.5477 37.6653 81.4817 32.7504 68.289 32.7504C62.2124 32.7504 56.2544 33.7898 50.5799 35.8394C49.0278 36.4 48.224 38.1129 48.7846 39.6653C49.3455 41.2174 51.0572 42.0222 52.6105 41.4607C57.6317 39.6468 62.9066 38.727 68.289 38.727C79.8336 38.727 90.4044 42.9766 98.5193 49.9931L91.5865 56.9256C85.2613 51.6677 77.1379 48.5019 68.289 48.5019C48.1633 48.5019 31.7899 64.8747 31.7899 84.9992C31.7899 105.124 48.1633 121.497 68.289 121.497C74.0409 121.497 79.7757 120.117 84.8731 117.507C86.3421 116.755 86.923 114.955 86.1712 113.486C85.419 112.017 83.618 111.436 82.1493 112.188C77.8303 114.399 73.1668 115.52 68.289 115.52C51.4591 115.52 37.7665 101.829 37.7665 84.9995C37.7665 68.1702 51.4588 54.4788 68.289 54.4788C75.4896 54.4788 82.1146 56.9866 87.3399 61.1725L80.3688 68.1433C76.9643 65.6968 72.7924 64.2537 68.2893 64.2537C56.8496 64.2537 47.5426 73.5601 47.5426 84.9992C47.5426 96.4384 56.8496 105.745 68.2893 105.745C79.7288 105.745 89.0357 96.4384 89.0357 84.9992C89.0357 80.2144 87.4065 75.8031 84.6747 72.2895L91.62 65.3445C96.1042 70.6585 98.8116 77.5181 98.8116 84.9989C98.8116 88.281 98.2916 91.511 97.2655 94.5988C96.7452 96.1649 97.5933 97.8566 99.1594 98.3769C100.724 98.8968 102.417 98.0496 102.937 96.4832C104.165 92.7864 104.788 88.9225 104.788 84.9989C104.788 75.8698 101.419 67.5131 95.8586 61.1062L102.781 54.1839C110.105 62.3723 114.564 73.1746 114.564 84.9989C114.564 110.513 93.8053 131.271 68.2896 131.271C42.7739 131.271 22.0141 110.514 22.0141 84.9992C22.0141 75.1412 25.0854 65.7255 30.8962 57.7698C31.8697 56.437 31.5784 54.5675 30.2456 53.5943C28.9128 52.621 27.0434 52.9117 26.0698 54.2448C19.5069 63.2309 16.0375 73.8655 16.0375 84.9992C16.0375 113.81 39.4776 137.248 68.2887 137.248C97.1002 137.248 120.54 113.809 120.54 84.9992C120.54 71.5269 115.414 59.2299 107.011 49.9542L113.926 43.0388C124.097 54.0906 130.315 68.8321 130.315 84.9995C130.316 119.199 102.491 147.023 68.289 147.023V147.023ZM83.0586 84.9992C83.0586 93.1429 76.433 99.7682 68.2887 99.7682C60.1445 99.7682 53.5186 93.1429 53.5186 84.9992C53.5186 76.8556 60.1445 70.2303 68.2887 70.2303C71.1396 70.2303 73.8039 71.0431 76.0636 72.4476L66.5319 81.9787C65.365 83.1456 65.365 85.0378 66.5319 86.2047C67.1155 86.7883 67.8802 87.08 68.6449 87.08C69.4096 87.08 70.1743 86.788 70.758 86.2047L80.4029 76.5604C82.0757 78.9543 83.0586 81.8639 83.0586 84.9992ZM134.591 34.1621C133.522 35.2313 132.106 35.8574 130.598 35.93L121.188 35.7779L126.929 30.0374C126.993 29.9734 127.052 29.9068 127.109 29.839L132.015 24.9256L143.005 25.748L134.591 34.1621Z" fill="black"/>
</g>
<defs>
<clipPath id="clip0_378_88">
<rect width="153" height="153" fill="white"/>
</clipPath>
</defs>
</svg>
