<svg width="158" height="140" viewBox="0 0 158 140" fill="none" xmlns="http://www.w3.org/2000/svg">
<path d="M139.318 53.4353L139.292 53.3329C138.883 51.6995 137.21 50.7034 135.556 51.1075C133.902 51.5118 132.893 53.1632 133.302 54.7969L133.321 54.871C133.663 56.2652 134.925 57.2003 136.317 57.2003C136.557 57.2003 136.802 57.1723 137.046 57.1138C138.702 56.7171 139.72 55.0702 139.318 53.4353Z" fill="black"/>
<path d="M57.6099 91.4055C49.9383 86.8351 45.3581 78.8322 45.3581 69.9981C45.3581 67.2675 45.801 64.5844 46.674 62.0238C47.2177 60.4294 46.349 58.7012 44.7342 58.1647C43.1193 57.6284 41.3693 58.4858 40.8255 60.0802C39.7387 63.2685 39.1875 66.6054 39.1875 69.9984C39.1875 80.9864 44.8829 90.9396 54.4222 96.6229C54.9212 96.92 55.4705 97.0614 56.0133 97.0614C57.0588 97.0614 58.0784 96.5361 58.6579 95.5879C59.5383 94.1473 59.0693 92.275 57.6099 91.4055Z" fill="black"/>
<path d="M92.2326 47.3697C86.3733 41.9228 78.7122 38.9229 70.6607 38.9229C66.89 38.9229 63.2004 39.5755 59.6948 40.8619C58.0975 41.4484 57.2841 43.2019 57.8778 44.7793C58.4715 46.3566 60.2475 47.1598 61.8454 46.5733C64.661 45.5398 67.6266 45.0157 70.661 45.0157C77.1337 45.0157 83.2923 47.427 88.0021 51.8056C88.598 52.3599 89.3581 52.6344 90.1166 52.6344C90.9374 52.6344 91.7564 52.313 92.3638 51.6762C93.5318 50.4513 93.4728 48.5229 92.2326 47.3697Z" fill="black"/>
<path d="M154.914 70.9163H131.7V64.6135C131.7 61.5499 129.175 59.0572 126.073 59.0572H121.93C119.809 49.3225 114.924 40.456 107.754 33.3763C95.5866 21.3634 78.2026 16.0061 61.2506 19.0429C59.574 19.3433 58.4612 20.9289 58.7655 22.5846C59.0698 24.2403 60.676 25.3378 62.3526 25.0383C77.3129 22.3576 92.6543 27.0851 103.39 37.6852C109.401 43.6202 113.593 50.976 115.602 59.0575H98.7571C95.6542 59.0575 93.1296 61.5502 93.1296 64.6138V70.9166H69.9153C68.2113 70.9166 66.8297 72.281 66.8297 73.9631V92.6524C66.8297 95.5122 67.9576 98.1151 69.7946 100.056V115.691C57.757 115.488 46.5153 110.786 37.9336 102.313C26.9183 91.437 22.1993 75.9336 25.3102 60.8406C25.65 59.1919 24.5718 57.5831 22.902 57.2477C21.2316 56.9119 19.6028 57.9768 19.263 59.6255C15.7383 76.7273 21.0862 94.2955 33.5694 106.621C43.1747 116.105 56.257 121.549 69.7943 121.779V132.819C69.7943 133.105 69.8138 133.385 69.848 133.662C34.6619 133.23 6.17095 104.84 6.17095 69.9988C6.17095 59.1041 8.97761 48.4547 14.3086 39.0173L24.7196 49.3453C25.2988 49.9199 26.086 50.2429 26.9066 50.2429H46.3141L65.3398 69.0278C65.9425 69.6229 66.7322 69.9202 67.5215 69.9202C68.3112 69.9202 69.1012 69.6229 69.7033 69.0278C70.9084 67.838 70.9084 65.909 69.7033 64.7189L50.6773 45.934V26.7722C50.6773 25.963 50.3511 25.1869 49.7706 24.6153L39.3306 14.3327C48.8766 9.08695 59.6447 6.32526 70.6603 6.32526C95.6921 6.32526 118.671 20.8202 129.203 43.2531C129.725 44.3652 130.84 45.019 132.005 45.019C132.439 45.019 132.88 44.9279 133.3 44.7357C134.847 44.0279 135.519 42.2168 134.802 40.6903C129.211 28.7807 120.354 18.6886 109.187 11.5053C97.7239 4.13029 84.4013 0.232422 70.6606 0.232422C58.0014 0.232422 45.6373 3.56235 34.8026 9.87304L25.9222 1.12546C25.0387 0.255578 23.7123 -0.00401556 22.5604 0.46825C21.4081 0.940211 20.6576 2.05049 20.6576 3.28204V20.5478H3.11649C1.86946 20.5478 0.745562 21.2885 0.267242 22.4249C-0.211078 23.5617 0.0499922 24.8707 0.929484 25.7433L9.79631 34.5393C3.38373 45.2512 0 57.478 0 69.9985C0 88.6338 7.35009 106.154 20.6961 119.331C34.0422 132.509 51.787 139.765 70.6612 139.765L147.996 139.769C151.877 139.769 155.035 136.651 155.035 132.818V100.057C156.948 98.0402 158 95.4238 158 92.6466V73.9625C158 72.2803 156.618 70.9163 154.914 70.9163ZM26.8285 10.6247L44.5066 28.0358V39.8284L26.8285 22.3348V10.6247ZM22.4628 26.6412L40.1428 44.1486H28.1891L10.5409 26.6412H22.4628V26.6412ZM99.3005 65.1504H125.528V70.9163H99.3005V65.1504ZM148.863 119.05H128.614C126.91 119.05 125.529 120.414 125.529 122.096C125.529 123.778 126.91 125.143 128.614 125.143H148.863V132.818C148.863 133.291 148.474 133.675 147.996 133.675H80.6161C80.5939 133.675 80.5726 133.672 80.5504 133.672H76.8003C76.3371 133.655 75.9653 133.28 75.9653 132.818V103.347C76.5692 103.449 77.1889 103.505 77.8215 103.505H103.269C103.816 108.009 107.708 111.512 112.415 111.512C117.128 111.512 121.025 107.998 121.562 103.484L147 103.5C147.003 103.5 147.005 103.5 147.007 103.5C147.636 103.5 148.256 103.445 148.863 103.344V119.05H148.863ZM109.373 102.415V97.06H115.457V102.415C115.457 104.072 114.092 105.419 112.415 105.419C110.738 105.419 109.373 104.072 109.373 102.415ZM151.829 92.6466C151.829 93.9189 151.327 95.1145 150.415 96.0137C149.505 96.9122 148.295 97.407 147.007 97.407C147.006 97.407 147.005 97.407 147.004 97.407L121.628 97.3912V94.599C121.628 92.5963 119.978 90.9668 117.949 90.9668H106.88C104.851 90.9668 103.201 92.596 103.201 94.599V97.4119H77.8215C75.1629 97.4119 73.0003 95.2763 73.0003 92.6518V77.0094H151.828V92.6466H151.829Z" fill="black"/>
<path d="M115.677 119.942C115.103 119.375 114.307 119.049 113.496 119.049C112.681 119.049 111.888 119.375 111.311 119.942C110.737 120.508 110.41 121.294 110.41 122.095C110.41 122.897 110.737 123.683 111.311 124.249C111.888 124.816 112.681 125.142 113.496 125.142C114.307 125.142 115.1 124.816 115.677 124.249C116.251 123.683 116.581 122.896 116.581 122.095C116.581 121.294 116.251 120.508 115.677 119.942Z" fill="black"/>
</svg>
