<svg width="136" height="136" viewBox="0 0 136 136" fill="none" xmlns="http://www.w3.org/2000/svg">
<g clip-path="url(#clip0_436_140)">
<path d="M119.9 93.8767C123.868 90.8669 126.438 86.1034 126.438 80.75C126.438 71.6691 119.05 64.2812 109.969 64.2812C100.888 64.2812 93.5 71.6691 93.5 80.75C93.5 86.1018 96.0675 90.8637 100.034 93.8737C96.7425 95.2321 93.7476 97.2602 91.2451 99.8556C88.4396 94.3083 83.7061 89.8957 77.9312 87.5032C81.8996 84.4935 84.4688 79.73 84.4688 74.3766C84.4688 65.2957 77.0809 57.9078 68 57.9078C58.9191 57.9078 51.5312 65.2957 51.5312 74.3766C51.5312 79.73 54.1004 84.4935 58.0688 87.5032C52.2939 89.8957 47.5607 94.3083 44.7549 99.8556C42.2524 97.2599 39.2575 95.2321 35.9662 93.8737C39.9325 90.8637 42.5 86.1018 42.5 80.75C42.5 71.6691 35.1122 64.2812 26.0312 64.2812C16.9503 64.2812 9.5625 71.6691 9.5625 80.75C9.5625 86.1034 12.1316 90.8669 16.1001 93.8767C6.65895 97.788 0 107.099 0 117.937V133.344C0 134.811 1.1892 136 2.65625 136H44.625H91.375H133.344C134.811 136 136 134.811 136 133.344V117.937C136 107.099 129.341 97.788 119.9 93.8767ZM14.875 80.75C14.875 74.5984 19.8796 69.5937 26.0312 69.5937C32.1829 69.5937 37.1875 74.5984 37.1875 80.75C37.1875 86.9016 32.1829 91.9062 26.0312 91.9062C19.8796 91.9062 14.875 86.9016 14.875 80.75ZM41.9688 111.564V130.687H5.3125V117.937C5.3125 106.513 14.607 97.2187 26.0312 97.2187C32.6206 97.2187 38.7539 100.327 42.662 105.588C42.2094 107.508 41.9688 109.508 41.9688 111.564ZM56.8438 74.3766C56.8438 68.225 61.8484 63.2203 68 63.2203C74.1516 63.2203 79.1562 68.225 79.1562 74.3766C79.1562 80.5282 74.1516 85.5328 68 85.5328C61.8484 85.5328 56.8438 80.5282 56.8438 74.3766ZM88.7188 130.687H83.4506V122.313C83.4506 120.846 82.2614 119.657 80.7944 119.657C79.3273 119.657 78.1381 120.846 78.1381 122.313V130.687H47.2812V111.564C47.2812 100.14 56.5757 90.8453 68 90.8453C79.4243 90.8453 88.7188 100.14 88.7188 111.564V130.687ZM98.8125 80.75C98.8125 74.5984 103.817 69.5937 109.969 69.5937C116.12 69.5937 121.125 74.5984 121.125 80.75C121.125 86.9016 116.12 91.9062 109.969 91.9062C103.817 91.9062 98.8125 86.9016 98.8125 80.75ZM130.688 130.687H94.0312V111.564C94.0312 109.508 93.7906 107.508 93.338 105.588C97.2461 100.327 103.379 97.2187 109.969 97.2187C121.393 97.2187 130.688 106.513 130.688 117.937V130.687Z" fill="black"/>
<path d="M94.3134 8.18161C93.2761 7.14408 91.5942 7.14435 90.5567 8.18161L81.442 17.2963C80.4047 18.3335 80.4047 20.0155 81.442 21.053C81.9608 21.5715 82.6405 21.831 83.3205 21.831C84.0003 21.831 84.6802 21.5718 85.1987 21.053L94.3134 11.9383C95.3507 10.9011 95.3507 9.21914 94.3134 8.18161Z" fill="black"/>
<path d="M54.5557 17.2962L45.441 8.18151C44.4038 7.14425 42.7218 7.14425 41.6843 8.18151C40.6468 9.21878 40.647 10.9007 41.6843 11.9382L50.7992 21.0529C51.318 21.5717 51.9977 21.8309 52.6775 21.8309C53.3572 21.8309 54.0372 21.5717 54.5557 21.0529C55.593 20.0156 55.593 18.3337 54.5557 17.2962Z" fill="black"/>
<path d="M68 0C66.533 0 65.3438 1.1892 65.3438 2.65625V8.36373C65.3438 9.83078 66.533 11.02 68 11.02C69.467 11.02 70.6562 9.83078 70.6562 8.36373V2.65625C70.6562 1.1892 69.467 0 68 0Z" fill="black"/>
<path d="M88.6393 30.0037C88.1745 28.5728 86.9605 27.5498 85.472 27.3336L75.8298 25.9324L71.5176 17.195C70.8517 15.8459 69.5037 15.0078 67.9992 15.0078C66.4947 15.0078 65.1466 15.8459 64.4807 17.195L60.1685 25.9324L50.5266 27.3336C49.0378 27.5498 47.8242 28.573 47.3591 30.0037C46.8942 31.4343 47.2743 32.9755 48.3517 34.0258L55.3291 40.8268L53.682 50.43C53.4275 51.9127 54.0254 53.3832 55.2425 54.2677C55.9302 54.7674 56.7351 55.0213 57.545 55.0213C58.1687 55.0213 58.7955 54.871 59.3746 54.5665L67.9992 50.0323L76.6235 54.5663C77.9551 55.2665 79.5385 55.152 80.7558 54.2677C81.9729 53.3832 82.5708 51.9127 82.3164 50.4302L80.6692 40.8268L87.6467 34.0258C88.724 32.9755 89.1041 31.4343 88.6393 30.0037ZM76.4381 37.5325C75.5134 38.4341 75.0916 39.7319 75.3097 41.0053L76.6046 48.5547L69.8251 44.9905C69.2535 44.6898 68.6263 44.5397 67.9992 44.5397C67.372 44.5397 66.7449 44.6898 66.1733 44.9905L59.3937 48.5547L60.6886 41.0051C60.9067 39.7322 60.4849 38.4341 59.56 37.5325L54.0751 32.1863L61.6547 31.0848C62.9334 30.8991 64.0379 30.0966 64.6093 28.9383L67.9992 22.0697L71.6839 29.5356C72.0707 30.3192 72.8181 30.8624 73.6828 30.9886L81.923 32.186L76.4381 37.5325Z" fill="black"/>
<path d="M82.6748 110.091C82.1781 109.597 81.4955 109.315 80.7969 109.315C80.0956 109.315 79.413 109.597 78.9189 110.091C78.4222 110.588 78.1406 111.27 78.1406 111.972C78.1406 112.67 78.4222 113.355 78.9189 113.849C79.413 114.344 80.0956 114.628 80.7969 114.628C81.4955 114.628 82.1781 114.344 82.6748 113.849C83.1689 113.353 83.4531 112.67 83.4531 111.972C83.4531 111.273 83.1689 110.588 82.6748 110.091Z" fill="black"/>
</g>
<defs>
<clipPath id="clip0_436_140">
<rect width="136" height="136" fill="white"/>
</clipPath>
</defs>
</svg>
