<svg width="39" height="32" viewBox="0 0 39 32" fill="none" xmlns="http://www.w3.org/2000/svg">
<path d="M39 4.53092C37.5375 5.14997 36.0262 5.57854 34.4175 5.76902C36.075 4.81664 37.3425 3.29283 37.9275 1.43569C36.3675 2.34045 34.6613 2.9595 32.8575 3.34045C31.395 1.81664 29.2988 0.864258 27.0075 0.864258C22.5713 0.864258 19.0125 4.38807 19.0125 8.67378C19.0125 9.29283 19.0613 9.86426 19.2075 10.4357C12.5775 10.15 6.7275 7.00712 2.77875 2.29283C-0.0487497 7.24521 3.12 11.3404 5.21625 12.7214C3.94875 12.7214 2.68125 12.3404 1.60875 11.769C1.60875 15.6262 4.3875 18.8166 7.995 19.5309C7.215 19.769 5.46 19.9119 4.3875 19.6738C5.41125 22.769 8.385 25.0547 11.8463 25.1024C9.11625 27.1976 5.11875 28.8643 0 28.3404C3.55875 30.5785 7.75125 31.8643 12.285 31.8643C27.0075 31.8643 35.0025 19.9595 35.0025 9.67378C35.0025 9.34045 35.0025 9.00712 34.9538 8.67378C36.6112 7.48331 37.9762 6.10235 39 4.53092Z" fill="black"/>
</svg>
