<svg width="173" height="173" viewBox="0 0 173 173" fill="none" xmlns="http://www.w3.org/2000/svg">
<path d="M152.24 26.3432C155.673 26.3432 158.452 23.5647 158.452 20.1309C158.452 16.6971 155.673 13.9186 152.24 13.9186C148.806 13.9186 146.027 16.6971 146.027 20.1309C146.027 23.5647 148.832 26.3432 152.24 26.3432ZM152.24 18.3485C153.236 18.3485 154.048 19.1611 154.048 20.1571C154.048 21.1532 153.236 21.9658 152.24 21.9658C151.217 21.9658 150.431 21.1794 150.431 20.1571C150.431 19.1349 151.244 18.3485 152.24 18.3485V18.3485Z" fill="black"/>
<path d="M159.133 3.87939H31.428C26.5787 3.87939 22.6207 7.83743 22.6207 12.6867V26.1335H13.8659C9.01662 26.1335 5.05859 30.0915 5.05859 34.9408V145.372C5.05859 150.222 9.01662 154.18 13.8659 154.18H72.3975V166.919C72.3975 168.125 73.3936 169.121 74.5994 169.121H115.962C117.168 169.121 118.164 168.125 118.164 166.919V154.18H141.571C146.421 154.18 150.379 150.222 150.379 145.372V131.926H159.133C163.983 131.926 167.941 127.968 167.941 123.118V12.6867C167.941 7.83743 163.983 3.87939 159.133 3.87939V3.87939ZM27.0244 12.6867C27.0244 10.2489 29.0165 8.28303 31.428 8.28303H159.133C161.571 8.28303 163.537 10.2752 163.537 12.6867V32.005H79.9728L70.1433 21.8085C69.3831 21.0221 68.3347 20.5765 67.26 20.5765H45.6087C43.4069 20.5765 41.5983 22.3852 41.5983 24.587V32.005H27.0244V12.6867ZM13.8659 149.802C11.4281 149.802 9.46223 147.81 9.46223 145.399V34.9408C9.46223 32.503 11.4544 30.5371 13.8659 30.5371H22.6207V123.145C22.6207 127.994 26.5787 131.952 31.428 131.952H79.2389C80.1039 133.629 80.4971 135.517 80.3398 137.456H76.9322C74.4159 137.456 72.3975 139.501 72.3975 141.991V149.802H13.8659ZM93.1051 103.695C93.5507 102.909 94.3633 102.411 95.2807 102.411C96.6437 102.411 97.7447 103.512 97.7447 104.875C97.7447 105.766 97.2728 106.578 96.5127 107.024C95.6739 107.522 94.6778 107.47 93.6556 106.893C93.5245 106.814 93.3934 106.71 93.341 106.578C92.5022 105.242 92.843 104.193 93.1051 103.695V103.695ZM93.0789 98.4265C91.48 98.977 90.1169 100.052 89.2781 101.572C88.02 103.826 88.1772 106.578 89.6451 108.938C90.1169 109.672 90.746 110.274 91.5062 110.72C92.7119 111.402 94.0225 111.768 95.3069 111.768C96.5127 111.768 97.6922 111.454 98.7407 110.851C100.838 109.619 102.148 107.339 102.148 104.901C102.148 101.887 100.182 99.3439 97.4825 98.4265V87.1029L116.958 122.253C116.932 122.28 116.906 122.332 116.827 122.358C109.933 124.141 105.425 130.589 105.792 137.456H84.7959C85.189 130.563 80.6544 124.114 73.6295 122.148L93.0789 87.1029V98.4265ZM113.76 164.717H76.8012L76.9322 141.834H113.629C113.708 141.834 113.76 141.886 113.76 141.965V164.717ZM145.975 145.372C145.975 147.81 143.983 149.776 141.571 149.776H118.164V141.965C118.164 139.448 116.119 137.43 113.629 137.43H110.222C110.064 135.49 110.484 133.603 111.323 131.926H145.975V145.372ZM159.133 127.548H115.595C116.303 127.155 117.063 126.814 117.902 126.605C119.291 126.238 120.418 125.268 120.995 123.957C121.545 122.673 121.467 121.231 120.785 119.999L98.2427 79.3965C97.666 78.3218 96.5389 77.6403 95.3069 77.6403C94.0488 77.6665 92.9216 78.2956 92.3188 79.3703L69.7501 119.999C69.0686 121.231 69.0162 122.699 69.5666 123.983C70.1171 125.294 71.2442 126.238 72.6334 126.605C73.4722 126.814 74.2062 127.155 74.9401 127.548H31.428C28.9903 127.548 27.0244 125.556 27.0244 123.145V36.4086H41.9653C44.1671 36.4086 45.9757 34.6 45.9757 32.3982V24.9802H67.0765L76.906 35.1767C77.6662 35.963 78.7147 36.4086 79.7894 36.4086H163.537V123.118C163.537 125.556 161.571 127.548 159.133 127.548V127.548Z" fill="black"/>
<path d="M137.245 26.3432C140.679 26.3432 143.458 23.5648 143.458 20.131C143.458 16.6972 140.679 13.9187 137.245 13.9187C133.812 13.9187 131.033 16.6972 131.033 20.131C131.033 23.5648 133.812 26.3432 137.245 26.3432ZM137.245 18.3486C138.242 18.3486 139.054 19.1611 139.054 20.1572C139.054 21.1532 138.242 21.9658 137.245 21.9658C136.223 21.9658 135.437 21.1795 135.437 20.1572C135.437 19.1349 136.249 18.3486 137.245 18.3486V18.3486Z" fill="black"/>
<path d="M122.226 26.3432C125.66 26.3432 128.438 23.5648 128.438 20.131C128.438 16.6972 125.66 13.9187 122.226 13.9187C118.792 13.9187 116.014 16.6972 116.014 20.131C116.014 23.5648 118.792 26.3432 122.226 26.3432ZM122.226 18.3486C123.222 18.3486 124.035 19.1611 124.035 20.1572C124.035 21.1532 123.222 21.9658 122.226 21.9658C121.204 21.9658 120.417 21.1795 120.417 20.1572C120.417 19.1349 121.23 18.3486 122.226 18.3486V18.3486Z" fill="black"/>
<path d="M137.718 55.5959C136.433 56.8803 135.621 58.5054 135.306 60.2354H104.507V56.7754C104.507 54.4164 102.594 52.5029 100.235 52.5029H90.3002C87.9411 52.5029 86.0276 54.4164 86.0276 56.7754V60.2354H55.2546C54.9662 58.5317 54.1537 56.9065 52.843 55.5697C49.5141 52.2932 43.8261 52.3456 40.5758 55.5959C38.9244 57.2473 38.0332 59.4229 38.0332 61.7295C38.0332 64.0624 38.9506 66.2642 40.5758 67.8632C42.2271 69.567 44.429 70.432 46.7094 70.432C48.1511 70.432 49.619 70.0912 51.0082 69.3835C52.5023 68.6233 53.7343 67.3651 54.4682 65.8186C54.6517 65.4254 54.809 65.0323 54.94 64.6391H76.3029C64.6909 70.3009 55.9361 80.943 52.8955 93.787H49.4879C47.1288 93.787 45.2153 95.7004 45.2153 98.0595V107.994C45.2153 110.353 47.1288 112.267 49.4879 112.267H59.4223C61.7814 112.267 63.6949 110.353 63.6949 107.994V98.0595C63.6949 95.7004 61.7814 93.787 59.4223 93.787H57.4302C61.0999 79.947 72.1876 69.0951 86.1062 65.74V66.6836C86.1062 69.0427 88.0197 70.9562 90.3788 70.9562H100.313C102.672 70.9562 104.586 69.0427 104.586 66.6836V65.74C118.478 69.0951 129.566 79.947 133.262 93.787H131.453C129.094 93.787 127.181 95.7004 127.181 98.0595V107.994C127.181 110.353 129.094 112.267 131.453 112.267H141.388C143.747 112.267 145.66 110.353 145.66 107.994V98.0595C145.66 95.7004 143.747 93.787 141.388 93.787H137.797C134.73 80.943 125.975 70.2747 114.389 64.6391H135.804C136.224 65.8448 136.905 66.9457 137.823 67.8632C139.474 69.567 141.676 70.432 143.956 70.432C145.398 70.432 146.866 70.0912 148.255 69.3835C149.749 68.6233 150.981 67.3651 151.715 65.8186C153.419 62.2276 152.816 58.322 150.116 55.5697C146.682 52.3194 140.994 52.3456 137.718 55.5959V55.5959ZM50.4577 63.9576C50.1432 64.5867 49.619 65.1371 48.9899 65.4517C46.7094 66.605 44.7435 65.8711 43.6688 64.7439C42.8562 63.9576 42.4106 62.8829 42.4106 61.7295C42.4106 60.6024 42.8562 59.5277 43.6688 58.6889C44.4814 57.8764 45.5561 57.4307 46.7094 57.4307C47.8365 57.4307 48.9374 57.8763 49.7238 58.6627C51.0868 60.0782 51.349 62.0441 50.4577 63.9576ZM59.3699 107.863L49.5665 107.994L49.4355 98.1906H59.2388L59.3699 107.863ZM141.309 107.863L131.506 107.994L131.375 98.1906H141.178L141.309 107.863ZM90.4574 66.7098L90.405 63.4071C90.4574 63.1712 90.4574 62.9353 90.4312 62.6732V62.647C90.4312 62.5683 90.4837 62.5159 90.4837 62.4373C90.4837 62.3062 90.4312 62.2014 90.405 62.0965L90.3264 56.9327H100.13L100.208 62.0965C100.182 62.2276 100.13 62.3324 100.13 62.4635C100.13 62.5421 100.156 62.5945 100.182 62.6732V62.6994C100.13 63.0401 100.156 63.3547 100.235 63.643L100.287 66.605L90.4574 66.7098ZM147.626 63.9576C147.312 64.5867 146.787 65.1371 146.158 65.4517C143.878 66.605 141.912 65.8711 140.837 64.7439C140.025 63.9576 139.579 62.8829 139.579 61.7295C139.579 60.6024 140.025 59.5277 140.837 58.6889C141.65 57.8764 142.724 57.4307 143.878 57.4307C145.005 57.4307 146.106 57.8763 146.892 58.6627C148.255 60.0782 148.517 62.0441 147.626 63.9576V63.9576Z" fill="black"/>
</svg>
