<svg width="123" height="123" viewBox="0 0 123 123" fill="none" xmlns="http://www.w3.org/2000/svg">
<path d="M15.164 76.9761L58.4062 18.3973C58.7798 17.9373 59.2513 17.5664 59.7864 17.3117C60.3215 17.057 60.9066 16.9248 61.4993 16.9248C62.0919 16.9248 62.677 17.057 63.2121 17.3117C63.7472 17.5664 64.2187 17.9373 64.5923 18.3973L107.835 76.9761C109.133 80.4964 108.144 82.5289 104.867 83.0734L64.5923 28.5048C64.2187 28.0448 63.7472 27.674 63.2121 27.4192C62.677 27.1645 62.0919 27.0323 61.4993 27.0323C60.9066 27.0323 60.3215 27.1645 59.7864 27.4192C59.2513 27.674 58.7798 28.0448 58.4062 28.5048L18.1483 83.0507C17.4594 83.0145 16.7927 82.7951 16.217 82.4152C15.6412 82.0352 15.1773 81.5085 14.8732 80.8893C14.569 80.2702 14.4356 79.5811 14.4867 78.8932C14.5378 78.2052 14.7717 77.5434 15.164 76.9761V76.9761ZM107.831 100.035L97.2557 85.7071L90.8447 77.023H90.8467L64.5919 41.4506C64.2346 40.9664 63.7686 40.5729 63.2315 40.3018C62.6943 40.0306 62.101 39.8893 61.4993 39.8893C60.8975 39.8893 60.3042 40.0306 59.767 40.3018C59.2299 40.5729 58.7639 40.9664 58.4066 41.4506L32.1515 77.0237H32.1534L25.7424 85.7071L15.1678 100.035L15.1628 100.039C14.6815 100.731 14.4389 101.561 14.4717 102.403C14.5045 103.245 14.8111 104.053 15.3448 104.705C15.8786 105.357 16.6104 105.817 17.4293 106.016C18.2482 106.214 19.1095 106.14 19.8826 105.805L61.4993 86.3825L103.116 105.804C103.625 106.042 104.18 106.165 104.741 106.164C105.448 106.153 106.137 105.948 106.736 105.573C107.334 105.198 107.819 104.666 108.138 104.036C108.456 103.405 108.596 102.7 108.543 101.995C108.49 101.291 108.245 100.614 107.836 100.039L107.831 100.035Z" fill="black"/>
</svg>
