<svg width="295" height="295" viewBox="0 0 295 295" fill="none" xmlns="http://www.w3.org/2000/svg">
<path d="M172.084 79.8966C172.084 113.839 144.567 141.353 110.625 141.353C76.6827 141.353 49.166 113.839 49.166 79.8966C49.166 45.9542 76.6827 18.4375 110.625 18.4375C144.567 18.4375 172.084 45.9542 172.084 79.8966Z" fill="black"/>
<path d="M162.865 165.938H58.3847C26.1933 165.938 0 192.131 0 224.322V267.344C0 272.433 4.12998 276.562 9.21875 276.562H212.031C217.12 276.562 221.25 272.433 221.25 267.344V224.322C221.25 192.131 195.057 165.938 162.865 165.938V165.938Z" fill="black"/>
<path d="M292.063 122.301L249.041 82.3543C247.308 80.7428 245.046 79.9078 242.773 79.9078C236.676 79.9078 233.541 85.0956 233.541 89.1153V116.772H184.375C177.578 116.772 172.084 122.277 172.084 129.062C172.084 135.848 177.578 141.353 184.375 141.353H233.541V169.01C233.541 174.123 237.696 178.228 242.76 178.228C245.046 178.228 247.297 177.382 249.041 175.771L292.063 135.824C293.931 134.077 295 131.619 295 129.062C295 126.506 293.931 124.048 292.063 122.301V122.301Z" fill="black"/>
</svg>
