<svg width="248" height="248" viewBox="0 0 248 248" fill="none" xmlns="http://www.w3.org/2000/svg">
<path d="M92.9977 118.837C64.5094 118.837 41.332 95.6612 41.332 67.1729C41.332 38.6846 64.5094 15.5072 92.9977 15.5072C121.486 15.5072 144.663 38.6846 144.663 67.1729C144.663 95.6612 121.486 118.837 92.9977 118.837V118.837ZM92.9977 31.0067C73.0557 31.0067 56.8315 47.229 56.8315 67.1729C56.8315 87.1149 73.0557 103.337 92.9977 103.337C112.94 103.337 129.164 87.1149 129.164 67.1729C129.164 47.229 112.94 31.0067 92.9977 31.0067V31.0067Z" fill="black"/>
<path d="M178.244 232.5H7.74976C3.47188 232.5 0 229.029 0 224.751V188.584C0 161.523 22.0195 139.503 49.0812 139.503H136.913C163.975 139.503 185.994 161.523 185.994 188.584V224.751C185.994 229.029 182.522 232.5 178.244 232.5V232.5ZM15.4995 217.001H170.495V188.584C170.495 170.069 155.428 155.003 136.913 155.003H49.0812C30.5658 155.003 15.4995 170.069 15.4995 188.584V217.001Z" fill="black"/>
<path d="M240.242 121.421H152.412C148.134 121.421 144.662 117.949 144.662 113.671C144.662 109.394 148.134 105.922 152.412 105.922H240.242C244.52 105.922 247.992 109.394 247.992 113.671C247.992 117.949 244.52 121.421 240.242 121.421Z" fill="black"/>
<path d="M198.912 162.753C196.927 162.753 194.944 161.998 193.434 160.48C190.407 157.451 190.407 152.543 193.434 149.516L229.29 113.66L193.434 77.8042C190.407 74.7769 190.407 69.869 193.434 66.8417C196.462 63.8145 201.37 63.8145 204.399 66.8417L245.73 108.173C248.757 111.2 248.757 116.11 245.73 119.137L204.399 160.469C202.88 161.998 200.895 162.753 198.912 162.753V162.753Z" fill="black"/>
</svg>
