<svg width="271" height="271" viewBox="0 0 271 271" fill="none" xmlns="http://www.w3.org/2000/svg">
<g clip-path="url(#clip0_499_501)">
<path d="M271 135.5C271 60.7878 210.212 0 135.5 0C60.7878 0 0 60.7878 0 135.5C0 174.963 16.9695 210.533 43.9808 235.317L43.8527 235.43L48.2479 239.135C48.5336 239.377 48.8441 239.574 49.1298 239.81C51.4654 241.747 53.8847 243.585 56.3483 245.363C57.1465 245.94 57.9447 246.516 58.7577 247.078C61.3889 248.891 64.089 250.611 66.8483 252.242C67.4494 252.597 68.0555 252.942 68.6615 253.286C71.682 255.006 74.7664 256.627 77.9248 258.115C78.1564 258.224 78.3929 258.322 78.6245 258.431C88.9176 263.215 99.9054 266.728 111.396 268.802C111.696 268.857 111.997 268.911 112.302 268.965C115.87 269.581 119.477 270.074 123.128 270.404C123.571 270.443 124.015 270.468 124.463 270.507C128.099 270.808 131.775 271 135.5 271C139.191 271 142.832 270.808 146.448 270.517C146.907 270.478 147.365 270.453 147.823 270.414C151.445 270.084 155.022 269.606 158.555 269C158.86 268.945 159.171 268.891 159.476 268.832C170.794 266.802 181.624 263.368 191.784 258.706C192.159 258.534 192.538 258.371 192.913 258.194C195.953 256.765 198.924 255.223 201.836 253.582C202.56 253.173 203.28 252.759 203.999 252.336C206.65 250.774 209.256 249.143 211.789 247.408C212.701 246.787 213.592 246.132 214.494 245.482C216.657 243.925 218.781 242.318 220.845 240.638C221.304 240.269 221.796 239.948 222.245 239.569L226.753 235.804L226.62 235.691C253.868 210.897 271 175.165 271 135.5ZM9.85455 135.5C9.85455 66.2176 66.2176 9.85455 135.5 9.85455C204.782 9.85455 261.145 66.2176 261.145 135.5C261.145 172.834 244.762 206.399 218.825 229.429C217.376 228.428 215.918 227.532 214.425 226.783L172.706 205.926C168.961 204.053 166.635 200.289 166.635 196.105V181.536C167.601 180.343 168.621 178.993 169.676 177.51C175.076 169.883 179.407 161.398 182.565 152.268C188.808 149.301 192.839 143.083 192.839 136.062V118.595C192.839 114.323 191.272 110.179 188.468 106.922V83.9262C188.724 81.369 189.631 66.937 179.19 55.0327C170.109 44.6657 155.411 39.4182 135.5 39.4182C115.589 39.4182 100.891 44.6657 91.8099 55.0278C81.369 66.9321 82.2756 81.3641 82.5318 83.9213V106.917C79.7331 110.174 78.1613 114.318 78.1613 118.59V136.057C78.1613 141.482 80.5954 146.542 84.7639 149.957C88.755 165.591 96.9687 177.426 100.004 181.437V195.696C100.004 199.717 97.8113 203.413 94.2784 205.344L55.3185 226.595C54.0768 227.27 52.845 228.059 51.6132 228.941C25.9963 205.921 9.85455 172.563 9.85455 135.5ZM209.207 237.159C207.483 238.411 205.728 239.623 203.95 240.781C203.132 241.313 202.319 241.845 201.486 242.363C199.16 243.801 196.795 245.171 194.381 246.452C193.849 246.733 193.312 246.999 192.775 247.275C187.227 250.118 181.486 252.562 175.588 254.548C175.381 254.617 175.174 254.691 174.963 254.76C171.873 255.785 168.744 256.696 165.581 257.48C165.571 257.48 165.561 257.484 165.551 257.484C162.359 258.273 159.126 258.928 155.874 259.465C155.786 259.48 155.697 259.5 155.608 259.515C152.548 260.012 149.464 260.372 146.37 260.643C145.823 260.692 145.276 260.727 144.724 260.766C141.664 260.998 138.589 261.145 135.5 261.145C132.376 261.145 129.262 260.993 126.163 260.761C125.626 260.722 125.089 260.687 124.557 260.638C121.433 260.362 118.324 259.992 115.244 259.49C115.106 259.465 114.968 259.441 114.83 259.416C108.316 258.327 101.906 256.726 95.663 254.632C95.4708 254.568 95.2738 254.499 95.0816 254.435C91.9823 253.38 88.9176 252.212 85.907 250.921C85.8873 250.912 85.8627 250.902 85.843 250.892C82.995 249.665 80.2012 248.305 77.4419 246.871C77.0823 246.684 76.7176 246.507 76.3629 246.314C73.845 244.969 71.3814 243.516 68.9523 241.998C68.2329 241.545 67.5184 241.087 66.8089 240.623C64.5719 239.16 62.3645 237.637 60.2162 236.026C59.9945 235.859 59.7826 235.681 59.5609 235.514C59.7185 235.425 59.8762 235.336 60.0339 235.248L98.9938 213.996C105.695 210.34 109.858 203.329 109.858 195.696L109.854 177.948L108.72 176.579C108.612 176.456 97.9591 163.497 93.9335 145.951L93.4851 144L91.8049 142.911C89.4349 141.378 88.0159 138.816 88.0159 136.052V118.585C88.0159 116.293 88.9865 114.16 90.7604 112.559L92.3864 111.09V83.6454L92.342 82.9999C92.3272 82.8817 90.8737 71.0316 99.2205 61.517C106.345 53.3969 118.555 49.2727 135.5 49.2727C152.381 49.2727 164.551 53.3624 171.696 61.4234C180.033 70.8394 178.668 82.9112 178.658 83.0098L178.614 111.1L180.24 112.568C182.009 114.165 182.984 116.303 182.984 118.595V136.062C182.984 139.575 180.594 142.763 177.165 143.822L174.716 144.576L173.928 147.015C171.021 156.047 166.882 164.389 161.629 171.809C160.338 173.632 159.082 175.248 158.003 176.485L156.781 177.879V196.105C156.781 204.048 161.196 211.193 168.301 214.74L210.02 235.598C210.286 235.731 210.547 235.869 210.808 236.007C210.281 236.406 209.739 236.775 209.207 237.159Z" fill="black"/>
</g>
<defs>
<clipPath id="clip0_499_501">
<rect width="271" height="271" fill="white"/>
</clipPath>
</defs>
</svg>
