<svg width="15" height="18" viewBox="0 0 15 18" fill="none" xmlns="http://www.w3.org/2000/svg">
<path d="M7.4994 8.07692C5.2726 8.07692 3.46094 6.26537 3.46094 4.03854C3.46094 1.8117 5.2726 0 7.4994 0C9.7262 0 11.5379 1.8117 11.5379 4.03854C11.5379 6.26537 9.7262 8.07692 7.4994 8.07692ZM7.4994 1.21155C5.94063 1.21155 4.67246 2.47959 4.67246 4.03854C4.67246 5.59734 5.94063 6.86538 7.4994 6.86538C9.05817 6.86538 10.3263 5.59734 10.3263 4.03854C10.3263 2.47959 9.05817 1.21155 7.4994 1.21155Z" fill="#4069FF"/>
<path d="M14.375 17.3076H0.625C0.279999 17.3076 0 17.0276 0 16.6826V13.7659C0 11.5834 1.77582 9.80762 3.95828 9.80762H11.0417C13.2242 9.80762 15 11.5834 15 13.7659V16.6826C15 17.0276 14.72 17.3076 14.375 17.3076ZM1.25 16.0576H13.75V13.7659C13.75 12.2727 12.5349 11.0576 11.0417 11.0576H3.95828C2.46506 11.0576 1.25 12.2727 1.25 13.7659V16.0576Z" fill="#4069FF"/>
</svg>
