<svg width="126" height="134" viewBox="0 0 126 134" fill="none" xmlns="http://www.w3.org/2000/svg">
<path d="M125.675 116.217C125.675 111.737 122.856 107.671 118.664 106.097L108.385 102.244V100.413C110.021 98.9455 111.281 97.0745 112.005 94.9501C116.077 94.2515 119.191 90.7183 119.191 86.4516V77.8065C119.191 74.6099 118.402 71.5991 117.03 68.9365V57.862C117.03 53.3822 114.211 49.3161 110.018 47.7426L99.7397 43.8896V42.0586C101.375 40.5907 102.635 38.7196 103.359 36.5953C107.432 35.8966 110.546 32.3634 110.546 28.0968V19.4516C110.546 8.72748 101.821 0 91.0945 0C80.3683 0 71.6429 8.72748 71.6429 19.4516V28.0968C71.6429 32.3634 74.7571 35.8966 78.8296 36.5953C79.5536 38.7175 80.8136 40.5886 82.4494 42.0586V43.8896L74.3276 46.9342C71.397 44.5724 67.7266 43.2258 63.8515 43.2258H62.9977C58.6424 43.2258 54.5921 44.5312 51.1951 46.7569L43.5461 43.8896V42.0586C45.1819 40.5907 46.4419 38.7196 47.1659 36.5953C51.2383 35.8966 54.3526 32.3634 54.3526 28.0968V19.4516C54.3526 8.72748 45.6272 0 34.901 0C24.1747 0 15.4493 8.72748 15.4493 19.4516V28.0968C15.4493 32.3634 18.5636 35.8966 22.6361 36.5953C23.36 38.7175 24.6201 40.5886 26.2558 42.0586V43.8896L15.9791 47.7447C11.7842 49.3161 8.96548 53.3822 8.96548 57.862V68.9365C7.59356 71.5991 6.80418 74.6099 6.80418 77.8065V86.4516C6.80418 90.7183 9.91843 94.2515 13.9909 94.9501C14.7148 97.0723 15.9749 98.9434 17.6106 100.413V102.244L7.33395 106.097C3.13907 107.671 0.320312 111.737 0.320312 116.217V129.677H30.5784V134H95.4171V129.677H125.675V116.217ZM91.0945 102.276L85.7082 104.423L71.6429 98.0274V94.5259C73.8063 93.0136 75.5486 90.9494 76.681 88.539C78.0255 88.4272 79.2792 88.0188 80.3788 87.3592C80.7893 91.209 83.6989 94.3011 87.4727 94.948C88.1987 97.0723 89.4588 98.9434 91.0945 100.413V102.276ZM62.6083 123.194H63.3872L64.6831 129.677H61.3124L62.6083 123.194ZM63.823 118.871H62.1725L59.5374 113.602L62.9977 110.833L66.4581 113.602L63.823 118.871ZM40.2873 104.421L34.901 102.276V100.413C36.5367 98.9455 37.7968 97.0745 38.5207 94.9501C42.2966 94.3032 45.2061 91.2111 45.6145 87.3613C46.7142 88.0209 47.9679 88.4293 49.3124 88.5412C50.4447 90.9515 52.1871 93.0157 54.3505 94.528V98.0295L40.2873 104.421ZM17.6106 90.7742V81.9824C20.7745 81.6489 23.76 80.4954 26.2558 78.5325C28.7516 80.4975 31.7371 81.6489 34.901 81.9824V90.7742C34.901 95.5421 31.0237 99.4194 26.2558 99.4194C21.4879 99.4194 17.6106 95.5421 17.6106 90.7742ZM26.2558 62.6774C34.596 62.6774 41.3848 69.4642 41.3848 77.8065V79.0085C40.1079 78.2645 38.6442 77.8065 37.0623 77.8065H36.6908C33.3254 77.8065 30.1615 76.4968 27.7839 74.1171L26.2558 72.5869L24.7277 74.1171C22.348 76.4968 19.1862 77.8065 15.8208 77.8065H15.4493C13.8674 77.8065 12.4037 78.2645 11.1268 79.0085V77.8065C11.1268 69.4642 17.9156 62.6774 26.2558 62.6774ZM47.9574 83.7373C46.6234 82.9997 45.7074 81.5972 45.7074 79.9678C45.7074 78.3753 46.5823 76.996 47.8687 76.2456V82.129C47.8687 82.6715 47.9014 83.2076 47.9574 83.7373ZM39.2235 82.7295C40.51 83.4799 41.3848 84.8592 41.3848 86.4516C41.3848 88.0441 40.51 89.4234 39.2235 90.1737V82.7295ZM67.3203 98.6996L62.9977 104.462L58.6752 98.6996V96.6207C60.045 97.0312 61.496 97.2581 62.9977 97.2581C64.4995 97.2581 65.9505 97.0312 67.3203 96.6207V98.6996ZM62.9977 92.9355C57.0394 92.9355 52.1913 88.0874 52.1913 82.129V71.2255C56.0432 70.873 59.741 69.5803 62.9977 67.4369C66.2545 69.5803 69.9523 70.873 73.8042 71.2255V82.129C73.8042 88.0874 68.9561 92.9355 62.9977 92.9355ZM55.8269 102.106L60.0112 107.687L52.9279 113.353L48.885 105.264L55.8269 102.106ZM65.9843 107.687L70.1686 102.106L77.1126 105.262L73.0697 113.351L65.9843 107.687ZM78.1268 82.129V76.2456C79.4132 76.996 80.2881 78.3753 80.2881 79.9678C80.2881 81.5972 79.3721 82.9997 78.0381 83.7373C78.0941 83.2076 78.1268 82.6715 78.1268 82.129V82.129ZM114.869 77.8065V79.0085C113.592 78.2645 112.128 77.8065 110.546 77.8065H88.9332C87.3513 77.8065 85.8876 78.2645 84.6106 79.0085V77.8065C84.6106 69.4642 91.3995 62.6774 99.7397 62.6774C108.08 62.6774 114.869 69.4642 114.869 77.8065ZM86.7719 90.1737C85.4855 89.4234 84.6106 88.0441 84.6106 86.4516C84.6106 84.8592 85.4855 83.4799 86.7719 82.7295V90.1737ZM95.4171 102.985C96.7721 103.468 98.2221 103.742 99.7397 103.742C101.257 103.742 102.707 103.465 104.062 102.985V103.022L99.7397 108.786L95.4171 103.022V102.985ZM99.7397 99.4194C94.9718 99.4194 91.0945 95.5421 91.0945 90.7742V82.129H108.385V90.7742C108.385 95.5421 104.508 99.4194 99.7397 99.4194ZM112.707 90.1737V82.7316C113.994 83.482 114.869 84.8613 114.869 86.4537C114.869 88.0462 113.994 89.4234 112.707 90.1737ZM112.707 57.862V63.3497C109.262 60.2544 104.724 58.3548 99.7397 58.3548C93.6315 58.3548 88.1787 61.1905 84.6106 65.608V60.8686C84.6106 56.2474 81.8879 52.139 77.7395 50.2743L82.9897 48.3051C84.1938 51.6335 87.3555 54.0323 91.0945 54.0323C94.8335 54.0323 97.9952 51.6335 99.1972 48.3029L108.5 51.7908C111.017 52.7353 112.707 55.1731 112.707 57.862ZM91.0945 41.0645C86.3266 41.0645 82.4494 37.1873 82.4494 32.4194V23.6212C86.1883 23.2771 89.7912 22.1036 92.9772 20.0679L92.9941 20.0848C94.8251 21.9158 97.2069 23.1262 99.7397 23.5737V32.4194C99.7397 37.1873 95.8624 41.0645 91.0945 41.0645ZM104.062 31.8189V24.3768C105.349 25.1271 106.224 26.5064 106.224 28.0989C106.224 29.6914 105.349 31.0686 104.062 31.8189ZM91.0945 4.32258C99.4347 4.32258 106.224 11.1093 106.224 19.4516V20.6536C104.947 19.9096 103.483 19.4516 101.901 19.4516C99.7228 19.4516 97.5911 18.5673 96.0503 17.0286L93.5302 14.5085L90.9668 16.2181C87.7945 18.3319 84.1009 19.4516 80.2881 19.4516C78.7061 19.4516 77.2424 19.9096 75.9655 20.6536V19.4516C75.9655 11.1093 82.7543 4.32258 91.0945 4.32258ZM75.9655 28.0968C75.9655 26.5043 76.8403 25.125 78.1268 24.3747V31.8168C76.8403 31.0686 75.9655 29.6893 75.9655 28.0968ZM91.0945 45.3871C92.6121 45.3871 94.0621 45.1106 95.4171 44.6304V45.3871C95.4171 47.7711 93.4785 49.7097 91.0945 49.7097C88.7106 49.7097 86.7719 47.7711 86.7719 45.3871V44.6304C88.127 45.1106 89.577 45.3871 91.0945 45.3871ZM63.8515 47.5484C68.0073 47.5484 71.8635 49.6126 74.1672 53.0709L74.5777 53.6882L75.2806 53.9225C78.2756 54.9187 80.2881 57.7111 80.2881 60.8665V72.5246C79.6179 72.1331 78.8961 71.8281 78.1268 71.6297V67H75.9655C72.1526 67 68.459 65.8803 65.2867 63.7665L62.9977 62.2405L60.7088 63.7665C57.5365 65.8803 53.8429 67 50.03 67H47.8687V71.6297C47.0994 71.8302 46.3775 72.1331 45.7074 72.5246V64.8387C45.7074 55.305 53.464 47.5484 62.9977 47.5484H63.8515ZM34.901 41.0645C30.133 41.0645 26.2558 37.1873 26.2558 32.4194V23.7742H43.5461V32.4194C43.5461 37.1873 39.6689 41.0645 34.901 41.0645ZM47.8687 31.8189V24.3768C49.1551 25.1271 50.03 26.5064 50.03 28.0989C50.03 29.6914 49.1551 31.0686 47.8687 31.8189ZM34.901 4.32258C43.2411 4.32258 50.03 11.1093 50.03 19.4516V20.6536C48.7531 19.9096 47.2893 19.4516 45.7074 19.4516H24.0945C22.5126 19.4516 21.0489 19.9096 19.7719 20.6536V19.4516C19.7719 11.1093 26.5608 4.32258 34.901 4.32258ZM19.7719 28.0968C19.7719 26.5043 20.6468 25.125 21.9332 24.3747V31.8168C20.6468 31.0686 19.7719 29.6893 19.7719 28.0968ZM34.901 45.3871C36.4185 45.3871 37.8685 45.1106 39.2235 44.6304V45.3871C39.2235 47.7711 37.2849 49.7097 34.901 49.7097C32.517 49.7097 30.5784 47.7711 30.5784 45.3871V44.6304C31.9334 45.1106 33.3834 45.3871 34.901 45.3871ZM17.4956 51.7908L26.7961 48.3029C28.0002 51.6335 31.162 54.0323 34.901 54.0323C38.64 54.0323 41.8017 51.6335 43.0037 48.3029L47.3759 49.9429C43.6759 53.8223 41.3848 59.064 41.3848 64.8387V65.608C37.8168 61.1905 32.364 58.3548 26.2558 58.3548C21.2715 58.3548 16.7337 60.2544 13.2881 63.3497V57.862C13.2881 55.1731 14.9787 52.7353 17.4956 51.7908ZM11.1268 86.4516C11.1268 84.8592 12.0016 83.4799 13.2881 82.7295V90.1716C12.0016 89.4234 11.1268 88.0441 11.1268 86.4516ZM26.2558 103.742C27.7733 103.742 29.2234 103.465 30.5784 102.985V103.022L26.2558 108.786L21.9332 103.022V102.985C23.2882 103.465 24.7383 103.742 26.2558 103.742ZM4.64289 125.355V116.217C4.64289 113.528 6.33351 111.09 8.85045 110.146L19.0153 106.336L26.2558 115.99L33.4763 106.363L35.6988 107.248C32.5043 110.077 30.5784 114.181 30.5784 118.574V125.355H4.64289ZM34.901 118.574C34.901 114.348 37.3862 110.488 41.2381 108.737L44.9465 107.05L51.4568 120.067L56.0886 116.361L58.5738 121.335L56.9033 129.677H47.8687V121.032H43.5461V129.677H34.901V118.574ZM91.0945 129.677H82.4494V121.032H78.1268V129.677H69.0922L67.4237 121.335L69.9101 116.361L74.5408 120.067L81.049 107.05L84.7573 108.737C88.6092 110.488 91.0945 114.35 91.0945 118.574V129.677ZM121.353 125.355H95.4171V118.574C95.4171 114.181 93.4911 110.075 90.2967 107.248L92.5192 106.361L99.7397 115.99L106.98 106.336L117.145 110.148C119.662 111.09 121.353 113.528 121.353 116.217V125.355Z" fill="black"/>
</svg>
