<svg width="152" height="151" viewBox="0 0 152 151" fill="none" xmlns="http://www.w3.org/2000/svg">
<path d="M52.426 35.4558C51.9922 36.7909 52.4192 38.2219 53.5134 39.1016L63.2561 46.9324L59.9769 58.9944C59.6088 60.3487 60.1046 61.7572 61.2409 62.5836C62.3775 63.4082 63.8696 63.4445 65.0442 62.6759L75.5024 55.8299L85.961 62.6762C86.5249 63.0452 87.1616 63.2286 87.7971 63.2286C88.4861 63.2286 89.1735 63.013 89.7637 62.5836C90.9006 61.7581 91.3967 60.3487 91.0277 58.9944L87.7485 46.9327L97.4906 39.1022C98.5857 38.2228 99.0127 36.7915 98.5786 35.4558C98.1448 34.1198 96.958 33.2129 95.5557 33.1451L83.0707 32.5364L78.6339 20.851C78.1358 19.5383 76.9063 18.6898 75.5022 18.6898C74.098 18.6898 72.8685 19.538 72.3707 20.8507L67.9336 32.5367L55.4495 33.1451C54.0466 33.2129 52.8598 34.1198 52.426 35.4558V35.4558ZM69.0584 37.2059C70.3891 37.141 71.5543 36.2943 72.0265 35.0491L75.5019 25.8962L78.9772 35.05C79.4503 36.2949 80.6158 37.141 81.9453 37.2059L91.724 37.6828L84.0926 43.8162C83.0542 44.6512 82.6095 46.0211 82.959 47.3058L85.5274 56.7533L77.3357 51.3907C76.7786 51.0262 76.1401 50.8439 75.5016 50.8439C74.8631 50.8439 74.224 51.0265 73.6666 51.391L65.4754 56.7533L68.0439 47.3064C68.3937 46.0208 67.9486 44.6506 66.9099 43.8162L59.2788 37.6831L69.0584 37.2059ZM73.1425 11.0177V2.35938C73.1425 1.05641 74.1989 0 75.5019 0C76.8048 0 77.8612 1.05641 77.8612 2.35938V11.0177C77.8612 12.3207 76.8048 13.3771 75.5019 13.3771C74.1989 13.3771 73.1425 12.3207 73.1425 11.0177ZM87.5108 24.9964C86.639 24.0282 86.7171 22.5362 87.6854 21.6644L97.3337 12.9766C98.3023 12.1045 99.794 12.1826 100.666 13.1512C101.538 14.1194 101.46 15.6114 100.491 16.4832L90.8428 25.171C90.3919 25.5771 89.8274 25.7771 89.2647 25.7771C88.6197 25.7771 87.9768 25.514 87.5108 24.9964V24.9964ZM50.3377 13.1512C51.2094 12.1826 52.7012 12.1045 53.67 12.9766L63.3186 21.6644C64.2869 22.5362 64.365 24.0282 63.4932 24.9964C63.0273 25.5137 62.3843 25.7771 61.739 25.7771C61.1766 25.7771 60.6121 25.5771 60.1609 25.171L50.5122 16.4832C49.5437 15.6114 49.4659 14.1194 50.3377 13.1512ZM105.771 39.1016L115.514 46.9324L112.234 58.9944C111.866 60.3487 112.362 61.7572 113.498 62.5836C114.634 63.4082 116.126 63.4442 117.302 62.6759L127.76 55.8299L138.218 62.6762C138.782 63.0452 139.419 63.2286 140.055 63.2286C140.744 63.2286 141.431 63.013 142.021 62.5836C143.158 61.7587 143.654 60.3499 143.285 58.9944L140.006 46.9327L149.748 39.1022C150.843 38.2231 151.27 36.7918 150.836 35.4558C150.402 34.1198 149.215 33.2129 147.813 33.1451L135.328 32.5364L130.892 20.851C130.394 19.5383 129.164 18.6898 127.76 18.6898C126.356 18.6898 125.126 19.538 124.628 20.8507L120.191 32.5364L107.707 33.1448C106.304 33.2126 105.117 34.1198 104.683 35.4558C104.249 36.7915 104.676 38.2228 105.771 39.1016V39.1016ZM121.316 37.2059C122.647 37.141 123.812 36.2943 124.285 35.0488L127.76 25.8959L131.234 35.0485C131.707 36.2943 132.873 37.141 134.203 37.2056L143.982 37.6825L136.351 43.8154C135.312 44.65 134.867 46.0202 135.217 47.3055L137.785 56.753L129.593 51.3904C129.036 51.0259 128.398 50.8436 127.759 50.8436C127.12 50.8436 126.481 51.0262 125.924 51.3907L117.733 56.753L120.302 47.3061C120.651 46.0211 120.206 44.6512 119.168 43.816L111.537 37.6825L121.316 37.2059ZM1.25528 39.1016L10.998 46.9324L7.71878 58.9944C7.35072 60.3487 7.84648 61.7572 8.98282 62.5836C10.1194 63.4082 11.6115 63.4445 12.7861 62.6759L23.2444 55.8299L33.7029 62.6762C34.2668 63.0452 34.9035 63.2286 35.5391 63.2286C36.228 63.2286 36.9155 63.013 37.5056 62.5836C38.6419 61.7587 39.138 60.3499 38.7696 58.9944L35.4904 46.9327L45.2326 39.1022C46.3267 38.2236 46.7541 36.7927 46.3202 35.4543C45.8855 34.1192 44.6987 33.2126 43.2976 33.1448L30.8126 32.5361L26.3761 20.851C25.878 19.5383 24.6485 18.6898 23.2444 18.6898C21.8399 18.6898 20.6104 19.538 20.1123 20.8507L15.6758 32.5364L3.19173 33.1448C1.78879 33.2126 0.602023 34.1198 0.168488 35.4543C-0.266521 36.7906 0.16023 38.2225 1.25528 39.1016V39.1016ZM16.8 37.2059C18.131 37.141 19.2965 36.2943 19.769 35.0488L23.2441 25.8959L26.7188 35.0485C27.1916 36.2943 28.3571 37.141 29.6875 37.2056L39.4662 37.6825L31.8357 43.8154C30.7967 44.65 30.3514 46.0202 30.7012 47.3055L33.2696 56.753L25.0779 51.3904C24.5205 51.0259 23.882 50.8436 23.2435 50.8436C22.6047 50.8436 21.9659 51.0262 21.4088 51.3907L13.2176 56.753L15.7861 47.3061C16.1356 46.0211 15.6908 44.6512 14.6521 43.816L7.021 37.6825L16.8 37.2059ZM150.631 125.322C148.97 119.961 145.57 115.147 141.056 111.767C138.895 110.149 136.541 108.888 134.059 107.996C137.501 105.294 139.718 101.1 139.718 96.3955C139.718 88.2657 133.104 81.6518 124.975 81.6518C116.845 81.6518 110.231 88.2657 110.231 96.3955C110.231 101.095 112.443 105.284 115.878 107.986C111.274 109.63 107.196 112.517 104.072 116.407C102.612 114.365 100.928 112.468 99.0351 110.756C95.2206 107.306 90.744 104.773 85.9229 103.276C91.0354 99.8865 94.4152 94.0833 94.4152 87.5033C94.4152 77.0749 85.9306 68.5906 75.5022 68.5906C65.0737 68.5906 56.5891 77.0749 56.5891 87.5033C56.5891 94.0833 59.9686 99.8865 65.0811 103.276C60.2597 104.773 55.7831 107.306 51.9686 110.756C50.0755 112.468 48.3915 114.365 46.9319 116.407C43.8087 112.516 39.7299 109.629 35.1256 107.985C38.5605 105.284 40.7733 101.094 40.7733 96.3946C40.7733 88.2648 34.1591 81.6509 26.0296 81.6509C17.8998 81.6509 11.2856 88.2648 11.2856 96.3946C11.2856 101.099 13.5034 105.293 16.9451 107.995C14.4625 108.887 12.109 110.148 9.94751 111.766C5.43314 115.146 2.03298 119.96 0.372869 125.321C-0.394223 127.797 0.0307598 130.31 1.56937 132.398C3.10768 134.484 5.38271 135.633 7.97507 135.633H40.5914V139.891C40.5914 146.017 45.5747 151 51.7002 151H99.3035C105.429 151 110.412 146.017 110.413 139.891V135.635H143.029C145.621 135.635 147.896 134.485 149.434 132.399C150.973 130.311 151.398 127.798 150.631 125.322V125.322ZM124.975 86.3705C130.502 86.3705 135 90.8678 135 96.3955C135 101.924 130.502 106.421 124.975 106.421C119.447 106.421 114.949 101.924 114.949 96.3955C114.949 90.8678 119.447 86.3705 124.975 86.3705ZM61.3079 87.5033C61.3079 79.6767 67.6755 73.3093 75.5022 73.3093C83.3288 73.3093 89.6964 79.6767 89.6964 87.5033C89.6964 95.3276 83.3329 101.693 75.5098 101.697C75.5072 101.697 75.5042 101.697 75.5019 101.697C75.4995 101.697 75.4968 101.697 75.4942 101.697C67.6711 101.693 61.3079 95.3273 61.3079 87.5033V87.5033ZM26.0296 86.3693C31.5573 86.3693 36.0546 90.8666 36.0546 96.3943C36.0546 101.922 31.5573 106.42 26.0296 106.42C20.5016 106.42 16.0043 101.922 16.0043 96.3943C16.0043 90.8666 20.5016 86.3693 26.0296 86.3693ZM40.8978 130.914H7.97537C6.88946 130.914 6.01237 130.471 5.36796 129.597C4.72326 128.723 4.55958 127.754 4.88075 126.717C7.76627 117.399 16.2656 111.138 26.0296 111.138C33.4153 111.138 40.1434 114.707 44.2814 120.748C42.6455 123.926 41.4997 127.351 40.8978 130.914V130.914ZM105.694 139.891C105.694 143.415 102.827 146.281 99.3035 146.281H51.7002C48.1768 146.281 45.3101 143.415 45.3101 139.891V133.402C47.0183 118.011 59.9725 106.42 75.4942 106.416C75.4968 106.416 75.4995 106.416 75.5022 106.416C75.5048 106.416 75.5075 106.416 75.5098 106.416C91.0313 106.42 103.985 118.011 105.694 133.402V139.891ZM145.636 129.599C144.992 130.473 144.115 130.916 143.029 130.916H110.107C109.504 127.352 108.359 123.927 106.723 120.748C110.861 114.708 117.589 111.14 124.974 111.14C134.738 111.14 143.238 117.4 146.123 126.718C146.444 127.755 146.28 128.724 145.636 129.599V129.599Z" fill="black"/>
</svg>
