<svg width="170" height="170" viewBox="0 0 170 170" fill="none" xmlns="http://www.w3.org/2000/svg">
<path d="M130.156 2.65625H18.5938C17.8893 2.65625 17.2136 2.9361 16.7155 3.43425C16.2174 3.93239 15.9375 4.60802 15.9375 5.3125V148.75C15.9375 149.454 16.2174 150.13 16.7155 150.628C17.2136 151.126 17.8893 151.406 18.5938 151.406H94.6236C97.1893 155.853 100.792 159.614 105.125 162.368C109.457 165.122 114.391 166.788 119.507 167.224C124.622 167.66 129.767 166.854 134.503 164.872C139.24 162.891 143.427 159.794 146.708 155.846C149.99 151.897 152.268 147.214 153.349 142.195C154.43 137.177 154.282 131.971 152.917 127.022C151.552 122.072 149.011 117.526 145.511 113.771C142.01 110.015 137.654 107.162 132.813 105.453V5.3125C132.813 4.60802 132.533 3.93239 132.035 3.43425C131.536 2.9361 130.861 2.65625 130.156 2.65625ZM21.25 146.094V7.96875H127.5V104.075C122.027 103.128 116.401 103.633 111.184 105.539C105.967 107.445 101.341 110.685 97.7662 114.936C94.1918 119.188 91.7943 124.302 90.8127 129.769C89.8311 135.236 90.2998 140.864 92.1719 146.094H21.25ZM148.75 135.469C148.75 140.722 147.192 145.858 144.273 150.226C141.355 154.594 137.206 157.999 132.353 160.009C127.499 162.02 122.158 162.546 117.005 161.521C111.853 160.496 107.12 157.966 103.405 154.251C99.6902 150.536 97.1603 145.803 96.1354 140.651C95.1105 135.498 95.6365 130.157 97.647 125.304C99.6574 120.45 103.062 116.302 107.43 113.383C111.798 110.464 116.934 108.906 122.188 108.906C129.23 108.914 135.982 111.715 140.961 116.695C145.941 121.675 148.742 128.426 148.75 135.469Z" fill="black"/>
<path d="M110.784 128.278C110.286 127.78 109.61 127.5 108.906 127.5C108.201 127.5 107.526 127.78 107.028 128.278L99.059 136.247C98.561 136.745 98.2812 137.421 98.2812 138.125C98.2812 138.829 98.561 139.505 99.059 140.003L114.996 155.94C115.495 156.438 116.17 156.718 116.874 156.718C117.579 156.718 118.254 156.438 118.752 155.94L145.315 129.378C145.813 128.88 146.093 128.204 146.093 127.5C146.093 126.796 145.813 126.12 145.315 125.622L137.346 117.653C136.848 117.155 136.173 116.875 135.468 116.875C134.764 116.875 134.088 117.155 133.59 117.653L116.874 134.369L110.784 128.278ZM135.468 123.287L139.681 127.5L116.874 150.306L104.693 138.125L108.906 133.912L114.996 140.003C115.495 140.501 116.17 140.781 116.874 140.781C117.579 140.781 118.254 140.501 118.752 140.003L135.468 123.287Z" fill="black"/>
<path d="M73.3284 66.191C73.6592 66.3328 74.0152 66.4059 74.375 66.4059C74.7348 66.4059 75.0909 66.3328 75.4216 66.191C81.4207 63.625 86.5337 59.353 90.1256 53.9058C93.7174 48.4585 95.6297 42.076 95.625 35.5512V23.9062C95.625 23.2017 95.3452 22.5261 94.847 22.0279C94.3489 21.5298 93.6732 21.2499 92.9688 21.2499C89.9481 21.2583 86.9557 20.6674 84.1649 19.5116C81.374 18.3558 78.8401 16.6579 76.7099 14.5163L76.253 14.0595C75.7549 13.5615 75.0793 13.2817 74.375 13.2817C73.6707 13.2817 72.9952 13.5615 72.497 14.0595L72.0402 14.5163C69.9099 16.6579 67.376 18.3558 64.5851 19.5116C61.7943 20.6674 58.802 21.2583 55.7813 21.2499C55.0768 21.2499 54.4011 21.5298 53.903 22.0279C53.4049 22.5261 53.125 23.2017 53.125 23.9062V35.5512C53.1203 42.076 55.0326 48.4585 58.6244 53.9058C62.2163 59.353 67.3293 63.625 73.3284 66.191ZM58.4375 26.4402C64.3387 25.9012 69.9177 23.5077 74.375 19.603C78.8323 23.5077 84.4113 25.9012 90.3125 26.4402V35.5512C90.3154 40.8397 88.8199 46.0209 85.9993 50.4945C83.1786 54.968 79.1482 58.5509 74.375 60.828C69.601 58.5505 65.5701 54.9668 62.7493 50.4922C59.9286 46.0176 58.4336 40.8353 58.4375 35.5459V26.4402Z" fill="black"/>
<path d="M34.5312 92.9688H114.219C114.923 92.9688 115.599 92.6889 116.097 92.1908C116.595 91.6926 116.875 91.017 116.875 90.3125V74.375C116.875 73.6705 116.595 72.9949 116.097 72.4967C115.599 71.9986 114.923 71.7188 114.219 71.7188H34.5312C33.8268 71.7188 33.1511 71.9986 32.653 72.4967C32.1549 72.9949 31.875 73.6705 31.875 74.375V90.3125C31.875 91.017 32.1549 91.6926 32.653 92.1908C33.1511 92.6889 33.8268 92.9688 34.5312 92.9688ZM37.1875 77.0312H111.562V87.6562H37.1875V77.0312Z" fill="black"/>
<path d="M66.4062 119.531H29.2188C28.5143 119.531 27.8386 119.811 27.3405 120.309C26.8424 120.807 26.5625 121.483 26.5625 122.188V138.125C26.5625 138.829 26.8424 139.505 27.3405 140.003C27.8386 140.501 28.5143 140.781 29.2188 140.781H66.4062C67.1107 140.781 67.7864 140.501 68.2845 140.003C68.7826 139.505 69.0625 138.829 69.0625 138.125V122.188C69.0625 121.483 68.7826 120.807 68.2845 120.309C67.7864 119.811 67.1107 119.531 66.4062 119.531ZM63.75 135.469H31.875V124.844H63.75V135.469Z" fill="black"/>
<path d="M85 98.2812H26.5625V103.594H85V98.2812Z" fill="black"/>
<path d="M95.625 108.906H26.5625V114.219H95.625V108.906Z" fill="black"/>
</svg>
