<svg width="138" height="138" viewBox="0 0 138 138" fill="none" xmlns="http://www.w3.org/2000/svg">
<path d="M116.438 28.0312C112.871 28.0312 109.969 30.9336 109.969 34.5C109.969 38.0664 112.871 40.9688 116.438 40.9688C120.004 40.9688 122.906 38.0664 122.906 34.5C122.906 30.9336 120.004 28.0312 116.438 28.0312ZM116.438 36.6562C115.247 36.6562 114.281 35.6902 114.281 34.5C114.281 33.3098 115.247 32.3438 116.438 32.3438C117.628 32.3438 118.594 33.3098 118.594 34.5C118.594 35.6902 117.628 36.6562 116.438 36.6562Z" fill="black"/>
<path d="M135.844 38.2282V32.3416C135.844 30.7783 135.844 30.7762 130.524 29.0188L130.259 28.4453L132.769 23.3932L127.542 18.1686L122.432 20.6418L121.929 20.4434L120.166 15.0938H112.707L110.963 20.4089L110.381 20.6784L105.333 18.1686L100.106 23.3953L102.579 28.5056L102.381 29.008L97.0312 30.7718V38.2303L102.346 39.9747L102.616 40.5569L100.106 45.609L105.333 50.8358L110.443 48.3625L110.946 48.5609L112.724 53.9062H120.166L121.91 48.5911L122.492 48.3216L127.544 50.8314L132.771 45.6047L130.298 40.4944L130.496 39.992L135.844 38.2282ZM129.146 35.8929C127.932 36.294 126.954 37.2363 126.442 38.5343L126.337 38.7866C125.815 39.9984 125.837 41.3418 126.397 42.4738L127.525 44.7465L126.682 45.5896L124.407 44.4619C123.277 43.8969 121.934 43.8754 120.724 44.4015L120.418 44.5287C119.172 45.0203 118.227 45.9971 117.828 47.2111L117.046 49.5938H115.829L115.045 47.2089C114.644 45.995 113.701 45.016 112.403 44.505L112.151 44.3993C110.941 43.8797 109.596 43.8969 108.464 44.4597L106.191 45.5874L105.348 44.7443L106.476 42.4695C107.038 41.3396 107.06 39.9963 106.536 38.7866L106.409 38.4804C105.917 37.2341 104.94 36.2897 103.726 35.8908L101.344 35.1081V33.8919L103.729 33.1071C104.943 32.706 105.921 31.7637 106.433 30.4657L106.538 30.2134C107.06 29.0016 107.038 27.6582 106.478 26.5262L105.35 24.2535L106.193 23.4104L108.468 24.5381C109.6 25.1031 110.941 25.1246 112.151 24.5985L112.457 24.4713C113.703 23.9797 114.648 23.0029 115.047 21.7889L115.829 19.4062H117.046L117.83 21.7911C118.231 23.005 119.174 23.984 120.472 24.495L120.724 24.6007C121.932 25.1203 123.279 25.1031 124.411 24.5403L126.684 23.4126L127.527 24.2557L126.399 26.5305C125.837 27.6604 125.815 29.0037 126.339 30.2134L126.466 30.5196C126.958 31.7637 127.932 32.7082 129.146 33.1071C129.146 33.1071 130.449 33.5383 131.533 33.8984V35.1102L129.146 35.8929Z" fill="black"/>
<path d="M58.2188 10.7812H62.5312V15.0938H58.2188V10.7812Z" fill="black"/>
<path d="M66.8438 10.7812H71.1562V15.0938H66.8438V10.7812Z" fill="black"/>
<path d="M75.4688 10.7812H79.7812V15.0938H75.4688V10.7812Z" fill="black"/>
<path d="M53.9062 23.7188H58.2188V27.5224C58.2188 30.181 60.3815 32.3438 63.0401 32.3438C64.8773 32.3438 66.5268 31.3217 67.3526 29.6786L70.3326 23.7188H84.0938C86.4721 23.7188 88.4062 21.7846 88.4062 19.4062V6.46875C88.4062 4.09041 86.4721 2.15625 84.0938 2.15625H53.9062C51.5279 2.15625 49.5938 4.09041 49.5938 6.46875V19.4062C49.5938 21.7846 51.5279 23.7188 53.9062 23.7188ZM53.9062 6.46875H84.0938L84.0981 19.4062H67.6674L63.4972 27.7466C63.2838 28.1736 62.5312 27.9946 62.5312 27.5224V19.4062H53.9062V6.46875Z" fill="black"/>
<path d="M10.7812 47.4371C10.7812 51.0035 13.6836 53.9058 17.25 53.9058C20.8164 53.9058 23.7188 51.0035 23.7188 47.4371V43.392L23.8524 42.8615C24.6589 39.6271 26.3343 36.4747 28.9757 33.2231C31.6969 29.8723 32.8268 25.6503 32.1626 21.3357C31.1557 14.8087 25.6508 9.50865 19.072 8.73024C14.7725 8.22784 10.4492 9.57334 7.22991 12.4368C4.00416 15.3025 2.15625 19.4145 2.15625 23.7183C2.15625 27.1877 3.36591 30.5774 5.55666 33.2597C8.08594 36.3561 9.83681 39.7846 10.7812 43.4437V47.4371ZM15.0938 28.0308C15.0938 26.8406 16.0598 25.8746 17.25 25.8746C18.4402 25.8746 19.4062 26.8406 19.4062 28.0308C19.4062 29.2211 18.4402 30.1871 17.25 30.1871C16.0598 30.1871 15.0938 29.2211 15.0938 28.0308ZM17.25 49.5933C16.0598 49.5933 15.0938 48.6273 15.0938 47.4371V45.2808H19.4062V47.4371C19.4062 48.6273 18.4402 49.5933 17.25 49.5933ZM6.46875 23.7183C6.46875 20.6457 7.79053 17.7089 10.0956 15.6604C12.4265 13.5861 15.4323 12.646 18.5653 13.0147C23.2573 13.5689 27.1838 17.3445 27.8997 21.9933C28.3784 25.0897 27.5698 28.1128 25.627 30.5041C22.8023 33.9821 20.9221 37.4127 19.8957 40.9683H19.4062V34.1028C21.9097 33.2101 23.7188 30.8383 23.7188 28.0308C23.7188 24.4644 20.8164 21.5621 17.25 21.5621C13.6836 21.5621 10.7812 24.4644 10.7812 28.0308C10.7812 30.8383 12.5903 33.2101 15.0938 34.1028V40.9683H14.5719C13.4076 37.2272 11.5036 33.7233 8.89669 30.5299C7.32909 28.6152 6.46875 26.1959 6.46875 23.7183V23.7183Z" fill="black"/>
<path d="M62.5312 69C63.7221 69 64.6875 68.0346 64.6875 66.8438C64.6875 65.6529 63.7221 64.6875 62.5312 64.6875C61.3404 64.6875 60.375 65.6529 60.375 66.8438C60.375 68.0346 61.3404 69 62.5312 69Z" fill="black"/>
<path d="M75.4688 69C76.6596 69 77.625 68.0346 77.625 66.8438C77.625 65.6529 76.6596 64.6875 75.4688 64.6875C74.2779 64.6875 73.3125 65.6529 73.3125 66.8438C73.3125 68.0346 74.2779 69 75.4688 69Z" fill="black"/>
<path d="M77.1719 74.7313L77.3983 74.2763L73.5408 72.3465L73.3144 72.8036C72.4929 74.4467 70.8412 75.4688 69.0019 75.4688C67.1626 75.4688 65.5109 74.4467 64.6894 72.8036L64.463 72.3487L60.6055 74.2785L60.8319 74.7335C62.3887 77.8471 65.5196 79.7813 69.0019 79.7813C72.4842 79.7813 75.6151 77.8471 77.1719 74.7313V74.7313Z" fill="black"/>
<path d="M125.062 58.2188H114.13C107.079 58.2188 101.344 63.9544 101.344 71.0053C101.344 79.212 98.4307 87.0586 93.1673 93.3052C91.6385 92.7317 90.0536 92.3155 88.4429 92.0848L79.3672 90.7889L78.1123 85.7756C81.8103 83.462 84.5617 79.7963 85.6829 75.4688H86.25C91.0067 75.4688 94.875 71.6004 94.875 66.8438C94.875 63.6654 93.1284 60.9141 90.5625 59.4176V56.0625C90.5625 45.361 81.8577 36.6562 71.1562 36.6562H66.8438C56.1423 36.6562 47.4375 45.361 47.4375 56.0625V59.4176C44.8716 60.9141 43.125 63.6654 43.125 66.8438C43.125 71.6004 46.9933 75.4688 51.75 75.4688H52.3171C53.4362 79.7963 56.1897 83.4641 59.8877 85.7756L58.6327 90.7889L49.5571 92.0848C47.9464 92.3155 46.3594 92.7317 44.8327 93.3052C39.5693 87.0586 36.6562 79.2098 36.6562 71.0053C36.6562 63.9544 30.9206 58.2188 23.8697 58.2188H12.9375C9.37106 58.2188 6.46875 61.1211 6.46875 64.6875C6.46875 68.2432 9.01528 71.249 12.5257 71.8355L19.4062 72.9826V76.5792C19.4062 88.0785 23.6476 98.9956 31.3088 107.517C30.5993 109.721 30.1875 112.037 30.1875 114.419V135.844H107.812V114.419C107.812 112.034 107.401 109.721 106.691 107.515C114.352 98.9956 118.594 88.0763 118.594 76.5792V72.9826L125.477 71.8376C128.985 71.249 131.531 68.2432 131.531 64.6875C131.531 61.1211 128.629 58.2188 125.062 58.2188V58.2188ZM83.214 95.6944L78.9403 102.637L72.8575 98.9891L78.2029 94.9807L83.214 95.6944ZM69 118.792L67.0055 115.551L69 107.821L70.9945 115.551L69 118.792ZM61.3194 106.31L65.5974 103.744L63.8681 110.447L61.3194 106.31ZM74.134 110.45L72.4047 103.746L76.6827 106.312L74.134 110.45ZM86.25 71.1562V62.5312C88.6283 62.5312 90.5625 64.4654 90.5625 66.8438C90.5625 69.2221 88.6283 71.1562 86.25 71.1562ZM51.75 56.0625C51.75 47.7415 58.5228 40.9688 66.8438 40.9688H71.1562C79.4772 40.9688 86.25 47.7415 86.25 56.0625V58.2188H84.0938C80.7667 58.2188 77.6767 56.5649 75.831 53.7963L73.3125 50.0185L71.5185 52.7095C69.2199 56.1595 65.371 58.2188 61.2267 58.2188H53.9062H51.75V56.0625ZM47.4375 66.8438C47.4375 64.4654 49.3717 62.5312 51.75 62.5312V71.1562C49.3717 71.1562 47.4375 69.2221 47.4375 66.8438ZM56.0625 71.1562V62.5312H61.2267C65.7915 62.5312 70.0911 60.679 73.2025 57.4662C75.4299 60.1141 78.5328 61.8477 81.9397 62.3674V71.1562C81.9397 78.2913 76.1372 84.0938 69.0022 84.0938C61.8671 84.0938 56.0625 78.2913 56.0625 71.1562V71.1562ZM69 88.4062C70.7854 88.4062 72.5104 88.1324 74.1297 87.6278L75.1841 91.8541L69 96.4922L62.8137 91.8519L63.8681 87.6257C65.4896 88.1324 67.2146 88.4062 69 88.4062V88.4062ZM59.7971 94.9785L65.1425 98.987L59.0597 102.637L54.7882 95.6965L59.7971 94.9785ZM13.2351 67.5833C11.8141 67.344 10.7812 66.1279 10.7812 64.6875C10.7812 63.4973 11.7473 62.5312 12.9375 62.5312H23.8697C28.5423 62.5312 32.3438 66.3327 32.3438 71.0053C32.3438 72.6009 32.4753 74.1793 32.6672 75.7447L23.7489 77.2304C23.7468 77.0126 23.7188 76.797 23.7188 76.5792V72.9826C23.7188 70.8695 22.2051 69.0798 20.1135 68.7283L13.2351 67.5833ZM24.0443 81.5537L33.4305 79.9904C34.7458 85.5492 37.2622 90.7609 40.8674 95.2761C40.6582 95.4054 40.4383 95.5133 40.2335 95.6491C37.2967 97.607 34.9399 100.197 33.2321 103.155C28.1455 96.9472 24.9823 89.4887 24.0443 81.5537V81.5537ZM34.5 114.419C34.5 108.302 37.5382 102.627 42.6269 99.2349C44.8694 97.7407 47.4655 96.7488 50.135 96.3607L66.8438 123.516V131.531H47.4375V112.125H43.125V131.531H34.5V114.419ZM103.5 131.531H94.875V112.125H90.5625V131.531H71.1562V123.516L87.8672 96.3628C90.5345 96.7509 93.1306 97.7407 95.3752 99.2371C100.462 102.629 103.5 108.304 103.5 114.419V131.531ZM97.7665 95.6469C97.5638 95.5111 97.3418 95.4033 97.1326 95.2739C100.736 90.7587 103.254 85.5471 104.569 79.9883L113.956 81.5515C113.018 89.4865 109.854 96.945 104.77 103.153C103.06 100.197 100.703 97.6048 97.7665 95.6469V95.6469ZM124.767 67.5833L117.882 68.7283C115.795 69.0798 114.281 70.8673 114.281 72.9826V76.5792C114.281 76.7992 114.253 77.0126 114.251 77.2326L105.333 75.7469C105.525 74.1793 105.656 72.6009 105.656 71.0053C105.656 66.3327 109.458 62.5312 114.13 62.5312H125.062C126.253 62.5312 127.219 63.4973 127.219 64.6875C127.219 66.1279 126.186 67.344 124.767 67.5833V67.5833Z" fill="black"/>
</svg>
