<svg width="132" height="131" viewBox="0 0 132 131" fill="none" xmlns="http://www.w3.org/2000/svg">
<path d="M65.4256 1.90716e-09C63.0774 1.90716e-09 60.7309 0.126236 58.3961 0.377887C56.2561 0.596477 54.1423 0.954964 52.057 1.38996C51.6534 1.47439 51.2495 1.56346 50.846 1.65664C38.5593 4.45404 27.3402 10.736 18.534 19.7493C17.7152 20.5887 16.9135 21.4529 16.1296 22.3418C-7.65847 49.6513 -4.80369 91.074 22.5061 114.862C48.6516 137.636 88.0073 136.121 112.324 111.404C113.145 110.565 113.946 109.7 114.729 108.811C125.227 96.8563 131.012 81.487 131.003 65.5766C131.003 29.3593 101.643 -0.000273235 65.4256 1.90716e-09ZM21.4478 23.0282C21.7932 22.6697 22.1517 22.3265 22.5036 21.9789C22.9102 21.5789 23.3146 21.1767 23.7299 20.7898C24.095 20.4488 24.4709 20.1209 24.8447 19.7887C25.2666 19.4149 25.6863 19.0411 26.1191 18.6804C26.4995 18.3591 26.8907 18.0509 27.2798 17.7405C27.717 17.3907 28.1542 17.041 28.6045 16.7044C29.0023 16.4049 29.4067 16.1142 29.8133 15.83C30.2658 15.5065 30.7204 15.1742 31.1816 14.8726C31.5948 14.5928 32.0123 14.3217 32.432 14.0529C32.8998 13.7534 33.3697 13.4583 33.8441 13.1785C34.2711 12.9236 34.7009 12.6727 35.1337 12.4266C35.6176 12.1511 36.1035 11.8823 36.5917 11.62C37.0289 11.3869 37.4661 11.1587 37.9033 10.9358C38.4017 10.6844 38.9044 10.4418 39.4094 10.2035C39.8465 9.99583 40.3012 9.78817 40.7515 9.59144C41.2652 9.37285 41.7854 9.15426 42.3057 8.93567C42.7582 8.74987 43.2085 8.56844 43.6653 8.39357C44.1943 8.19247 44.7298 8.00448 45.2654 7.81649C45.7222 7.65692 46.1791 7.49735 46.6425 7.34653C47.1868 7.17166 47.7354 7.0099 48.2863 6.85033C48.7475 6.71699 49.2044 6.57928 49.6678 6.45468C49.8448 6.40878 50.0219 6.37162 50.1989 6.32571C43.7287 12.6083 38.9271 20.4053 36.2289 29.011C31.0407 27.6426 26.018 25.7097 21.2511 23.2467C21.3232 23.1702 21.3845 23.0937 21.4478 23.0282ZM18.3045 26.5474C23.5553 29.3924 29.1234 31.6083 34.8933 33.1489C32.0647 42.9843 30.58 53.1572 30.48 63.3907H4.27107C4.74732 49.8958 9.68225 36.9395 18.3045 26.5474ZM18.3045 104.606C9.6828 94.2135 4.74786 81.2572 4.27107 67.7625H30.48C30.58 77.9961 32.0645 88.169 34.8933 98.0044C29.1236 99.5455 23.5556 101.761 18.3045 104.606ZM49.6547 124.707C49.2131 124.596 48.7563 124.452 48.3016 124.318C47.7486 124.156 47.1933 123.995 46.6469 123.818C46.1856 123.669 45.731 123.509 45.2763 123.35C44.7386 123.164 44.2008 122.974 43.6697 122.771C43.215 122.598 42.7669 122.417 42.3166 122.233C41.7942 122.014 41.2717 121.796 40.7537 121.577C40.3078 121.38 39.864 121.178 39.4225 120.969C38.9132 120.729 38.406 120.484 37.8923 120.231C37.4552 120.012 37.018 119.793 36.5808 119.555C36.0868 119.291 35.5972 119.02 35.1075 118.74C34.6703 118.497 34.255 118.248 33.8331 117.994C33.3522 117.706 32.8801 117.409 32.4079 117.105C31.9926 116.84 31.5773 116.571 31.1685 116.296C30.7029 115.981 30.2417 115.653 29.7849 115.325C29.3848 115.039 28.9848 114.753 28.5914 114.451C28.1389 114.11 27.6951 113.758 27.2536 113.404C26.8667 113.096 26.482 112.79 26.1038 112.473C25.6666 112.11 25.2447 111.732 24.8207 111.356C24.4491 111.026 24.0753 110.7 23.7124 110.363C23.2949 109.974 22.8905 109.57 22.484 109.17C22.132 108.822 21.7735 108.479 21.4282 108.123C21.3648 108.055 21.3036 107.985 21.2402 107.92C26.0068 105.456 31.0295 103.522 36.218 102.153C38.9167 110.759 43.718 118.555 50.188 124.838C50.011 124.793 49.8317 124.755 49.6547 124.707ZM63.24 126.609C53.8866 125.28 45.6873 115.518 40.5285 101.102C47.9868 99.4318 55.5978 98.5359 63.24 98.4285V126.609ZM63.24 94.0567C55.1331 94.1633 47.0603 95.1261 39.1558 96.929C36.4111 87.4457 34.9632 77.6343 34.8518 67.7625H63.24V94.0567ZM63.24 63.3907H34.8518C34.963 53.519 36.4109 43.7076 39.1558 34.2243C47.0603 36.0269 55.1333 36.9898 63.24 37.0966V63.3907ZM63.24 32.7248C55.5976 32.6182 47.9868 31.7223 40.5285 30.0514C45.6873 15.6354 53.8866 5.87323 63.24 4.54421V32.7248ZM112.547 26.5474C121.169 36.9397 126.104 49.8961 126.581 63.3907H100.372C100.272 53.1572 98.7874 42.9843 95.9585 33.1489C101.728 31.6075 107.296 29.3918 112.547 26.5474ZM81.1797 6.44375C81.6387 6.55742 82.0956 6.70169 82.5502 6.83503C83.1033 6.99678 83.6585 7.15854 84.205 7.3356C84.6662 7.48424 85.1208 7.64381 85.5755 7.80338C86.1132 7.98918 86.651 8.17935 87.1822 8.38264C87.6368 8.55533 88.0849 8.73676 88.5352 8.92037C89.0576 9.13896 89.5801 9.35755 90.0981 9.57614C90.5441 9.77287 90.9878 9.97534 91.4293 10.1838C91.9387 10.4243 92.4458 10.6691 92.9595 10.9227C93.3967 11.1412 93.8338 11.3598 94.271 11.5981C94.765 11.8626 95.2547 12.1336 95.7443 12.4134C96.1815 12.6561 96.5968 12.9053 97.0187 13.1588C97.4996 13.4474 97.9717 13.7446 98.4439 14.0485C98.8592 14.313 99.2745 14.5818 99.6833 14.8573C100.149 15.172 100.608 15.4977 101.065 15.8256C101.467 16.112 101.867 16.4005 102.263 16.7C102.713 17.0388 103.154 17.3907 103.598 17.7448C103.983 18.0509 104.37 18.3569 104.748 18.676C105.185 19.0389 105.607 19.417 106.031 19.793C106.403 20.1231 106.777 20.4488 107.139 20.7854C107.557 21.1745 107.961 21.5789 108.368 21.9789C108.72 22.3265 109.078 22.6697 109.424 23.026C109.487 23.0937 109.548 23.1637 109.612 23.2293C104.845 25.6933 99.8224 27.627 94.6339 28.9957C91.9299 20.3892 87.1223 12.593 80.6463 6.3126C80.8234 6.3585 81.0026 6.39566 81.1797 6.44375ZM67.6118 4.54421C76.9653 5.87323 85.1646 15.6354 90.3233 30.0514C82.865 31.7215 75.254 32.6174 67.6118 32.7248V4.54421ZM67.6118 37.0966C75.7188 36.99 83.7915 36.0271 91.696 34.2243C94.4407 43.7076 95.8886 53.519 96.0001 63.3907H67.6118V37.0966ZM67.6118 67.7625H96.0001C95.8888 77.6343 94.441 87.4457 91.696 96.929C83.7915 95.1264 75.7188 94.1635 67.6118 94.0567V67.7625ZM67.6118 126.609V98.4285C75.2543 98.535 82.865 99.431 90.3233 101.102C85.1646 115.518 76.9653 125.28 67.6118 126.609ZM109.404 108.125C109.059 108.481 108.702 108.825 108.35 109.172C107.944 109.572 107.537 109.977 107.12 110.366C106.757 110.704 106.383 111.021 106.011 111.36C105.587 111.736 105.166 112.112 104.733 112.475C104.35 112.794 103.961 113.102 103.572 113.413C103.135 113.763 102.698 114.112 102.247 114.449C101.85 114.748 101.445 115.039 101.039 115.323C100.586 115.647 100.131 115.979 99.6702 116.281C99.257 116.561 98.8395 116.832 98.4198 117.098C97.9521 117.4 97.4807 117.691 97.0056 117.973C96.5684 118.228 96.1509 118.478 95.7203 118.725C95.2364 119 94.7497 119.269 94.2601 119.531C93.8229 119.764 93.3857 119.992 92.9485 120.215C92.4502 120.467 91.9474 120.709 91.4425 120.948C91.0053 121.155 90.5506 121.363 90.1003 121.56C89.5866 121.778 89.0664 121.997 88.5461 122.215C88.0937 122.399 87.6434 122.583 87.1887 122.755C86.6553 122.959 86.1198 123.149 85.5821 123.335C85.1274 123.494 84.6727 123.654 84.2115 123.802C83.665 123.979 83.1186 124.141 82.5612 124.301C82.1043 124.436 81.6453 124.572 81.184 124.696C81.007 124.742 80.8299 124.779 80.6529 124.825C87.1231 118.543 91.9247 110.746 94.6229 102.14C99.8112 103.509 104.834 105.441 109.601 107.904C109.529 107.983 109.467 108.06 109.404 108.125ZM112.547 104.606C107.297 101.761 101.728 99.5449 95.9585 98.0044C98.7871 88.169 100.272 77.9961 100.372 67.7625H126.581C126.105 81.2572 121.17 94.2138 112.547 104.606Z" fill="#EF0548"/>
</svg>
