<svg width="69" height="50" viewBox="0 0 69 50" fill="none" xmlns="http://www.w3.org/2000/svg">
<path d="M67.5783 8.53159C66.7832 5.53343 64.4526 3.17001 61.497 2.3627C56.0976 0.864258 34.4992 0.864258 34.4992 0.864258C34.4992 0.864258 12.9017 0.864258 7.50225 2.30589C4.60352 3.11234 2.21606 5.53385 1.42094 8.53159C0 14.0076 0 25.3643 0 25.3643C0 25.3643 0 36.7781 1.42094 42.1969C2.2169 45.1947 4.54666 47.5581 7.50267 48.3654C12.9586 49.8643 34.5001 49.8643 34.5001 49.8643C34.5001 49.8643 56.0976 49.8643 61.497 48.4226C64.453 47.6157 66.7832 45.2523 67.5792 42.2546C68.9997 36.7781 68.9997 25.4219 68.9997 25.4219C68.9997 25.4219 69.0566 14.0076 67.5783 8.53159ZM27.6228 35.8559V14.8726L45.5829 25.3643L27.6228 35.8559Z" fill="black"/>
</svg>
