<svg width="50" height="50" viewBox="0 0 50 50" fill="none" xmlns="http://www.w3.org/2000/svg">
<path d="M17.3097 22.1515C17.2413 22.0831 17.1899 21.9976 17.1899 21.8949C17.1899 21.6896 17.3439 21.5357 17.5491 21.5358L41.3258 21.5357C41.5311 21.5357 41.6851 21.6896 41.685 21.8949C41.685 22.1002 41.5311 22.2541 41.3258 22.2541L17.5491 22.2541C17.4636 22.2713 17.3781 22.22 17.3097 22.1515Z" fill="#0E1E36"/>
<path d="M2.22356 22.1517C2.15514 22.0833 2.10381 21.9978 2.10381 21.8951C2.10381 21.6898 2.25775 21.5359 2.46301 21.5359L3.31824 21.5359C3.52355 21.5359 3.67748 21.6899 3.67744 21.8951C3.67744 22.1004 3.5235 22.2544 3.31824 22.2543L2.46301 22.2543C2.3604 22.2544 2.29198 22.2201 2.22356 22.1517Z" fill="#0E1E36"/>
<path d="M4.7888 22.1519C4.72038 22.0835 4.66905 21.998 4.66905 21.8953C4.66905 21.69 4.82299 21.5361 5.02825 21.5361L6.7388 21.5361C6.94411 21.5361 7.09804 21.6901 7.098 21.8953C7.09795 22.1006 6.94406 22.2546 6.7388 22.2545L5.02825 22.2545C4.94273 22.2717 4.85722 22.2203 4.7888 22.1519ZM8.2441 22.1519C8.17568 22.0835 8.12435 21.998 8.12435 21.8953C8.12435 21.69 8.27828 21.5361 8.48354 21.5361L10.1941 21.5361C10.3994 21.5361 10.5533 21.6901 10.5533 21.8953C10.5533 22.1006 10.3994 22.2546 10.1941 22.2545L8.48354 22.2545C8.39808 22.2716 8.31252 22.2203 8.2441 22.1519ZM11.6994 22.1519C11.631 22.0834 11.5797 21.9979 11.5797 21.8953C11.5797 21.69 11.7336 21.536 11.9389 21.5361L13.6494 21.5361C13.8547 21.5361 14.0087 21.69 14.0086 21.8953C14.0086 22.1006 13.8547 22.2545 13.6494 22.2545L11.9389 22.2545C11.8534 22.2716 11.7679 22.2203 11.6994 22.1519Z" fill="#0E1E36"/>
<path d="M15.1552 22.1517C15.0868 22.0833 15.0355 21.9978 15.0355 21.8951C15.0355 21.6898 15.1894 21.5359 15.3946 21.5359L16.2499 21.5359C16.4552 21.5359 16.6091 21.6899 16.6091 21.8951C16.6091 22.1004 16.4551 22.2544 16.2499 22.2543L15.3946 22.2544C15.292 22.2544 15.2236 22.2201 15.1552 22.1517Z" fill="#0E1E36"/>
<path d="M42.3359 20.903C42.8832 21.4504 42.8832 22.3399 42.3359 22.8872C41.7885 23.4346 40.899 23.4346 40.3516 22.8872C39.8043 22.3399 39.8043 21.4504 40.3516 20.903C40.9161 20.3727 41.8056 20.3727 42.3359 20.903Z" fill="white"/>
<path d="M40.3682 22.8702C39.8209 22.3228 39.8209 21.4333 40.3682 20.8859C40.9156 20.3386 41.8051 20.3386 42.3525 20.8859" fill="#4069FF"/>
<path d="M40.1121 23.1264C39.7871 22.8014 39.599 22.3395 39.599 21.8948C39.599 21.4158 39.7871 20.9883 40.1121 20.6633C40.4371 20.3382 40.899 20.1501 41.3437 20.1501C41.8226 20.15 42.2503 20.3382 42.5753 20.6632C42.9003 20.9882 43.0885 21.4501 43.0885 21.8948C43.0885 22.3738 42.9003 22.8013 42.5753 23.1263C42.2503 23.4513 41.7885 23.6395 41.3438 23.6395C40.8819 23.6567 40.4542 23.4685 40.1121 23.1264ZM42.0792 21.1593C41.8911 20.9711 41.6345 20.8514 41.3608 20.8514C41.0871 20.8514 40.8305 20.9711 40.6424 21.1593C40.4542 21.3475 40.3344 21.604 40.3344 21.8777C40.3344 22.1514 40.4542 22.408 40.6424 22.5962C40.8305 22.7843 41.0871 22.9041 41.3608 22.9041C41.6345 22.9041 41.8911 22.7843 42.0792 22.5962C42.2674 22.408 42.3872 22.1514 42.3872 21.8777C42.3701 21.6211 42.2845 21.3646 42.0792 21.1593Z" fill="#0E1E36"/>
<path d="M3.45501 20.9199C4.00237 21.4672 4.00237 22.3567 3.45501 22.9041C2.90765 23.4515 2.01814 23.4515 1.47077 22.9041C0.92341 22.3567 0.923411 21.4672 1.47077 20.9199C2.03528 20.3553 2.90765 20.3725 3.45501 20.9199Z" fill="white"/>
<path d="M1.48835 22.887C0.940988 22.3396 0.940989 21.4501 1.48835 20.9028C2.03571 20.3554 2.92522 20.3554 3.47259 20.9028" fill="#4069FF"/>
<path d="M1.23132 23.1439C0.906316 22.8189 0.718148 22.3571 0.718148 21.9124C0.718148 21.4334 0.906316 21.0058 1.23132 20.6808C1.55633 20.3558 2.01818 20.1676 2.46289 20.1676C2.94188 20.1676 3.36945 20.3558 3.69446 20.6808C4.01947 21.0058 4.20763 21.4676 4.20763 21.9124C4.20763 22.3913 4.01947 22.8189 3.69446 23.1439C3.36945 23.4689 2.9076 23.6571 2.46289 23.6571C2.00109 23.64 1.55633 23.4689 1.23132 23.1439ZM3.19847 21.1768C3.0103 20.9886 2.75371 20.8689 2.48003 20.8689C2.20635 20.8689 1.94976 20.9886 1.76159 21.1768C1.57343 21.3649 1.45368 21.6215 1.45368 21.8952C1.45368 22.1689 1.57343 22.4255 1.76159 22.6137C1.94976 22.8018 2.20635 22.9216 2.48003 22.9216C2.75371 22.9216 3.0103 22.8018 3.19847 22.6136C3.38663 22.4255 3.50638 22.1689 3.50638 21.8952C3.50638 21.6215 3.38663 21.3649 3.19847 21.1768Z" fill="#0E1E36"/>
<path d="M23.504 28.3444C23.4356 28.276 23.3843 28.1905 23.3843 28.0878C23.3843 27.8825 23.5382 27.7286 23.7435 27.7286L47.5202 27.7286C47.7255 27.7286 47.8794 27.8825 47.8794 28.0878C47.8793 28.293 47.7254 28.447 47.5202 28.447L23.7435 28.447C23.658 28.4642 23.5724 28.4128 23.504 28.3444Z" fill="#0E1E36"/>
<path d="M8.41692 28.3444C8.3485 28.2759 8.29717 28.1904 8.29717 28.0878C8.29717 27.8825 8.45111 27.7285 8.65637 27.7286L9.5116 27.7286C9.71691 27.7286 9.87084 27.8825 9.8708 28.0878C9.8708 28.2931 9.71686 28.447 9.5116 28.447L8.65637 28.447C8.55376 28.447 8.48534 28.4128 8.41692 28.3444Z" fill="#0E1E36"/>
<path d="M10.9831 28.3445C10.9147 28.2761 10.8634 28.1906 10.8634 28.088C10.8634 27.8826 11.0173 27.7287 11.2226 27.7288L12.9331 27.7288C13.1384 27.7288 13.2924 27.8827 13.2923 28.088C13.2923 28.2932 13.1384 28.4472 12.9331 28.4472L11.2226 28.4471C11.1371 28.4643 11.0516 28.413 10.9831 28.3445ZM14.4384 28.3445C14.37 28.2761 14.3187 28.1906 14.3187 28.088C14.3187 27.8826 14.4726 27.7287 14.6779 27.7288L16.3884 27.7288C16.5937 27.7288 16.7477 27.8827 16.7476 28.088C16.7476 28.2933 16.5937 28.4472 16.3884 28.4472L14.6779 28.4472C14.5924 28.4642 14.5069 28.413 14.4384 28.3445ZM17.8938 28.3445C17.8254 28.2761 17.774 28.1906 17.774 28.0879C17.774 27.8826 17.928 27.7287 18.1332 27.7287L19.8438 27.7287C20.0491 27.7287 20.203 27.8826 20.203 28.0879C20.203 28.2932 20.049 28.4472 19.8438 28.4471L18.1332 28.4471C18.0477 28.4642 17.9622 28.4129 17.8938 28.3445Z" fill="#0E1E36"/>
<path d="M21.3486 28.3444C21.2801 28.2759 21.2288 28.1904 21.2288 28.0878C21.2288 27.8825 21.3827 27.7285 21.588 27.7286L22.4432 27.7286C22.6485 27.7286 22.8025 27.8825 22.8024 28.0878C22.8024 28.2931 22.6485 28.447 22.4432 28.447L21.588 28.447C21.4854 28.447 21.417 28.4128 21.3486 28.3444Z" fill="#0E1E36"/>
<path d="M48.5292 27.0959C49.0766 27.6432 49.0766 28.5328 48.5292 29.0801C47.9819 29.6275 47.0924 29.6275 46.545 29.0801C45.9976 28.5327 45.9976 27.6432 46.545 27.0959C47.1095 26.5656 47.999 26.5656 48.5292 27.0959Z" fill="white"/>
<path d="M46.5616 29.063C46.0142 28.5157 46.0142 27.6262 46.5616 27.0788C47.109 26.5314 47.9985 26.5314 48.5458 27.0788" fill="#4069FF"/>
<path d="M46.3055 29.3195C45.9805 28.9945 45.7923 28.5326 45.7923 28.0879C45.7923 27.6089 45.9805 27.1814 46.3055 26.8564C46.6305 26.5314 47.0924 26.3432 47.5371 26.3432C48.016 26.3431 48.4437 26.5313 48.7687 26.8563C49.0937 27.1813 49.2819 27.6432 49.2819 28.0879C49.2819 28.5669 49.0937 28.9944 48.7687 29.3195C48.4437 29.6445 47.9818 29.8326 47.5371 29.8326C47.0752 29.8498 46.6476 29.6616 46.3055 29.3195ZM48.2726 27.3524C48.0844 27.1642 47.8278 27.0445 47.5542 27.0445C47.2805 27.0445 47.0239 27.1642 46.8357 27.3524C46.6476 27.5406 46.5278 27.7972 46.5278 28.0708C46.5278 28.3445 46.6476 28.6011 46.8357 28.7893C47.0239 28.9774 47.2805 29.0972 47.5542 29.0972C47.8278 29.0972 48.0844 28.9774 48.2726 28.7893C48.4608 28.6011 48.5805 28.3445 48.5805 28.0708C48.5634 27.8143 48.4779 27.5577 48.2726 27.3524Z" fill="#0E1E36"/>
<path d="M9.64837 27.1127C10.1957 27.6601 10.1957 28.5496 9.64837 29.097C9.10101 29.6443 8.2115 29.6443 7.66413 29.097C7.11677 28.5496 7.11677 27.6601 7.66413 27.1127C8.22863 26.5482 9.10101 26.5654 9.64837 27.1127Z" fill="white"/>
<path d="M7.68171 29.0801C7.13435 28.5328 7.13435 27.6432 7.68171 27.0959C8.22907 26.5485 9.11858 26.5485 9.66595 27.0959" fill="#4069FF"/>
<path d="M7.42468 29.3365C7.09968 29.0115 6.91151 28.5497 6.91151 28.105C6.91151 27.626 7.09968 27.1984 7.42468 26.8734C7.74969 26.5484 8.21154 26.3602 8.65625 26.3602C9.13524 26.3602 9.56281 26.5484 9.88782 26.8734C10.2128 27.1984 10.401 27.6603 10.401 28.105C10.401 28.584 10.2128 29.0115 9.88782 29.3365C9.56281 29.6616 9.10096 29.8497 8.65625 29.8497C8.19445 29.8326 7.74969 29.6616 7.42468 29.3365ZM9.39182 27.3694C9.20366 27.1812 8.94707 27.0615 8.67339 27.0615C8.39971 27.0615 8.14312 27.1812 7.95495 27.3694C7.76679 27.5576 7.64704 27.8142 7.64704 28.0878C7.64704 28.3615 7.76678 28.6181 7.95495 28.8063C8.14312 28.9944 8.39971 29.1142 8.67339 29.1142C8.94707 29.1142 9.20366 28.9944 9.39183 28.8063C9.57999 28.6181 9.69974 28.3615 9.69974 28.0878C9.69974 27.8142 9.57999 27.5576 9.39182 27.3694Z" fill="#0E1E36"/>
</svg>
