<svg width="1266" height="1117" viewBox="0 0 1266 1117" fill="none" xmlns="http://www.w3.org/2000/svg">
<g opacity="0.1">
<path d="M584.937 625.694C452.547 605.819 337.924 588.609 281.302 722.308C246.767 803.859 156.119 792.637 69.7264 781.943C-3.63489 772.863 -73.936 764.158 -104.441 812.857C-180.375 934.069 -226.031 945.041 -283.956 958.964C-338.751 972.133 -404.506 987.936 -517.1 1101.85C-526.651 1111.52 -527.615 1111.22 -528.884 1110.84C-530.143 1110.46 -531.67 1110.01 -539.797 1116.61L-539.484 1117C-531.564 1110.57 -530.177 1110.98 -529.033 1111.32C-527.601 1111.76 -526.514 1112.08 -516.75 1102.21C-404.254 988.39 -338.574 972.603 -283.844 959.451C-225.81 945.503 -180.067 934.512 -104.024 813.126C-73.6865 764.699 -3.54248 773.384 69.6591 782.445C156.232 793.161 247.072 804.405 281.756 722.507C338.224 589.166 452.667 606.349 584.856 626.193C739.88 649.468 919.28 676.403 1058.4 468.933L1057.98 468.653C919.047 675.857 739.815 648.947 584.937 625.694Z" fill="url(#paint0_linear_1057_10595)"/>
<path d="M580.17 602.193C442.802 581.569 323.872 563.711 265.106 702.475C229.324 786.971 135.353 775.34 45.793 764.251C-30.3401 754.826 -103.292 745.796 -134.977 796.37C-213.711 922.049 -261.043 933.424 -321.092 947.857C-377.941 961.519 -446.163 977.917 -562.969 1096.1C-572.822 1106.06 -573.789 1105.77 -575.064 1105.39C-576.398 1104.99 -578.018 1104.5 -586.496 1111.39L-586.011 1111.99C-577.847 1105.36 -576.443 1105.78 -575.286 1106.13C-573.761 1106.58 -572.601 1106.93 -562.419 1096.63C-445.765 978.609 -377.661 962.243 -320.91 948.603C-260.69 934.131 -213.221 922.721 -134.324 796.779C-102.903 746.62 -30.1859 755.622 45.6948 765.013C135.535 776.136 229.803 787.806 265.812 702.772C324.343 564.56 443.001 582.376 580.053 602.952C740.88 627.099 926.995 655.04 1071.33 439.79L1070.69 439.361C926.631 654.207 740.774 626.305 580.17 602.193Z" fill="url(#paint1_linear_1057_10595)"/>
<path d="M575.403 578.688C433.058 557.316 309.82 538.814 248.913 682.639C211.881 770.08 114.586 758.037 21.8594 746.558C-57.0398 736.792 -132.649 727.431 -165.511 779.886C-247.042 910.032 -296.049 921.808 -358.226 936.754C-417.129 950.909 -487.814 967.898 -608.835 1090.34C-618.991 1100.61 -619.963 1100.32 -621.244 1099.94C-622.654 1099.51 -624.363 1099 -633.197 1106.18L-632.544 1106.99C-624.136 1100.15 -622.715 1100.58 -621.544 1100.93C-619.924 1101.42 -618.694 1101.79 -608.098 1091.07C-487.284 968.84 -416.753 951.887 -357.982 937.762C-295.573 922.763 -246.383 910.942 -164.631 780.441C-132.122 728.549 -56.8352 737.868 21.7305 747.592C114.835 759.119 212.531 771.212 249.866 683.045C310.459 539.963 433.33 558.409 575.246 579.716C741.875 604.734 934.705 633.684 1084.26 410.649L1083.4 410.069C934.214 632.558 741.732 603.661 575.403 578.688Z" fill="url(#paint2_linear_1057_10595)"/>
<path d="M570.639 555.186C423.319 533.066 295.771 513.919 232.721 662.805C194.441 753.195 93.8224 740.74 -2.07397 728.869C-83.7419 718.757 -162.005 709.072 -196.042 763.404C-280.369 898.015 -331.052 910.194 -395.359 925.65C-456.314 940.299 -529.465 957.879 -654.698 1084.59C-665.154 1095.17 -666.132 1094.87 -667.418 1094.48C-668.904 1094.04 -670.706 1093.5 -679.892 1100.96L-679.068 1101.98C-670.417 1094.96 -668.979 1095.39 -667.794 1095.74C-666.082 1096.26 -664.778 1096.65 -653.764 1085.51C-528.792 959.067 -455.837 941.535 -395.048 926.925C-330.453 911.402 -279.54 899.166 -194.932 764.105C-161.335 710.479 -83.4785 720.117 -2.23096 730.175C94.1418 742.105 195.262 754.624 233.926 663.321C296.581 515.371 423.661 534.447 570.446 556.486C742.879 582.376 942.423 612.335 1097.2 381.514L1096.11 380.786C941.798 610.908 742.691 581.017 570.639 555.186Z" fill="url(#paint3_linear_1057_10595)"/>
<path d="M565.872 531.682C413.575 508.816 281.722 489.019 216.525 642.972C176.998 736.307 73.0555 723.438 -26.0077 711.177C-110.445 700.723 -191.359 690.707 -226.575 746.92C-313.699 885.995 -366.062 898.578 -432.492 914.544C-495.501 929.689 -571.116 947.863 -700.564 1078.83C-711.32 1089.71 -712.306 1089.42 -713.598 1089.03C-715.159 1088.56 -717.054 1087.99 -726.594 1095.75L-725.601 1096.98C-716.709 1089.75 -715.252 1090.19 -714.055 1090.55C-712.247 1091.09 -710.874 1091.5 -699.443 1079.94C-570.311 949.292 -494.932 931.177 -432.122 916.082C-365.341 900.033 -312.705 887.382 -225.238 747.764C-190.557 692.406 -110.128 702.36 -26.1982 712.749C73.4395 725.086 177.987 738.028 217.979 643.591C282.697 490.771 413.992 510.483 565.639 533.248C743.876 560.009 950.135 590.977 1110.12 352.371L1108.82 351.491C949.381 589.259 743.649 558.373 565.872 531.682Z" fill="url(#paint4_linear_1057_10595)"/>
<path d="M561.107 508.177C403.833 484.563 267.673 464.121 200.331 623.136C159.555 719.416 52.2886 706.138 -49.9414 693.482C-137.15 682.686 -220.718 672.342 -257.112 730.433C-347.033 873.972 -401.071 886.961 -469.629 903.437C-534.692 919.075 -612.77 937.838 -746.433 1073.07C-757.495 1084.26 -758.481 1083.96 -759.778 1083.57C-761.415 1083.08 -763.399 1082.49 -773.295 1090.53L-772.132 1091.97C-762.993 1084.54 -761.525 1084.98 -760.311 1085.35C-758.408 1085.92 -756.962 1086.35 -745.119 1074.37C-611.826 939.511 -534.025 920.81 -469.192 905.231C-400.225 888.657 -345.864 875.592 -255.545 731.413C-219.779 674.321 -136.78 684.595 -50.1685 695.317C52.7343 708.055 160.709 721.423 202.027 623.853C268.811 466.164 404.315 486.505 560.827 510.004C744.865 537.637 957.842 569.61 1123.05 323.225L1121.52 322.196C956.965 567.609 744.61 535.728 561.107 508.177Z" fill="url(#paint5_linear_1057_10595)"/>
<path d="M556.341 484.675C394.092 460.315 253.622 439.227 184.136 603.302C142.116 702.531 31.5228 688.841 -73.874 675.792C-163.851 664.655 -250.074 653.98 -287.641 713.954C-380.363 861.96 -436.076 875.351 -506.759 892.337C-573.876 908.468 -654.42 927.825 -792.295 1067.32C-803.657 1078.81 -804.649 1078.52 -805.955 1078.12C-807.667 1077.61 -809.744 1076.99 -819.993 1085.31L-818.661 1086.96C-809.281 1079.34 -807.793 1079.79 -806.568 1080.16C-804.573 1080.76 -803.054 1081.21 -790.793 1068.81C-653.341 929.742 -573.114 910.458 -506.262 894.394C-435.109 877.293 -379.026 863.813 -285.848 715.078C-248.995 656.25 -163.426 666.844 -74.1318 677.897C32.0386 691.038 143.438 704.829 186.084 604.126C254.931 441.564 394.647 462.538 556.024 486.768C745.866 515.273 965.555 548.255 1135.98 294.084L1134.23 292.905C964.546 545.96 745.566 513.084 556.341 484.675Z" fill="url(#paint6_linear_1057_10595)"/>
<path d="M551.572 461.173C384.349 436.065 239.569 414.329 167.939 583.469C124.671 685.643 10.7548 671.541 -97.8118 658.1C-190.555 646.618 -279.431 635.618 -318.179 697.467C-413.697 849.937 -471.087 863.731 -543.899 881.23C-613.07 897.855 -696.078 917.806 -838.168 1061.56C-849.832 1073.36 -850.83 1073.06 -852.141 1072.67C-853.93 1072.13 -856.099 1071.48 -866.7 1080.09L-865.198 1081.95C-855.575 1074.13 -854.07 1074.58 -852.831 1074.96C-850.74 1075.59 -849.151 1076.07 -836.473 1063.24C-694.862 919.964 -612.213 900.1 -543.341 883.551C-470.002 865.923 -412.195 852.031 -316.161 698.736C-278.224 638.177 -190.082 649.087 -98.106 660.471C11.3293 674.018 126.157 688.233 170.128 584.397C241.037 416.963 384.966 438.573 551.211 463.533C746.854 492.906 973.261 526.897 1148.91 264.944L1146.93 263.615C972.129 524.311 746.524 490.44 551.572 461.173Z" fill="url(#paint7_linear_1057_10595)"/>
<path d="M546.809 437.668C374.609 411.815 225.521 389.431 151.748 563.633C107.23 668.752 -10.0105 654.238 -121.744 640.408C-217.259 628.584 -308.786 617.253 -348.711 680.982C-447.026 837.92 -506.092 852.115 -581.031 870.127C-652.254 887.244 -737.73 907.787 -884.03 1055.8C-895.997 1067.91 -896.997 1067.61 -898.314 1067.22C-900.178 1066.66 -902.439 1065.98 -913.395 1074.88L-911.721 1076.95C-901.854 1068.93 -900.335 1069.39 -899.082 1069.76C-896.896 1070.42 -895.234 1070.92 -882.141 1057.67C-736.371 910.189 -651.295 889.741 -580.406 872.705C-504.878 854.553 -445.347 840.246 -346.461 682.395C-307.436 620.101 -216.727 631.33 -122.066 643.048C-9.36597 656.998 108.889 671.636 154.191 564.67C227.16 392.366 375.301 414.609 546.411 440.297C747.859 470.542 980.98 505.542 1161.85 235.806L1159.65 234.326C979.716 502.664 747.486 467.798 546.809 437.668Z" fill="url(#paint8_linear_1057_10595)"/>
<path d="M542.042 414.164C364.864 387.562 211.469 364.534 135.552 543.797C89.7865 651.861 -30.7748 636.938 -145.678 622.713C-243.962 610.547 -338.146 598.888 -379.247 664.498C-480.359 825.9 -541.101 840.499 -618.167 859.02C-691.447 876.631 -779.385 897.765 -929.899 1050.05C-942.168 1062.46 -943.175 1062.16 -944.497 1061.76C-946.437 1061.18 -948.791 1060.47 -960.099 1069.66L-958.258 1071.94C-948.146 1063.73 -946.61 1064.19 -945.344 1064.57C-943.065 1065.25 -941.33 1065.77 -927.822 1052.1C-777.894 900.413 -690.394 879.386 -617.483 861.862C-539.77 843.183 -478.515 828.462 -376.773 666.053C-336.663 602.027 -243.382 613.574 -146.039 625.622C-30.0714 639.976 91.6082 655.04 138.236 544.937C213.268 367.765 365.624 390.639 541.599 417.059C748.85 448.175 988.684 484.184 1174.77 206.663L1172.35 205.035C987.294 481.012 748.438 445.154 542.036 414.164H542.042Z" fill="url(#paint9_linear_1057_10595)"/>
<path d="M537.275 390.662C355.123 363.312 197.42 339.636 119.359 523.966C72.3467 634.976 -51.5411 619.638 -169.611 605.023C-270.664 592.513 -367.502 580.526 -409.778 648.014C-513.687 813.883 -576.107 828.885 -655.298 847.914C-730.629 866.021 -821.035 887.746 -975.762 1044.29C-988.334 1057.01 -989.343 1056.71 -990.674 1056.31C-992.689 1055.7 -995.133 1054.97 -1006.8 1064.44L-1004.78 1066.93C-994.429 1058.52 -992.877 1058.99 -991.596 1059.37C-989.222 1060.08 -987.42 1060.63 -973.492 1046.54C-819.404 890.638 -729.48 869.025 -654.549 851.016C-574.65 831.814 -511.672 816.68 -407.073 649.709C-365.877 583.948 -270.028 595.814 -170.001 608.198C-50.7678 622.956 74.3392 638.443 122.296 525.208C199.39 343.165 355.958 366.669 536.798 393.82C749.851 425.808 996.402 462.824 1187.71 177.522L1185.06 175.743C994.88 459.363 749.403 422.507 537.275 390.659V390.662Z" fill="url(#paint10_linear_1057_10595)"/>
<path d="M532.511 367.157C345.382 339.062 183.371 314.739 103.166 504.13C54.9043 618.086 -72.3046 602.338 -193.544 587.331C-297.366 574.479 -396.855 562.162 -440.311 631.529C-547.019 801.86 -611.113 817.266 -692.43 836.81C-769.816 855.408 -862.688 877.727 -1021.63 1038.54C-1034.5 1051.56 -1035.52 1051.25 -1036.85 1050.85C-1038.94 1050.22 -1041.48 1049.46 -1053.5 1059.23L-1051.32 1061.93C-1040.72 1053.31 -1039.15 1053.79 -1037.86 1054.17C-1035.39 1054.91 -1033.51 1055.48 -1019.17 1040.97C-860.92 880.86 -768.574 858.664 -691.623 840.171C-609.535 820.444 -544.836 804.893 -437.382 633.365C-395.098 565.869 -296.676 578.055 -193.97 590.767C-71.4694 605.934 57.0651 621.844 106.344 505.472C185.501 318.559 346.282 342.697 531.987 370.579C750.844 403.438 1004.11 441.463 1200.63 148.376L1197.76 146.445C1002.46 437.708 750.356 399.857 532.506 367.149L532.511 367.157Z" fill="url(#paint11_linear_1057_10595)"/>
<path d="M527.744 343.655C335.638 314.812 169.32 289.844 86.9707 484.297C37.4615 601.201 -93.071 585.041 -217.477 569.641C-324.068 556.447 -426.214 543.802 -470.847 615.048C-580.352 789.846 -646.121 805.655 -729.569 825.707C-809.009 844.801 -904.342 867.711 -1067.5 1032.78C-1080.67 1046.11 -1081.69 1045.81 -1083.03 1045.4C-1085.2 1044.75 -1087.83 1043.96 -1100.2 1054.01L-1097.85 1056.92C-1087.01 1048.11 -1085.42 1048.59 -1084.11 1048.98C-1081.55 1049.75 -1079.61 1050.34 -1064.84 1035.4C-902.439 871.088 -807.667 848.312 -728.695 829.333C-644.42 809.08 -577.998 793.117 -467.688 617.029C-424.32 547.802 -323.328 560.304 -217.937 573.349C-92.1714 588.917 39.7904 605.253 90.401 485.751C171.621 293.967 336.613 318.738 527.184 347.349C751.841 381.077 1011.82 420.111 1213.57 119.241L1210.47 117.162C1010.05 416.064 751.317 377.218 527.741 343.653L527.744 343.655Z" fill="url(#paint12_linear_1057_10595)"/>
<path d="M522.977 320.15C325.896 290.562 155.268 264.941 70.7749 464.46C20.0214 584.31 -113.838 567.741 -241.411 551.946C-350.773 538.407 -455.57 525.437 -501.38 598.563C-613.683 777.826 -681.131 794.038 -766.703 814.603C-848.197 834.19 -945.996 857.695 -1113.36 1027.03C-1126.84 1040.66 -1127.86 1040.35 -1129.21 1039.94C-1131.45 1039.27 -1134.17 1038.45 -1146.89 1048.8L-1144.37 1051.91C-1133.29 1042.91 -1131.69 1043.39 -1130.37 1043.79C-1127.71 1044.59 -1125.69 1045.19 -1110.52 1029.84C-943.95 861.315 -846.754 837.954 -765.764 818.49C-679.303 797.71 -611.158 781.332 -497.992 600.69C-453.539 529.728 -349.975 542.549 -241.901 555.926C-112.868 571.9 22.5184 588.659 74.4546 466.021C157.737 269.366 326.941 294.771 522.377 324.113C752.839 358.713 1019.53 398.755 1226.5 90.1035L1223.18 87.8726C1017.63 394.417 752.276 354.579 522.977 320.153V320.15Z" fill="url(#paint13_linear_1057_10595)"/>
<path d="M518.213 296.649C316.155 266.312 141.222 240.049 54.5822 444.627C2.57874 567.422 -134.604 550.441 -265.344 534.257C-377.473 520.376 -484.924 507.075 -531.911 582.082C-647.01 765.812 -716.134 782.425 -803.833 803.5C-887.381 823.583 -987.644 847.676 -1159.23 1021.27C-1173 1035.21 -1174.03 1034.9 -1175.39 1034.5C-1177.7 1033.8 -1180.52 1032.96 -1193.59 1043.58L-1190.9 1046.91C-1179.58 1037.71 -1177.96 1038.19 -1176.62 1038.59C-1173.87 1039.42 -1171.78 1040.05 -1156.19 1024.27C-985.464 851.543 -885.843 827.599 -802.832 807.65C-714.186 786.346 -644.317 769.553 -528.293 584.352C-482.752 511.658 -376.618 524.796 -265.863 538.506C-133.564 554.883 5.24939 572.066 58.514 446.294C143.859 244.771 317.276 270.807 517.577 300.881C753.84 336.352 1027.25 377.4 1239.43 60.9659L1235.89 58.5838C1025.22 372.771 753.24 331.935 518.216 296.652L518.213 296.649Z" fill="url(#paint14_linear_1057_10595)"/>
<path d="M513.445 273.144C306.412 242.062 127.167 215.152 38.3859 424.791C-14.8646 550.531 -155.371 533.139 -289.281 516.562C-404.181 502.339 -514.283 488.708 -562.45 565.592C-680.346 753.789 -751.146 770.803 -840.972 792.394C-926.575 812.967 -1029.3 837.657 -1205.1 1015.51C-1219.18 1029.76 -1220.21 1029.45 -1221.57 1029.04C-1223.97 1028.32 -1226.87 1027.45 -1240.3 1038.36L-1237.44 1041.9C-1225.87 1032.5 -1224.24 1032.99 -1222.88 1033.39C-1220.04 1034.25 -1217.87 1034.9 -1201.87 1018.7C-1026.98 841.763 -924.938 817.235 -839.907 796.799C-749.072 774.97 -677.479 757.763 -558.602 568.002C-511.977 493.573 -403.273 507.031 -289.836 521.074C-154.273 537.855 -12.0314 555.464 42.5587 426.559C129.966 220.166 307.595 246.831 512.761 277.637C754.828 313.98 1034.95 356.037 1252.36 31.8199L1248.59 29.2893C1032.8 351.119 754.192 309.288 513.442 273.144H513.445Z" fill="url(#paint15_linear_1057_10595)"/>
<path d="M-1283.97 1036.9C-1272.16 1027.3 -1270.5 1027.79 -1269.14 1028.2C-1266.2 1029.09 -1263.97 1029.76 -1247.54 1013.14C-1068.5 831.99 -964.028 806.882 -876.976 785.962C-783.955 763.606 -710.639 745.984 -588.906 551.666C-541.193 475.505 -429.919 489.279 -313.8 503.653C-174.972 520.841 -29.3032 538.873 26.6152 406.832C116.085 195.568 297.927 222.867 507.961 254.404C755.829 291.615 1042.67 334.682 1265.29 2.67908L1261.3 -0.00012207C1040.38 329.469 755.153 286.646 508.678 249.639C296.668 217.808 113.115 190.251 22.1901 404.955C-32.3075 533.643 -176.138 515.839 -313.214 498.869C-430.884 484.305 -543.64 470.346 -592.984 549.107C-713.679 741.769 -786.155 759.186 -878.108 781.287C-965.765 802.356 -1070.96 827.638 -1250.96 1009.76C-1265.35 1024.31 -1266.39 1024 -1267.75 1023.59C-1270.22 1022.85 -1273.21 1021.95 -1287 1033.15L-1283.97 1036.9H-1283.97Z" fill="url(#paint16_linear_1057_10595)"/>
</g>
<defs>
<linearGradient id="paint0_linear_1057_10595" x1="350.874" y1="875.168" x2="-296.621" y2="292.905" gradientUnits="userSpaceOnUse">
<stop offset="0.13" stop-color="white"/>
<stop offset="1" stop-color="#58595B"/>
</linearGradient>
<linearGradient id="paint1_linear_1057_10595" x1="351.852" y1="874.081" x2="-295.648" y2="291.817" gradientUnits="userSpaceOnUse">
<stop offset="0.13" stop-color="white"/>
<stop offset="1" stop-color="#58595B"/>
</linearGradient>
<linearGradient id="paint2_linear_1057_10595" x1="352.828" y1="872.996" x2="-294.673" y2="290.727" gradientUnits="userSpaceOnUse">
<stop offset="0.13" stop-color="white"/>
<stop offset="1" stop-color="#58595B"/>
</linearGradient>
<linearGradient id="paint3_linear_1057_10595" x1="353.806" y1="871.909" x2="-293.689" y2="289.642" gradientUnits="userSpaceOnUse">
<stop offset="0.13" stop-color="white"/>
<stop offset="1" stop-color="#58595B"/>
</linearGradient>
<linearGradient id="paint4_linear_1057_10595" x1="354.784" y1="870.822" x2="-292.714" y2="288.555" gradientUnits="userSpaceOnUse">
<stop offset="0.13" stop-color="white"/>
<stop offset="1" stop-color="#58595B"/>
</linearGradient>
<linearGradient id="paint5_linear_1057_10595" x1="355.761" y1="869.734" x2="-291.737" y2="287.468" gradientUnits="userSpaceOnUse">
<stop offset="0.13" stop-color="white"/>
<stop offset="1" stop-color="#58595B"/>
</linearGradient>
<linearGradient id="paint6_linear_1057_10595" x1="356.738" y1="868.647" x2="-290.76" y2="286.383" gradientUnits="userSpaceOnUse">
<stop offset="0.13" stop-color="white"/>
<stop offset="1" stop-color="#58595B"/>
</linearGradient>
<linearGradient id="paint7_linear_1057_10595" x1="357.714" y1="867.56" x2="-289.784" y2="285.293" gradientUnits="userSpaceOnUse">
<stop offset="0.13" stop-color="white"/>
<stop offset="1" stop-color="#58595B"/>
</linearGradient>
<linearGradient id="paint8_linear_1057_10595" x1="358.694" y1="866.472" x2="-288.804" y2="284.208" gradientUnits="userSpaceOnUse">
<stop offset="0.13" stop-color="white"/>
<stop offset="1" stop-color="#58595B"/>
</linearGradient>
<linearGradient id="paint9_linear_1057_10595" x1="359.671" y1="865.385" x2="-287.827" y2="283.121" gradientUnits="userSpaceOnUse">
<stop offset="0.13" stop-color="white"/>
<stop offset="1" stop-color="#58595B"/>
</linearGradient>
<linearGradient id="paint10_linear_1057_10595" x1="360.649" y1="864.3" x2="-286.849" y2="282.034" gradientUnits="userSpaceOnUse">
<stop offset="0.13" stop-color="white"/>
<stop offset="1" stop-color="#58595B"/>
</linearGradient>
<linearGradient id="paint11_linear_1057_10595" x1="361.628" y1="863.213" x2="-285.87" y2="280.946" gradientUnits="userSpaceOnUse">
<stop offset="0.13" stop-color="white"/>
<stop offset="1" stop-color="#58595B"/>
</linearGradient>
<linearGradient id="paint12_linear_1057_10595" x1="362.603" y1="862.126" x2="-284.895" y2="279.859" gradientUnits="userSpaceOnUse">
<stop offset="0.13" stop-color="white"/>
<stop offset="1" stop-color="#58595B"/>
</linearGradient>
<linearGradient id="paint13_linear_1057_10595" x1="363.581" y1="861.038" x2="-283.917" y2="278.771" gradientUnits="userSpaceOnUse">
<stop offset="0.13" stop-color="white"/>
<stop offset="1" stop-color="#58595B"/>
</linearGradient>
<linearGradient id="paint14_linear_1057_10595" x1="364.56" y1="859.951" x2="-282.938" y2="277.684" gradientUnits="userSpaceOnUse">
<stop offset="0.13" stop-color="white"/>
<stop offset="1" stop-color="#58595B"/>
</linearGradient>
<linearGradient id="paint15_linear_1057_10595" x1="365.537" y1="858.864" x2="-281.961" y2="276.6" gradientUnits="userSpaceOnUse">
<stop offset="0.13" stop-color="white"/>
<stop offset="1" stop-color="#58595B"/>
</linearGradient>
<linearGradient id="paint16_linear_1057_10595" x1="366.515" y1="857.776" x2="-280.986" y2="275.509" gradientUnits="userSpaceOnUse">
<stop offset="0.13" stop-color="white"/>
<stop offset="1" stop-color="#58595B"/>
</linearGradient>
</defs>
</svg>
